;TYPE=PLATED
;Layer: PTH_Through
;EasyEDA Pro v3.2.87, 2026-02-03 17:42:01
;Gerber Generator version 0.3
M48
METRIC,LZ,0000.00000
;Hole size 1 = 0.30500 METRIC
T01C0.30500
;Hole size 2 = 0.90002 METRIC
T02C0.90002
;Hole size 3 = 1.00000 METRIC
T03C1.00000
;Hole size 4 = 1.10002 METRIC
T04C1.10002
;Hole size 5 = 1.30002 METRIC
T05C1.30002
;Hole size 6 = 3.42900 METRIC
T06C3.42900
%
G05
G90
T01
X26.83149Y-39.78549
X70.155Y-31.0515
X54.483Y-28.575
X54.483Y-24.638
X40.513Y-40.132
X43.307Y-53.467
X41.529Y-54.991
X43.18Y-56.642
X42.037Y-53.721
X44.45Y-50.165
X39.24301Y-46.609
X44.069Y-43.307
X65.405Y-20.955
X63.754Y-23.495
X64.643Y-25.654
X69.215Y-63.627
X71.247Y-59.944
X68.961Y-37.846
X59.436Y-42.037
T02
X29.464Y-66.548
X29.464Y-69.088
T03
X39.24301Y-36.95701
X36.70301Y-36.95701
X34.16301Y-36.95701
X31.62301Y-36.95701
X29.08301Y-36.95701
X26.54301Y-36.95701
X24.00301Y-36.95701
X21.46301Y-36.95701
X39.24301Y-52.19701
X36.70301Y-52.19701
X34.16301Y-52.19701
X31.62301Y-52.19701
X29.08301Y-52.19701
X26.54301Y-52.19701
X24.00301Y-52.19701
X21.46301Y-52.19701
X39.243Y-21.717
X36.703Y-21.717
X34.163Y-21.717
X31.623Y-21.717
X29.083Y-21.717
X26.543Y-21.717
X24.003Y-21.717
X21.463Y-21.717
X61.46797Y-78.86695
X61.46797Y-76.32695
X61.46797Y-73.78695
X61.46797Y-71.24695
X61.46797Y-68.70697
X61.46797Y-66.16697
X61.46797Y-63.62697
X61.46797Y-61.08697
X61.46797Y-58.54697
X61.46797Y-56.007
X61.46797Y-53.467
X61.46797Y-50.927
X61.46797Y-48.387
X61.46797Y-45.847
X61.46797Y-43.30703
X61.46797Y-40.76703
X61.46797Y-38.22703
X61.46797Y-35.68703
X61.46797Y-33.14703
X61.46797Y-30.60705
X46.228Y-30.60705
X46.228Y-33.14703
X46.228Y-35.68703
X46.228Y-38.22703
X46.228Y-40.76703
X46.228Y-43.30703
X46.228Y-45.847
X46.228Y-48.387
X46.228Y-50.927
X46.228Y-53.467
X46.228Y-56.007
X46.228Y-58.54697
X46.228Y-61.08697
X46.228Y-63.62697
X46.228Y-66.16697
X46.228Y-68.70697
X46.228Y-71.24695
X46.228Y-73.78695
X46.228Y-76.32695
X46.228Y-78.86695
T04
X83.185Y-31.877
X83.185Y-29.337
X83.185Y-26.797
X83.185Y-24.257
X83.185Y-12.446
X83.185Y-14.986
X83.185Y-17.526
X83.185Y-20.066
X73.279Y-8.128
X73.279Y-10.668
X73.279Y-13.208
X73.279Y-15.748
X73.279Y-18.288
X73.279Y-20.828
X73.279Y-23.368
X73.279Y-25.908
X73.279Y-28.448
X73.279Y-30.988
T05
X76.835Y-68.199
X76.835Y-63.119
X76.835Y-80.899
X76.835Y-75.819
X13.335Y-50.419
X13.335Y-55.499
X13.335Y-75.819
X13.335Y-80.899
X13.335Y-63.119
X13.335Y-68.199
X76.835Y-42.799
X76.835Y-37.719
X13.335Y-12.319
X13.335Y-17.399
X13.335Y-25.019
X13.335Y-30.099
X13.335Y-37.719
X13.335Y-42.799
X76.835Y-55.499
X76.835Y-50.419
T06
X4.699Y-7.62
X85.471Y-7.112
X4.826Y-87.884
X85.471Y-87.503
M30