G04 Layer: TopSilkscreenLayer*
G04 EasyEDA Pro v3.2.87, 2026-02-03 17:42:00*
G04 Gerber Generator version 0.3*
G04 Scale: 100 percent, Rotated: No, Reflected: No*
G04 Dimensions in millimeters*
G04 Leading zeros omitted, absolute positions, 4 integers and 5 decimals*
G04 Generated by one-click*
%FSLAX45Y45*%
%MOMM*%
%ADD10C,0.1524*%
%ADD11C,0.254*%
%ADD12C,0.0759*%
G75*


G04 Text Start*
G54D10*
G01X1861820Y-1167892D02*
G01X1861820Y-1324356D01*
G01X1861820Y-1167892D02*
G01X1928876Y-1167892D01*
G01X1951482Y-1175258D01*
G01X1958848Y-1182624D01*
G01X1966214Y-1197610D01*
G01X1966214Y-1212596D01*
G01X1958848Y-1227582D01*
G01X1951482Y-1234948D01*
G01X1928876Y-1242314D01*
G01X1861820Y-1242314D02*
G01X1928876Y-1242314D01*
G01X1951482Y-1249934D01*
G01X1958848Y-1257300D01*
G01X1966214Y-1272286D01*
G01X1966214Y-1294638D01*
G01X1958848Y-1309624D01*
G01X1951482Y-1316990D01*
G01X1928876Y-1324356D01*
G01X1861820Y-1324356D01*
G01X2017268Y-1197610D02*
G01X2032254Y-1190244D01*
G01X2054606Y-1167892D01*
G01X2054606Y-1324356D01*
G01X1836420Y-1701292D02*
G01X1896110Y-1775714D01*
G01X1896110Y-1857756D01*
G01X1955800Y-1701292D02*
G01X1896110Y-1775714D01*
G01X2006854Y-1731010D02*
G01X2021840Y-1723644D01*
G01X2044192Y-1701292D01*
G01X2044192Y-1857756D01*
G36*
G01X468097Y-2584490D02*
G01X470599Y-2585356D01*
G01X478103Y-2585645D01*
G01X488109Y-2585645D01*
G01X488109Y-2583721D01*
G01X488494Y-2580642D01*
G01X493112Y-2548315D01*
G01X493882Y-2542157D01*
G01X500039Y-2499054D01*
G01X500809Y-2492896D01*
G01X505427Y-2460569D01*
G01X506967Y-2459030D01*
G01X507833Y-2459222D01*
G01X508121Y-2460569D01*
G01X508506Y-2463648D01*
G01X512355Y-2490587D01*
G01X513124Y-2496745D01*
G01X519282Y-2539848D01*
G01X520052Y-2546006D01*
G01X525439Y-2583721D01*
G01X526979Y-2585260D01*
G01X536985Y-2585645D01*
G01X545836Y-2585645D01*
G01X545836Y-2582951D01*
G01X546221Y-2579103D01*
G01X549300Y-2554472D01*
G01X550070Y-2549084D01*
G01X554688Y-2512139D01*
G01X555458Y-2506751D01*
G01X560076Y-2469806D01*
G01X560845Y-2464418D01*
G01X566233Y-2421315D01*
G01X567003Y-2415927D01*
G01X567003Y-2414965D01*
G01X566233Y-2414387D01*
G01X555458Y-2414003D01*
G01X545836Y-2414003D01*
G01X545452Y-2416696D01*
G01X545067Y-2421315D01*
G01X544682Y-2424393D01*
G01X541603Y-2455181D01*
G01X540833Y-2462109D01*
G01X535445Y-2515987D01*
G01X535061Y-2519451D01*
G01X534772Y-2521087D01*
G01X533906Y-2521375D01*
G01X532367Y-2519066D01*
G01X531982Y-2515603D01*
G01X529288Y-2496745D01*
G01X528518Y-2490587D01*
G01X526979Y-2479812D01*
G01X526209Y-2473654D01*
G01X523900Y-2457490D01*
G01X523130Y-2451333D01*
G01X520821Y-2435169D01*
G01X520052Y-2429012D01*
G01X518127Y-2415542D01*
G01X515337Y-2414387D01*
G01X506967Y-2414003D01*
G01X495806Y-2414003D01*
G01X495806Y-2416312D01*
G01X495421Y-2419775D01*
G01X493112Y-2435939D01*
G01X492342Y-2442096D01*
G01X490033Y-2458260D01*
G01X489264Y-2464418D01*
G01X486955Y-2480581D01*
G01X486185Y-2486739D01*
G01X484645Y-2497515D01*
G01X483876Y-2503672D01*
G01X481567Y-2519836D01*
G01X480027Y-2521375D01*
G01X479161Y-2520894D01*
G01X478873Y-2518681D01*
G01X478488Y-2514448D01*
G01X477718Y-2507521D01*
G01X469252Y-2422854D01*
G01X468482Y-2415927D01*
G01X466942Y-2414387D01*
G01X456167Y-2414003D01*
G01X446545Y-2414003D01*
G01X446545Y-2415927D01*
G01X448470Y-2431321D01*
G01X449239Y-2436709D01*
G01X453858Y-2473654D01*
G01X454627Y-2479042D01*
G01X460015Y-2522145D01*
G01X460785Y-2527533D01*
G01X465403Y-2564478D01*
G01X466173Y-2569866D01*
G01X467712Y-2582181D01*
G01X468097Y-2584490D01*
G37*
G36*
G01X628194Y-2514448D02*
G01X628194Y-2582566D01*
G01X647436Y-2582566D01*
G01X647436Y-2411693D01*
G01X635891Y-2411693D01*
G01X634736Y-2413618D01*
G01X632812Y-2416312D01*
G01X628194Y-2422084D01*
G01X626270Y-2424009D01*
G01X621652Y-2429396D01*
G01X615879Y-2435169D01*
G01X612030Y-2438248D01*
G01X608182Y-2442096D01*
G01X606258Y-2443636D01*
G01X603179Y-2445560D01*
G01X597021Y-2450178D01*
G01X595097Y-2451718D01*
G01X595097Y-2470190D01*
G01X596636Y-2469421D01*
G01X602794Y-2465572D01*
G01X606258Y-2463263D01*
G01X610106Y-2460569D01*
G01X612800Y-2458645D01*
G01X618573Y-2454027D01*
G01X620497Y-2452103D01*
G01X624345Y-2449024D01*
G01X626655Y-2447099D01*
G01X628194Y-2446330D01*
G01X628194Y-2514448D01*
G37*
G01X452120Y-2907792D02*
G01X452120Y-3064256D01*
G01X452120Y-2907792D02*
G01X519176Y-2907792D01*
G01X541782Y-2915158D01*
G01X549148Y-2922524D01*
G01X556514Y-2937510D01*
G01X556514Y-2952496D01*
G01X549148Y-2967482D01*
G01X541782Y-2974848D01*
G01X519176Y-2982214D01*
G01X452120Y-2982214D01*
G01X504444Y-2982214D02*
G01X556514Y-3064256D01*
G01X607568Y-2937510D02*
G01X622554Y-2930144D01*
G01X644906Y-2907792D01*
G01X644906Y-3064256D01*
G01X399034Y-3732276D02*
G01X391414Y-3717544D01*
G01X376682Y-3702558D01*
G01X361696Y-3695192D01*
G01X331724Y-3695192D01*
G01X316992Y-3702558D01*
G01X302006Y-3717544D01*
G01X294386Y-3732276D01*
G01X287020Y-3754882D01*
G01X287020Y-3791966D01*
G01X294386Y-3814572D01*
G01X302006Y-3829304D01*
G01X316992Y-3844290D01*
G01X331724Y-3851656D01*
G01X361696Y-3851656D01*
G01X376682Y-3844290D01*
G01X391414Y-3829304D01*
G01X399034Y-3814572D01*
G01X399034Y-3791966D01*
G01X361696Y-3791966D02*
G01X399034Y-3791966D01*
G01X450088Y-3695192D02*
G01X450088Y-3851656D01*
G01X450088Y-3695192D02*
G01X554482Y-3851656D01*
G01X554482Y-3695192D02*
G01X554482Y-3851656D01*
G01X605536Y-3695192D02*
G01X605536Y-3851656D01*
G01X605536Y-3695192D02*
G01X657860Y-3695192D01*
G01X680212Y-3702558D01*
G01X695198Y-3717544D01*
G01X702564Y-3732276D01*
G01X709930Y-3754882D01*
G01X709930Y-3791966D01*
G01X702564Y-3814572D01*
G01X695198Y-3829304D01*
G01X680212Y-3844290D01*
G01X657860Y-3851656D01*
G01X605536Y-3851656D01*
G01X455676Y-4177792D02*
G01X381000Y-4177792D01*
G01X373380Y-4244848D01*
G01X381000Y-4237482D01*
G01X403352Y-4229862D01*
G01X425704Y-4229862D01*
G01X448056Y-4237482D01*
G01X463042Y-4252214D01*
G01X470408Y-4274566D01*
G01X470408Y-4289552D01*
G01X463042Y-4311904D01*
G01X448056Y-4326890D01*
G01X425704Y-4334256D01*
G01X403352Y-4334256D01*
G01X381000Y-4326890D01*
G01X373380Y-4319524D01*
G01X366014Y-4304538D01*
G01X521462Y-4177792D02*
G01X581152Y-4334256D01*
G01X640842Y-4177792D02*
G01X581152Y-4334256D01*
G01X348234Y-4989576D02*
G01X340614Y-4974844D01*
G01X325882Y-4959858D01*
G01X310896Y-4952492D01*
G01X280924Y-4952492D01*
G01X266192Y-4959858D01*
G01X251206Y-4974844D01*
G01X243586Y-4989576D01*
G01X236220Y-5012182D01*
G01X236220Y-5049266D01*
G01X243586Y-5071872D01*
G01X251206Y-5086604D01*
G01X266192Y-5101590D01*
G01X280924Y-5108956D01*
G01X310896Y-5108956D01*
G01X325882Y-5101590D01*
G01X340614Y-5086604D01*
G01X348234Y-5071872D01*
G01X348234Y-5049266D01*
G01X310896Y-5049266D02*
G01X348234Y-5049266D01*
G01X399288Y-4952492D02*
G01X399288Y-5108956D01*
G01X399288Y-4952492D02*
G01X503682Y-5108956D01*
G01X503682Y-4952492D02*
G01X503682Y-5108956D01*
G01X554736Y-4952492D02*
G01X554736Y-5108956D01*
G01X554736Y-4952492D02*
G01X607060Y-4952492D01*
G01X629412Y-4959858D01*
G01X644398Y-4974844D01*
G01X651764Y-4989576D01*
G01X659130Y-5012182D01*
G01X659130Y-5049266D01*
G01X651764Y-5071872D01*
G01X644398Y-5086604D01*
G01X629412Y-5101590D01*
G01X607060Y-5108956D01*
G01X554736Y-5108956D01*
G01X417576Y-5498592D02*
G01X342900Y-5498592D01*
G01X335280Y-5565648D01*
G01X342900Y-5558282D01*
G01X365252Y-5550662D01*
G01X387604Y-5550662D01*
G01X409956Y-5558282D01*
G01X424942Y-5573014D01*
G01X432308Y-5595366D01*
G01X432308Y-5610352D01*
G01X424942Y-5632704D01*
G01X409956Y-5647690D01*
G01X387604Y-5655056D01*
G01X365252Y-5655056D01*
G01X342900Y-5647690D01*
G01X335280Y-5640324D01*
G01X327914Y-5625338D01*
G01X483362Y-5498592D02*
G01X543052Y-5655056D01*
G01X602742Y-5498592D02*
G01X543052Y-5655056D01*
G01X391414Y-6197092D02*
G01X391414Y-6353556D01*
G01X391414Y-6197092D02*
G01X458470Y-6197092D01*
G01X481076Y-6204458D01*
G01X488442Y-6211824D01*
G01X495808Y-6226810D01*
G01X495808Y-6241796D01*
G01X488442Y-6256782D01*
G01X481076Y-6264148D01*
G01X458470Y-6271514D01*
G01X391414Y-6271514D01*
G01X443738Y-6271514D02*
G01X495808Y-6353556D01*
G01X554228Y-6234176D02*
G01X554228Y-6226810D01*
G01X561848Y-6211824D01*
G01X569214Y-6204458D01*
G01X584200Y-6197092D01*
G01X613918Y-6197092D01*
G01X628904Y-6204458D01*
G01X636524Y-6211824D01*
G01X643890Y-6226810D01*
G01X643890Y-6241796D01*
G01X636524Y-6256782D01*
G01X621538Y-6279134D01*
G01X546862Y-6353556D01*
G01X651256Y-6353556D01*
G01X366014Y-6705092D02*
G01X403352Y-6861556D01*
G01X440690Y-6705092D02*
G01X403352Y-6861556D01*
G01X440690Y-6705092D02*
G01X478028Y-6861556D01*
G01X515366Y-6705092D02*
G01X478028Y-6861556D01*
G01X573786Y-6742176D02*
G01X573786Y-6734810D01*
G01X581406Y-6719824D01*
G01X588772Y-6712458D01*
G01X603758Y-6705092D01*
G01X633476Y-6705092D01*
G01X648462Y-6712458D01*
G01X656082Y-6719824D01*
G01X663448Y-6734810D01*
G01X663448Y-6749796D01*
G01X656082Y-6764782D01*
G01X641096Y-6787134D01*
G01X566420Y-6861556D01*
G01X670814Y-6861556D01*
G01X378714Y-7517892D02*
G01X438404Y-7592314D01*
G01X438404Y-7674356D01*
G01X498094Y-7517892D02*
G01X438404Y-7592314D01*
G01X556514Y-7554976D02*
G01X556514Y-7547610D01*
G01X564134Y-7532624D01*
G01X571500Y-7525258D01*
G01X586486Y-7517892D01*
G01X616204Y-7517892D01*
G01X631190Y-7525258D01*
G01X638810Y-7532624D01*
G01X646176Y-7547610D01*
G01X646176Y-7562596D01*
G01X638810Y-7577582D01*
G01X623824Y-7599934D01*
G01X549148Y-7674356D01*
G01X653542Y-7674356D01*
G01X388620Y-8000492D02*
G01X388620Y-8156956D01*
G01X388620Y-8000492D02*
G01X455676Y-8000492D01*
G01X478282Y-8007858D01*
G01X485648Y-8015224D01*
G01X493014Y-8030210D01*
G01X493014Y-8045196D01*
G01X485648Y-8060182D01*
G01X478282Y-8067548D01*
G01X455676Y-8074914D01*
G01X388620Y-8074914D02*
G01X455676Y-8074914D01*
G01X478282Y-8082534D01*
G01X485648Y-8089900D01*
G01X493014Y-8104886D01*
G01X493014Y-8127238D01*
G01X485648Y-8142224D01*
G01X478282Y-8149590D01*
G01X455676Y-8156956D01*
G01X388620Y-8156956D01*
G01X551434Y-8037576D02*
G01X551434Y-8030210D01*
G01X559054Y-8015224D01*
G01X566420Y-8007858D01*
G01X581406Y-8000492D01*
G01X611124Y-8000492D01*
G01X626110Y-8007858D01*
G01X633730Y-8015224D01*
G01X641096Y-8030210D01*
G01X641096Y-8045196D01*
G01X633730Y-8060182D01*
G01X618744Y-8082534D01*
G01X544068Y-8156956D01*
G01X648462Y-8156956D01*
G01X3173476Y-6956044D02*
G01X3173476Y-7090156D01*
G01X3106420Y-7023100D02*
G01X3240786Y-7023100D01*
G01X2700020Y-6413500D02*
G01X2834386Y-6413500D01*
G01X8504428Y-8088376D02*
G01X8496808Y-8073644D01*
G01X8482076Y-8058658D01*
G01X8467090Y-8051292D01*
G01X8437118Y-8051292D01*
G01X8422386Y-8058658D01*
G01X8407400Y-8073644D01*
G01X8399780Y-8088376D01*
G01X8392414Y-8110982D01*
G01X8392414Y-8148066D01*
G01X8399780Y-8170672D01*
G01X8407400Y-8185404D01*
G01X8422386Y-8200390D01*
G01X8437118Y-8207756D01*
G01X8467090Y-8207756D01*
G01X8482076Y-8200390D01*
G01X8496808Y-8185404D01*
G01X8504428Y-8170672D01*
G01X8504428Y-8148066D01*
G01X8467090Y-8148066D02*
G01X8504428Y-8148066D01*
G01X8555482Y-8051292D02*
G01X8555482Y-8207756D01*
G01X8555482Y-8051292D02*
G01X8659876Y-8207756D01*
G01X8659876Y-8051292D02*
G01X8659876Y-8207756D01*
G01X8710930Y-8051292D02*
G01X8710930Y-8207756D01*
G01X8710930Y-8051292D02*
G01X8763254Y-8051292D01*
G01X8785606Y-8058658D01*
G01X8800592Y-8073644D01*
G01X8807958Y-8088376D01*
G01X8815324Y-8110982D01*
G01X8815324Y-8148066D01*
G01X8807958Y-8170672D01*
G01X8800592Y-8185404D01*
G01X8785606Y-8200390D01*
G01X8763254Y-8207756D01*
G01X8710930Y-8207756D01*
G01X8366252Y-7516368D02*
G01X8366252Y-7622032D01*
G01X8313420Y-7569200D02*
G01X8419084Y-7569200D01*
G01X8462518Y-7522210D02*
G01X8474202Y-7516368D01*
G01X8491982Y-7498842D01*
G01X8491982Y-7622032D01*
G01X8541258Y-7528052D02*
G01X8541258Y-7522210D01*
G01X8547100Y-7510526D01*
G01X8552942Y-7504684D01*
G01X8564880Y-7498842D01*
G01X8588248Y-7498842D01*
G01X8599932Y-7504684D01*
G01X8606028Y-7510526D01*
G01X8611870Y-7522210D01*
G01X8611870Y-7533894D01*
G01X8606028Y-7545832D01*
G01X8594090Y-7563358D01*
G01X8535416Y-7622032D01*
G01X8617712Y-7622032D01*
G01X8661146Y-7498842D02*
G01X8708136Y-7622032D01*
G01X8755126Y-7498842D02*
G01X8708136Y-7622032D01*
G01X8798560Y-7498842D02*
G01X8798560Y-7622032D01*
G01X8453628Y-6704076D02*
G01X8446008Y-6689344D01*
G01X8431276Y-6674358D01*
G01X8416290Y-6666992D01*
G01X8386318Y-6666992D01*
G01X8371586Y-6674358D01*
G01X8356600Y-6689344D01*
G01X8348980Y-6704076D01*
G01X8341614Y-6726682D01*
G01X8341614Y-6763766D01*
G01X8348980Y-6786372D01*
G01X8356600Y-6801104D01*
G01X8371586Y-6816090D01*
G01X8386318Y-6823456D01*
G01X8416290Y-6823456D01*
G01X8431276Y-6816090D01*
G01X8446008Y-6801104D01*
G01X8453628Y-6786372D01*
G01X8453628Y-6763766D01*
G01X8416290Y-6763766D02*
G01X8453628Y-6763766D01*
G01X8504682Y-6666992D02*
G01X8504682Y-6823456D01*
G01X8504682Y-6666992D02*
G01X8609076Y-6823456D01*
G01X8609076Y-6666992D02*
G01X8609076Y-6823456D01*
G01X8660130Y-6666992D02*
G01X8660130Y-6823456D01*
G01X8660130Y-6666992D02*
G01X8712454Y-6666992D01*
G01X8734806Y-6674358D01*
G01X8749792Y-6689344D01*
G01X8757158Y-6704076D01*
G01X8764524Y-6726682D01*
G01X8764524Y-6763766D01*
G01X8757158Y-6786372D01*
G01X8749792Y-6801104D01*
G01X8734806Y-6816090D01*
G01X8712454Y-6823456D01*
G01X8660130Y-6823456D01*
G01X8353552Y-6259068D02*
G01X8353552Y-6364732D01*
G01X8300720Y-6311900D02*
G01X8406384Y-6311900D01*
G01X8449818Y-6264910D02*
G01X8461502Y-6259068D01*
G01X8479282Y-6241542D01*
G01X8479282Y-6364732D01*
G01X8528558Y-6270752D02*
G01X8528558Y-6264910D01*
G01X8534400Y-6253226D01*
G01X8540242Y-6247384D01*
G01X8552180Y-6241542D01*
G01X8575548Y-6241542D01*
G01X8587232Y-6247384D01*
G01X8593328Y-6253226D01*
G01X8599170Y-6264910D01*
G01X8599170Y-6276594D01*
G01X8593328Y-6288532D01*
G01X8581390Y-6306058D01*
G01X8522716Y-6364732D01*
G01X8605012Y-6364732D01*
G01X8648446Y-6241542D02*
G01X8695436Y-6364732D01*
G01X8742426Y-6241542D02*
G01X8695436Y-6364732D01*
G01X8821166Y-6241542D02*
G01X8809482Y-6247384D01*
G01X8797544Y-6259068D01*
G01X8791702Y-6270752D01*
G01X8785860Y-6288532D01*
G01X8785860Y-6317742D01*
G01X8791702Y-6335522D01*
G01X8797544Y-6347206D01*
G01X8809482Y-6358890D01*
G01X8821166Y-6364732D01*
G01X8844534Y-6364732D01*
G01X8856472Y-6358890D01*
G01X8868156Y-6347206D01*
G01X8873998Y-6335522D01*
G01X8879840Y-6317742D01*
G01X8879840Y-6288532D01*
G01X8873998Y-6270752D01*
G01X8868156Y-6259068D01*
G01X8856472Y-6247384D01*
G01X8844534Y-6241542D01*
G01X8821166Y-6241542D01*
G01X8453628Y-5446776D02*
G01X8446008Y-5432044D01*
G01X8431276Y-5417058D01*
G01X8416290Y-5409692D01*
G01X8386318Y-5409692D01*
G01X8371586Y-5417058D01*
G01X8356600Y-5432044D01*
G01X8348980Y-5446776D01*
G01X8341614Y-5469382D01*
G01X8341614Y-5506466D01*
G01X8348980Y-5529072D01*
G01X8356600Y-5543804D01*
G01X8371586Y-5558790D01*
G01X8386318Y-5566156D01*
G01X8416290Y-5566156D01*
G01X8431276Y-5558790D01*
G01X8446008Y-5543804D01*
G01X8453628Y-5529072D01*
G01X8453628Y-5506466D01*
G01X8416290Y-5506466D02*
G01X8453628Y-5506466D01*
G01X8504682Y-5409692D02*
G01X8504682Y-5566156D01*
G01X8504682Y-5409692D02*
G01X8609076Y-5566156D01*
G01X8609076Y-5409692D02*
G01X8609076Y-5566156D01*
G01X8660130Y-5409692D02*
G01X8660130Y-5566156D01*
G01X8660130Y-5409692D02*
G01X8712454Y-5409692D01*
G01X8734806Y-5417058D01*
G01X8749792Y-5432044D01*
G01X8757158Y-5446776D01*
G01X8764524Y-5469382D01*
G01X8764524Y-5506466D01*
G01X8757158Y-5529072D01*
G01X8749792Y-5543804D01*
G01X8734806Y-5558790D01*
G01X8712454Y-5566156D01*
G01X8660130Y-5566156D01*
G01X8340852Y-5014468D02*
G01X8340852Y-5120132D01*
G01X8288020Y-5067300D02*
G01X8393684Y-5067300D01*
G01X8507730Y-4996942D02*
G01X8448802Y-4996942D01*
G01X8442960Y-5049774D01*
G01X8448802Y-5043932D01*
G01X8466582Y-5037836D01*
G01X8484108Y-5037836D01*
G01X8501634Y-5043932D01*
G01X8513572Y-5055616D01*
G01X8519414Y-5073142D01*
G01X8519414Y-5084826D01*
G01X8513572Y-5102606D01*
G01X8501634Y-5114290D01*
G01X8484108Y-5120132D01*
G01X8466582Y-5120132D01*
G01X8448802Y-5114290D01*
G01X8442960Y-5108448D01*
G01X8437118Y-5096764D01*
G01X8562848Y-4996942D02*
G01X8609838Y-5120132D01*
G01X8656828Y-4996942D02*
G01X8609838Y-5120132D01*
G01X8735568Y-4996942D02*
G01X8723884Y-5002784D01*
G01X8711946Y-5014468D01*
G01X8706104Y-5026152D01*
G01X8700262Y-5043932D01*
G01X8700262Y-5073142D01*
G01X8706104Y-5090922D01*
G01X8711946Y-5102606D01*
G01X8723884Y-5114290D01*
G01X8735568Y-5120132D01*
G01X8758936Y-5120132D01*
G01X8770874Y-5114290D01*
G01X8782558Y-5102606D01*
G01X8788400Y-5090922D01*
G01X8794242Y-5073142D01*
G01X8794242Y-5043932D01*
G01X8788400Y-5026152D01*
G01X8782558Y-5014468D01*
G01X8770874Y-5002784D01*
G01X8758936Y-4996942D01*
G01X8735568Y-4996942D01*
G01X8491728Y-4202176D02*
G01X8484108Y-4187444D01*
G01X8469376Y-4172458D01*
G01X8454390Y-4165092D01*
G01X8424418Y-4165092D01*
G01X8409686Y-4172458D01*
G01X8394700Y-4187444D01*
G01X8387080Y-4202176D01*
G01X8379714Y-4224782D01*
G01X8379714Y-4261866D01*
G01X8387080Y-4284472D01*
G01X8394700Y-4299204D01*
G01X8409686Y-4314190D01*
G01X8424418Y-4321556D01*
G01X8454390Y-4321556D01*
G01X8469376Y-4314190D01*
G01X8484108Y-4299204D01*
G01X8491728Y-4284472D01*
G01X8491728Y-4261866D01*
G01X8454390Y-4261866D02*
G01X8491728Y-4261866D01*
G01X8542782Y-4165092D02*
G01X8542782Y-4321556D01*
G01X8542782Y-4165092D02*
G01X8647176Y-4321556D01*
G01X8647176Y-4165092D02*
G01X8647176Y-4321556D01*
G01X8698230Y-4165092D02*
G01X8698230Y-4321556D01*
G01X8698230Y-4165092D02*
G01X8750554Y-4165092D01*
G01X8772906Y-4172458D01*
G01X8787892Y-4187444D01*
G01X8795258Y-4202176D01*
G01X8802624Y-4224782D01*
G01X8802624Y-4261866D01*
G01X8795258Y-4284472D01*
G01X8787892Y-4299204D01*
G01X8772906Y-4314190D01*
G01X8750554Y-4321556D01*
G01X8698230Y-4321556D01*
G01X8417052Y-3731768D02*
G01X8417052Y-3837432D01*
G01X8364220Y-3784600D02*
G01X8469884Y-3784600D01*
G01X8583930Y-3714242D02*
G01X8525002Y-3714242D01*
G01X8519160Y-3767074D01*
G01X8525002Y-3761232D01*
G01X8542782Y-3755136D01*
G01X8560308Y-3755136D01*
G01X8577834Y-3761232D01*
G01X8589772Y-3772916D01*
G01X8595614Y-3790442D01*
G01X8595614Y-3802126D01*
G01X8589772Y-3819906D01*
G01X8577834Y-3831590D01*
G01X8560308Y-3837432D01*
G01X8542782Y-3837432D01*
G01X8525002Y-3831590D01*
G01X8519160Y-3825748D01*
G01X8513318Y-3814064D01*
G01X8639048Y-3714242D02*
G01X8686038Y-3837432D01*
G01X8733028Y-3714242D02*
G01X8686038Y-3837432D01*
G01X8776462Y-3714242D02*
G01X8776462Y-3837432D01*
G01X8556752Y-3172968D02*
G01X8556752Y-3278632D01*
G01X8503920Y-3225800D02*
G01X8609584Y-3225800D01*
G01X8723630Y-3155442D02*
G01X8664702Y-3155442D01*
G01X8658860Y-3208274D01*
G01X8664702Y-3202432D01*
G01X8682482Y-3196336D01*
G01X8700008Y-3196336D01*
G01X8717534Y-3202432D01*
G01X8729472Y-3214116D01*
G01X8735314Y-3231642D01*
G01X8735314Y-3243326D01*
G01X8729472Y-3261106D01*
G01X8717534Y-3272790D01*
G01X8700008Y-3278632D01*
G01X8682482Y-3278632D01*
G01X8664702Y-3272790D01*
G01X8658860Y-3266948D01*
G01X8653018Y-3255264D01*
G01X8778748Y-3155442D02*
G01X8825738Y-3278632D01*
G01X8872728Y-3155442D02*
G01X8825738Y-3278632D01*
G01X8604758Y-2905252D02*
G01X8598916Y-2893568D01*
G01X8587232Y-2881884D01*
G01X8575294Y-2876042D01*
G01X8551926Y-2876042D01*
G01X8540242Y-2881884D01*
G01X8528304Y-2893568D01*
G01X8522462Y-2905252D01*
G01X8516620Y-2923032D01*
G01X8516620Y-2952242D01*
G01X8522462Y-2970022D01*
G01X8528304Y-2981706D01*
G01X8540242Y-2993390D01*
G01X8551926Y-2999232D01*
G01X8575294Y-2999232D01*
G01X8587232Y-2993390D01*
G01X8598916Y-2981706D01*
G01X8604758Y-2970022D01*
G01X8604758Y-2952242D01*
G01X8575294Y-2952242D02*
G01X8604758Y-2952242D01*
G01X8648192Y-2876042D02*
G01X8648192Y-2999232D01*
G01X8648192Y-2876042D02*
G01X8730488Y-2999232D01*
G01X8730488Y-2876042D02*
G01X8730488Y-2999232D01*
G01X8773922Y-2876042D02*
G01X8773922Y-2999232D01*
G01X8773922Y-2876042D02*
G01X8815070Y-2876042D01*
G01X8832596Y-2881884D01*
G01X8844534Y-2893568D01*
G01X8850376Y-2905252D01*
G01X8856218Y-2923032D01*
G01X8856218Y-2952242D01*
G01X8850376Y-2970022D01*
G01X8844534Y-2981706D01*
G01X8832596Y-2993390D01*
G01X8815070Y-2999232D01*
G01X8773922Y-2999232D01*
G01X8581644Y-2577592D02*
G01X8581644Y-2734056D01*
G01X8529320Y-2577592D02*
G01X8633714Y-2577592D01*
G01X8684768Y-2577592D02*
G01X8789162Y-2734056D01*
G01X8789162Y-2577592D02*
G01X8684768Y-2734056D01*
G01X8529320Y-2272792D02*
G01X8529320Y-2429256D01*
G01X8529320Y-2272792D02*
G01X8596376Y-2272792D01*
G01X8618982Y-2280158D01*
G01X8626348Y-2287524D01*
G01X8633714Y-2302510D01*
G01X8633714Y-2317496D01*
G01X8626348Y-2332482D01*
G01X8618982Y-2339848D01*
G01X8596376Y-2347214D01*
G01X8529320Y-2347214D01*
G01X8581644Y-2347214D02*
G01X8633714Y-2429256D01*
G01X8684768Y-2272792D02*
G01X8789162Y-2429256D01*
G01X8789162Y-2272792D02*
G01X8684768Y-2429256D01*
G01X8586216Y-1941068D02*
G01X8574532Y-1929384D01*
G01X8556752Y-1923542D01*
G01X8533384Y-1923542D01*
G01X8515604Y-1929384D01*
G01X8503920Y-1941068D01*
G01X8503920Y-1952752D01*
G01X8509762Y-1964436D01*
G01X8515604Y-1970532D01*
G01X8527542Y-1976374D01*
G01X8562594Y-1988058D01*
G01X8574532Y-1993900D01*
G01X8580374Y-1999742D01*
G01X8586216Y-2011426D01*
G01X8586216Y-2029206D01*
G01X8574532Y-2040890D01*
G01X8556752Y-2046732D01*
G01X8533384Y-2046732D01*
G01X8515604Y-2040890D01*
G01X8503920Y-2029206D01*
G01X8629650Y-1923542D02*
G01X8629650Y-2046732D01*
G01X8629650Y-1923542D02*
G01X8670798Y-1923542D01*
G01X8688324Y-1929384D01*
G01X8700262Y-1941068D01*
G01X8706104Y-1952752D01*
G01X8711946Y-1970532D01*
G01X8711946Y-1999742D01*
G01X8706104Y-2017522D01*
G01X8700262Y-2029206D01*
G01X8688324Y-2040890D01*
G01X8670798Y-2046732D01*
G01X8629650Y-2046732D01*
G01X8802370Y-1923542D02*
G01X8755380Y-2046732D01*
G01X8802370Y-1923542D02*
G01X8849360Y-2046732D01*
G01X8772906Y-2005584D02*
G01X8831834Y-2005584D01*
G01X8573516Y-1699768D02*
G01X8561832Y-1688084D01*
G01X8544052Y-1682242D01*
G01X8520684Y-1682242D01*
G01X8502904Y-1688084D01*
G01X8491220Y-1699768D01*
G01X8491220Y-1711452D01*
G01X8497062Y-1723136D01*
G01X8502904Y-1729232D01*
G01X8514842Y-1735074D01*
G01X8549894Y-1746758D01*
G01X8561832Y-1752600D01*
G01X8567674Y-1758442D01*
G01X8573516Y-1770126D01*
G01X8573516Y-1787906D01*
G01X8561832Y-1799590D01*
G01X8544052Y-1805432D01*
G01X8520684Y-1805432D01*
G01X8502904Y-1799590D01*
G01X8491220Y-1787906D01*
G01X8705088Y-1711452D02*
G01X8699246Y-1699768D01*
G01X8687562Y-1688084D01*
G01X8675624Y-1682242D01*
G01X8652256Y-1682242D01*
G01X8640572Y-1688084D01*
G01X8628634Y-1699768D01*
G01X8622792Y-1711452D01*
G01X8616950Y-1729232D01*
G01X8616950Y-1758442D01*
G01X8622792Y-1776222D01*
G01X8628634Y-1787906D01*
G01X8640572Y-1799590D01*
G01X8652256Y-1805432D01*
G01X8675624Y-1805432D01*
G01X8687562Y-1799590D01*
G01X8699246Y-1787906D01*
G01X8705088Y-1776222D01*
G01X8748522Y-1682242D02*
G01X8748522Y-1805432D01*
G01X8748522Y-1805432D02*
G01X8819134Y-1805432D01*
G01X8592058Y-1457452D02*
G01X8586216Y-1445768D01*
G01X8574532Y-1434084D01*
G01X8562594Y-1428242D01*
G01X8539226Y-1428242D01*
G01X8527542Y-1434084D01*
G01X8515604Y-1445768D01*
G01X8509762Y-1457452D01*
G01X8503920Y-1475232D01*
G01X8503920Y-1504442D01*
G01X8509762Y-1522222D01*
G01X8515604Y-1533906D01*
G01X8527542Y-1545590D01*
G01X8539226Y-1551432D01*
G01X8562594Y-1551432D01*
G01X8574532Y-1545590D01*
G01X8586216Y-1533906D01*
G01X8592058Y-1522222D01*
G01X8592058Y-1504442D01*
G01X8562594Y-1504442D02*
G01X8592058Y-1504442D01*
G01X8635492Y-1428242D02*
G01X8635492Y-1551432D01*
G01X8635492Y-1428242D02*
G01X8717788Y-1551432D01*
G01X8717788Y-1428242D02*
G01X8717788Y-1551432D01*
G01X8761222Y-1428242D02*
G01X8761222Y-1551432D01*
G01X8761222Y-1428242D02*
G01X8802370Y-1428242D01*
G01X8819896Y-1434084D01*
G01X8831834Y-1445768D01*
G01X8837676Y-1457452D01*
G01X8843518Y-1475232D01*
G01X8843518Y-1504442D01*
G01X8837676Y-1522222D01*
G01X8831834Y-1533906D01*
G01X8819896Y-1545590D01*
G01X8802370Y-1551432D01*
G01X8761222Y-1551432D01*
G01X8502904Y-1250442D02*
G01X8567674Y-1250442D01*
G01X8532368Y-1297432D01*
G01X8549894Y-1297432D01*
G01X8561832Y-1303274D01*
G01X8567674Y-1309116D01*
G01X8573516Y-1326642D01*
G01X8573516Y-1338326D01*
G01X8567674Y-1356106D01*
G01X8555736Y-1367790D01*
G01X8538210Y-1373632D01*
G01X8520684Y-1373632D01*
G01X8502904Y-1367790D01*
G01X8497062Y-1361948D01*
G01X8491220Y-1350264D01*
G01X8622792Y-1344422D02*
G01X8616950Y-1350264D01*
G01X8622792Y-1356106D01*
G01X8628634Y-1350264D01*
G01X8622792Y-1344422D01*
G01X8683752Y-1250442D02*
G01X8748522Y-1250442D01*
G01X8713216Y-1297432D01*
G01X8730742Y-1297432D01*
G01X8742680Y-1303274D01*
G01X8748522Y-1309116D01*
G01X8754364Y-1326642D01*
G01X8754364Y-1338326D01*
G01X8748522Y-1356106D01*
G01X8736584Y-1367790D01*
G01X8719058Y-1373632D01*
G01X8701532Y-1373632D01*
G01X8683752Y-1367790D01*
G01X8677910Y-1361948D01*
G01X8672068Y-1350264D01*
G01X8797798Y-1250442D02*
G01X8844788Y-1373632D01*
G01X8891778Y-1250442D02*
G01X8844788Y-1373632D01*
G01X7576820Y-723392D02*
G01X7576820Y-879856D01*
G01X7576820Y-723392D02*
G01X7643876Y-723392D01*
G01X7666482Y-730758D01*
G01X7673848Y-738124D01*
G01X7681214Y-753110D01*
G01X7681214Y-775462D01*
G01X7673848Y-790448D01*
G01X7666482Y-797814D01*
G01X7643876Y-805434D01*
G01X7576820Y-805434D01*
G01X7791958Y-723392D02*
G01X7732268Y-879856D01*
G01X7791958Y-723392D02*
G01X7851648Y-879856D01*
G01X7754620Y-827786D02*
G01X7829296Y-827786D01*
G01X7940040Y-723392D02*
G01X7917688Y-730758D01*
G01X7910068Y-745744D01*
G01X7910068Y-760476D01*
G01X7917688Y-775462D01*
G01X7932674Y-783082D01*
G01X7962392Y-790448D01*
G01X7984744Y-797814D01*
G01X7999730Y-812800D01*
G01X8007096Y-827786D01*
G01X8007096Y-850138D01*
G01X7999730Y-865124D01*
G01X7992364Y-872490D01*
G01X7969758Y-879856D01*
G01X7940040Y-879856D01*
G01X7917688Y-872490D01*
G01X7910068Y-865124D01*
G01X7902702Y-850138D01*
G01X7902702Y-827786D01*
G01X7910068Y-812800D01*
G01X7925054Y-797814D01*
G01X7947406Y-790448D01*
G01X7977378Y-783082D01*
G01X7992364Y-775462D01*
G01X7999730Y-760476D01*
G01X7999730Y-745744D01*
G01X7992364Y-730758D01*
G01X7969758Y-723392D01*
G01X7940040Y-723392D01*
G01X7564120Y-1002792D02*
G01X7564120Y-1159256D01*
G01X7564120Y-1002792D02*
G01X7631176Y-1002792D01*
G01X7653782Y-1010158D01*
G01X7661148Y-1017524D01*
G01X7668514Y-1032510D01*
G01X7668514Y-1054862D01*
G01X7661148Y-1069848D01*
G01X7653782Y-1077214D01*
G01X7631176Y-1084834D01*
G01X7564120Y-1084834D01*
G01X7719568Y-1002792D02*
G01X7719568Y-1159256D01*
G01X7719568Y-1002792D02*
G01X7786624Y-1002792D01*
G01X7809230Y-1010158D01*
G01X7816596Y-1017524D01*
G01X7823962Y-1032510D01*
G01X7823962Y-1047496D01*
G01X7816596Y-1062482D01*
G01X7809230Y-1069848D01*
G01X7786624Y-1077214D01*
G01X7719568Y-1077214D02*
G01X7786624Y-1077214D01*
G01X7809230Y-1084834D01*
G01X7816596Y-1092200D01*
G01X7823962Y-1107186D01*
G01X7823962Y-1129538D01*
G01X7816596Y-1144524D01*
G01X7809230Y-1151890D01*
G01X7786624Y-1159256D01*
G01X7719568Y-1159256D01*
G01X7875016Y-1032510D02*
G01X7890002Y-1025144D01*
G01X7912354Y-1002792D01*
G01X7912354Y-1159256D01*
G01X8053070Y-1002792D02*
G01X7978394Y-1002792D01*
G01X7970774Y-1069848D01*
G01X7978394Y-1062482D01*
G01X8000746Y-1054862D01*
G01X8023098Y-1054862D01*
G01X8045450Y-1062482D01*
G01X8060436Y-1077214D01*
G01X8067802Y-1099566D01*
G01X8067802Y-1114552D01*
G01X8060436Y-1136904D01*
G01X8045450Y-1151890D01*
G01X8023098Y-1159256D01*
G01X8000746Y-1159256D01*
G01X7978394Y-1151890D01*
G01X7970774Y-1144524D01*
G01X7963408Y-1129538D01*
G01X7564120Y-1256792D02*
G01X7564120Y-1413256D01*
G01X7564120Y-1256792D02*
G01X7631176Y-1256792D01*
G01X7653782Y-1264158D01*
G01X7661148Y-1271524D01*
G01X7668514Y-1286510D01*
G01X7668514Y-1308862D01*
G01X7661148Y-1323848D01*
G01X7653782Y-1331214D01*
G01X7631176Y-1338834D01*
G01X7564120Y-1338834D01*
G01X7719568Y-1256792D02*
G01X7719568Y-1413256D01*
G01X7719568Y-1256792D02*
G01X7786624Y-1256792D01*
G01X7809230Y-1264158D01*
G01X7816596Y-1271524D01*
G01X7823962Y-1286510D01*
G01X7823962Y-1301496D01*
G01X7816596Y-1316482D01*
G01X7809230Y-1323848D01*
G01X7786624Y-1331214D01*
G01X7719568Y-1331214D02*
G01X7786624Y-1331214D01*
G01X7809230Y-1338834D01*
G01X7816596Y-1346200D01*
G01X7823962Y-1361186D01*
G01X7823962Y-1383538D01*
G01X7816596Y-1398524D01*
G01X7809230Y-1405890D01*
G01X7786624Y-1413256D01*
G01X7719568Y-1413256D01*
G01X7875016Y-1286510D02*
G01X7890002Y-1279144D01*
G01X7912354Y-1256792D01*
G01X7912354Y-1413256D01*
G01X8038084Y-1256792D02*
G01X7963408Y-1361186D01*
G01X8075422Y-1361186D01*
G01X8038084Y-1256792D02*
G01X8038084Y-1413256D01*
G01X7564120Y-1536192D02*
G01X7564120Y-1692656D01*
G01X7564120Y-1536192D02*
G01X7631176Y-1536192D01*
G01X7653782Y-1543558D01*
G01X7661148Y-1550924D01*
G01X7668514Y-1565910D01*
G01X7668514Y-1588262D01*
G01X7661148Y-1603248D01*
G01X7653782Y-1610614D01*
G01X7631176Y-1618234D01*
G01X7564120Y-1618234D01*
G01X7719568Y-1536192D02*
G01X7719568Y-1692656D01*
G01X7719568Y-1536192D02*
G01X7786624Y-1536192D01*
G01X7809230Y-1543558D01*
G01X7816596Y-1550924D01*
G01X7823962Y-1565910D01*
G01X7823962Y-1580896D01*
G01X7816596Y-1595882D01*
G01X7809230Y-1603248D01*
G01X7786624Y-1610614D01*
G01X7719568Y-1610614D02*
G01X7786624Y-1610614D01*
G01X7809230Y-1618234D01*
G01X7816596Y-1625600D01*
G01X7823962Y-1640586D01*
G01X7823962Y-1662938D01*
G01X7816596Y-1677924D01*
G01X7809230Y-1685290D01*
G01X7786624Y-1692656D01*
G01X7719568Y-1692656D01*
G01X7875016Y-1565910D02*
G01X7890002Y-1558544D01*
G01X7912354Y-1536192D01*
G01X7912354Y-1692656D01*
G01X7978394Y-1536192D02*
G01X8060436Y-1536192D01*
G01X8015732Y-1595882D01*
G01X8038084Y-1595882D01*
G01X8053070Y-1603248D01*
G01X8060436Y-1610614D01*
G01X8067802Y-1632966D01*
G01X8067802Y-1647952D01*
G01X8060436Y-1670304D01*
G01X8045450Y-1685290D01*
G01X8023098Y-1692656D01*
G01X8000746Y-1692656D01*
G01X7978394Y-1685290D01*
G01X7970774Y-1677924D01*
G01X7963408Y-1662938D01*
G01X7564120Y-1739392D02*
G01X7564120Y-1895856D01*
G01X7564120Y-1739392D02*
G01X7631176Y-1739392D01*
G01X7653782Y-1746758D01*
G01X7661148Y-1754124D01*
G01X7668514Y-1769110D01*
G01X7668514Y-1791462D01*
G01X7661148Y-1806448D01*
G01X7653782Y-1813814D01*
G01X7631176Y-1821434D01*
G01X7564120Y-1821434D01*
G01X7719568Y-1739392D02*
G01X7719568Y-1895856D01*
G01X7719568Y-1739392D02*
G01X7786624Y-1739392D01*
G01X7809230Y-1746758D01*
G01X7816596Y-1754124D01*
G01X7823962Y-1769110D01*
G01X7823962Y-1784096D01*
G01X7816596Y-1799082D01*
G01X7809230Y-1806448D01*
G01X7786624Y-1813814D01*
G01X7719568Y-1813814D02*
G01X7786624Y-1813814D01*
G01X7809230Y-1821434D01*
G01X7816596Y-1828800D01*
G01X7823962Y-1843786D01*
G01X7823962Y-1866138D01*
G01X7816596Y-1881124D01*
G01X7809230Y-1888490D01*
G01X7786624Y-1895856D01*
G01X7719568Y-1895856D01*
G01X7875016Y-1769110D02*
G01X7890002Y-1761744D01*
G01X7912354Y-1739392D01*
G01X7912354Y-1895856D01*
G01X7970774Y-1776476D02*
G01X7970774Y-1769110D01*
G01X7978394Y-1754124D01*
G01X7985760Y-1746758D01*
G01X8000746Y-1739392D01*
G01X8030464Y-1739392D01*
G01X8045450Y-1746758D01*
G01X8053070Y-1754124D01*
G01X8060436Y-1769110D01*
G01X8060436Y-1784096D01*
G01X8053070Y-1799082D01*
G01X8038084Y-1821434D01*
G01X7963408Y-1895856D01*
G01X8067802Y-1895856D01*
G01X7564120Y-1993392D02*
G01X7564120Y-2149856D01*
G01X7564120Y-1993392D02*
G01X7631176Y-1993392D01*
G01X7653782Y-2000758D01*
G01X7661148Y-2008124D01*
G01X7668514Y-2023110D01*
G01X7668514Y-2045462D01*
G01X7661148Y-2060448D01*
G01X7653782Y-2067814D01*
G01X7631176Y-2075434D01*
G01X7564120Y-2075434D01*
G01X7719568Y-1993392D02*
G01X7719568Y-2149856D01*
G01X7719568Y-1993392D02*
G01X7786624Y-1993392D01*
G01X7809230Y-2000758D01*
G01X7816596Y-2008124D01*
G01X7823962Y-2023110D01*
G01X7823962Y-2038096D01*
G01X7816596Y-2053082D01*
G01X7809230Y-2060448D01*
G01X7786624Y-2067814D01*
G01X7719568Y-2067814D02*
G01X7786624Y-2067814D01*
G01X7809230Y-2075434D01*
G01X7816596Y-2082800D01*
G01X7823962Y-2097786D01*
G01X7823962Y-2120138D01*
G01X7816596Y-2135124D01*
G01X7809230Y-2142490D01*
G01X7786624Y-2149856D01*
G01X7719568Y-2149856D01*
G01X7964678Y-1993392D02*
G01X7890002Y-1993392D01*
G01X7882382Y-2060448D01*
G01X7890002Y-2053082D01*
G01X7912354Y-2045462D01*
G01X7934706Y-2045462D01*
G01X7957058Y-2053082D01*
G01X7972044Y-2067814D01*
G01X7979410Y-2090166D01*
G01X7979410Y-2105152D01*
G01X7972044Y-2127504D01*
G01X7957058Y-2142490D01*
G01X7934706Y-2149856D01*
G01X7912354Y-2149856D01*
G01X7890002Y-2142490D01*
G01X7882382Y-2135124D01*
G01X7875016Y-2120138D01*
G01X7564120Y-2234692D02*
G01X7564120Y-2391156D01*
G01X7564120Y-2234692D02*
G01X7631176Y-2234692D01*
G01X7653782Y-2242058D01*
G01X7661148Y-2249424D01*
G01X7668514Y-2264410D01*
G01X7668514Y-2286762D01*
G01X7661148Y-2301748D01*
G01X7653782Y-2309114D01*
G01X7631176Y-2316734D01*
G01X7564120Y-2316734D01*
G01X7719568Y-2234692D02*
G01X7719568Y-2391156D01*
G01X7719568Y-2234692D02*
G01X7786624Y-2234692D01*
G01X7809230Y-2242058D01*
G01X7816596Y-2249424D01*
G01X7823962Y-2264410D01*
G01X7823962Y-2279396D01*
G01X7816596Y-2294382D01*
G01X7809230Y-2301748D01*
G01X7786624Y-2309114D01*
G01X7719568Y-2309114D02*
G01X7786624Y-2309114D01*
G01X7809230Y-2316734D01*
G01X7816596Y-2324100D01*
G01X7823962Y-2339086D01*
G01X7823962Y-2361438D01*
G01X7816596Y-2376424D01*
G01X7809230Y-2383790D01*
G01X7786624Y-2391156D01*
G01X7719568Y-2391156D01*
G01X7972044Y-2286762D02*
G01X7964678Y-2309114D01*
G01X7949692Y-2324100D01*
G01X7927340Y-2331466D01*
G01X7919720Y-2331466D01*
G01X7897368Y-2324100D01*
G01X7882382Y-2309114D01*
G01X7875016Y-2286762D01*
G01X7875016Y-2279396D01*
G01X7882382Y-2257044D01*
G01X7897368Y-2242058D01*
G01X7919720Y-2234692D01*
G01X7927340Y-2234692D01*
G01X7949692Y-2242058D01*
G01X7964678Y-2257044D01*
G01X7972044Y-2286762D01*
G01X7972044Y-2324100D01*
G01X7964678Y-2361438D01*
G01X7949692Y-2383790D01*
G01X7927340Y-2391156D01*
G01X7912354Y-2391156D01*
G01X7890002Y-2383790D01*
G01X7882382Y-2368804D01*
G01X7564120Y-2488692D02*
G01X7564120Y-2645156D01*
G01X7564120Y-2488692D02*
G01X7631176Y-2488692D01*
G01X7653782Y-2496058D01*
G01X7661148Y-2503424D01*
G01X7668514Y-2518410D01*
G01X7668514Y-2540762D01*
G01X7661148Y-2555748D01*
G01X7653782Y-2563114D01*
G01X7631176Y-2570734D01*
G01X7564120Y-2570734D01*
G01X7719568Y-2488692D02*
G01X7719568Y-2645156D01*
G01X7719568Y-2488692D02*
G01X7786624Y-2488692D01*
G01X7809230Y-2496058D01*
G01X7816596Y-2503424D01*
G01X7823962Y-2518410D01*
G01X7823962Y-2533396D01*
G01X7816596Y-2548382D01*
G01X7809230Y-2555748D01*
G01X7786624Y-2563114D01*
G01X7719568Y-2563114D02*
G01X7786624Y-2563114D01*
G01X7809230Y-2570734D01*
G01X7816596Y-2578100D01*
G01X7823962Y-2593086D01*
G01X7823962Y-2615438D01*
G01X7816596Y-2630424D01*
G01X7809230Y-2637790D01*
G01X7786624Y-2645156D01*
G01X7719568Y-2645156D01*
G01X7912354Y-2488692D02*
G01X7890002Y-2496058D01*
G01X7882382Y-2511044D01*
G01X7882382Y-2525776D01*
G01X7890002Y-2540762D01*
G01X7904988Y-2548382D01*
G01X7934706Y-2555748D01*
G01X7957058Y-2563114D01*
G01X7972044Y-2578100D01*
G01X7979410Y-2593086D01*
G01X7979410Y-2615438D01*
G01X7972044Y-2630424D01*
G01X7964678Y-2637790D01*
G01X7942072Y-2645156D01*
G01X7912354Y-2645156D01*
G01X7890002Y-2637790D01*
G01X7882382Y-2630424D01*
G01X7875016Y-2615438D01*
G01X7875016Y-2593086D01*
G01X7882382Y-2578100D01*
G01X7897368Y-2563114D01*
G01X7919720Y-2555748D01*
G01X7949692Y-2548382D01*
G01X7964678Y-2540762D01*
G01X7972044Y-2525776D01*
G01X7972044Y-2511044D01*
G01X7964678Y-2496058D01*
G01X7942072Y-2488692D01*
G01X7912354Y-2488692D01*
G01X7650734Y-2779776D02*
G01X7643114Y-2765044D01*
G01X7628382Y-2750058D01*
G01X7613396Y-2742692D01*
G01X7583424Y-2742692D01*
G01X7568692Y-2750058D01*
G01X7553706Y-2765044D01*
G01X7546086Y-2779776D01*
G01X7538720Y-2802382D01*
G01X7538720Y-2839466D01*
G01X7546086Y-2862072D01*
G01X7553706Y-2876804D01*
G01X7568692Y-2891790D01*
G01X7583424Y-2899156D01*
G01X7613396Y-2899156D01*
G01X7628382Y-2891790D01*
G01X7643114Y-2876804D01*
G01X7650734Y-2862072D01*
G01X7650734Y-2839466D01*
G01X7613396Y-2839466D02*
G01X7650734Y-2839466D01*
G01X7701788Y-2742692D02*
G01X7701788Y-2899156D01*
G01X7701788Y-2742692D02*
G01X7806182Y-2899156D01*
G01X7806182Y-2742692D02*
G01X7806182Y-2899156D01*
G01X7857236Y-2742692D02*
G01X7857236Y-2899156D01*
G01X7857236Y-2742692D02*
G01X7909560Y-2742692D01*
G01X7931912Y-2750058D01*
G01X7946898Y-2765044D01*
G01X7954264Y-2779776D01*
G01X7961630Y-2802382D01*
G01X7961630Y-2839466D01*
G01X7954264Y-2862072D01*
G01X7946898Y-2876804D01*
G01X7931912Y-2891790D01*
G01X7909560Y-2899156D01*
G01X7857236Y-2899156D01*
G01X7553706Y-3022092D02*
G01X7635748Y-3022092D01*
G01X7591044Y-3081782D01*
G01X7613396Y-3081782D01*
G01X7628382Y-3089148D01*
G01X7635748Y-3096514D01*
G01X7643114Y-3118866D01*
G01X7643114Y-3133852D01*
G01X7635748Y-3156204D01*
G01X7620762Y-3171190D01*
G01X7598410Y-3178556D01*
G01X7576058Y-3178556D01*
G01X7553706Y-3171190D01*
G01X7546086Y-3163824D01*
G01X7538720Y-3148838D01*
G01X7701534Y-3141472D02*
G01X7694168Y-3148838D01*
G01X7701534Y-3156204D01*
G01X7709154Y-3148838D01*
G01X7701534Y-3141472D01*
G01X7775194Y-3022092D02*
G01X7857236Y-3022092D01*
G01X7812532Y-3081782D01*
G01X7834884Y-3081782D01*
G01X7849870Y-3089148D01*
G01X7857236Y-3096514D01*
G01X7864602Y-3118866D01*
G01X7864602Y-3133852D01*
G01X7857236Y-3156204D01*
G01X7842250Y-3171190D01*
G01X7819898Y-3178556D01*
G01X7797546Y-3178556D01*
G01X7775194Y-3171190D01*
G01X7767574Y-3163824D01*
G01X7760208Y-3148838D01*
G01X7915656Y-3022092D02*
G01X7975346Y-3178556D01*
G01X8035036Y-3022092D02*
G01X7975346Y-3178556D01*
G01X3309620Y-3892042D02*
G01X3309620Y-4015232D01*
G01X3309620Y-3892042D02*
G01X3362452Y-3892042D01*
G01X3380232Y-3897884D01*
G01X3386074Y-3903726D01*
G01X3391916Y-3915410D01*
G01X3391916Y-3927094D01*
G01X3386074Y-3939032D01*
G01X3380232Y-3944874D01*
G01X3362452Y-3950716D01*
G01X3309620Y-3950716D01*
G01X3350768Y-3950716D02*
G01X3391916Y-4015232D01*
G01X3441192Y-3921252D02*
G01X3441192Y-3915410D01*
G01X3447034Y-3903726D01*
G01X3452876Y-3897884D01*
G01X3464814Y-3892042D01*
G01X3488182Y-3892042D01*
G01X3499866Y-3897884D01*
G01X3505962Y-3903726D01*
G01X3511804Y-3915410D01*
G01X3511804Y-3927094D01*
G01X3505962Y-3939032D01*
G01X3494024Y-3956558D01*
G01X3435350Y-4015232D01*
G01X3517646Y-4015232D01*
G01X3601720Y-3917442D02*
G01X3631184Y-4040632D01*
G01X3660394Y-3917442D02*
G01X3631184Y-4040632D01*
G01X3660394Y-3917442D02*
G01X3689858Y-4040632D01*
G01X3719322Y-3917442D02*
G01X3689858Y-4040632D01*
G01X3768598Y-3946652D02*
G01X3768598Y-3940810D01*
G01X3774440Y-3929126D01*
G01X3780282Y-3923284D01*
G01X3792220Y-3917442D01*
G01X3815588Y-3917442D01*
G01X3827272Y-3923284D01*
G01X3833368Y-3929126D01*
G01X3839210Y-3940810D01*
G01X3839210Y-3952494D01*
G01X3833368Y-3964432D01*
G01X3821430Y-3981958D01*
G01X3762756Y-4040632D01*
G01X3845052Y-4040632D01*
G01X3068320Y-3364992D02*
G01X3105658Y-3521456D01*
G01X3142996Y-3364992D02*
G01X3105658Y-3521456D01*
G01X3142996Y-3364992D02*
G01X3180334Y-3521456D01*
G01X3217672Y-3364992D02*
G01X3180334Y-3521456D01*
G01X3268726Y-3394710D02*
G01X3283712Y-3387344D01*
G01X3306064Y-3364992D01*
G01X3306064Y-3521456D01*
G01X2814320Y-3364992D02*
G01X2814320Y-3521456D01*
G01X2814320Y-3364992D02*
G01X2881376Y-3364992D01*
G01X2903982Y-3372358D01*
G01X2911348Y-3379724D01*
G01X2918714Y-3394710D01*
G01X2918714Y-3409696D01*
G01X2911348Y-3424682D01*
G01X2903982Y-3432048D01*
G01X2881376Y-3439414D01*
G01X2814320Y-3439414D01*
G01X2866644Y-3439414D02*
G01X2918714Y-3521456D01*
G01X2969768Y-3394710D02*
G01X2984754Y-3387344D01*
G01X3007106Y-3364992D01*
G01X3007106Y-3521456D01*
G01X8071866Y-3340781D02*
G01X8136890Y-3340781D01*
G01X8071866Y-3297347D02*
G01X8136890Y-3297347D01*
G01X8102854Y-3340781D02*
G01X8102854Y-3297347D01*
G01X8084312Y-3267121D02*
G01X8081010Y-3261025D01*
G01X8071866Y-3251881D01*
G01X8136890Y-3251881D01*
G01X8367141Y-5992820D02*
G01X8302117Y-5992820D01*
G01X8367141Y-5992820D02*
G01X8367141Y-6020760D01*
G01X8364093Y-6029904D01*
G01X8361045Y-6032952D01*
G01X8354695Y-6036254D01*
G01X8345551Y-6036254D01*
G01X8339455Y-6032952D01*
G01X8336153Y-6029904D01*
G01X8333105Y-6020760D01*
G01X8333105Y-5992820D01*
G01X8354695Y-6066480D02*
G01X8357997Y-6072576D01*
G01X8367141Y-6081720D01*
G01X8302117Y-6081720D01*
G01X8367141Y-7262820D02*
G01X8302117Y-7262820D01*
G01X8367141Y-7262820D02*
G01X8367141Y-7290760D01*
G01X8364093Y-7299904D01*
G01X8361045Y-7302952D01*
G01X8354695Y-7306254D01*
G01X8345551Y-7306254D01*
G01X8339455Y-7302952D01*
G01X8336153Y-7299904D01*
G01X8333105Y-7290760D01*
G01X8333105Y-7262820D01*
G01X8351647Y-7339528D02*
G01X8354695Y-7339528D01*
G01X8361045Y-7342576D01*
G01X8364093Y-7345624D01*
G01X8367141Y-7351720D01*
G01X8367141Y-7364166D01*
G01X8364093Y-7370516D01*
G01X8361045Y-7373564D01*
G01X8354695Y-7376612D01*
G01X8348599Y-7376612D01*
G01X8342503Y-7373564D01*
G01X8333105Y-7367214D01*
G01X8302117Y-7336480D01*
G01X8302117Y-7379660D01*
G01X649859Y-5868980D02*
G01X714883Y-5868980D01*
G01X649859Y-5868980D02*
G01X649859Y-5841040D01*
G01X652907Y-5831896D01*
G01X655955Y-5828848D01*
G01X662305Y-5825546D01*
G01X671449Y-5825546D01*
G01X677545Y-5828848D01*
G01X680847Y-5831896D01*
G01X683895Y-5841040D01*
G01X683895Y-5868980D01*
G01X649859Y-5789224D02*
G01X649859Y-5755188D01*
G01X674497Y-5773730D01*
G01X674497Y-5764586D01*
G01X677545Y-5758236D01*
G01X680847Y-5755188D01*
G01X689991Y-5752140D01*
G01X696341Y-5752140D01*
G01X705485Y-5755188D01*
G01X711835Y-5761284D01*
G01X714883Y-5770682D01*
G01X714883Y-5780080D01*
G01X711835Y-5789224D01*
G01X708533Y-5792272D01*
G01X702437Y-5795320D01*
G01X4081380Y-3940334D02*
G01X4081380Y-3875310D01*
G01X4081380Y-3940334D02*
G01X4053440Y-3940334D01*
G01X4044296Y-3937286D01*
G01X4041248Y-3934238D01*
G01X4037946Y-3927888D01*
G01X4037946Y-3918744D01*
G01X4041248Y-3912648D01*
G01X4044296Y-3909346D01*
G01X4053440Y-3906298D01*
G01X4081380Y-3906298D01*
G01X3976986Y-3940334D02*
G01X4007720Y-3897154D01*
G01X3961492Y-3897154D01*
G01X3976986Y-3940334D02*
G01X3976986Y-3875310D01*
G01X4081380Y-5464334D02*
G01X4081380Y-5399310D01*
G01X4081380Y-5464334D02*
G01X4053440Y-5464334D01*
G01X4044296Y-5461286D01*
G01X4041248Y-5458238D01*
G01X4037946Y-5451888D01*
G01X4037946Y-5442744D01*
G01X4041248Y-5436648D01*
G01X4044296Y-5433346D01*
G01X4053440Y-5430298D01*
G01X4081380Y-5430298D01*
G01X3970636Y-5464334D02*
G01X4001624Y-5464334D01*
G01X4004672Y-5436648D01*
G01X4001624Y-5439696D01*
G01X3992480Y-5442744D01*
G01X3983082Y-5442744D01*
G01X3973684Y-5439696D01*
G01X3967588Y-5433346D01*
G01X3964540Y-5424202D01*
G01X3964540Y-5417852D01*
G01X3967588Y-5408708D01*
G01X3973684Y-5402358D01*
G01X3983082Y-5399310D01*
G01X3992480Y-5399310D01*
G01X4001624Y-5402358D01*
G01X4004672Y-5405660D01*
G01X4007720Y-5411756D01*
G01X649859Y-8408980D02*
G01X714883Y-8408980D01*
G01X649859Y-8408980D02*
G01X649859Y-8381040D01*
G01X652907Y-8371896D01*
G01X655955Y-8368848D01*
G01X662305Y-8365546D01*
G01X671449Y-8365546D01*
G01X677545Y-8368848D01*
G01X680847Y-8371896D01*
G01X683895Y-8381040D01*
G01X683895Y-8408980D01*
G01X659003Y-8298236D02*
G01X652907Y-8301284D01*
G01X649859Y-8310682D01*
G01X649859Y-8316778D01*
G01X652907Y-8326176D01*
G01X662305Y-8332272D01*
G01X677545Y-8335320D01*
G01X693039Y-8335320D01*
G01X705485Y-8332272D01*
G01X711835Y-8326176D01*
G01X714883Y-8316778D01*
G01X714883Y-8313730D01*
G01X711835Y-8304586D01*
G01X705485Y-8298236D01*
G01X696341Y-8295188D01*
G01X693039Y-8295188D01*
G01X683895Y-8298236D01*
G01X677545Y-8304586D01*
G01X674497Y-8313730D01*
G01X674497Y-8316778D01*
G01X677545Y-8326176D01*
G01X683895Y-8332272D01*
G01X693039Y-8335320D01*
G01X649859Y-7138980D02*
G01X714883Y-7138980D01*
G01X649859Y-7138980D02*
G01X649859Y-7111040D01*
G01X652907Y-7101896D01*
G01X655955Y-7098848D01*
G01X662305Y-7095546D01*
G01X671449Y-7095546D01*
G01X677545Y-7098848D01*
G01X680847Y-7101896D01*
G01X683895Y-7111040D01*
G01X683895Y-7138980D01*
G01X649859Y-7022140D02*
G01X714883Y-7053128D01*
G01X649859Y-7065320D02*
G01X649859Y-7022140D01*
G01X8367141Y-3452820D02*
G01X8302117Y-3452820D01*
G01X8367141Y-3452820D02*
G01X8367141Y-3480760D01*
G01X8364093Y-3489904D01*
G01X8361045Y-3492952D01*
G01X8354695Y-3496254D01*
G01X8345551Y-3496254D01*
G01X8339455Y-3492952D01*
G01X8336153Y-3489904D01*
G01X8333105Y-3480760D01*
G01X8333105Y-3452820D01*
G01X8367141Y-3541720D02*
G01X8364093Y-3532576D01*
G01X8357997Y-3529528D01*
G01X8351647Y-3529528D01*
G01X8345551Y-3532576D01*
G01X8342503Y-3538672D01*
G01X8339455Y-3551118D01*
G01X8336153Y-3560516D01*
G01X8330057Y-3566612D01*
G01X8323961Y-3569660D01*
G01X8314563Y-3569660D01*
G01X8308467Y-3566612D01*
G01X8305165Y-3563564D01*
G01X8302117Y-3554166D01*
G01X8302117Y-3541720D01*
G01X8305165Y-3532576D01*
G01X8308467Y-3529528D01*
G01X8314563Y-3526480D01*
G01X8323961Y-3526480D01*
G01X8330057Y-3529528D01*
G01X8336153Y-3535624D01*
G01X8339455Y-3545022D01*
G01X8342503Y-3557214D01*
G01X8345551Y-3563564D01*
G01X8351647Y-3566612D01*
G01X8357997Y-3566612D01*
G01X8364093Y-3563564D01*
G01X8367141Y-3554166D01*
G01X8367141Y-3541720D01*
G01X649859Y-2058980D02*
G01X714883Y-2058980D01*
G01X649859Y-2058980D02*
G01X649859Y-2031040D01*
G01X652907Y-2021896D01*
G01X655955Y-2018848D01*
G01X662305Y-2015546D01*
G01X671449Y-2015546D01*
G01X677545Y-2018848D01*
G01X680847Y-2021896D01*
G01X683895Y-2031040D01*
G01X683895Y-2058980D01*
G01X671449Y-1945188D02*
G01X680847Y-1948236D01*
G01X686943Y-1954586D01*
G01X689991Y-1963730D01*
G01X689991Y-1966778D01*
G01X686943Y-1976176D01*
G01X680847Y-1982272D01*
G01X671449Y-1985320D01*
G01X668401Y-1985320D01*
G01X659003Y-1982272D01*
G01X652907Y-1976176D01*
G01X649859Y-1966778D01*
G01X649859Y-1963730D01*
G01X652907Y-1954586D01*
G01X659003Y-1948236D01*
G01X671449Y-1945188D01*
G01X686943Y-1945188D01*
G01X702437Y-1948236D01*
G01X711835Y-1954586D01*
G01X714883Y-1963730D01*
G01X714883Y-1970080D01*
G01X711835Y-1979224D01*
G01X705485Y-1982272D01*
G01X649859Y-3328980D02*
G01X714883Y-3328980D01*
G01X649859Y-3328980D02*
G01X649859Y-3301040D01*
G01X652907Y-3291896D01*
G01X655955Y-3288848D01*
G01X662305Y-3285546D01*
G01X671449Y-3285546D01*
G01X677545Y-3288848D01*
G01X680847Y-3291896D01*
G01X683895Y-3301040D01*
G01X683895Y-3328980D01*
G01X662305Y-3255320D02*
G01X659003Y-3249224D01*
G01X649859Y-3240080D01*
G01X714883Y-3240080D01*
G01X649859Y-3191312D02*
G01X652907Y-3200710D01*
G01X662305Y-3206806D01*
G01X677545Y-3209854D01*
G01X686943Y-3209854D01*
G01X702437Y-3206806D01*
G01X711835Y-3200710D01*
G01X714883Y-3191312D01*
G01X714883Y-3185216D01*
G01X711835Y-3175818D01*
G01X702437Y-3169722D01*
G01X686943Y-3166674D01*
G01X677545Y-3166674D01*
G01X662305Y-3169722D01*
G01X652907Y-3175818D01*
G01X649859Y-3185216D01*
G01X649859Y-3191312D01*
G01X649859Y-4598980D02*
G01X714883Y-4598980D01*
G01X649859Y-4598980D02*
G01X649859Y-4571040D01*
G01X652907Y-4561896D01*
G01X655955Y-4558848D01*
G01X662305Y-4555546D01*
G01X671449Y-4555546D01*
G01X677545Y-4558848D01*
G01X680847Y-4561896D01*
G01X683895Y-4571040D01*
G01X683895Y-4598980D01*
G01X662305Y-4525320D02*
G01X659003Y-4519224D01*
G01X649859Y-4510080D01*
G01X714883Y-4510080D01*
G01X662305Y-4479854D02*
G01X659003Y-4473758D01*
G01X649859Y-4464614D01*
G01X714883Y-4464614D01*
G01X4081379Y-2416332D02*
G01X4081379Y-2351308D01*
G01X4081379Y-2416332D02*
G01X4053439Y-2416332D01*
G01X4044295Y-2413284D01*
G01X4041247Y-2410236D01*
G01X4037945Y-2403886D01*
G01X4037945Y-2394742D01*
G01X4041247Y-2388646D01*
G01X4044295Y-2385344D01*
G01X4053439Y-2382296D01*
G01X4081379Y-2382296D01*
G01X4007719Y-2403886D02*
G01X4001623Y-2407188D01*
G01X3992479Y-2416332D01*
G01X3992479Y-2351308D01*
G01X3959205Y-2400838D02*
G01X3959205Y-2403886D01*
G01X3956157Y-2410236D01*
G01X3953109Y-2413284D01*
G01X3947013Y-2416332D01*
G01X3934567Y-2416332D01*
G01X3928217Y-2413284D01*
G01X3925169Y-2410236D01*
G01X3922121Y-2403886D01*
G01X3922121Y-2397790D01*
G01X3925169Y-2391694D01*
G01X3931519Y-2382296D01*
G01X3962253Y-2351308D01*
G01X3919073Y-2351308D01*
G01X8367141Y-4722820D02*
G01X8302117Y-4722820D01*
G01X8367141Y-4722820D02*
G01X8367141Y-4750760D01*
G01X8364093Y-4759904D01*
G01X8361045Y-4762952D01*
G01X8354695Y-4766254D01*
G01X8345551Y-4766254D01*
G01X8339455Y-4762952D01*
G01X8336153Y-4759904D01*
G01X8333105Y-4750760D01*
G01X8333105Y-4722820D01*
G01X8354695Y-4796480D02*
G01X8357997Y-4802576D01*
G01X8367141Y-4811720D01*
G01X8302117Y-4811720D01*
G01X8367141Y-4848042D02*
G01X8367141Y-4882078D01*
G01X8342503Y-4863536D01*
G01X8342503Y-4872680D01*
G01X8339455Y-4879030D01*
G01X8336153Y-4882078D01*
G01X8327009Y-4885126D01*
G01X8320659Y-4885126D01*
G01X8311515Y-4882078D01*
G01X8305165Y-4875982D01*
G01X8302117Y-4866584D01*
G01X8302117Y-4857186D01*
G01X8305165Y-4848042D01*
G01X8308467Y-4844994D01*
G01X8314563Y-4841946D01*
G01X7083268Y-3224888D02*
G01X7132798Y-3224888D01*
G01X7141942Y-3227936D01*
G01X7145244Y-3230984D01*
G01X7148292Y-3237334D01*
G01X7148292Y-3243430D01*
G01X7145244Y-3249780D01*
G01X7141942Y-3252828D01*
G01X7132798Y-3255876D01*
G01X7126448Y-3255876D01*
G01X7095714Y-3194662D02*
G01X7092412Y-3188566D01*
G01X7083268Y-3179422D01*
G01X7148292Y-3179422D01*
G01X3238755Y-6587420D02*
G01X3173731Y-6587420D01*
G01X3173731Y-6587420D02*
G01X3173731Y-6624504D01*
G01X3238755Y-6654730D02*
G01X3173731Y-6654730D01*
G01X3238755Y-6654730D02*
G01X3238755Y-6694862D01*
G01X3207767Y-6654730D02*
G01X3207767Y-6679368D01*
G01X3173731Y-6654730D02*
G01X3173731Y-6694862D01*
G01X3238755Y-6725088D02*
G01X3173731Y-6725088D01*
G01X3238755Y-6725088D02*
G01X3238755Y-6746678D01*
G01X3235707Y-6755822D01*
G01X3229611Y-6762172D01*
G01X3223261Y-6765220D01*
G01X3214117Y-6768268D01*
G01X3198623Y-6768268D01*
G01X3189225Y-6765220D01*
G01X3183129Y-6762172D01*
G01X3176779Y-6755822D01*
G01X3173731Y-6746678D01*
G01X3173731Y-6725088D01*
G01X3223261Y-6801542D02*
G01X3226309Y-6801542D01*
G01X3232659Y-6804590D01*
G01X3235707Y-6807638D01*
G01X3238755Y-6813734D01*
G01X3238755Y-6826180D01*
G01X3235707Y-6832530D01*
G01X3232659Y-6835578D01*
G01X3226309Y-6838626D01*
G01X3220213Y-6838626D01*
G01X3214117Y-6835578D01*
G01X3204719Y-6829228D01*
G01X3173731Y-6798494D01*
G01X3173731Y-6841674D01*
G01X8565134Y-1091519D02*
G01X8500110Y-1091519D01*
G01X8565134Y-1134953D02*
G01X8500110Y-1134953D01*
G01X8534146Y-1091519D02*
G01X8534146Y-1134953D01*
G01X8549640Y-1168227D02*
G01X8552688Y-1168227D01*
G01X8559038Y-1171275D01*
G01X8562086Y-1174323D01*
G01X8565134Y-1180419D01*
G01X8565134Y-1192865D01*
G01X8562086Y-1199215D01*
G01X8559038Y-1202263D01*
G01X8552688Y-1205311D01*
G01X8546592Y-1205311D01*
G01X8540496Y-1202263D01*
G01X8531098Y-1195913D01*
G01X8500110Y-1165179D01*
G01X8500110Y-1208359D01*
G01X4122169Y-8145775D02*
G01X4168651Y-8145775D01*
G01X4177795Y-8142727D01*
G01X4184145Y-8136377D01*
G01X4187193Y-8127233D01*
G01X4187193Y-8120883D01*
G01X4184145Y-8111739D01*
G01X4177795Y-8105643D01*
G01X4168651Y-8102341D01*
G01X4122169Y-8102341D01*
G01X4134615Y-8072115D02*
G01X4131313Y-8066019D01*
G01X4122169Y-8056875D01*
G01X4187193Y-8056875D01*
G04 Text End*

G04 PolygonModel Start*
G54D11*
G01X8191500Y-2277699D02*
G01X8445500Y-2277699D01*
G01X8191500Y-3335701D02*
G01X8191500Y-2277699D01*
G01X8191500Y-3058348D02*
G01X8445500Y-3058348D01*
G01X8445500Y-3335701D02*
G01X8445500Y-2277699D01*
G01X8191500Y-3335701D02*
G01X8445500Y-3335701D01*
G01X8247253Y-7073900D02*
G01X8247253Y-6060516D01*
G01X7308499Y-5997900D02*
G01X7333503Y-6057900D01*
G01X7408499Y-5997900D02*
G01X7308499Y-5997900D01*
G01X7383493Y-6057900D02*
G01X7408499Y-5997900D01*
G01X8133502Y-6057900D02*
G01X8158500Y-5997900D01*
G01X8158500Y-5997900D02*
G01X8058498Y-5997900D01*
G01X8058498Y-5997900D02*
G01X8083489Y-6057900D01*
G01X7231253Y-7073900D02*
G01X7231253Y-6060516D01*
G01X7231253Y-7073900D02*
G01X8247253Y-7073900D01*
G01X7231507Y-6057900D02*
G01X8247507Y-6057900D01*
G36*
G01X8233499Y-6265901D02*
G01X8233499Y-6365900D01*
G01X8033499Y-6365900D01*
G01X8033499Y-6415900D01*
G01X7933500Y-6315900D01*
G01X8033499Y-6215901D01*
G01X8033499Y-6265901D01*
G01X8233499Y-6265901D01*
G37*
G36*
G01X8233499Y-6773901D02*
G01X8233499Y-6873900D01*
G01X8033499Y-6873900D01*
G01X8033499Y-6923900D01*
G01X7933500Y-6823900D01*
G01X8033499Y-6723901D01*
G01X8033499Y-6773901D01*
G01X8233499Y-6773901D01*
G37*
G01X8247253Y-8343900D02*
G01X8247253Y-7330516D01*
G01X7308499Y-7267900D02*
G01X7333503Y-7327900D01*
G01X7408499Y-7267900D02*
G01X7308499Y-7267900D01*
G01X7383493Y-7327900D02*
G01X7408499Y-7267900D01*
G01X8133502Y-7327900D02*
G01X8158500Y-7267900D01*
G01X8158500Y-7267900D02*
G01X8058498Y-7267900D01*
G01X8058498Y-7267900D02*
G01X8083489Y-7327900D01*
G01X7231253Y-8343900D02*
G01X7231253Y-7330516D01*
G01X7231253Y-8343900D02*
G01X8247253Y-8343900D01*
G01X7231507Y-7327900D02*
G01X8247507Y-7327900D01*
G36*
G01X8233499Y-7535901D02*
G01X8233499Y-7635900D01*
G01X8033499Y-7635900D01*
G01X8033499Y-7685900D01*
G01X7933500Y-7585900D01*
G01X8033499Y-7485901D01*
G01X8033499Y-7535901D01*
G01X8233499Y-7535901D01*
G37*
G36*
G01X8233499Y-8043901D02*
G01X8233499Y-8143900D01*
G01X8033499Y-8143900D01*
G01X8033499Y-8193900D01*
G01X7933500Y-8093900D01*
G01X8033499Y-7993901D01*
G01X8033499Y-8043901D01*
G01X8233499Y-8043901D01*
G37*
G01X769747Y-4787900D02*
G01X769747Y-5801284D01*
G01X1708501Y-5863900D02*
G01X1683497Y-5803900D01*
G01X1608501Y-5863900D02*
G01X1708501Y-5863900D01*
G01X1633507Y-5803900D02*
G01X1608501Y-5863900D01*
G01X883498Y-5803900D02*
G01X858500Y-5863900D01*
G01X858500Y-5863900D02*
G01X958502Y-5863900D01*
G01X958502Y-5863900D02*
G01X933511Y-5803900D01*
G01X1785747Y-4787900D02*
G01X1785747Y-5801284D01*
G01X1785747Y-4787900D02*
G01X769747Y-4787900D01*
G01X1785493Y-5803900D02*
G01X769493Y-5803900D01*
G36*
G01X783501Y-5595899D02*
G01X783501Y-5495900D01*
G01X983501Y-5495900D01*
G01X983501Y-5445900D01*
G01X1083501Y-5545899D01*
G01X983501Y-5645899D01*
G01X983501Y-5595899D01*
G01X783501Y-5595899D01*
G37*
G36*
G01X783501Y-5087899D02*
G01X783501Y-4987900D01*
G01X983501Y-4987900D01*
G01X983501Y-4937900D01*
G01X1083501Y-5037899D01*
G01X983501Y-5137899D01*
G01X983501Y-5087899D01*
G01X783501Y-5087899D01*
G37*
G01X3797301Y-3820700D02*
G01X3797301Y-3570700D01*
G01X4076300Y-3570700D02*
G01X1994303Y-3570700D01*
G01X4076300Y-3820700D02*
G01X4076300Y-3570700D01*
G01X1994303Y-3820700D02*
G01X4076300Y-3820700D01*
G01X1994303Y-3570700D02*
G01X1994303Y-3820700D01*
G01X3797301Y-5344700D02*
G01X3797301Y-5094700D01*
G01X4076300Y-5094700D02*
G01X1994303Y-5094700D01*
G01X4076300Y-5344700D02*
G01X4076300Y-5094700D01*
G01X1994303Y-5344700D02*
G01X4076300Y-5344700D01*
G01X1994303Y-5094700D02*
G01X1994303Y-5344700D01*
G01X769747Y-7327900D02*
G01X769747Y-8341284D01*
G01X1708501Y-8403900D02*
G01X1683497Y-8343900D01*
G01X1608501Y-8403900D02*
G01X1708501Y-8403900D01*
G01X1633507Y-8343900D02*
G01X1608501Y-8403900D01*
G01X883498Y-8343900D02*
G01X858500Y-8403900D01*
G01X858500Y-8403900D02*
G01X958502Y-8403900D01*
G01X958502Y-8403900D02*
G01X933511Y-8343900D01*
G01X1785747Y-7327900D02*
G01X1785747Y-8341284D01*
G01X1785747Y-7327900D02*
G01X769747Y-7327900D01*
G01X1785493Y-8343900D02*
G01X769493Y-8343900D01*
G36*
G01X783501Y-8135899D02*
G01X783501Y-8035900D01*
G01X983501Y-8035900D01*
G01X983501Y-7985900D01*
G01X1083501Y-8085899D01*
G01X983501Y-8185899D01*
G01X983501Y-8135899D01*
G01X783501Y-8135899D01*
G37*
G36*
G01X783501Y-7627899D02*
G01X783501Y-7527900D01*
G01X983501Y-7527900D01*
G01X983501Y-7477900D01*
G01X1083501Y-7577899D01*
G01X983501Y-7677899D01*
G01X983501Y-7627899D01*
G01X783501Y-7627899D01*
G37*
G01X769747Y-6057900D02*
G01X769747Y-7071284D01*
G01X1708501Y-7133900D02*
G01X1683497Y-7073900D01*
G01X1608501Y-7133900D02*
G01X1708501Y-7133900D01*
G01X1633507Y-7073900D02*
G01X1608501Y-7133900D01*
G01X883498Y-7073900D02*
G01X858500Y-7133900D01*
G01X858500Y-7133900D02*
G01X958502Y-7133900D01*
G01X958502Y-7133900D02*
G01X933511Y-7073900D01*
G01X1785747Y-6057900D02*
G01X1785747Y-7071284D01*
G01X1785747Y-6057900D02*
G01X769747Y-6057900D01*
G01X1785493Y-7073900D02*
G01X769493Y-7073900D01*
G36*
G01X783501Y-6865899D02*
G01X783501Y-6765900D01*
G01X983501Y-6765900D01*
G01X983501Y-6715900D01*
G01X1083501Y-6815899D01*
G01X983501Y-6915899D01*
G01X983501Y-6865899D01*
G01X783501Y-6865899D01*
G37*
G36*
G01X783501Y-6357899D02*
G01X783501Y-6257900D01*
G01X983501Y-6257900D01*
G01X983501Y-6207900D01*
G01X1083501Y-6307899D01*
G01X983501Y-6407899D01*
G01X983501Y-6357899D01*
G01X783501Y-6357899D01*
G37*
G01X8247253Y-4533900D02*
G01X8247253Y-3520516D01*
G01X7308499Y-3457900D02*
G01X7333503Y-3517900D01*
G01X7408499Y-3457900D02*
G01X7308499Y-3457900D01*
G01X7383493Y-3517900D02*
G01X7408499Y-3457900D01*
G01X8133502Y-3517900D02*
G01X8158500Y-3457900D01*
G01X8158500Y-3457900D02*
G01X8058498Y-3457900D01*
G01X8058498Y-3457900D02*
G01X8083489Y-3517900D01*
G01X7231253Y-4533900D02*
G01X7231253Y-3520516D01*
G01X7231253Y-4533900D02*
G01X8247253Y-4533900D01*
G01X7231507Y-3517900D02*
G01X8247507Y-3517900D01*
G36*
G01X8233499Y-3725901D02*
G01X8233499Y-3825900D01*
G01X8033499Y-3825900D01*
G01X8033499Y-3875900D01*
G01X7933500Y-3775900D01*
G01X8033499Y-3675901D01*
G01X8033499Y-3725901D01*
G01X8233499Y-3725901D01*
G37*
G36*
G01X8233499Y-4233901D02*
G01X8233499Y-4333900D01*
G01X8033499Y-4333900D01*
G01X8033499Y-4383900D01*
G01X7933500Y-4283900D01*
G01X8033499Y-4183901D01*
G01X8033499Y-4233901D01*
G01X8233499Y-4233901D01*
G37*
G01X769747Y-977900D02*
G01X769747Y-1991284D01*
G01X1708501Y-2053900D02*
G01X1683497Y-1993900D01*
G01X1608501Y-2053900D02*
G01X1708501Y-2053900D01*
G01X1633507Y-1993900D02*
G01X1608501Y-2053900D01*
G01X883498Y-1993900D02*
G01X858500Y-2053900D01*
G01X858500Y-2053900D02*
G01X958502Y-2053900D01*
G01X958502Y-2053900D02*
G01X933511Y-1993900D01*
G01X1785747Y-977900D02*
G01X1785747Y-1991284D01*
G01X1785747Y-977900D02*
G01X769747Y-977900D01*
G01X1785493Y-1993900D02*
G01X769493Y-1993900D01*
G36*
G01X783501Y-1785899D02*
G01X783501Y-1685900D01*
G01X983501Y-1685900D01*
G01X983501Y-1635900D01*
G01X1083501Y-1735899D01*
G01X983501Y-1835899D01*
G01X983501Y-1785899D01*
G01X783501Y-1785899D01*
G37*
G36*
G01X783501Y-1277899D02*
G01X783501Y-1177900D01*
G01X983501Y-1177900D01*
G01X983501Y-1127900D01*
G01X1083501Y-1227899D01*
G01X983501Y-1327899D01*
G01X983501Y-1277899D01*
G01X783501Y-1277899D01*
G37*
G01X769747Y-2247900D02*
G01X769747Y-3261284D01*
G01X1708501Y-3323900D02*
G01X1683497Y-3263900D01*
G01X1608501Y-3323900D02*
G01X1708501Y-3323900D01*
G01X1633507Y-3263900D02*
G01X1608501Y-3323900D01*
G01X883498Y-3263900D02*
G01X858500Y-3323900D01*
G01X858500Y-3323900D02*
G01X958502Y-3323900D01*
G01X958502Y-3323900D02*
G01X933511Y-3263900D01*
G01X1785747Y-2247900D02*
G01X1785747Y-3261284D01*
G01X1785747Y-2247900D02*
G01X769747Y-2247900D01*
G01X1785493Y-3263900D02*
G01X769493Y-3263900D01*
G36*
G01X783501Y-3055899D02*
G01X783501Y-2955900D01*
G01X983501Y-2955900D01*
G01X983501Y-2905900D01*
G01X1083501Y-3005899D01*
G01X983501Y-3105899D01*
G01X983501Y-3055899D01*
G01X783501Y-3055899D01*
G37*
G36*
G01X783501Y-2547899D02*
G01X783501Y-2447900D01*
G01X983501Y-2447900D01*
G01X983501Y-2397900D01*
G01X1083501Y-2497899D01*
G01X983501Y-2597899D01*
G01X983501Y-2547899D01*
G01X783501Y-2547899D01*
G37*
G01X769747Y-3517900D02*
G01X769747Y-4531284D01*
G01X1708501Y-4593900D02*
G01X1683497Y-4533900D01*
G01X1608501Y-4593900D02*
G01X1708501Y-4593900D01*
G01X1633507Y-4533900D02*
G01X1608501Y-4593900D01*
G01X883498Y-4533900D02*
G01X858500Y-4593900D01*
G01X858500Y-4593900D02*
G01X958502Y-4593900D01*
G01X958502Y-4593900D02*
G01X933511Y-4533900D01*
G01X1785747Y-3517900D02*
G01X1785747Y-4531284D01*
G01X1785747Y-3517900D02*
G01X769747Y-3517900D01*
G01X1785493Y-4533900D02*
G01X769493Y-4533900D01*
G36*
G01X783501Y-4325899D02*
G01X783501Y-4225900D01*
G01X983501Y-4225900D01*
G01X983501Y-4175900D01*
G01X1083501Y-4275899D01*
G01X983501Y-4375899D01*
G01X983501Y-4325899D01*
G01X783501Y-4325899D01*
G37*
G36*
G01X783501Y-3817899D02*
G01X783501Y-3717900D01*
G01X983501Y-3717900D01*
G01X983501Y-3667900D01*
G01X1083501Y-3767899D01*
G01X983501Y-3867899D01*
G01X983501Y-3817899D01*
G01X783501Y-3817899D01*
G37*
G01X3797300Y-2296698D02*
G01X3797300Y-2046699D01*
G01X4076299Y-2046699D02*
G01X1994301Y-2046699D01*
G01X4076299Y-2296698D02*
G01X4076299Y-2046699D01*
G01X1994301Y-2296698D02*
G01X4076299Y-2296698D01*
G01X1994301Y-2046699D02*
G01X1994301Y-2296698D01*
G01X5979254Y-8140695D02*
G01X5862254Y-8023695D01*
G01X5862254Y-8023695D02*
G01X4984801Y-8023695D01*
G01X4984801Y-8023695D02*
G01X4904994Y-8023695D01*
G01X4904994Y-8023695D02*
G01X4787994Y-8140695D01*
G01X4784801Y-5473700D02*
G01X5384800Y-6073699D01*
G01X5384800Y-6073699D02*
G01X5984799Y-5473700D01*
G01X5984799Y-5473700D02*
G01X5384800Y-4873701D01*
G01X5384800Y-4873701D02*
G01X4784801Y-5473700D01*
G01X4241803Y-8140695D02*
G01X6527797Y-8140695D01*
G01X4241803Y-8140695D02*
G01X4241803Y-2806705D01*
G01X4241803Y-2806705D02*
G01X6527797Y-2806705D01*
G01X6527797Y-2806705D02*
G01X6527797Y-8140695D01*
G01X8247253Y-5803900D02*
G01X8247253Y-4790516D01*
G01X7308499Y-4727900D02*
G01X7333503Y-4787900D01*
G01X7408499Y-4727900D02*
G01X7308499Y-4727900D01*
G01X7383493Y-4787900D02*
G01X7408499Y-4727900D01*
G01X8133502Y-4787900D02*
G01X8158500Y-4727900D01*
G01X8158500Y-4727900D02*
G01X8058498Y-4727900D01*
G01X8058498Y-4727900D02*
G01X8083489Y-4787900D01*
G01X7231253Y-5803900D02*
G01X7231253Y-4790516D01*
G01X7231253Y-5803900D02*
G01X8247253Y-5803900D01*
G01X7231507Y-4787900D02*
G01X8247507Y-4787900D01*
G36*
G01X8233499Y-4995901D02*
G01X8233499Y-5095900D01*
G01X8033499Y-5095900D01*
G01X8033499Y-5145900D01*
G01X7933500Y-5045900D01*
G01X8033499Y-4945901D01*
G01X8033499Y-4995901D01*
G01X8233499Y-4995901D01*
G37*
G36*
G01X8233499Y-5503901D02*
G01X8233499Y-5603900D01*
G01X8033499Y-5603900D01*
G01X8033499Y-5653900D01*
G01X7933500Y-5553900D01*
G01X8033499Y-5453901D01*
G01X8033499Y-5503901D01*
G01X8233499Y-5503901D01*
G37*
G01X8445500Y-2154601D02*
G01X8191500Y-2154601D01*
G01X8445500Y-1096599D02*
G01X8445500Y-2154601D01*
G01X8445500Y-1373952D02*
G01X8191500Y-1373952D01*
G01X8191500Y-1096599D02*
G01X8191500Y-2154601D01*
G01X8445500Y-1096599D02*
G01X8191500Y-1096599D01*
G01X7202902Y-2971800D02*
G01X7452901Y-2971800D01*
G01X7452901Y-3250796D02*
G01X7452901Y-660801D01*
G01X7202902Y-3250796D02*
G01X7452901Y-3250796D01*
G01X7202902Y-660801D02*
G01X7202902Y-3250796D01*
G01X7452901Y-660801D02*
G01X7202902Y-660801D01*
G01X2846400Y-6681800D02*
G01X2846400Y-6731800D01*
G01X3046397Y-6816801D02*
G01X3046397Y-6866801D01*
G01X3076400Y-6841800D02*
G01X3017632Y-6841800D01*
G01X3035300Y-6629400D02*
G02X3035300Y-6934200I-96633J-152400D01*
G01X2857500Y-6629400D02*
G03X2857500Y-6934200I91290J-152400D01*

G04 Rect Start*
G01X5984796Y-3273699D02*
G01X4784799Y-3273699D01*
G01X4784799Y-3073700D01*
G01X5984796Y-3073700D01*
G01X5984796Y-3273699D01*
G04 Rect End*

M02*

