G04 Layer: TopSolderMaskLayer*
G04 EasyEDA Pro v3.2.87, 2026-02-03 17:42:00*
G04 Gerber Generator version 0.3*
G04 Scale: 100 percent, Rotated: No, Reflected: No*
G04 Dimensions in millimeters*
G04 Leading zeros omitted, absolute positions, 4 integers and 5 decimals*
G04 Generated by one-click*
%FSLAX45Y45*%
%MOMM*%
%AMRoundRect*1,1,$1,$2,$3*1,1,$1,$4,$5*1,1,$1,0-$2,0-$3*1,1,$1,0-$4,0-$5*20,1,$1,$2,$3,$4,$5,0*20,1,$1,$4,$5,0-$2,0-$3,0*20,1,$1,0-$2,0-$3,0-$4,0-$5,0*20,1,$1,0-$4,0-$5,$2,$3,0*4,1,4,$2,$3,$4,$5,0-$2,0-$3,0-$4,0-$5,$2,$3,0*%
%ADD10C,6.4516*%
%ADD11RoundRect,0.1016X-0.85X-0.85X-0.85X0.85*%
%ADD12C,1.8016*%
%ADD13C,2.1016*%
%ADD14RoundRect,0.1016X-0.8X0.8X0.8X0.8*%
%ADD15C,1.7016*%
%ADD16RoundRect,0.1016X-0.85X-0.7874X-0.85X0.7874*%
%ADD17C,1.6081*%
%ADD18C,1.6016*%
G75*


G04 Pad Start*
G54D10*
G01X469900Y-762000D03*
G01X8547100Y-711200D03*
G01X482600Y-8788400D03*
G01X8547100Y-8750300D03*
G54D11*
G01X8318500Y-3187700D03*
G54D12*
G01X8318500Y-2933700D03*
G01X8318500Y-2679700D03*
G01X8318500Y-2425700D03*
G54D13*
G01X7683500Y-6819900D03*
G01X7683500Y-6311900D03*
G01X7683500Y-8089900D03*
G01X7683500Y-7581900D03*
G01X1333500Y-5041900D03*
G01X1333500Y-5549900D03*
G54D14*
G01X3924301Y-3695701D03*
G54D15*
G01X3670301Y-3695701D03*
G01X3416301Y-3695701D03*
G01X3162301Y-3695701D03*
G01X2908301Y-3695701D03*
G01X2654301Y-3695701D03*
G01X2400301Y-3695701D03*
G01X2146301Y-3695701D03*
G54D14*
G01X3924301Y-5219701D03*
G54D15*
G01X3670301Y-5219701D03*
G01X3416301Y-5219701D03*
G01X3162301Y-5219701D03*
G01X2908301Y-5219701D03*
G01X2654301Y-5219701D03*
G01X2400301Y-5219701D03*
G01X2146301Y-5219701D03*
G54D13*
G01X1333500Y-7581900D03*
G01X1333500Y-8089900D03*
G01X1333500Y-6311900D03*
G01X1333500Y-6819900D03*
G01X7683500Y-4279900D03*
G01X7683500Y-3771900D03*
G01X1333500Y-1231900D03*
G01X1333500Y-1739900D03*
G01X1333500Y-2501900D03*
G01X1333500Y-3009900D03*
G01X1333500Y-3771900D03*
G01X1333500Y-4279900D03*
G54D14*
G01X3924300Y-2171700D03*
G54D15*
G01X3670300Y-2171700D03*
G01X3416300Y-2171700D03*
G01X3162300Y-2171700D03*
G01X2908300Y-2171700D03*
G01X2654300Y-2171700D03*
G01X2400300Y-2171700D03*
G01X2146300Y-2171700D03*
G01X6146797Y-7886695D03*
G01X6146797Y-7632695D03*
G01X6146797Y-7378695D03*
G01X6146797Y-7124695D03*
G01X6146797Y-6870695D03*
G01X6146797Y-6616695D03*
G01X6146797Y-6362695D03*
G01X6146797Y-6108695D03*
G01X6146797Y-5854695D03*
G01X6146797Y-5600695D03*
G01X6146797Y-5346695D03*
G01X6146797Y-5092695D03*
G01X6146797Y-4838695D03*
G01X6146797Y-4584695D03*
G01X6146797Y-4330695D03*
G01X6146797Y-4076695D03*
G01X6146797Y-3822695D03*
G01X6146797Y-3568695D03*
G01X6146797Y-3314695D03*
G01X6146797Y-3060695D03*
G01X4622797Y-3060695D03*
G01X4622797Y-3314695D03*
G01X4622797Y-3568695D03*
G01X4622797Y-3822695D03*
G01X4622797Y-4076695D03*
G01X4622797Y-4330695D03*
G01X4622797Y-4584695D03*
G01X4622797Y-4838695D03*
G01X4622797Y-5092695D03*
G01X4622797Y-5346695D03*
G01X4622797Y-5600695D03*
G01X4622797Y-5854695D03*
G01X4622797Y-6108695D03*
G01X4622797Y-6362695D03*
G01X4622797Y-6616695D03*
G01X4622797Y-6870695D03*
G01X4622797Y-7124695D03*
G01X4622797Y-7378695D03*
G01X4622797Y-7632695D03*
G01X4622797Y-7886695D03*
G54D13*
G01X7683500Y-5549900D03*
G01X7683500Y-5041900D03*
G54D11*
G01X8318500Y-1244600D03*
G54D12*
G01X8318500Y-1498600D03*
G01X8318500Y-1752600D03*
G01X8318500Y-2006600D03*
G01X7327900Y-812800D03*
G01X7327900Y-1066800D03*
G01X7327900Y-1320800D03*
G01X7327900Y-1574800D03*
G01X7327900Y-1828800D03*
G01X7327900Y-2082800D03*
G01X7327900Y-2336800D03*
G01X7327900Y-2590800D03*
G01X7327900Y-2844800D03*
G54D16*
G01X7327900Y-3098800D03*
G54D18*
G01X2946400Y-6654800D03*
G01X2946400Y-6908800D03*
G04 Pad End*

M02*

