G04 Layer: BottomLayer*
G04 EasyEDA Pro v3.2.87, 2026-02-03 17:42:00*
G04 Gerber Generator version 0.3*
G04 Scale: 100 percent, Rotated: No, Reflected: No*
G04 Dimensions in millimeters*
G04 Leading zeros omitted, absolute positions, 4 integers and 5 decimals*
G04 Generated by one-click*
%FSLAX45Y45*%
%MOMM*%
%ADD10C,0.2032*%
%ADD11C,0.254*%
%ADD12C,6.35*%
%ADD13R,1.7X1.7*%
%ADD14C,1.7*%
%ADD15C,2.0092*%
%ADD16C,2.0*%
%ADD17R,1.6X1.6*%
%ADD18C,1.6*%
%ADD19R,1.7X1.5748*%
%ADD20C,1.5*%
%ADD21C,0.61*%
%ADD22C,1.27*%
G75*


G04 Copper Start*
G36*
G01X8917686Y-340614D02*
G01X8917686Y-9158986D01*
G01X99314Y-9158986D01*
G01X99314Y-8788400D01*
G01X129286Y-8788400D01*
G01X131221Y-8825331D01*
G01X137007Y-8861858D01*
G01X146578Y-8897580D01*
G01X159832Y-8932106D01*
G01X176621Y-8965057D01*
G01X196763Y-8996073D01*
G01X220037Y-9024813D01*
G01X246187Y-9050963D01*
G01X274927Y-9074237D01*
G01X305943Y-9094379D01*
G01X338894Y-9111168D01*
G01X373420Y-9124422D01*
G01X409142Y-9133993D01*
G01X445669Y-9139779D01*
G01X482600Y-9141714D01*
G01X519531Y-9139779D01*
G01X556058Y-9133993D01*
G01X591780Y-9124422D01*
G01X626306Y-9111168D01*
G01X659257Y-9094379D01*
G01X690273Y-9074237D01*
G01X719013Y-9050963D01*
G01X745163Y-9024813D01*
G01X768437Y-8996073D01*
G01X788579Y-8965057D01*
G01X805368Y-8932106D01*
G01X818622Y-8897580D01*
G01X828193Y-8861858D01*
G01X833979Y-8825331D01*
G01X835914Y-8788400D01*
G01X833979Y-8751469D01*
G01X833793Y-8750300D01*
G01X8193786Y-8750300D01*
G01X8195721Y-8787231D01*
G01X8201507Y-8823758D01*
G01X8211078Y-8859480D01*
G01X8224332Y-8894006D01*
G01X8241121Y-8926957D01*
G01X8261263Y-8957973D01*
G01X8284537Y-8986713D01*
G01X8310687Y-9012863D01*
G01X8339427Y-9036137D01*
G01X8370443Y-9056279D01*
G01X8403394Y-9073068D01*
G01X8437920Y-9086322D01*
G01X8473642Y-9095893D01*
G01X8510169Y-9101679D01*
G01X8547100Y-9103614D01*
G01X8584031Y-9101679D01*
G01X8620558Y-9095893D01*
G01X8656280Y-9086322D01*
G01X8690806Y-9073068D01*
G01X8723757Y-9056279D01*
G01X8754773Y-9036137D01*
G01X8783513Y-9012863D01*
G01X8809663Y-8986713D01*
G01X8832937Y-8957973D01*
G01X8853079Y-8926957D01*
G01X8869868Y-8894006D01*
G01X8883122Y-8859480D01*
G01X8892693Y-8823758D01*
G01X8898479Y-8787231D01*
G01X8900414Y-8750300D01*
G01X8898479Y-8713369D01*
G01X8892693Y-8676842D01*
G01X8883122Y-8641120D01*
G01X8869868Y-8606594D01*
G01X8853079Y-8573643D01*
G01X8832937Y-8542627D01*
G01X8809663Y-8513887D01*
G01X8783513Y-8487737D01*
G01X8754773Y-8464463D01*
G01X8723757Y-8444321D01*
G01X8690806Y-8427532D01*
G01X8656280Y-8414278D01*
G01X8620558Y-8404707D01*
G01X8584031Y-8398921D01*
G01X8547100Y-8396986D01*
G01X8510169Y-8398921D01*
G01X8473642Y-8404707D01*
G01X8437920Y-8414278D01*
G01X8403394Y-8427532D01*
G01X8370443Y-8444321D01*
G01X8339427Y-8464463D01*
G01X8310687Y-8487737D01*
G01X8284537Y-8513887D01*
G01X8261263Y-8542627D01*
G01X8241121Y-8573643D01*
G01X8224332Y-8606594D01*
G01X8211078Y-8641120D01*
G01X8201507Y-8676842D01*
G01X8195721Y-8713369D01*
G01X8193786Y-8750300D01*
G01X8193786Y-8750300D01*
G01X833793Y-8750300D01*
G01X828193Y-8714942D01*
G01X818622Y-8679220D01*
G01X805368Y-8644694D01*
G01X788579Y-8611743D01*
G01X768437Y-8580727D01*
G01X745163Y-8551987D01*
G01X719013Y-8525837D01*
G01X690273Y-8502563D01*
G01X659257Y-8482421D01*
G01X626306Y-8465632D01*
G01X591780Y-8452378D01*
G01X556058Y-8442807D01*
G01X519531Y-8437021D01*
G01X482600Y-8435086D01*
G01X445669Y-8437021D01*
G01X409142Y-8442807D01*
G01X373420Y-8452378D01*
G01X338894Y-8465632D01*
G01X305943Y-8482421D01*
G01X274927Y-8502563D01*
G01X246187Y-8525837D01*
G01X220037Y-8551987D01*
G01X196763Y-8580727D01*
G01X176621Y-8611743D01*
G01X159832Y-8644694D01*
G01X146578Y-8679220D01*
G01X137007Y-8714942D01*
G01X131221Y-8751469D01*
G01X129286Y-8788400D01*
G01X129286Y-8788400D01*
G01X99314Y-8788400D01*
G01X99314Y-8078685D01*
G01X1198150Y-8078685D01*
G01X1198150Y-8101115D01*
G01X1201842Y-8123240D01*
G01X1209125Y-8144456D01*
G01X1219801Y-8164183D01*
G01X1233579Y-8181884D01*
G01X1250081Y-8197076D01*
G01X1268860Y-8209345D01*
G01X1289401Y-8218355D01*
G01X1311146Y-8223861D01*
G01X1333500Y-8225714D01*
G01X1355854Y-8223861D01*
G01X1377599Y-8218355D01*
G01X1398140Y-8209345D01*
G01X1416919Y-8197076D01*
G01X1433421Y-8181884D01*
G01X1447199Y-8164183D01*
G01X1457875Y-8144456D01*
G01X1465158Y-8123240D01*
G01X1468850Y-8101115D01*
G01X1468850Y-8078685D01*
G01X7548150Y-8078685D01*
G01X7548150Y-8101115D01*
G01X7551842Y-8123240D01*
G01X7559125Y-8144456D01*
G01X7569801Y-8164183D01*
G01X7583579Y-8181884D01*
G01X7600081Y-8197076D01*
G01X7618860Y-8209345D01*
G01X7639401Y-8218355D01*
G01X7661146Y-8223861D01*
G01X7683500Y-8225714D01*
G01X7683500Y-8225714D01*
G01X7705854Y-8223861D01*
G01X7727599Y-8218355D01*
G01X7748140Y-8209345D01*
G01X7766919Y-8197076D01*
G01X7783421Y-8181884D01*
G01X7797199Y-8164183D01*
G01X7807875Y-8144456D01*
G01X7815158Y-8123240D01*
G01X7818850Y-8101115D01*
G01X7818850Y-8078685D01*
G01X7815158Y-8056560D01*
G01X7807875Y-8035344D01*
G01X7797199Y-8015617D01*
G01X7783421Y-7997916D01*
G01X7766919Y-7982724D01*
G01X7748140Y-7970455D01*
G01X7727599Y-7961445D01*
G01X7705854Y-7955939D01*
G01X7683500Y-7954086D01*
G01X7661146Y-7955939D01*
G01X7639401Y-7961445D01*
G01X7618860Y-7970455D01*
G01X7600081Y-7982724D01*
G01X7583579Y-7997916D01*
G01X7569801Y-8015617D01*
G01X7559125Y-8035344D01*
G01X7551842Y-8056560D01*
G01X7548150Y-8078685D01*
G01X1468850Y-8078685D01*
G01X1465158Y-8056560D01*
G01X1457875Y-8035344D01*
G01X1447199Y-8015617D01*
G01X1433421Y-7997916D01*
G01X1416919Y-7982724D01*
G01X1398140Y-7970455D01*
G01X1377599Y-7961445D01*
G01X1355854Y-7955939D01*
G01X1333500Y-7954086D01*
G01X1333500Y-7954086D01*
G01X1311146Y-7955939D01*
G01X1289401Y-7961445D01*
G01X1268860Y-7970455D01*
G01X1250081Y-7982724D01*
G01X1233579Y-7997916D01*
G01X1219801Y-8015617D01*
G01X1209125Y-8035344D01*
G01X1201842Y-8056560D01*
G01X1198150Y-8078685D01*
G01X99314Y-8078685D01*
G01X99314Y-7876009D01*
G01X4507478Y-7876009D01*
G01X4507478Y-7897381D01*
G01X4511405Y-7918389D01*
G01X4519125Y-7938318D01*
G01X4530376Y-7956488D01*
G01X4544774Y-7972282D01*
G01X4561829Y-7985162D01*
G01X4580961Y-7994688D01*
G01X4601517Y-8000537D01*
G01X4622797Y-8002509D01*
G01X4622797Y-8002509D01*
G01X4644078Y-8000537D01*
G01X4664634Y-7994688D01*
G01X4683766Y-7985162D01*
G01X4700821Y-7972282D01*
G01X4715219Y-7956488D01*
G01X4726470Y-7938318D01*
G01X4734190Y-7918389D01*
G01X4738117Y-7897381D01*
G01X4738117Y-7876009D01*
G01X4734190Y-7855001D01*
G01X4726470Y-7835072D01*
G01X4715219Y-7816901D01*
G01X4700821Y-7801107D01*
G01X4683766Y-7788228D01*
G01X4664634Y-7778702D01*
G01X4644078Y-7772853D01*
G01X4622797Y-7770881D01*
G01X4601517Y-7772853D01*
G01X4580961Y-7778702D01*
G01X4561829Y-7788228D01*
G01X4544774Y-7801107D01*
G01X4530376Y-7816901D01*
G01X4519125Y-7835072D01*
G01X4511405Y-7855001D01*
G01X4507478Y-7876009D01*
G01X99314Y-7876009D01*
G01X99314Y-7570685D01*
G01X1198150Y-7570685D01*
G01X1198150Y-7593115D01*
G01X1201842Y-7615240D01*
G01X1209125Y-7636456D01*
G01X1219801Y-7656183D01*
G01X1233579Y-7673884D01*
G01X1250081Y-7689076D01*
G01X1268860Y-7701345D01*
G01X1289401Y-7710355D01*
G01X1311146Y-7715861D01*
G01X1333500Y-7717714D01*
G01X1355854Y-7715861D01*
G01X1377599Y-7710355D01*
G01X1398140Y-7701345D01*
G01X1416919Y-7689076D01*
G01X1433421Y-7673884D01*
G01X1447199Y-7656183D01*
G01X1457875Y-7636456D01*
G01X1462834Y-7622009D01*
G01X4507478Y-7622009D01*
G01X4507478Y-7643381D01*
G01X4511405Y-7664389D01*
G01X4519125Y-7684318D01*
G01X4530376Y-7702488D01*
G01X4544774Y-7718282D01*
G01X4561829Y-7731162D01*
G01X4580961Y-7740688D01*
G01X4601517Y-7746537D01*
G01X4622797Y-7748509D01*
G01X4622797Y-7748509D01*
G01X4644078Y-7746537D01*
G01X4664634Y-7740688D01*
G01X4683766Y-7731162D01*
G01X4700821Y-7718282D01*
G01X4715219Y-7702488D01*
G01X4726470Y-7684318D01*
G01X4734190Y-7664389D01*
G01X4738117Y-7643381D01*
G01X4738117Y-7622009D01*
G01X4734190Y-7601001D01*
G01X4726470Y-7581072D01*
G01X4715219Y-7562901D01*
G01X4700821Y-7547107D01*
G01X4683766Y-7534228D01*
G01X4664634Y-7524702D01*
G01X4644078Y-7518853D01*
G01X4622797Y-7516881D01*
G01X4601517Y-7518853D01*
G01X4580961Y-7524702D01*
G01X4561829Y-7534228D01*
G01X4544774Y-7547107D01*
G01X4530376Y-7562901D01*
G01X4519125Y-7581072D01*
G01X4511405Y-7601001D01*
G01X4507478Y-7622009D01*
G01X1462834Y-7622009D01*
G01X1465158Y-7615240D01*
G01X1468850Y-7593115D01*
G01X1468850Y-7570685D01*
G01X1465158Y-7548560D01*
G01X1457875Y-7527344D01*
G01X1447199Y-7507617D01*
G01X1433421Y-7489916D01*
G01X1416919Y-7474724D01*
G01X1398140Y-7462455D01*
G01X1377599Y-7453445D01*
G01X1355854Y-7447939D01*
G01X1333500Y-7446086D01*
G01X1333500Y-7446086D01*
G01X1311146Y-7447939D01*
G01X1289401Y-7453445D01*
G01X1268860Y-7462455D01*
G01X1250081Y-7474724D01*
G01X1233579Y-7489916D01*
G01X1219801Y-7507617D01*
G01X1209125Y-7527344D01*
G01X1201842Y-7548560D01*
G01X1198150Y-7570685D01*
G01X99314Y-7570685D01*
G01X99314Y-7368009D01*
G01X4507478Y-7368009D01*
G01X4507478Y-7389381D01*
G01X4511405Y-7410389D01*
G01X4519125Y-7430318D01*
G01X4530376Y-7448488D01*
G01X4544774Y-7464282D01*
G01X4561829Y-7477162D01*
G01X4580961Y-7486688D01*
G01X4601517Y-7492537D01*
G01X4622797Y-7494509D01*
G01X4622797Y-7494509D01*
G01X4644078Y-7492537D01*
G01X4664634Y-7486688D01*
G01X4683766Y-7477162D01*
G01X4700821Y-7464282D01*
G01X4715219Y-7448488D01*
G01X4726470Y-7430318D01*
G01X4734190Y-7410389D01*
G01X4738117Y-7389381D01*
G01X4738117Y-7378695D01*
G01X6030984Y-7378695D01*
G01X6032868Y-7399500D01*
G01X6038459Y-7419628D01*
G01X6047575Y-7438425D01*
G01X6059919Y-7455278D01*
G01X6075090Y-7469639D01*
G01X6092594Y-7481042D01*
G01X6111862Y-7489114D01*
G01X6132266Y-7493594D01*
G01X6153143Y-7494335D01*
G01X6173814Y-7491314D01*
G01X6193606Y-7484628D01*
G01X6211875Y-7474496D01*
G01X6228026Y-7461247D01*
G01X6241534Y-7445312D01*
G01X6251960Y-7427209D01*
G01X6652300Y-7427209D01*
G01X6664786Y-7425575D01*
G01X6664786Y-7584181D01*
G01X6251960Y-7584181D01*
G01X6241534Y-7566078D01*
G01X6228026Y-7550143D01*
G01X6211875Y-7536894D01*
G01X6193606Y-7526762D01*
G01X6173814Y-7520076D01*
G01X6153143Y-7517055D01*
G01X6132266Y-7517796D01*
G01X6111862Y-7522276D01*
G01X6092594Y-7530348D01*
G01X6075090Y-7541751D01*
G01X6059919Y-7556112D01*
G01X6047575Y-7572965D01*
G01X6038459Y-7591761D01*
G01X6032868Y-7611890D01*
G01X6030984Y-7632695D01*
G01X6032868Y-7653500D01*
G01X6038459Y-7673628D01*
G01X6047575Y-7692425D01*
G01X6059919Y-7709278D01*
G01X6075090Y-7723639D01*
G01X6092594Y-7735042D01*
G01X6111862Y-7743114D01*
G01X6132266Y-7747594D01*
G01X6153143Y-7748335D01*
G01X6173814Y-7745314D01*
G01X6193606Y-7738628D01*
G01X6211875Y-7728496D01*
G01X6228026Y-7715247D01*
G01X6241534Y-7699312D01*
G01X6251960Y-7681209D01*
G01X6687900Y-7681209D01*
G01X6700386Y-7679575D01*
G01X6700386Y-7838181D01*
G01X6251960Y-7838181D01*
G01X6241534Y-7820078D01*
G01X6228026Y-7804143D01*
G01X6211875Y-7790894D01*
G01X6193606Y-7780762D01*
G01X6173814Y-7774076D01*
G01X6153143Y-7771055D01*
G01X6132266Y-7771796D01*
G01X6111862Y-7776276D01*
G01X6092594Y-7784348D01*
G01X6075090Y-7795751D01*
G01X6059919Y-7810112D01*
G01X6047575Y-7826965D01*
G01X6038459Y-7845761D01*
G01X6032868Y-7865890D01*
G01X6030984Y-7886695D01*
G01X6032868Y-7907500D01*
G01X6038459Y-7927628D01*
G01X6047575Y-7946425D01*
G01X6059919Y-7963278D01*
G01X6075090Y-7977639D01*
G01X6092594Y-7989042D01*
G01X6111862Y-7997114D01*
G01X6132266Y-8001594D01*
G01X6153143Y-8002335D01*
G01X6173814Y-7999314D01*
G01X6193606Y-7992628D01*
G01X6211875Y-7982496D01*
G01X6228026Y-7969247D01*
G01X6241534Y-7953312D01*
G01X6251960Y-7935209D01*
G01X6748900Y-7935209D01*
G01X6761456Y-7933556D01*
G01X6773157Y-7928709D01*
G01X6783204Y-7920999D01*
G01X6790914Y-7910952D01*
G01X6795761Y-7899251D01*
G01X6797414Y-7886695D01*
G01X6797414Y-7570685D01*
G01X7548150Y-7570685D01*
G01X7548150Y-7593115D01*
G01X7551842Y-7615240D01*
G01X7559125Y-7636456D01*
G01X7569801Y-7656183D01*
G01X7583579Y-7673884D01*
G01X7600081Y-7689076D01*
G01X7618860Y-7701345D01*
G01X7639401Y-7710355D01*
G01X7661146Y-7715861D01*
G01X7683500Y-7717714D01*
G01X7683500Y-7717714D01*
G01X7705854Y-7715861D01*
G01X7727599Y-7710355D01*
G01X7748140Y-7701345D01*
G01X7766919Y-7689076D01*
G01X7783421Y-7673884D01*
G01X7797199Y-7656183D01*
G01X7807875Y-7636456D01*
G01X7815158Y-7615240D01*
G01X7818850Y-7593115D01*
G01X7818850Y-7570685D01*
G01X7815158Y-7548560D01*
G01X7807875Y-7527344D01*
G01X7797199Y-7507617D01*
G01X7783421Y-7489916D01*
G01X7766919Y-7474724D01*
G01X7748140Y-7462455D01*
G01X7727599Y-7453445D01*
G01X7705854Y-7447939D01*
G01X7683500Y-7446086D01*
G01X7661146Y-7447939D01*
G01X7639401Y-7453445D01*
G01X7618860Y-7462455D01*
G01X7600081Y-7474724D01*
G01X7583579Y-7489916D01*
G01X7569801Y-7507617D01*
G01X7559125Y-7527344D01*
G01X7551842Y-7548560D01*
G01X7548150Y-7570685D01*
G01X6797414Y-7570685D01*
G01X6797414Y-6808685D01*
G01X7548150Y-6808685D01*
G01X7548150Y-6831115D01*
G01X7551842Y-6853240D01*
G01X7559125Y-6874456D01*
G01X7569801Y-6894183D01*
G01X7583579Y-6911884D01*
G01X7600081Y-6927076D01*
G01X7618860Y-6939345D01*
G01X7639401Y-6948355D01*
G01X7661146Y-6953861D01*
G01X7683500Y-6955714D01*
G01X7683500Y-6955714D01*
G01X7705854Y-6953861D01*
G01X7727599Y-6948355D01*
G01X7748140Y-6939345D01*
G01X7766919Y-6927076D01*
G01X7783421Y-6911884D01*
G01X7797199Y-6894183D01*
G01X7807875Y-6874456D01*
G01X7815158Y-6853240D01*
G01X7818850Y-6831115D01*
G01X7818850Y-6808685D01*
G01X7815158Y-6786560D01*
G01X7807875Y-6765344D01*
G01X7797199Y-6745617D01*
G01X7783421Y-6727916D01*
G01X7766919Y-6712724D01*
G01X7748140Y-6700455D01*
G01X7727599Y-6691445D01*
G01X7705854Y-6685939D01*
G01X7683500Y-6684086D01*
G01X7661146Y-6685939D01*
G01X7639401Y-6691445D01*
G01X7618860Y-6700455D01*
G01X7600081Y-6712724D01*
G01X7583579Y-6727916D01*
G01X7569801Y-6745617D01*
G01X7559125Y-6765344D01*
G01X7551842Y-6786560D01*
G01X7548150Y-6808685D01*
G01X6797414Y-6808685D01*
G01X6797414Y-6411160D01*
G01X6799700Y-6411214D01*
G01X6876290Y-6411214D01*
G01X6888661Y-6420312D01*
G01X6902794Y-6426321D01*
G01X6917929Y-6428918D01*
G01X6933256Y-6427964D01*
G01X6947953Y-6423510D01*
G01X6961231Y-6415794D01*
G01X6972378Y-6405232D01*
G01X6980797Y-6392389D01*
G01X6986036Y-6377953D01*
G01X6987814Y-6362700D01*
G01X6986036Y-6347447D01*
G01X6980797Y-6333011D01*
G01X6972378Y-6320168D01*
G01X6961231Y-6309606D01*
G01X6947953Y-6301890D01*
G01X6943974Y-6300685D01*
G01X7548150Y-6300685D01*
G01X7548150Y-6323115D01*
G01X7551842Y-6345240D01*
G01X7559125Y-6366456D01*
G01X7569801Y-6386183D01*
G01X7583579Y-6403884D01*
G01X7600081Y-6419076D01*
G01X7618860Y-6431345D01*
G01X7639401Y-6440355D01*
G01X7661146Y-6445861D01*
G01X7683500Y-6447714D01*
G01X7683500Y-6447714D01*
G01X7705854Y-6445861D01*
G01X7727599Y-6440355D01*
G01X7748140Y-6431345D01*
G01X7766919Y-6419076D01*
G01X7783421Y-6403884D01*
G01X7797199Y-6386183D01*
G01X7807875Y-6366456D01*
G01X7815158Y-6345240D01*
G01X7818850Y-6323115D01*
G01X7818850Y-6300685D01*
G01X7815158Y-6278560D01*
G01X7807875Y-6257344D01*
G01X7797199Y-6237617D01*
G01X7783421Y-6219916D01*
G01X7766919Y-6204724D01*
G01X7748140Y-6192455D01*
G01X7727599Y-6183445D01*
G01X7705854Y-6177939D01*
G01X7683500Y-6176086D01*
G01X7661146Y-6177939D01*
G01X7639401Y-6183445D01*
G01X7618860Y-6192455D01*
G01X7600081Y-6204724D01*
G01X7583579Y-6219916D01*
G01X7569801Y-6237617D01*
G01X7559125Y-6257344D01*
G01X7551842Y-6278560D01*
G01X7548150Y-6300685D01*
G01X6943974Y-6300685D01*
G01X6933256Y-6297436D01*
G01X6917929Y-6296482D01*
G01X6902794Y-6299079D01*
G01X6888661Y-6305088D01*
G01X6876290Y-6314186D01*
G01X6848214Y-6314186D01*
G01X6848214Y-5994400D01*
G01X7058386Y-5994400D01*
G01X7060164Y-6009653D01*
G01X7065403Y-6024089D01*
G01X7073822Y-6036932D01*
G01X7084969Y-6047494D01*
G01X7098247Y-6055210D01*
G01X7112944Y-6059664D01*
G01X7128271Y-6060618D01*
G01X7143406Y-6058021D01*
G01X7157539Y-6052012D01*
G01X7169910Y-6042914D01*
G01X8432800Y-6042914D01*
G01X8445356Y-6041261D01*
G01X8457057Y-6036414D01*
G01X8467105Y-6028705D01*
G01X8530605Y-5965205D01*
G01X8538314Y-5955157D01*
G01X8543161Y-5943456D01*
G01X8544814Y-5930900D01*
G01X8544814Y-2679700D01*
G01X8543161Y-2667144D01*
G01X8538314Y-2655443D01*
G01X8530605Y-2645395D01*
G01X8520557Y-2637686D01*
G01X8508856Y-2632839D01*
G01X8496300Y-2631186D01*
G01X8429145Y-2631186D01*
G01X8418544Y-2611972D01*
G01X8404642Y-2594992D01*
G01X8387899Y-2580807D01*
G01X8368865Y-2569885D01*
G01X8348170Y-2562586D01*
G01X8326495Y-2559151D01*
G01X8304557Y-2559693D01*
G01X8283079Y-2564195D01*
G01X8262770Y-2572508D01*
G01X8244299Y-2584357D01*
G01X8228277Y-2599352D01*
G01X8215231Y-2616998D01*
G01X8205593Y-2636713D01*
G01X8199679Y-2657846D01*
G01X8197686Y-2679700D01*
G01X8199679Y-2701554D01*
G01X8205593Y-2722687D01*
G01X8215231Y-2742402D01*
G01X8228277Y-2760048D01*
G01X8244299Y-2775043D01*
G01X8262770Y-2786892D01*
G01X8283079Y-2795205D01*
G01X8304557Y-2799707D01*
G01X8326495Y-2800249D01*
G01X8348170Y-2796814D01*
G01X8368865Y-2789515D01*
G01X8387899Y-2778593D01*
G01X8404642Y-2764408D01*
G01X8418544Y-2747428D01*
G01X8429145Y-2728214D01*
G01X8447786Y-2728214D01*
G01X8447786Y-5910805D01*
G01X8412705Y-5945886D01*
G01X8412705Y-5945886D01*
G01X7169910Y-5945886D01*
G01X7157539Y-5936788D01*
G01X7143406Y-5930779D01*
G01X7128271Y-5928182D01*
G01X7112944Y-5929136D01*
G01X7098247Y-5933590D01*
G01X7084969Y-5941306D01*
G01X7073822Y-5951868D01*
G01X7065403Y-5964711D01*
G01X7060164Y-5979147D01*
G01X7058386Y-5994400D01*
G01X6848214Y-5994400D01*
G01X6848214Y-5538685D01*
G01X7548150Y-5538685D01*
G01X7548150Y-5561115D01*
G01X7551842Y-5583240D01*
G01X7559125Y-5604456D01*
G01X7569801Y-5624183D01*
G01X7583579Y-5641884D01*
G01X7600081Y-5657076D01*
G01X7618860Y-5669345D01*
G01X7639401Y-5678355D01*
G01X7661146Y-5683861D01*
G01X7683500Y-5685714D01*
G01X7683500Y-5685714D01*
G01X7705854Y-5683861D01*
G01X7727599Y-5678355D01*
G01X7748140Y-5669345D01*
G01X7766919Y-5657076D01*
G01X7783421Y-5641884D01*
G01X7797199Y-5624183D01*
G01X7807875Y-5604456D01*
G01X7815158Y-5583240D01*
G01X7818850Y-5561115D01*
G01X7818850Y-5538685D01*
G01X7815158Y-5516560D01*
G01X7807875Y-5495344D01*
G01X7797199Y-5475617D01*
G01X7783421Y-5457916D01*
G01X7766919Y-5442724D01*
G01X7748140Y-5430455D01*
G01X7727599Y-5421445D01*
G01X7705854Y-5415939D01*
G01X7683500Y-5414086D01*
G01X7661146Y-5415939D01*
G01X7639401Y-5421445D01*
G01X7618860Y-5430455D01*
G01X7600081Y-5442724D01*
G01X7583579Y-5457916D01*
G01X7569801Y-5475617D01*
G01X7559125Y-5495344D01*
G01X7551842Y-5516560D01*
G01X7548150Y-5538685D01*
G01X6848214Y-5538685D01*
G01X6848214Y-5030685D01*
G01X7548150Y-5030685D01*
G01X7548150Y-5053115D01*
G01X7551842Y-5075240D01*
G01X7559125Y-5096456D01*
G01X7569801Y-5116183D01*
G01X7583579Y-5133884D01*
G01X7600081Y-5149076D01*
G01X7618860Y-5161345D01*
G01X7639401Y-5170355D01*
G01X7661146Y-5175861D01*
G01X7683500Y-5177714D01*
G01X7683500Y-5177714D01*
G01X7705854Y-5175861D01*
G01X7727599Y-5170355D01*
G01X7748140Y-5161345D01*
G01X7766919Y-5149076D01*
G01X7783421Y-5133884D01*
G01X7797199Y-5116183D01*
G01X7807875Y-5096456D01*
G01X7815158Y-5075240D01*
G01X7818850Y-5053115D01*
G01X7818850Y-5030685D01*
G01X7815158Y-5008560D01*
G01X7807875Y-4987344D01*
G01X7797199Y-4967617D01*
G01X7783421Y-4949916D01*
G01X7766919Y-4934724D01*
G01X7748140Y-4922455D01*
G01X7727599Y-4913445D01*
G01X7705854Y-4907939D01*
G01X7683500Y-4906086D01*
G01X7661146Y-4907939D01*
G01X7639401Y-4913445D01*
G01X7618860Y-4922455D01*
G01X7600081Y-4934724D01*
G01X7583579Y-4949916D01*
G01X7569801Y-4967617D01*
G01X7559125Y-4987344D01*
G01X7551842Y-5008560D01*
G01X7548150Y-5030685D01*
G01X6848214Y-5030685D01*
G01X6848214Y-4268685D01*
G01X7548150Y-4268685D01*
G01X7548150Y-4291115D01*
G01X7551842Y-4313240D01*
G01X7559125Y-4334456D01*
G01X7569801Y-4354183D01*
G01X7583579Y-4371884D01*
G01X7600081Y-4387076D01*
G01X7618860Y-4399345D01*
G01X7639401Y-4408355D01*
G01X7661146Y-4413861D01*
G01X7683500Y-4415714D01*
G01X7683500Y-4415714D01*
G01X7705854Y-4413861D01*
G01X7727599Y-4408355D01*
G01X7748140Y-4399345D01*
G01X7766919Y-4387076D01*
G01X7783421Y-4371884D01*
G01X7797199Y-4354183D01*
G01X7807875Y-4334456D01*
G01X7815158Y-4313240D01*
G01X7818850Y-4291115D01*
G01X7818850Y-4268685D01*
G01X7815158Y-4246560D01*
G01X7807875Y-4225344D01*
G01X7797199Y-4205617D01*
G01X7783421Y-4187916D01*
G01X7766919Y-4172724D01*
G01X7748140Y-4160455D01*
G01X7727599Y-4151445D01*
G01X7705854Y-4145939D01*
G01X7683500Y-4144086D01*
G01X7661146Y-4145939D01*
G01X7639401Y-4151445D01*
G01X7618860Y-4160455D01*
G01X7600081Y-4172724D01*
G01X7583579Y-4187916D01*
G01X7569801Y-4205617D01*
G01X7559125Y-4225344D01*
G01X7551842Y-4246560D01*
G01X7548150Y-4268685D01*
G01X6848214Y-4268685D01*
G01X6848214Y-3830474D01*
G01X6859705Y-3840034D01*
G01X6873045Y-3846778D01*
G01X6887557Y-3850362D01*
G01X6902503Y-3850604D01*
G01X6917124Y-3847493D01*
G01X6930676Y-3841186D01*
G01X6942472Y-3832005D01*
G01X6951911Y-3820414D01*
G01X7556647Y-3820414D01*
G01X7566837Y-3841435D01*
G01X7580479Y-3860398D01*
G01X7597168Y-3876744D01*
G01X7616412Y-3889987D01*
G01X7637641Y-3899737D01*
G01X7660226Y-3905705D01*
G01X7683500Y-3907714D01*
G01X7706774Y-3905705D01*
G01X7729359Y-3899737D01*
G01X7750588Y-3889987D01*
G01X7769832Y-3876744D01*
G01X7786521Y-3860398D01*
G01X7800163Y-3841435D01*
G01X7810353Y-3820414D01*
G01X8318500Y-3820414D01*
G01X8331056Y-3818761D01*
G01X8342757Y-3813914D01*
G01X8352805Y-3806205D01*
G01X8360514Y-3796157D01*
G01X8365361Y-3784456D01*
G01X8367014Y-3771900D01*
G01X8367014Y-3308514D01*
G01X8403500Y-3308514D01*
G01X8414567Y-3306761D01*
G01X8424551Y-3301674D01*
G01X8432474Y-3293751D01*
G01X8437561Y-3283767D01*
G01X8439314Y-3272700D01*
G01X8439314Y-3102700D01*
G01X8437561Y-3091633D01*
G01X8432474Y-3081649D01*
G01X8424551Y-3073726D01*
G01X8414567Y-3068639D01*
G01X8403500Y-3066886D01*
G01X8233500Y-3066886D01*
G01X8222433Y-3068639D01*
G01X8212449Y-3073726D01*
G01X8204526Y-3081649D01*
G01X8199439Y-3091633D01*
G01X8197686Y-3102700D01*
G01X8197686Y-3272700D01*
G01X8199439Y-3283767D01*
G01X8204526Y-3293751D01*
G01X8212449Y-3301674D01*
G01X8222433Y-3306761D01*
G01X8233500Y-3308514D01*
G01X8269986Y-3308514D01*
G01X8269986Y-3723386D01*
G01X7810353Y-3723386D01*
G01X7800163Y-3702365D01*
G01X7786521Y-3683402D01*
G01X7769832Y-3667056D01*
G01X7750588Y-3653813D01*
G01X7729359Y-3644063D01*
G01X7706774Y-3638095D01*
G01X7683500Y-3636086D01*
G01X7660226Y-3638095D01*
G01X7637641Y-3644063D01*
G01X7616412Y-3653813D01*
G01X7597168Y-3667056D01*
G01X7580479Y-3683402D01*
G01X7566837Y-3702365D01*
G01X7556647Y-3723386D01*
G01X6921603Y-3723386D01*
G01X6906300Y-3719075D01*
G01X6890411Y-3718530D01*
G01X6874849Y-3721783D01*
G01X6860509Y-3728646D01*
G01X6848214Y-3738726D01*
G01X6848214Y-3337814D01*
G01X8026400Y-3337814D01*
G01X8038956Y-3336161D01*
G01X8050657Y-3331314D01*
G01X8060705Y-3323605D01*
G01X8068144Y-3316165D01*
G01X8075854Y-3306118D01*
G01X8080700Y-3294417D01*
G01X8082353Y-3281861D01*
G01X8082353Y-2933700D01*
G01X8197686Y-2933700D01*
G01X8199522Y-2954679D01*
G01X8204972Y-2975021D01*
G01X8213872Y-2994107D01*
G01X8225951Y-3011358D01*
G01X8240842Y-3026249D01*
G01X8258093Y-3038328D01*
G01X8277179Y-3047228D01*
G01X8297521Y-3052678D01*
G01X8318500Y-3054514D01*
G01X8318500Y-3054514D01*
G01X8339479Y-3052678D01*
G01X8359821Y-3047228D01*
G01X8378907Y-3038328D01*
G01X8396158Y-3026249D01*
G01X8411049Y-3011358D01*
G01X8423128Y-2994107D01*
G01X8432028Y-2975021D01*
G01X8437478Y-2954679D01*
G01X8439314Y-2933700D01*
G01X8437478Y-2912721D01*
G01X8432028Y-2892379D01*
G01X8423128Y-2873293D01*
G01X8411049Y-2856042D01*
G01X8396158Y-2841151D01*
G01X8378907Y-2829072D01*
G01X8359821Y-2820172D01*
G01X8339479Y-2814722D01*
G01X8318500Y-2812886D01*
G01X8297521Y-2814722D01*
G01X8277179Y-2820172D01*
G01X8258093Y-2829072D01*
G01X8240842Y-2841151D01*
G01X8225951Y-2856042D01*
G01X8213872Y-2873293D01*
G01X8204972Y-2892379D01*
G01X8199522Y-2912721D01*
G01X8197686Y-2933700D01*
G01X8082353Y-2933700D01*
G01X8082353Y-2537714D01*
G01X8255000Y-2537714D01*
G01X8268656Y-2535752D01*
G01X8288625Y-2542762D01*
G01X8309511Y-2546179D01*
G01X8330673Y-2545899D01*
G01X8351461Y-2541931D01*
G01X8371238Y-2534395D01*
G01X8389396Y-2523525D01*
G01X8405379Y-2509652D01*
G01X8418696Y-2493203D01*
G01X8428938Y-2474683D01*
G01X8435792Y-2454660D01*
G01X8439045Y-2433748D01*
G01X8438600Y-2412589D01*
G01X8434470Y-2391832D01*
G01X8426780Y-2372115D01*
G01X8415768Y-2354042D01*
G01X8401771Y-2338168D01*
G01X8385219Y-2324980D01*
G01X8366619Y-2314882D01*
G01X8346543Y-2308186D01*
G01X8325606Y-2305095D01*
G01X8304451Y-2305706D01*
G01X8283727Y-2309999D01*
G01X8264070Y-2317842D01*
G01X8246084Y-2328995D01*
G01X8230320Y-2343115D01*
G01X8217261Y-2359770D01*
G01X8207310Y-2378448D01*
G01X8200770Y-2398576D01*
G01X8197843Y-2419537D01*
G01X8198619Y-2440686D01*
G01X8051800Y-2440686D01*
G01X8039244Y-2442339D01*
G01X8027543Y-2447186D01*
G01X8017495Y-2454895D01*
G01X7999535Y-2472856D01*
G01X7991825Y-2482904D01*
G01X7986979Y-2494604D01*
G01X7985325Y-2507161D01*
G01X7985325Y-3240786D01*
G01X6799700Y-3240786D01*
G01X6797414Y-3240840D01*
G01X6797414Y-3105150D01*
G01X6949186Y-3105150D01*
G01X6950964Y-3120403D01*
G01X6956203Y-3134839D01*
G01X6964622Y-3147682D01*
G01X6975769Y-3158244D01*
G01X6989047Y-3165960D01*
G01X7003744Y-3170414D01*
G01X7019071Y-3171368D01*
G01X7034206Y-3168771D01*
G01X7048339Y-3162762D01*
G01X7060710Y-3153664D01*
G01X7207086Y-3153664D01*
G01X7207086Y-3177540D01*
G01X7208839Y-3188607D01*
G01X7213926Y-3198591D01*
G01X7221849Y-3206514D01*
G01X7231833Y-3211601D01*
G01X7242900Y-3213354D01*
G01X7412900Y-3213354D01*
G01X7423967Y-3211601D01*
G01X7433951Y-3206514D01*
G01X7441874Y-3198591D01*
G01X7446961Y-3188607D01*
G01X7448714Y-3177540D01*
G01X7448714Y-3147314D01*
G01X7919539Y-3147314D01*
G01X7932096Y-3145661D01*
G01X7943796Y-3140814D01*
G01X7953844Y-3133105D01*
G01X7961554Y-3123057D01*
G01X7966400Y-3111356D01*
G01X7968053Y-3098800D01*
G01X7968053Y-2006600D01*
G01X8197686Y-2006600D01*
G01X8199522Y-2027579D01*
G01X8204972Y-2047921D01*
G01X8213872Y-2067007D01*
G01X8225951Y-2084258D01*
G01X8240842Y-2099149D01*
G01X8258093Y-2111228D01*
G01X8277179Y-2120128D01*
G01X8297521Y-2125578D01*
G01X8318500Y-2127414D01*
G01X8339479Y-2125578D01*
G01X8359821Y-2120128D01*
G01X8378907Y-2111228D01*
G01X8396158Y-2099149D01*
G01X8411049Y-2084258D01*
G01X8423128Y-2067007D01*
G01X8432028Y-2047921D01*
G01X8437478Y-2027579D01*
G01X8439314Y-2006600D01*
G01X8437478Y-1985621D01*
G01X8432028Y-1965279D01*
G01X8423128Y-1946193D01*
G01X8411049Y-1928942D01*
G01X8396158Y-1914051D01*
G01X8378907Y-1901972D01*
G01X8359821Y-1893072D01*
G01X8339479Y-1887622D01*
G01X8318500Y-1885786D01*
G01X8318500Y-1885786D01*
G01X8297521Y-1887622D01*
G01X8277179Y-1893072D01*
G01X8258093Y-1901972D01*
G01X8240842Y-1914051D01*
G01X8225951Y-1928942D01*
G01X8213872Y-1946193D01*
G01X8204972Y-1965279D01*
G01X8199522Y-1985621D01*
G01X8197686Y-2006600D01*
G01X7968053Y-2006600D01*
G01X7968053Y-1752600D01*
G01X8197686Y-1752600D01*
G01X8199522Y-1773579D01*
G01X8204972Y-1793921D01*
G01X8213872Y-1813007D01*
G01X8225951Y-1830258D01*
G01X8240842Y-1845149D01*
G01X8258093Y-1857228D01*
G01X8277179Y-1866128D01*
G01X8297521Y-1871578D01*
G01X8318500Y-1873414D01*
G01X8339479Y-1871578D01*
G01X8359821Y-1866128D01*
G01X8378907Y-1857228D01*
G01X8396158Y-1845149D01*
G01X8411049Y-1830258D01*
G01X8423128Y-1813007D01*
G01X8432028Y-1793921D01*
G01X8437478Y-1773579D01*
G01X8439314Y-1752600D01*
G01X8437478Y-1731621D01*
G01X8432028Y-1711279D01*
G01X8423128Y-1692193D01*
G01X8411049Y-1674942D01*
G01X8396158Y-1660051D01*
G01X8378907Y-1647972D01*
G01X8359821Y-1639072D01*
G01X8339479Y-1633622D01*
G01X8318500Y-1631786D01*
G01X8318500Y-1631786D01*
G01X8297521Y-1633622D01*
G01X8277179Y-1639072D01*
G01X8258093Y-1647972D01*
G01X8240842Y-1660051D01*
G01X8225951Y-1674942D01*
G01X8213872Y-1692193D01*
G01X8204972Y-1711279D01*
G01X8199522Y-1731621D01*
G01X8197686Y-1752600D01*
G01X7968053Y-1752600D01*
G01X7968053Y-1498600D01*
G01X8197686Y-1498600D01*
G01X8199522Y-1519579D01*
G01X8204972Y-1539921D01*
G01X8213872Y-1559007D01*
G01X8225951Y-1576258D01*
G01X8240842Y-1591149D01*
G01X8258093Y-1603228D01*
G01X8277179Y-1612128D01*
G01X8297521Y-1617578D01*
G01X8318500Y-1619414D01*
G01X8339479Y-1617578D01*
G01X8359821Y-1612128D01*
G01X8378907Y-1603228D01*
G01X8396158Y-1591149D01*
G01X8411049Y-1576258D01*
G01X8423128Y-1559007D01*
G01X8432028Y-1539921D01*
G01X8437478Y-1519579D01*
G01X8439314Y-1498600D01*
G01X8437478Y-1477621D01*
G01X8432028Y-1457279D01*
G01X8423128Y-1438193D01*
G01X8411049Y-1420942D01*
G01X8396158Y-1406051D01*
G01X8378907Y-1393972D01*
G01X8359821Y-1385072D01*
G01X8339479Y-1379622D01*
G01X8318500Y-1377786D01*
G01X8318500Y-1377786D01*
G01X8297521Y-1379622D01*
G01X8277179Y-1385072D01*
G01X8258093Y-1393972D01*
G01X8240842Y-1406051D01*
G01X8225951Y-1420942D01*
G01X8213872Y-1438193D01*
G01X8204972Y-1457279D01*
G01X8199522Y-1477621D01*
G01X8197686Y-1498600D01*
G01X7968053Y-1498600D01*
G01X7968053Y-1293114D01*
G01X8197686Y-1293114D01*
G01X8197686Y-1329600D01*
G01X8199439Y-1340667D01*
G01X8204526Y-1350651D01*
G01X8212449Y-1358574D01*
G01X8222433Y-1363661D01*
G01X8233500Y-1365414D01*
G01X8403500Y-1365414D01*
G01X8414567Y-1363661D01*
G01X8424551Y-1358574D01*
G01X8432474Y-1350651D01*
G01X8437561Y-1340667D01*
G01X8439314Y-1329600D01*
G01X8439314Y-1159600D01*
G01X8437561Y-1148533D01*
G01X8432474Y-1138549D01*
G01X8424551Y-1130626D01*
G01X8414567Y-1125539D01*
G01X8403500Y-1123786D01*
G01X8233500Y-1123786D01*
G01X8222433Y-1125539D01*
G01X8212449Y-1130626D01*
G01X8204526Y-1138549D01*
G01X8199439Y-1148533D01*
G01X8197686Y-1159600D01*
G01X8197686Y-1196086D01*
G01X7937500Y-1196086D01*
G01X7924944Y-1197739D01*
G01X7913243Y-1202586D01*
G01X7903195Y-1210295D01*
G01X7885235Y-1228256D01*
G01X7877525Y-1238304D01*
G01X7872679Y-1250004D01*
G01X7871025Y-1262561D01*
G01X7871025Y-3050286D01*
G01X7448714Y-3050286D01*
G01X7448714Y-3050286D01*
G01X7448714Y-3020060D01*
G01X7446961Y-3008993D01*
G01X7441874Y-2999009D01*
G01X7433951Y-2991086D01*
G01X7423967Y-2985999D01*
G01X7412900Y-2984246D01*
G01X7242900Y-2984246D01*
G01X7231833Y-2985999D01*
G01X7221849Y-2991086D01*
G01X7213926Y-2999009D01*
G01X7208839Y-3008993D01*
G01X7207086Y-3020060D01*
G01X7207086Y-3056636D01*
G01X7060710Y-3056636D01*
G01X7048339Y-3047538D01*
G01X7034206Y-3041529D01*
G01X7019071Y-3038932D01*
G01X7003744Y-3039886D01*
G01X6989047Y-3044340D01*
G01X6975769Y-3052056D01*
G01X6964622Y-3062618D01*
G01X6956203Y-3075461D01*
G01X6950964Y-3089897D01*
G01X6949186Y-3105150D01*
G01X6797414Y-3105150D01*
G01X6797414Y-2844800D01*
G01X7207086Y-2844800D01*
G01X7208922Y-2865779D01*
G01X7214372Y-2886121D01*
G01X7223272Y-2905207D01*
G01X7235351Y-2922458D01*
G01X7250242Y-2937349D01*
G01X7267493Y-2949428D01*
G01X7286579Y-2958328D01*
G01X7306921Y-2963778D01*
G01X7327900Y-2965614D01*
G01X7327900Y-2965614D01*
G01X7348879Y-2963778D01*
G01X7369221Y-2958328D01*
G01X7388307Y-2949428D01*
G01X7405558Y-2937349D01*
G01X7420449Y-2922458D01*
G01X7432528Y-2905207D01*
G01X7441428Y-2886121D01*
G01X7446878Y-2865779D01*
G01X7448714Y-2844800D01*
G01X7446878Y-2823821D01*
G01X7441428Y-2803479D01*
G01X7432528Y-2784393D01*
G01X7420449Y-2767142D01*
G01X7405558Y-2752251D01*
G01X7388307Y-2740172D01*
G01X7369221Y-2731272D01*
G01X7348879Y-2725822D01*
G01X7327900Y-2723986D01*
G01X7306921Y-2725822D01*
G01X7286579Y-2731272D01*
G01X7267493Y-2740172D01*
G01X7250242Y-2752251D01*
G01X7235351Y-2767142D01*
G01X7223272Y-2784393D01*
G01X7214372Y-2803479D01*
G01X7208922Y-2823821D01*
G01X7207086Y-2844800D01*
G01X6797414Y-2844800D01*
G01X6797414Y-2590800D01*
G01X7207086Y-2590800D01*
G01X7208922Y-2611779D01*
G01X7214372Y-2632121D01*
G01X7223272Y-2651207D01*
G01X7235351Y-2668458D01*
G01X7250242Y-2683349D01*
G01X7267493Y-2695428D01*
G01X7286579Y-2704328D01*
G01X7306921Y-2709778D01*
G01X7327900Y-2711614D01*
G01X7327900Y-2711614D01*
G01X7348879Y-2709778D01*
G01X7369221Y-2704328D01*
G01X7388307Y-2695428D01*
G01X7405558Y-2683349D01*
G01X7420449Y-2668458D01*
G01X7432528Y-2651207D01*
G01X7441428Y-2632121D01*
G01X7446878Y-2611779D01*
G01X7448714Y-2590800D01*
G01X7446878Y-2569821D01*
G01X7441428Y-2549479D01*
G01X7432528Y-2530393D01*
G01X7420449Y-2513142D01*
G01X7405558Y-2498251D01*
G01X7388307Y-2486172D01*
G01X7369221Y-2477272D01*
G01X7348879Y-2471822D01*
G01X7327900Y-2469986D01*
G01X7306921Y-2471822D01*
G01X7286579Y-2477272D01*
G01X7267493Y-2486172D01*
G01X7250242Y-2498251D01*
G01X7235351Y-2513142D01*
G01X7223272Y-2530393D01*
G01X7214372Y-2549479D01*
G01X7208922Y-2569821D01*
G01X7207086Y-2590800D01*
G01X6797414Y-2590800D01*
G01X6797414Y-2336800D01*
G01X7207086Y-2336800D01*
G01X7208922Y-2357779D01*
G01X7214372Y-2378121D01*
G01X7223272Y-2397207D01*
G01X7235351Y-2414458D01*
G01X7250242Y-2429349D01*
G01X7267493Y-2441428D01*
G01X7286579Y-2450328D01*
G01X7306921Y-2455778D01*
G01X7327900Y-2457614D01*
G01X7327900Y-2457614D01*
G01X7348879Y-2455778D01*
G01X7369221Y-2450328D01*
G01X7388307Y-2441428D01*
G01X7405558Y-2429349D01*
G01X7420449Y-2414458D01*
G01X7432528Y-2397207D01*
G01X7441428Y-2378121D01*
G01X7446878Y-2357779D01*
G01X7448714Y-2336800D01*
G01X7446878Y-2315821D01*
G01X7441428Y-2295479D01*
G01X7432528Y-2276393D01*
G01X7420449Y-2259142D01*
G01X7405558Y-2244251D01*
G01X7388307Y-2232172D01*
G01X7369221Y-2223272D01*
G01X7348879Y-2217822D01*
G01X7327900Y-2215986D01*
G01X7306921Y-2217822D01*
G01X7286579Y-2223272D01*
G01X7267493Y-2232172D01*
G01X7250242Y-2244251D01*
G01X7235351Y-2259142D01*
G01X7223272Y-2276393D01*
G01X7214372Y-2295479D01*
G01X7208922Y-2315821D01*
G01X7207086Y-2336800D01*
G01X6797414Y-2336800D01*
G01X6797414Y-2082800D01*
G01X7207086Y-2082800D01*
G01X7208922Y-2103779D01*
G01X7214372Y-2124121D01*
G01X7223272Y-2143207D01*
G01X7235351Y-2160458D01*
G01X7250242Y-2175349D01*
G01X7267493Y-2187428D01*
G01X7286579Y-2196328D01*
G01X7306921Y-2201778D01*
G01X7327900Y-2203614D01*
G01X7327900Y-2203614D01*
G01X7348879Y-2201778D01*
G01X7369221Y-2196328D01*
G01X7388307Y-2187428D01*
G01X7405558Y-2175349D01*
G01X7420449Y-2160458D01*
G01X7432528Y-2143207D01*
G01X7441428Y-2124121D01*
G01X7446878Y-2103779D01*
G01X7448714Y-2082800D01*
G01X7446878Y-2061821D01*
G01X7441428Y-2041479D01*
G01X7432528Y-2022393D01*
G01X7420449Y-2005142D01*
G01X7405558Y-1990251D01*
G01X7388307Y-1978172D01*
G01X7369221Y-1969272D01*
G01X7348879Y-1963822D01*
G01X7327900Y-1961986D01*
G01X7306921Y-1963822D01*
G01X7286579Y-1969272D01*
G01X7267493Y-1978172D01*
G01X7250242Y-1990251D01*
G01X7235351Y-2005142D01*
G01X7223272Y-2022393D01*
G01X7214372Y-2041479D01*
G01X7208922Y-2061821D01*
G01X7207086Y-2082800D01*
G01X6797414Y-2082800D01*
G01X6797414Y-1872053D01*
G01X7215094Y-1872053D01*
G01X7224777Y-1891742D01*
G01X7237861Y-1909355D01*
G01X7253915Y-1924310D01*
G01X7272409Y-1936116D01*
G01X7292733Y-1944382D01*
G01X7314217Y-1948836D01*
G01X7336152Y-1949332D01*
G01X7357815Y-1945852D01*
G01X7378491Y-1938511D01*
G01X7397499Y-1927552D01*
G01X7414211Y-1913336D01*
G01X7428077Y-1896332D01*
G01X7438639Y-1877100D01*
G01X7445548Y-1856276D01*
G01X7448577Y-1834545D01*
G01X7447626Y-1812625D01*
G01X7442726Y-1791238D01*
G01X7434040Y-1771091D01*
G01X7421852Y-1752846D01*
G01X7406566Y-1737107D01*
G01X7388685Y-1724391D01*
G01X7368800Y-1715120D01*
G01X7347565Y-1709597D01*
G01X7325682Y-1708007D01*
G01X7303872Y-1710400D01*
G01X7282855Y-1716698D01*
G01X7263323Y-1726693D01*
G01X7245921Y-1740056D01*
G01X7231223Y-1756346D01*
G01X7219714Y-1775025D01*
G01X6761814Y-1775025D01*
G01X6761814Y-1656153D01*
G01X7238583Y-1656153D01*
G01X7254636Y-1670865D01*
G01X7273070Y-1682455D01*
G01X7293284Y-1690549D01*
G01X7314623Y-1694882D01*
G01X7336393Y-1695315D01*
G01X7357888Y-1691833D01*
G01X7378408Y-1684549D01*
G01X7397287Y-1673701D01*
G01X7413913Y-1659640D01*
G01X7427745Y-1642822D01*
G01X7438333Y-1623796D01*
G01X7445334Y-1603177D01*
G01X7448520Y-1581637D01*
G01X7447788Y-1559875D01*
G01X7443162Y-1538598D01*
G01X7434792Y-1518496D01*
G01X7422949Y-1500224D01*
G01X7408019Y-1484374D01*
G01X7390486Y-1471461D01*
G01X7370921Y-1461905D01*
G01X7349957Y-1456017D01*
G01X7328278Y-1453987D01*
G01X7306586Y-1455881D01*
G01X7285586Y-1461639D01*
G01X7265961Y-1471072D01*
G01X7248348Y-1483874D01*
G01X7233319Y-1499631D01*
G01X7221362Y-1517829D01*
G01X7212867Y-1537877D01*
G01X7208107Y-1559125D01*
G01X6726214Y-1559125D01*
G01X6726214Y-1394714D01*
G01X7232335Y-1394714D01*
G01X7247208Y-1410716D01*
G01X7264721Y-1423777D01*
G01X7284299Y-1433472D01*
G01X7305303Y-1439482D01*
G01X7327046Y-1441611D01*
G01X7348817Y-1439789D01*
G01X7369903Y-1434077D01*
G01X7389617Y-1424661D01*
G01X7407312Y-1411848D01*
G01X7422410Y-1396058D01*
G01X7434418Y-1377807D01*
G01X7442943Y-1357692D01*
G01X7447706Y-1336371D01*
G01X7448552Y-1314540D01*
G01X7445452Y-1292914D01*
G01X7438508Y-1272200D01*
G01X7427947Y-1253076D01*
G01X7414115Y-1236166D01*
G01X7397463Y-1222023D01*
G01X7378537Y-1211110D01*
G01X7357955Y-1203784D01*
G01X7336390Y-1200285D01*
G01X7314548Y-1200726D01*
G01X7293142Y-1205094D01*
G01X7272873Y-1213245D01*
G01X7254403Y-1224914D01*
G01X7238337Y-1239717D01*
G01X7225199Y-1257173D01*
G01X7215419Y-1276708D01*
G01X7209318Y-1297686D01*
G01X6690614Y-1297686D01*
G01X6690614Y-1097353D01*
G01X7211013Y-1097353D01*
G01X7218448Y-1117950D01*
G01X7229479Y-1136866D01*
G01X7243742Y-1153480D01*
G01X7260770Y-1167247D01*
G01X7280004Y-1177714D01*
G01X7300811Y-1184538D01*
G01X7322507Y-1187493D01*
G01X7344381Y-1186484D01*
G01X7365714Y-1181544D01*
G01X7385804Y-1172834D01*
G01X7403992Y-1160640D01*
G01X7419681Y-1145364D01*
G01X7432354Y-1127507D01*
G01X7441596Y-1107656D01*
G01X7447103Y-1086463D01*
G01X7448694Y-1064623D01*
G01X7446317Y-1042856D01*
G01X7440050Y-1021874D01*
G01X7430099Y-1002369D01*
G01X7416791Y-984980D01*
G01X7400562Y-970279D01*
G01X7381946Y-958749D01*
G01X7361555Y-950769D01*
G01X7340059Y-946600D01*
G01X7318163Y-946379D01*
G01X7296587Y-950115D01*
G01X7276039Y-957683D01*
G01X7257195Y-968837D01*
G01X7240674Y-983208D01*
G01X7227018Y-1000325D01*
G01X6652514Y-1000325D01*
G01X6652514Y-861314D01*
G01X7217255Y-861314D01*
G01X7227856Y-880528D01*
G01X7241758Y-897508D01*
G01X7258501Y-911693D01*
G01X7277535Y-922615D01*
G01X7298230Y-929914D01*
G01X7319905Y-933349D01*
G01X7341843Y-932807D01*
G01X7363321Y-928305D01*
G01X7383630Y-919992D01*
G01X7402101Y-908143D01*
G01X7418123Y-893148D01*
G01X7431169Y-875502D01*
G01X7440807Y-855787D01*
G01X7446721Y-834654D01*
G01X7448714Y-812800D01*
G01X7446721Y-790946D01*
G01X7440807Y-769813D01*
G01X7431169Y-750098D01*
G01X7418123Y-732452D01*
G01X7402101Y-717457D01*
G01X7392347Y-711200D01*
G01X8193786Y-711200D01*
G01X8195721Y-748131D01*
G01X8201507Y-784658D01*
G01X8211078Y-820380D01*
G01X8224332Y-854906D01*
G01X8241121Y-887857D01*
G01X8261263Y-918873D01*
G01X8284537Y-947613D01*
G01X8310687Y-973763D01*
G01X8339427Y-997037D01*
G01X8370443Y-1017179D01*
G01X8403394Y-1033968D01*
G01X8437920Y-1047222D01*
G01X8473642Y-1056793D01*
G01X8510169Y-1062579D01*
G01X8547100Y-1064514D01*
G01X8584031Y-1062579D01*
G01X8620558Y-1056793D01*
G01X8656280Y-1047222D01*
G01X8690806Y-1033968D01*
G01X8723757Y-1017179D01*
G01X8754773Y-997037D01*
G01X8783513Y-973763D01*
G01X8809663Y-947613D01*
G01X8832937Y-918873D01*
G01X8853079Y-887857D01*
G01X8869868Y-854906D01*
G01X8883122Y-820380D01*
G01X8892693Y-784658D01*
G01X8898479Y-748131D01*
G01X8900414Y-711200D01*
G01X8898479Y-674269D01*
G01X8892693Y-637742D01*
G01X8883122Y-602020D01*
G01X8869868Y-567494D01*
G01X8853079Y-534543D01*
G01X8832937Y-503527D01*
G01X8809663Y-474787D01*
G01X8783513Y-448637D01*
G01X8754773Y-425363D01*
G01X8723757Y-405221D01*
G01X8690806Y-388432D01*
G01X8656280Y-375178D01*
G01X8620558Y-365607D01*
G01X8584031Y-359821D01*
G01X8547100Y-357886D01*
G01X8510169Y-359821D01*
G01X8473642Y-365607D01*
G01X8437920Y-375178D01*
G01X8403394Y-388432D01*
G01X8370443Y-405221D01*
G01X8339427Y-425363D01*
G01X8310687Y-448637D01*
G01X8284537Y-474787D01*
G01X8261263Y-503527D01*
G01X8241121Y-534543D01*
G01X8224332Y-567494D01*
G01X8211078Y-602020D01*
G01X8201507Y-637742D01*
G01X8195721Y-674269D01*
G01X8193786Y-711200D01*
G01X8193786Y-711200D01*
G01X7392347Y-711200D01*
G01X7383630Y-705608D01*
G01X7363321Y-697295D01*
G01X7341843Y-692793D01*
G01X7319905Y-692251D01*
G01X7298230Y-695686D01*
G01X7277535Y-702985D01*
G01X7258501Y-713907D01*
G01X7241758Y-728092D01*
G01X7227856Y-745072D01*
G01X7217255Y-764286D01*
G01X6604000Y-764286D01*
G01X6591444Y-765939D01*
G01X6579743Y-770786D01*
G01X6569695Y-778495D01*
G01X6561986Y-788543D01*
G01X6557139Y-800244D01*
G01X6555486Y-812800D01*
G01X6555486Y-2030901D01*
G01X6541531Y-2029194D01*
G01X6527529Y-2030467D01*
G01X6514111Y-2034663D01*
G01X6501878Y-2041593D01*
G01X6491382Y-2050947D01*
G01X6483093Y-2062303D01*
G01X6477385Y-2075151D01*
G01X6474514Y-2088914D01*
G01X6474608Y-2102973D01*
G01X6477665Y-2116696D01*
G01X6483545Y-2129466D01*
G01X6491986Y-2140710D01*
G01X6491986Y-2505142D01*
G01X6478357Y-2500593D01*
G01X6464067Y-2499086D01*
G01X6449789Y-2500693D01*
G01X6436192Y-2505338D01*
G01X6423914Y-2512802D01*
G01X6423914Y-2394710D01*
G01X6433012Y-2382339D01*
G01X6439021Y-2368206D01*
G01X6441618Y-2353071D01*
G01X6440664Y-2337744D01*
G01X6436210Y-2323047D01*
G01X6428494Y-2309769D01*
G01X6417932Y-2298622D01*
G01X6405089Y-2290203D01*
G01X6390653Y-2284964D01*
G01X6375400Y-2283186D01*
G01X6360147Y-2284964D01*
G01X6345711Y-2290203D01*
G01X6332868Y-2298622D01*
G01X6322306Y-2309769D01*
G01X6314590Y-2323047D01*
G01X6310136Y-2337744D01*
G01X6309182Y-2353071D01*
G01X6311779Y-2368206D01*
G01X6317788Y-2382339D01*
G01X6326886Y-2394710D01*
G01X6326886Y-3774181D01*
G01X6251960Y-3774181D01*
G01X6241534Y-3756078D01*
G01X6228026Y-3740143D01*
G01X6211875Y-3726894D01*
G01X6193606Y-3716762D01*
G01X6173814Y-3710076D01*
G01X6153143Y-3707055D01*
G01X6132266Y-3707796D01*
G01X6111862Y-3712276D01*
G01X6092594Y-3720348D01*
G01X6075090Y-3731751D01*
G01X6059919Y-3746112D01*
G01X6047575Y-3762965D01*
G01X6038459Y-3781761D01*
G01X6032868Y-3801890D01*
G01X6030984Y-3822695D01*
G01X6032868Y-3843500D01*
G01X6038459Y-3863628D01*
G01X6047575Y-3882425D01*
G01X6059919Y-3899278D01*
G01X6075090Y-3913639D01*
G01X6092594Y-3925042D01*
G01X6111862Y-3933114D01*
G01X6132266Y-3937594D01*
G01X6153143Y-3938335D01*
G01X6173814Y-3935314D01*
G01X6193606Y-3928628D01*
G01X6211875Y-3918496D01*
G01X6228026Y-3905247D01*
G01X6241534Y-3889312D01*
G01X6251960Y-3871209D01*
G01X6375400Y-3871209D01*
G01X6387209Y-3869750D01*
G01X6398308Y-3865460D01*
G01X6408028Y-3858598D01*
G01X6415786Y-3849576D01*
G01X6415786Y-4028181D01*
G01X6251960Y-4028181D01*
G01X6241534Y-4010078D01*
G01X6228026Y-3994143D01*
G01X6211875Y-3980894D01*
G01X6193606Y-3970762D01*
G01X6173814Y-3964076D01*
G01X6153143Y-3961055D01*
G01X6132266Y-3961796D01*
G01X6111862Y-3966276D01*
G01X6092594Y-3974348D01*
G01X6075090Y-3985751D01*
G01X6059919Y-4000112D01*
G01X6047575Y-4016965D01*
G01X6038459Y-4035761D01*
G01X6032868Y-4055890D01*
G01X6030984Y-4076695D01*
G01X6032868Y-4097500D01*
G01X6038459Y-4117628D01*
G01X6047575Y-4136425D01*
G01X6059919Y-4153278D01*
G01X6075090Y-4167639D01*
G01X6092594Y-4179042D01*
G01X6111862Y-4187114D01*
G01X6132266Y-4191594D01*
G01X6153143Y-4192335D01*
G01X6173814Y-4189314D01*
G01X6193606Y-4182628D01*
G01X6211875Y-4172496D01*
G01X6228026Y-4159247D01*
G01X6241534Y-4143312D01*
G01X6251960Y-4125209D01*
G01X6464300Y-4125209D01*
G01X6474054Y-4124218D01*
G01X6483411Y-4121286D01*
G01X6491986Y-4116533D01*
G01X6491986Y-4790181D01*
G01X6251960Y-4790181D01*
G01X6241534Y-4772078D01*
G01X6228026Y-4756143D01*
G01X6211875Y-4742894D01*
G01X6193606Y-4732762D01*
G01X6173814Y-4726076D01*
G01X6153143Y-4723055D01*
G01X6132266Y-4723796D01*
G01X6111862Y-4728276D01*
G01X6092594Y-4736348D01*
G01X6075090Y-4747751D01*
G01X6059919Y-4762112D01*
G01X6047575Y-4778965D01*
G01X6038459Y-4797761D01*
G01X6032868Y-4817890D01*
G01X6030984Y-4838695D01*
G01X6032868Y-4859500D01*
G01X6038459Y-4879628D01*
G01X6047575Y-4898425D01*
G01X6059919Y-4915278D01*
G01X6075090Y-4929639D01*
G01X6092594Y-4941042D01*
G01X6111862Y-4949114D01*
G01X6132266Y-4953594D01*
G01X6153143Y-4954335D01*
G01X6173814Y-4951314D01*
G01X6193606Y-4944628D01*
G01X6211875Y-4934496D01*
G01X6228026Y-4921247D01*
G01X6241534Y-4905312D01*
G01X6251960Y-4887209D01*
G01X6540500Y-4887209D01*
G01X6548086Y-4886612D01*
G01X6555486Y-4884836D01*
G01X6555486Y-6822181D01*
G01X6251960Y-6822181D01*
G01X6241534Y-6804078D01*
G01X6228026Y-6788143D01*
G01X6211875Y-6774894D01*
G01X6193606Y-6764762D01*
G01X6173814Y-6758076D01*
G01X6153143Y-6755055D01*
G01X6132266Y-6755796D01*
G01X6111862Y-6760276D01*
G01X6092594Y-6768348D01*
G01X6075090Y-6779751D01*
G01X6059919Y-6794112D01*
G01X6047575Y-6810965D01*
G01X6038459Y-6829761D01*
G01X6032868Y-6849890D01*
G01X6030984Y-6870695D01*
G01X6032868Y-6891500D01*
G01X6038459Y-6911628D01*
G01X6047575Y-6930425D01*
G01X6059919Y-6947278D01*
G01X6075090Y-6961639D01*
G01X6092594Y-6973042D01*
G01X6111862Y-6981114D01*
G01X6132266Y-6985594D01*
G01X6153143Y-6986335D01*
G01X6173814Y-6983314D01*
G01X6193606Y-6976628D01*
G01X6211875Y-6966496D01*
G01X6228026Y-6953247D01*
G01X6241534Y-6937312D01*
G01X6251960Y-6919209D01*
G01X6586039Y-6919209D01*
G01X6593586Y-6918618D01*
G01X6593586Y-7076181D01*
G01X6251960Y-7076181D01*
G01X6241534Y-7058078D01*
G01X6228026Y-7042143D01*
G01X6211875Y-7028894D01*
G01X6193606Y-7018762D01*
G01X6173814Y-7012076D01*
G01X6153143Y-7009055D01*
G01X6132266Y-7009796D01*
G01X6111862Y-7014276D01*
G01X6092594Y-7022348D01*
G01X6075090Y-7033751D01*
G01X6059919Y-7048112D01*
G01X6047575Y-7064965D01*
G01X6038459Y-7083761D01*
G01X6032868Y-7103890D01*
G01X6030984Y-7124695D01*
G01X6032868Y-7145500D01*
G01X6038459Y-7165628D01*
G01X6047575Y-7184425D01*
G01X6059919Y-7201278D01*
G01X6075090Y-7215639D01*
G01X6092594Y-7227042D01*
G01X6111862Y-7235114D01*
G01X6132266Y-7239594D01*
G01X6153143Y-7240335D01*
G01X6173814Y-7237314D01*
G01X6193606Y-7230628D01*
G01X6211875Y-7220496D01*
G01X6228026Y-7207247D01*
G01X6241534Y-7191312D01*
G01X6251960Y-7173209D01*
G01X6624139Y-7173209D01*
G01X6629186Y-7172946D01*
G01X6629186Y-7330181D01*
G01X6251960Y-7330181D01*
G01X6251960Y-7330181D01*
G01X6241534Y-7312078D01*
G01X6228026Y-7296143D01*
G01X6211875Y-7282894D01*
G01X6193606Y-7272762D01*
G01X6173814Y-7266076D01*
G01X6153143Y-7263055D01*
G01X6132266Y-7263796D01*
G01X6111862Y-7268276D01*
G01X6092594Y-7276348D01*
G01X6075090Y-7287751D01*
G01X6059919Y-7302112D01*
G01X6047575Y-7318965D01*
G01X6038459Y-7337761D01*
G01X6032868Y-7357890D01*
G01X6030984Y-7378695D01*
G01X4738117Y-7378695D01*
G01X4738117Y-7368009D01*
G01X4734190Y-7347001D01*
G01X4726470Y-7327072D01*
G01X4715219Y-7308901D01*
G01X4700821Y-7293107D01*
G01X4683766Y-7280228D01*
G01X4664634Y-7270702D01*
G01X4644078Y-7264853D01*
G01X4622797Y-7262881D01*
G01X4601517Y-7264853D01*
G01X4580961Y-7270702D01*
G01X4561829Y-7280228D01*
G01X4544774Y-7293107D01*
G01X4530376Y-7308901D01*
G01X4519125Y-7327072D01*
G01X4511405Y-7347001D01*
G01X4507478Y-7368009D01*
G01X99314Y-7368009D01*
G01X99314Y-7114009D01*
G01X4507478Y-7114009D01*
G01X4507478Y-7135381D01*
G01X4511405Y-7156389D01*
G01X4519125Y-7176318D01*
G01X4530376Y-7194488D01*
G01X4544774Y-7210282D01*
G01X4561829Y-7223162D01*
G01X4580961Y-7232688D01*
G01X4601517Y-7238537D01*
G01X4622797Y-7240509D01*
G01X4622797Y-7240509D01*
G01X4644078Y-7238537D01*
G01X4664634Y-7232688D01*
G01X4683766Y-7223162D01*
G01X4700821Y-7210282D01*
G01X4715219Y-7194488D01*
G01X4726470Y-7176318D01*
G01X4734190Y-7156389D01*
G01X4738117Y-7135381D01*
G01X4738117Y-7114009D01*
G01X4734190Y-7093001D01*
G01X4726470Y-7073072D01*
G01X4715219Y-7054901D01*
G01X4700821Y-7039107D01*
G01X4683766Y-7026228D01*
G01X4664634Y-7016702D01*
G01X4644078Y-7010853D01*
G01X4622797Y-7008881D01*
G01X4601517Y-7010853D01*
G01X4580961Y-7016702D01*
G01X4561829Y-7026228D01*
G01X4544774Y-7039107D01*
G01X4530376Y-7054901D01*
G01X4519125Y-7073072D01*
G01X4511405Y-7093001D01*
G01X4507478Y-7114009D01*
G01X99314Y-7114009D01*
G01X99314Y-6808685D01*
G01X1198150Y-6808685D01*
G01X1198150Y-6831115D01*
G01X1201842Y-6853240D01*
G01X1209125Y-6874456D01*
G01X1219801Y-6894183D01*
G01X1233579Y-6911884D01*
G01X1250081Y-6927076D01*
G01X1268860Y-6939345D01*
G01X1289401Y-6948355D01*
G01X1311146Y-6953861D01*
G01X1333500Y-6955714D01*
G01X1355854Y-6953861D01*
G01X1377599Y-6948355D01*
G01X1398140Y-6939345D01*
G01X1416919Y-6927076D01*
G01X1433421Y-6911884D01*
G01X1443780Y-6898575D01*
G01X2836059Y-6898575D01*
G01X2836059Y-6919025D01*
G01X2839816Y-6939126D01*
G01X2847204Y-6958194D01*
G01X2857969Y-6975580D01*
G01X2871745Y-6990692D01*
G01X2888064Y-7003016D01*
G01X2906369Y-7012131D01*
G01X2926038Y-7017727D01*
G01X2946400Y-7019614D01*
G01X2966762Y-7017727D01*
G01X2986431Y-7012131D01*
G01X3004736Y-7003016D01*
G01X3021055Y-6990692D01*
G01X3034831Y-6975580D01*
G01X3045596Y-6958194D01*
G01X3052984Y-6939126D01*
G01X3056741Y-6919025D01*
G01X3056741Y-6898575D01*
G01X3052984Y-6878474D01*
G01X3045596Y-6859406D01*
G01X3034831Y-6842020D01*
G01X3021055Y-6826908D01*
G01X3004736Y-6814584D01*
G01X2986431Y-6805469D01*
G01X2966762Y-6799873D01*
G01X2946400Y-6797986D01*
G01X2946400Y-6797986D01*
G01X2926038Y-6799873D01*
G01X2906369Y-6805469D01*
G01X2888064Y-6814584D01*
G01X2871745Y-6826908D01*
G01X2857969Y-6842020D01*
G01X2847204Y-6859406D01*
G01X2839816Y-6878474D01*
G01X2836059Y-6898575D01*
G01X1443780Y-6898575D01*
G01X1447199Y-6894183D01*
G01X1457875Y-6874456D01*
G01X1465158Y-6853240D01*
G01X1468850Y-6831115D01*
G01X1468850Y-6808685D01*
G01X1465158Y-6786560D01*
G01X1457875Y-6765344D01*
G01X1447199Y-6745617D01*
G01X1433421Y-6727916D01*
G01X1416919Y-6712724D01*
G01X1398140Y-6700455D01*
G01X1377599Y-6691445D01*
G01X1355854Y-6685939D01*
G01X1333500Y-6684086D01*
G01X1333500Y-6684086D01*
G01X1311146Y-6685939D01*
G01X1289401Y-6691445D01*
G01X1268860Y-6700455D01*
G01X1250081Y-6712724D01*
G01X1233579Y-6727916D01*
G01X1219801Y-6745617D01*
G01X1209125Y-6765344D01*
G01X1201842Y-6786560D01*
G01X1198150Y-6808685D01*
G01X99314Y-6808685D01*
G01X99314Y-6644575D01*
G01X2836059Y-6644575D01*
G01X2836059Y-6665025D01*
G01X2839816Y-6685126D01*
G01X2847204Y-6704194D01*
G01X2857969Y-6721580D01*
G01X2871745Y-6736692D01*
G01X2888064Y-6749016D01*
G01X2906369Y-6758131D01*
G01X2926038Y-6763727D01*
G01X2946400Y-6765614D01*
G01X2966762Y-6763727D01*
G01X2986431Y-6758131D01*
G01X3004736Y-6749016D01*
G01X3021055Y-6736692D01*
G01X3034831Y-6721580D01*
G01X3045596Y-6704194D01*
G01X3052984Y-6685126D01*
G01X3056741Y-6665025D01*
G01X3056741Y-6644575D01*
G01X3052984Y-6624474D01*
G01X3045596Y-6605406D01*
G01X3034831Y-6588020D01*
G01X3021055Y-6572908D01*
G01X3004736Y-6560584D01*
G01X2986431Y-6551469D01*
G01X2966762Y-6545873D01*
G01X2946400Y-6543986D01*
G01X2946400Y-6543986D01*
G01X2926038Y-6545873D01*
G01X2906369Y-6551469D01*
G01X2888064Y-6560584D01*
G01X2871745Y-6572908D01*
G01X2857969Y-6588020D01*
G01X2847204Y-6605406D01*
G01X2839816Y-6624474D01*
G01X2836059Y-6644575D01*
G01X99314Y-6644575D01*
G01X99314Y-6300685D01*
G01X1198150Y-6300685D01*
G01X1198150Y-6323115D01*
G01X1201842Y-6345240D01*
G01X1209125Y-6366456D01*
G01X1219801Y-6386183D01*
G01X1233579Y-6403884D01*
G01X1250081Y-6419076D01*
G01X1268860Y-6431345D01*
G01X1289401Y-6440355D01*
G01X1311146Y-6445861D01*
G01X1333500Y-6447714D01*
G01X1355854Y-6445861D01*
G01X1377599Y-6440355D01*
G01X1398140Y-6431345D01*
G01X1416919Y-6419076D01*
G01X1433421Y-6403884D01*
G01X1447199Y-6386183D01*
G01X1457875Y-6366456D01*
G01X1465158Y-6345240D01*
G01X1468850Y-6323115D01*
G01X1468850Y-6300685D01*
G01X1465158Y-6278560D01*
G01X1457875Y-6257344D01*
G01X1447199Y-6237617D01*
G01X1433421Y-6219916D01*
G01X1416919Y-6204724D01*
G01X1398140Y-6192455D01*
G01X1377599Y-6183445D01*
G01X1355854Y-6177939D01*
G01X1333500Y-6176086D01*
G01X1333500Y-6176086D01*
G01X1311146Y-6177939D01*
G01X1289401Y-6183445D01*
G01X1268860Y-6192455D01*
G01X1250081Y-6204724D01*
G01X1233579Y-6219916D01*
G01X1219801Y-6237617D01*
G01X1209125Y-6257344D01*
G01X1201842Y-6278560D01*
G01X1198150Y-6300685D01*
G01X99314Y-6300685D01*
G01X99314Y-5538685D01*
G01X1198150Y-5538685D01*
G01X1198150Y-5561115D01*
G01X1201842Y-5583240D01*
G01X1209125Y-5604456D01*
G01X1219801Y-5624183D01*
G01X1233579Y-5641884D01*
G01X1250081Y-5657076D01*
G01X1268860Y-5669345D01*
G01X1289401Y-5678355D01*
G01X1311146Y-5683861D01*
G01X1333500Y-5685714D01*
G01X1355854Y-5683861D01*
G01X1377599Y-5678355D01*
G01X1398140Y-5669345D01*
G01X1416919Y-5657076D01*
G01X1433421Y-5641884D01*
G01X1447199Y-5624183D01*
G01X1457875Y-5604456D01*
G01X1465158Y-5583240D01*
G01X1468850Y-5561115D01*
G01X1468850Y-5538685D01*
G01X1465158Y-5516560D01*
G01X1457875Y-5495344D01*
G01X1456713Y-5493199D01*
G01X4086849Y-5493199D01*
G01X4087263Y-5508550D01*
G01X4091196Y-5523394D01*
G01X4098439Y-5536936D01*
G01X4108602Y-5548448D01*
G01X4121141Y-5557314D01*
G01X4135382Y-5563059D01*
G01X4150564Y-5565373D01*
G01X4251727Y-5666536D01*
G01X4254041Y-5681718D01*
G01X4259786Y-5695959D01*
G01X4268652Y-5708498D01*
G01X4280164Y-5718661D01*
G01X4293706Y-5725904D01*
G01X4308550Y-5729837D01*
G01X4323901Y-5730251D01*
G01X4338936Y-5727122D01*
G01X4352848Y-5720620D01*
G01X4364891Y-5711091D01*
G01X4374420Y-5699048D01*
G01X4380922Y-5685136D01*
G01X4384051Y-5670101D01*
G01X4383637Y-5654750D01*
G01X4379704Y-5639906D01*
G01X4372461Y-5626364D01*
G01X4362298Y-5614852D01*
G01X4349759Y-5605986D01*
G01X4335518Y-5600241D01*
G01X4320336Y-5597927D01*
G01X4219173Y-5496764D01*
G01X4216859Y-5481582D01*
G01X4211114Y-5467341D01*
G01X4202248Y-5454802D01*
G01X4190736Y-5444639D01*
G01X4177194Y-5437396D01*
G01X4162350Y-5433463D01*
G01X4146999Y-5433049D01*
G01X4131964Y-5436178D01*
G01X4118052Y-5442680D01*
G01X4106009Y-5452209D01*
G01X4106009Y-5452209D01*
G01X4096480Y-5464252D01*
G01X4089978Y-5478164D01*
G01X4086849Y-5493199D01*
G01X1456713Y-5493199D01*
G01X1447199Y-5475617D01*
G01X1433421Y-5457916D01*
G01X1416919Y-5442724D01*
G01X1398140Y-5430455D01*
G01X1377599Y-5421445D01*
G01X1355854Y-5415939D01*
G01X1333500Y-5414086D01*
G01X1333500Y-5414086D01*
G01X1311146Y-5415939D01*
G01X1289401Y-5421445D01*
G01X1268860Y-5430455D01*
G01X1250081Y-5442724D01*
G01X1233579Y-5457916D01*
G01X1219801Y-5475617D01*
G01X1209125Y-5495344D01*
G01X1201842Y-5516560D01*
G01X1198150Y-5538685D01*
G01X99314Y-5538685D01*
G01X99314Y-5219701D01*
G01X2030487Y-5219701D01*
G01X2032459Y-5240982D01*
G01X2038308Y-5261538D01*
G01X2047834Y-5280669D01*
G01X2060714Y-5297725D01*
G01X2076508Y-5312123D01*
G01X2094679Y-5323374D01*
G01X2114607Y-5331094D01*
G01X2135615Y-5335021D01*
G01X2156987Y-5335021D01*
G01X2177995Y-5331094D01*
G01X2197924Y-5323374D01*
G01X2216095Y-5312123D01*
G01X2231889Y-5297725D01*
G01X2244768Y-5280669D01*
G01X2254294Y-5261538D01*
G01X2260143Y-5240982D01*
G01X2262115Y-5219701D01*
G01X2262115Y-5219701D01*
G01X2284487Y-5219701D01*
G01X2286459Y-5240982D01*
G01X2292308Y-5261538D01*
G01X2301834Y-5280669D01*
G01X2314714Y-5297725D01*
G01X2330508Y-5312123D01*
G01X2348679Y-5323374D01*
G01X2368607Y-5331094D01*
G01X2389615Y-5335021D01*
G01X2410987Y-5335021D01*
G01X2431995Y-5331094D01*
G01X2451924Y-5323374D01*
G01X2470095Y-5312123D01*
G01X2485889Y-5297725D01*
G01X2498768Y-5280669D01*
G01X2508294Y-5261538D01*
G01X2514143Y-5240982D01*
G01X2516115Y-5219701D01*
G01X2516115Y-5219701D01*
G01X2538487Y-5219701D01*
G01X2540459Y-5240982D01*
G01X2546308Y-5261538D01*
G01X2555834Y-5280669D01*
G01X2568714Y-5297725D01*
G01X2584508Y-5312123D01*
G01X2602679Y-5323374D01*
G01X2622607Y-5331094D01*
G01X2643615Y-5335021D01*
G01X2664987Y-5335021D01*
G01X2685995Y-5331094D01*
G01X2705924Y-5323374D01*
G01X2724095Y-5312123D01*
G01X2739889Y-5297725D01*
G01X2752768Y-5280669D01*
G01X2762294Y-5261538D01*
G01X2768143Y-5240982D01*
G01X2770115Y-5219701D01*
G01X2770115Y-5219701D01*
G01X2792487Y-5219701D01*
G01X2794459Y-5240982D01*
G01X2800308Y-5261538D01*
G01X2809834Y-5280669D01*
G01X2822714Y-5297725D01*
G01X2838508Y-5312123D01*
G01X2856679Y-5323374D01*
G01X2876607Y-5331094D01*
G01X2897615Y-5335021D01*
G01X2918987Y-5335021D01*
G01X2939995Y-5331094D01*
G01X2959924Y-5323374D01*
G01X2978095Y-5312123D01*
G01X2993889Y-5297725D01*
G01X3006768Y-5280669D01*
G01X3016294Y-5261538D01*
G01X3022143Y-5240982D01*
G01X3024115Y-5219701D01*
G01X3024115Y-5219701D01*
G01X3022143Y-5198421D01*
G01X3016294Y-5177864D01*
G01X3006768Y-5158733D01*
G01X2993889Y-5141678D01*
G01X2978095Y-5127280D01*
G01X2959924Y-5116029D01*
G01X2939995Y-5108309D01*
G01X2918987Y-5104381D01*
G01X2897615Y-5104381D01*
G01X2876607Y-5108309D01*
G01X2856679Y-5116029D01*
G01X2838508Y-5127280D01*
G01X2822714Y-5141678D01*
G01X2809834Y-5158733D01*
G01X2800308Y-5177864D01*
G01X2794459Y-5198421D01*
G01X2792487Y-5219701D01*
G01X2770115Y-5219701D01*
G01X2768143Y-5198421D01*
G01X2762294Y-5177864D01*
G01X2752768Y-5158733D01*
G01X2739889Y-5141678D01*
G01X2724095Y-5127280D01*
G01X2705924Y-5116029D01*
G01X2685995Y-5108309D01*
G01X2664987Y-5104381D01*
G01X2643615Y-5104381D01*
G01X2622607Y-5108309D01*
G01X2602679Y-5116029D01*
G01X2584508Y-5127280D01*
G01X2568714Y-5141678D01*
G01X2555834Y-5158733D01*
G01X2546308Y-5177864D01*
G01X2540459Y-5198421D01*
G01X2538487Y-5219701D01*
G01X2516115Y-5219701D01*
G01X2514143Y-5198421D01*
G01X2508294Y-5177864D01*
G01X2498768Y-5158733D01*
G01X2485889Y-5141678D01*
G01X2470095Y-5127280D01*
G01X2451924Y-5116029D01*
G01X2431995Y-5108309D01*
G01X2410987Y-5104381D01*
G01X2389615Y-5104381D01*
G01X2368607Y-5108309D01*
G01X2348679Y-5116029D01*
G01X2330508Y-5127280D01*
G01X2314714Y-5141678D01*
G01X2301834Y-5158733D01*
G01X2292308Y-5177864D01*
G01X2286459Y-5198421D01*
G01X2284487Y-5219701D01*
G01X2262115Y-5219701D01*
G01X2260143Y-5198421D01*
G01X2254294Y-5177864D01*
G01X2244768Y-5158733D01*
G01X2231889Y-5141678D01*
G01X2216095Y-5127280D01*
G01X2197924Y-5116029D01*
G01X2177995Y-5108309D01*
G01X2156987Y-5104381D01*
G01X2135615Y-5104381D01*
G01X2114607Y-5108309D01*
G01X2094679Y-5116029D01*
G01X2076508Y-5127280D01*
G01X2060714Y-5141678D01*
G01X2047834Y-5158733D01*
G01X2038308Y-5177864D01*
G01X2032459Y-5198421D01*
G01X2030487Y-5219701D01*
G01X99314Y-5219701D01*
G01X99314Y-5030685D01*
G01X1198150Y-5030685D01*
G01X1198150Y-5053115D01*
G01X1201842Y-5075240D01*
G01X1209125Y-5096456D01*
G01X1219801Y-5116183D01*
G01X1233579Y-5133884D01*
G01X1250081Y-5149076D01*
G01X1268860Y-5161345D01*
G01X1289401Y-5170355D01*
G01X1311146Y-5175861D01*
G01X1333500Y-5177714D01*
G01X1355854Y-5175861D01*
G01X1377599Y-5170355D01*
G01X1398140Y-5161345D01*
G01X1416919Y-5149076D01*
G01X1433421Y-5133884D01*
G01X1447199Y-5116183D01*
G01X1457875Y-5096456D01*
G01X1465158Y-5075240D01*
G01X1468850Y-5053115D01*
G01X1468850Y-5030685D01*
G01X1465158Y-5008560D01*
G01X1457875Y-4987344D01*
G01X1447199Y-4967617D01*
G01X1433421Y-4949916D01*
G01X1416919Y-4934724D01*
G01X1398140Y-4922455D01*
G01X1377599Y-4913445D01*
G01X1355854Y-4907939D01*
G01X1333500Y-4906086D01*
G01X1333500Y-4906086D01*
G01X1311146Y-4907939D01*
G01X1289401Y-4913445D01*
G01X1268860Y-4922455D01*
G01X1250081Y-4934724D01*
G01X1233579Y-4949916D01*
G01X1219801Y-4967617D01*
G01X1209125Y-4987344D01*
G01X1201842Y-5008560D01*
G01X1198150Y-5030685D01*
G01X99314Y-5030685D01*
G01X99314Y-4268685D01*
G01X1198150Y-4268685D01*
G01X1198150Y-4291115D01*
G01X1201842Y-4313240D01*
G01X1209125Y-4334456D01*
G01X1219801Y-4354183D01*
G01X1233579Y-4371884D01*
G01X1250081Y-4387076D01*
G01X1268860Y-4399345D01*
G01X1289401Y-4408355D01*
G01X1311146Y-4413861D01*
G01X1333500Y-4415714D01*
G01X1355854Y-4413861D01*
G01X1377599Y-4408355D01*
G01X1398140Y-4399345D01*
G01X1416919Y-4387076D01*
G01X1433421Y-4371884D01*
G01X1447199Y-4354183D01*
G01X1457875Y-4334456D01*
G01X1465158Y-4313240D01*
G01X1468850Y-4291115D01*
G01X1468850Y-4268685D01*
G01X1465158Y-4246560D01*
G01X1457875Y-4225344D01*
G01X1447199Y-4205617D01*
G01X1433421Y-4187916D01*
G01X1416919Y-4172724D01*
G01X1398140Y-4160455D01*
G01X1377599Y-4151445D01*
G01X1355854Y-4145939D01*
G01X1333500Y-4144086D01*
G01X1333500Y-4144086D01*
G01X1311146Y-4145939D01*
G01X1289401Y-4151445D01*
G01X1268860Y-4160455D01*
G01X1250081Y-4172724D01*
G01X1233579Y-4187916D01*
G01X1219801Y-4205617D01*
G01X1209125Y-4225344D01*
G01X1201842Y-4246560D01*
G01X1198150Y-4268685D01*
G01X99314Y-4268685D01*
G01X99314Y-3972647D01*
G01X2617098Y-3972647D01*
G01X2617512Y-3987998D01*
G01X2621445Y-4002843D01*
G01X2628688Y-4016384D01*
G01X2638851Y-4027897D01*
G01X2651389Y-4036763D01*
G01X2665631Y-4042507D01*
G01X2680813Y-4044822D01*
G01X3474692Y-4838701D01*
G01X3202358Y-5111035D01*
G01X3202358Y-5111035D01*
G01X3182775Y-5105712D01*
G01X3162564Y-5103888D01*
G01X3142344Y-5105620D01*
G01X3122738Y-5110855D01*
G01X3104346Y-5119432D01*
G01X3087733Y-5131087D01*
G01X3073410Y-5145463D01*
G01X3061817Y-5162119D01*
G01X3053308Y-5180543D01*
G01X3048146Y-5200169D01*
G01X3046490Y-5220395D01*
G01X3048388Y-5240599D01*
G01X3053785Y-5260162D01*
G01X3062513Y-5278483D01*
G01X3074306Y-5294998D01*
G01X3088800Y-5309202D01*
G01X3105551Y-5320658D01*
G01X3124044Y-5329014D01*
G01X3143712Y-5334014D01*
G01X3163951Y-5335503D01*
G01X3184139Y-5333438D01*
G01X3203657Y-5327880D01*
G01X3221904Y-5319000D01*
G01X3238322Y-5307072D01*
G01X3252406Y-5292461D01*
G01X3263723Y-5275616D01*
G01X3271926Y-5257055D01*
G01X3276763Y-5237346D01*
G01X3300656Y-5213453D01*
G01X3301486Y-5234878D01*
G01X3306251Y-5255783D01*
G01X3314788Y-5275451D01*
G01X3326805Y-5293208D01*
G01X3341888Y-5308446D01*
G01X3359523Y-5320642D01*
G01X3379103Y-5329379D01*
G01X3399958Y-5334356D01*
G01X3421373Y-5335404D01*
G01X3442615Y-5332486D01*
G01X3462954Y-5325703D01*
G01X3481695Y-5315287D01*
G01X3498194Y-5301594D01*
G01X3511887Y-5285095D01*
G01X3522303Y-5266354D01*
G01X3529086Y-5246015D01*
G01X3532004Y-5224773D01*
G01X3531756Y-5219701D01*
G01X3554487Y-5219701D01*
G01X3556459Y-5240982D01*
G01X3562308Y-5261538D01*
G01X3571834Y-5280669D01*
G01X3584714Y-5297725D01*
G01X3600508Y-5312123D01*
G01X3618679Y-5323374D01*
G01X3638607Y-5331094D01*
G01X3659615Y-5335021D01*
G01X3680987Y-5335021D01*
G01X3701995Y-5331094D01*
G01X3721924Y-5323374D01*
G01X3740095Y-5312123D01*
G01X3755889Y-5297725D01*
G01X3768768Y-5280669D01*
G01X3778294Y-5261538D01*
G01X3784143Y-5240982D01*
G01X3786115Y-5219701D01*
G01X3786115Y-5219701D01*
G01X3784143Y-5198421D01*
G01X3778294Y-5177864D01*
G01X3768768Y-5158733D01*
G01X3755889Y-5141678D01*
G01X3753721Y-5139701D01*
G01X3808487Y-5139701D01*
G01X3808487Y-5299701D01*
G01X3810240Y-5310768D01*
G01X3815327Y-5320752D01*
G01X3823250Y-5328675D01*
G01X3833234Y-5333762D01*
G01X3844301Y-5335515D01*
G01X4004301Y-5335515D01*
G01X4015368Y-5333762D01*
G01X4025352Y-5328675D01*
G01X4033275Y-5320752D01*
G01X4038362Y-5310768D01*
G01X4040115Y-5299701D01*
G01X4040115Y-5139701D01*
G01X4038362Y-5128634D01*
G01X4033275Y-5118650D01*
G01X4025352Y-5110727D01*
G01X4015368Y-5105640D01*
G01X4004301Y-5103887D01*
G01X3844301Y-5103887D01*
G01X3844301Y-5103887D01*
G01X3833234Y-5105640D01*
G01X3823250Y-5110727D01*
G01X3815327Y-5118650D01*
G01X3810240Y-5128634D01*
G01X3808487Y-5139701D01*
G01X3753721Y-5139701D01*
G01X3740095Y-5127280D01*
G01X3721924Y-5116029D01*
G01X3701995Y-5108309D01*
G01X3680987Y-5104381D01*
G01X3659615Y-5104381D01*
G01X3638607Y-5108309D01*
G01X3618679Y-5116029D01*
G01X3600508Y-5127280D01*
G01X3584714Y-5141678D01*
G01X3571834Y-5158733D01*
G01X3562308Y-5177864D01*
G01X3556459Y-5198421D01*
G01X3554487Y-5219701D01*
G01X3531756Y-5219701D01*
G01X3530956Y-5203358D01*
G01X3525979Y-5182503D01*
G01X3517242Y-5162923D01*
G01X3505046Y-5145288D01*
G01X3489808Y-5130205D01*
G01X3472051Y-5118188D01*
G01X3452383Y-5109651D01*
G01X3431478Y-5104886D01*
G01X3410053Y-5104056D01*
G01X3858173Y-4655936D01*
G01X3858884Y-4671770D01*
G01X3863332Y-4686983D01*
G01X3871263Y-4700706D01*
G01X3882225Y-4712155D01*
G01X3895589Y-4720676D01*
G01X3910595Y-4725782D01*
G01X3926383Y-4727181D01*
G01X3942052Y-4724794D01*
G01X3956707Y-4718757D01*
G01X3969511Y-4709414D01*
G01X4406900Y-4709414D01*
G01X4419456Y-4707761D01*
G01X4431157Y-4702914D01*
G01X4441205Y-4695205D01*
G01X4448914Y-4685157D01*
G01X4453761Y-4673456D01*
G01X4455414Y-4660900D01*
G01X4455414Y-4375910D01*
G01X4461481Y-4368363D01*
G01X4466383Y-4360013D01*
G01X4466383Y-4953728D01*
G01X4452453Y-4950606D01*
G01X4438177Y-4950538D01*
G01X4424217Y-4953527D01*
G01X4411221Y-4959434D01*
G01X4399790Y-4967986D01*
G01X4203700Y-4967986D01*
G01X4191144Y-4969639D01*
G01X4179443Y-4974486D01*
G01X4169395Y-4982195D01*
G01X4161686Y-4992243D01*
G01X4156839Y-5003944D01*
G01X4155186Y-5016500D01*
G01X4155186Y-5326890D01*
G01X4145765Y-5339834D01*
G01X4139721Y-5354658D01*
G01X4137405Y-5370499D01*
G01X4138953Y-5386433D01*
G01X4144275Y-5401532D01*
G01X4153060Y-5414915D01*
G01X4164796Y-5425803D01*
G01X4178800Y-5433562D01*
G01X4194254Y-5437738D01*
G01X4210260Y-5438089D01*
G01X4225883Y-5434594D01*
G01X4240213Y-5427457D01*
G01X4252415Y-5417093D01*
G01X4261778Y-5404108D01*
G01X4267756Y-5389257D01*
G01X4270001Y-5373406D01*
G01X4277458Y-5386233D01*
G01X4287581Y-5397082D01*
G01X4299862Y-5405408D01*
G01X4313687Y-5410795D01*
G01X4328364Y-5412973D01*
G01X4430784Y-5515393D01*
G01X4430784Y-6625789D01*
G01X4432437Y-6638345D01*
G01X4437283Y-6650046D01*
G01X4444993Y-6660093D01*
G01X4558962Y-6774062D01*
G01X4543060Y-6786702D01*
G01X4529612Y-6801925D01*
G01X4519030Y-6819264D01*
G01X4511640Y-6838186D01*
G01X4507670Y-6858107D01*
G01X4507241Y-6878416D01*
G01X4510368Y-6898487D01*
G01X4516953Y-6917703D01*
G01X4526794Y-6935473D01*
G01X4539589Y-6951250D01*
G01X4554943Y-6964549D01*
G01X4572385Y-6974961D01*
G01X4591377Y-6982165D01*
G01X4611337Y-6985940D01*
G01X4631648Y-6986170D01*
G01X4651688Y-6982847D01*
G01X4670839Y-6976075D01*
G01X4688512Y-6966060D01*
G01X4704163Y-6953112D01*
G01X4717311Y-6937628D01*
G01X4727552Y-6920085D01*
G01X4734570Y-6901023D01*
G01X4738149Y-6881028D01*
G01X4738180Y-6860715D01*
G01X4734662Y-6840709D01*
G01X4727702Y-6821625D01*
G01X4717515Y-6804051D01*
G01X4704414Y-6788527D01*
G01X4688803Y-6775531D01*
G01X4671160Y-6765462D01*
G01X4668933Y-6754284D01*
G01X4664159Y-6743934D01*
G01X4657102Y-6734984D01*
G01X4651112Y-6728994D01*
G01X4670336Y-6722302D01*
G01X4688092Y-6712348D01*
G01X4703830Y-6699439D01*
G01X4717065Y-6683974D01*
G01X4727388Y-6666430D01*
G01X4734480Y-6647350D01*
G01X4738123Y-6627323D01*
G01X4738202Y-6606968D01*
G01X4738035Y-6606009D01*
G01X6031478Y-6606009D01*
G01X6031478Y-6627381D01*
G01X6035405Y-6648389D01*
G01X6043125Y-6668318D01*
G01X6054376Y-6686488D01*
G01X6068774Y-6702282D01*
G01X6085829Y-6715162D01*
G01X6104961Y-6724688D01*
G01X6125517Y-6730537D01*
G01X6146797Y-6732509D01*
G01X6146797Y-6732509D01*
G01X6168078Y-6730537D01*
G01X6188634Y-6724688D01*
G01X6207766Y-6715162D01*
G01X6224821Y-6702282D01*
G01X6239219Y-6686488D01*
G01X6250470Y-6668318D01*
G01X6258190Y-6648389D01*
G01X6262117Y-6627381D01*
G01X6262117Y-6606009D01*
G01X6258190Y-6585001D01*
G01X6250470Y-6565072D01*
G01X6239219Y-6546901D01*
G01X6224821Y-6531107D01*
G01X6207766Y-6518228D01*
G01X6188634Y-6508702D01*
G01X6168078Y-6502853D01*
G01X6146797Y-6500881D01*
G01X6125517Y-6502853D01*
G01X6104961Y-6508702D01*
G01X6085829Y-6518228D01*
G01X6068774Y-6531107D01*
G01X6054376Y-6546901D01*
G01X6043125Y-6565072D01*
G01X6035405Y-6585001D01*
G01X6031478Y-6606009D01*
G01X4738035Y-6606009D01*
G01X4734717Y-6586914D01*
G01X4727774Y-6567779D01*
G01X4717588Y-6550155D01*
G01X4704474Y-6534587D01*
G01X4688837Y-6521555D01*
G01X4671160Y-6511462D01*
G01X4668933Y-6500284D01*
G01X4664159Y-6489934D01*
G01X4657102Y-6480984D01*
G01X4651112Y-6474994D01*
G01X4669878Y-6468507D01*
G01X4687260Y-6458911D01*
G01X4702747Y-6446486D01*
G01X4715884Y-6431598D01*
G01X4726286Y-6414686D01*
G01X4733645Y-6396245D01*
G01X4737747Y-6376818D01*
G01X4738470Y-6356976D01*
G01X4737794Y-6352009D01*
G01X6031478Y-6352009D01*
G01X6031478Y-6373381D01*
G01X6035405Y-6394389D01*
G01X6043125Y-6414318D01*
G01X6054376Y-6432488D01*
G01X6068774Y-6448282D01*
G01X6085829Y-6461162D01*
G01X6104961Y-6470688D01*
G01X6125517Y-6476537D01*
G01X6146797Y-6478509D01*
G01X6146797Y-6478509D01*
G01X6168078Y-6476537D01*
G01X6188634Y-6470688D01*
G01X6207766Y-6461162D01*
G01X6224821Y-6448282D01*
G01X6239219Y-6432488D01*
G01X6250470Y-6414318D01*
G01X6258190Y-6394389D01*
G01X6262117Y-6373381D01*
G01X6262117Y-6352009D01*
G01X6258190Y-6331001D01*
G01X6250470Y-6311072D01*
G01X6239219Y-6292901D01*
G01X6224821Y-6277107D01*
G01X6207766Y-6264228D01*
G01X6188634Y-6254702D01*
G01X6168078Y-6248853D01*
G01X6146797Y-6246881D01*
G01X6125517Y-6248853D01*
G01X6104961Y-6254702D01*
G01X6085829Y-6264228D01*
G01X6068774Y-6277107D01*
G01X6054376Y-6292901D01*
G01X6043125Y-6311072D01*
G01X6035405Y-6331001D01*
G01X6031478Y-6352009D01*
G01X4737794Y-6352009D01*
G01X4735793Y-6337302D01*
G01X4729795Y-6318375D01*
G01X4720653Y-6300750D01*
G01X4708634Y-6284946D01*
G01X4694092Y-6271427D01*
G01X4677455Y-6260590D01*
G01X4659211Y-6252755D01*
G01X4639898Y-6248150D01*
G01X4620081Y-6246913D01*
G01X4600344Y-6249078D01*
G01X4581268Y-6254583D01*
G01X4563411Y-6263266D01*
G01X4563411Y-6208124D01*
G01X4581713Y-6216977D01*
G01X4601281Y-6222492D01*
G01X4621511Y-6224502D01*
G01X4641781Y-6222942D01*
G01X4661466Y-6217862D01*
G01X4679960Y-6209419D01*
G01X4696692Y-6197871D01*
G01X4711147Y-6183576D01*
G01X4722880Y-6166973D01*
G01X4731529Y-6148574D01*
G01X4736827Y-6128947D01*
G01X4738611Y-6108695D01*
G01X4737670Y-6098009D01*
G01X6031478Y-6098009D01*
G01X6031478Y-6119381D01*
G01X6035405Y-6140389D01*
G01X6043125Y-6160318D01*
G01X6054376Y-6178488D01*
G01X6068774Y-6194282D01*
G01X6085829Y-6207162D01*
G01X6104961Y-6216688D01*
G01X6125517Y-6222537D01*
G01X6146797Y-6224509D01*
G01X6146797Y-6224509D01*
G01X6168078Y-6222537D01*
G01X6188634Y-6216688D01*
G01X6207766Y-6207162D01*
G01X6224821Y-6194282D01*
G01X6239219Y-6178488D01*
G01X6250470Y-6160318D01*
G01X6258190Y-6140389D01*
G01X6262117Y-6119381D01*
G01X6262117Y-6098009D01*
G01X6258190Y-6077001D01*
G01X6250470Y-6057072D01*
G01X6239219Y-6038901D01*
G01X6224821Y-6023107D01*
G01X6207766Y-6010228D01*
G01X6188634Y-6000702D01*
G01X6168078Y-5994853D01*
G01X6146797Y-5992881D01*
G01X6125517Y-5994853D01*
G01X6104961Y-6000702D01*
G01X6085829Y-6010228D01*
G01X6068774Y-6023107D01*
G01X6054376Y-6038901D01*
G01X6043125Y-6057072D01*
G01X6035405Y-6077001D01*
G01X6031478Y-6098009D01*
G01X4737670Y-6098009D01*
G01X4736827Y-6088443D01*
G01X4731529Y-6068816D01*
G01X4722880Y-6050417D01*
G01X4711147Y-6033814D01*
G01X4696692Y-6019519D01*
G01X4679960Y-6007971D01*
G01X4661466Y-5999527D01*
G01X4641781Y-5994448D01*
G01X4621511Y-5992888D01*
G01X4601281Y-5994897D01*
G01X4581713Y-6000413D01*
G01X4563411Y-6009266D01*
G01X4563411Y-5954124D01*
G01X4581713Y-5962977D01*
G01X4601281Y-5968492D01*
G01X4621511Y-5970502D01*
G01X4641781Y-5968942D01*
G01X4661466Y-5963862D01*
G01X4679960Y-5955419D01*
G01X4696692Y-5943871D01*
G01X4711147Y-5929576D01*
G01X4722880Y-5912973D01*
G01X4731529Y-5894574D01*
G01X4736827Y-5874947D01*
G01X4738611Y-5854695D01*
G01X4737670Y-5844009D01*
G01X6031478Y-5844009D01*
G01X6031478Y-5865381D01*
G01X6035405Y-5886389D01*
G01X6043125Y-5906318D01*
G01X6054376Y-5924488D01*
G01X6068774Y-5940282D01*
G01X6085829Y-5953162D01*
G01X6104961Y-5962688D01*
G01X6125517Y-5968537D01*
G01X6146797Y-5970509D01*
G01X6146797Y-5970509D01*
G01X6168078Y-5968537D01*
G01X6188634Y-5962688D01*
G01X6207766Y-5953162D01*
G01X6224821Y-5940282D01*
G01X6239219Y-5924488D01*
G01X6250470Y-5906318D01*
G01X6258190Y-5886389D01*
G01X6262117Y-5865381D01*
G01X6262117Y-5844009D01*
G01X6258190Y-5823001D01*
G01X6250470Y-5803072D01*
G01X6239219Y-5784901D01*
G01X6224821Y-5769107D01*
G01X6207766Y-5756228D01*
G01X6188634Y-5746702D01*
G01X6168078Y-5740853D01*
G01X6146797Y-5738881D01*
G01X6125517Y-5740853D01*
G01X6104961Y-5746702D01*
G01X6085829Y-5756228D01*
G01X6068774Y-5769107D01*
G01X6054376Y-5784901D01*
G01X6043125Y-5803072D01*
G01X6035405Y-5823001D01*
G01X6031478Y-5844009D01*
G01X4737670Y-5844009D01*
G01X4736827Y-5834443D01*
G01X4731529Y-5814816D01*
G01X4722880Y-5796417D01*
G01X4711147Y-5779814D01*
G01X4696692Y-5765519D01*
G01X4679960Y-5753971D01*
G01X4661466Y-5745527D01*
G01X4641781Y-5740448D01*
G01X4621511Y-5738888D01*
G01X4601281Y-5740897D01*
G01X4581713Y-5746413D01*
G01X4563411Y-5755266D01*
G01X4563411Y-5700124D01*
G01X4581713Y-5708977D01*
G01X4601281Y-5714492D01*
G01X4621511Y-5716502D01*
G01X4641781Y-5714942D01*
G01X4661466Y-5709862D01*
G01X4679960Y-5701419D01*
G01X4696692Y-5689871D01*
G01X4711147Y-5675576D01*
G01X4722880Y-5658973D01*
G01X4731529Y-5640574D01*
G01X4736827Y-5620947D01*
G01X4738611Y-5600695D01*
G01X4737670Y-5590009D01*
G01X6031478Y-5590009D01*
G01X6031478Y-5611381D01*
G01X6035405Y-5632389D01*
G01X6043125Y-5652318D01*
G01X6054376Y-5670488D01*
G01X6068774Y-5686282D01*
G01X6085829Y-5699162D01*
G01X6104961Y-5708688D01*
G01X6125517Y-5714537D01*
G01X6146797Y-5716509D01*
G01X6146797Y-5716509D01*
G01X6168078Y-5714537D01*
G01X6188634Y-5708688D01*
G01X6207766Y-5699162D01*
G01X6224821Y-5686282D01*
G01X6239219Y-5670488D01*
G01X6250470Y-5652318D01*
G01X6258190Y-5632389D01*
G01X6262117Y-5611381D01*
G01X6262117Y-5590009D01*
G01X6258190Y-5569001D01*
G01X6250470Y-5549072D01*
G01X6239219Y-5530901D01*
G01X6224821Y-5515107D01*
G01X6207766Y-5502228D01*
G01X6188634Y-5492702D01*
G01X6168078Y-5486853D01*
G01X6146797Y-5484881D01*
G01X6125517Y-5486853D01*
G01X6104961Y-5492702D01*
G01X6085829Y-5502228D01*
G01X6068774Y-5515107D01*
G01X6054376Y-5530901D01*
G01X6043125Y-5549072D01*
G01X6035405Y-5569001D01*
G01X6031478Y-5590009D01*
G01X4737670Y-5590009D01*
G01X4736827Y-5580443D01*
G01X4731529Y-5560816D01*
G01X4722880Y-5542417D01*
G01X4711147Y-5525814D01*
G01X4696692Y-5511519D01*
G01X4679960Y-5499971D01*
G01X4661466Y-5491527D01*
G01X4641781Y-5486448D01*
G01X4621511Y-5484888D01*
G01X4601281Y-5486897D01*
G01X4581713Y-5492413D01*
G01X4563411Y-5501266D01*
G01X4563411Y-5446124D01*
G01X4581713Y-5454977D01*
G01X4601281Y-5460492D01*
G01X4621511Y-5462502D01*
G01X4641781Y-5460942D01*
G01X4661466Y-5455862D01*
G01X4679960Y-5447419D01*
G01X4696692Y-5435871D01*
G01X4711147Y-5421576D01*
G01X4722880Y-5404973D01*
G01X4731529Y-5386574D01*
G01X4736827Y-5366947D01*
G01X4738611Y-5346695D01*
G01X4737670Y-5336009D01*
G01X6031478Y-5336009D01*
G01X6031478Y-5357381D01*
G01X6035405Y-5378389D01*
G01X6043125Y-5398318D01*
G01X6054376Y-5416488D01*
G01X6068774Y-5432282D01*
G01X6085829Y-5445162D01*
G01X6104961Y-5454688D01*
G01X6125517Y-5460537D01*
G01X6146797Y-5462509D01*
G01X6146797Y-5462509D01*
G01X6168078Y-5460537D01*
G01X6188634Y-5454688D01*
G01X6207766Y-5445162D01*
G01X6224821Y-5432282D01*
G01X6239219Y-5416488D01*
G01X6250470Y-5398318D01*
G01X6258190Y-5378389D01*
G01X6262117Y-5357381D01*
G01X6262117Y-5336009D01*
G01X6258190Y-5315001D01*
G01X6250470Y-5295072D01*
G01X6239219Y-5276901D01*
G01X6224821Y-5261107D01*
G01X6207766Y-5248228D01*
G01X6188634Y-5238702D01*
G01X6168078Y-5232853D01*
G01X6146797Y-5230881D01*
G01X6125517Y-5232853D01*
G01X6104961Y-5238702D01*
G01X6085829Y-5248228D01*
G01X6068774Y-5261107D01*
G01X6054376Y-5276901D01*
G01X6043125Y-5295072D01*
G01X6035405Y-5315001D01*
G01X6031478Y-5336009D01*
G01X4737670Y-5336009D01*
G01X4736827Y-5326443D01*
G01X4731529Y-5306816D01*
G01X4722880Y-5288417D01*
G01X4711147Y-5271814D01*
G01X4696692Y-5257519D01*
G01X4679960Y-5245971D01*
G01X4661466Y-5237527D01*
G01X4641781Y-5232448D01*
G01X4621511Y-5230888D01*
G01X4601281Y-5232897D01*
G01X4581713Y-5238413D01*
G01X4563411Y-5247266D01*
G01X4563411Y-5192124D01*
G01X4581713Y-5200977D01*
G01X4601281Y-5206492D01*
G01X4621511Y-5208502D01*
G01X4641781Y-5206942D01*
G01X4661466Y-5201862D01*
G01X4679960Y-5193419D01*
G01X4696692Y-5181871D01*
G01X4711147Y-5167576D01*
G01X4722880Y-5150973D01*
G01X4731529Y-5132574D01*
G01X4736827Y-5112947D01*
G01X4738611Y-5092695D01*
G01X4737670Y-5082009D01*
G01X6031478Y-5082009D01*
G01X6031478Y-5103381D01*
G01X6035405Y-5124389D01*
G01X6043125Y-5144318D01*
G01X6054376Y-5162488D01*
G01X6068774Y-5178282D01*
G01X6085829Y-5191162D01*
G01X6104961Y-5200688D01*
G01X6125517Y-5206537D01*
G01X6146797Y-5208509D01*
G01X6146797Y-5208509D01*
G01X6168078Y-5206537D01*
G01X6188634Y-5200688D01*
G01X6207766Y-5191162D01*
G01X6224821Y-5178282D01*
G01X6239219Y-5162488D01*
G01X6250470Y-5144318D01*
G01X6258190Y-5124389D01*
G01X6262117Y-5103381D01*
G01X6262117Y-5082009D01*
G01X6258190Y-5061001D01*
G01X6250470Y-5041072D01*
G01X6239219Y-5022901D01*
G01X6224821Y-5007107D01*
G01X6207766Y-4994228D01*
G01X6188634Y-4984702D01*
G01X6168078Y-4978853D01*
G01X6146797Y-4976881D01*
G01X6125517Y-4978853D01*
G01X6104961Y-4984702D01*
G01X6085829Y-4994228D01*
G01X6068774Y-5007107D01*
G01X6054376Y-5022901D01*
G01X6043125Y-5041072D01*
G01X6035405Y-5061001D01*
G01X6031478Y-5082009D01*
G01X4737670Y-5082009D01*
G01X4736827Y-5072443D01*
G01X4731529Y-5052816D01*
G01X4722880Y-5034417D01*
G01X4711147Y-5017814D01*
G01X4696692Y-5003519D01*
G01X4679960Y-4991971D01*
G01X4661466Y-4983527D01*
G01X4641781Y-4978448D01*
G01X4621511Y-4976888D01*
G01X4601281Y-4978897D01*
G01X4581713Y-4984413D01*
G01X4563411Y-4993266D01*
G01X4563411Y-4938124D01*
G01X4581713Y-4946977D01*
G01X4601281Y-4952492D01*
G01X4621511Y-4954502D01*
G01X4641781Y-4952942D01*
G01X4661466Y-4947862D01*
G01X4679960Y-4939419D01*
G01X4696692Y-4927871D01*
G01X4711147Y-4913576D01*
G01X4722880Y-4896973D01*
G01X4731529Y-4878574D01*
G01X4736827Y-4858947D01*
G01X4738611Y-4838695D01*
G01X4736827Y-4818443D01*
G01X4731529Y-4798816D01*
G01X4722880Y-4780417D01*
G01X4711147Y-4763814D01*
G01X4696692Y-4749519D01*
G01X4679960Y-4737971D01*
G01X4661466Y-4729527D01*
G01X4641781Y-4724448D01*
G01X4621511Y-4722888D01*
G01X4601281Y-4724897D01*
G01X4581713Y-4730413D01*
G01X4563411Y-4739266D01*
G01X4563411Y-4684124D01*
G01X4581713Y-4692977D01*
G01X4601281Y-4698492D01*
G01X4621511Y-4700502D01*
G01X4641781Y-4698942D01*
G01X4661466Y-4693862D01*
G01X4679960Y-4685419D01*
G01X4696692Y-4673871D01*
G01X4711147Y-4659576D01*
G01X4722880Y-4642973D01*
G01X4731529Y-4624574D01*
G01X4736827Y-4604947D01*
G01X4738611Y-4584695D01*
G01X4736827Y-4564443D01*
G01X4731529Y-4544816D01*
G01X4722880Y-4526417D01*
G01X4711147Y-4509814D01*
G01X4696692Y-4495519D01*
G01X4679960Y-4483971D01*
G01X4661466Y-4475527D01*
G01X4641781Y-4470448D01*
G01X4621511Y-4468888D01*
G01X4601281Y-4470897D01*
G01X4581713Y-4476413D01*
G01X4563411Y-4485266D01*
G01X4563411Y-4430124D01*
G01X4581713Y-4438977D01*
G01X4601281Y-4444492D01*
G01X4621511Y-4446502D01*
G01X4641781Y-4444942D01*
G01X4661466Y-4439862D01*
G01X4679960Y-4431419D01*
G01X4696692Y-4419871D01*
G01X4711147Y-4405576D01*
G01X4722880Y-4388973D01*
G01X4731529Y-4370574D01*
G01X4736827Y-4350947D01*
G01X4738611Y-4330695D01*
G01X4736827Y-4310443D01*
G01X4731529Y-4290816D01*
G01X4722880Y-4272417D01*
G01X4711147Y-4255814D01*
G01X4696692Y-4241519D01*
G01X4679960Y-4229971D01*
G01X4661466Y-4221527D01*
G01X4641781Y-4216448D01*
G01X4621511Y-4214888D01*
G01X4601281Y-4216897D01*
G01X4581713Y-4222413D01*
G01X4563411Y-4231266D01*
G01X4563411Y-4176124D01*
G01X4581713Y-4184977D01*
G01X4601281Y-4190492D01*
G01X4621511Y-4192502D01*
G01X4641781Y-4190942D01*
G01X4661466Y-4185862D01*
G01X4679960Y-4177419D01*
G01X4696692Y-4165871D01*
G01X4711147Y-4151576D01*
G01X4722880Y-4134973D01*
G01X4731529Y-4116574D01*
G01X4736827Y-4096947D01*
G01X4738611Y-4076695D01*
G01X4736827Y-4056443D01*
G01X4731529Y-4036816D01*
G01X4722880Y-4018417D01*
G01X4711147Y-4001814D01*
G01X4696692Y-3987519D01*
G01X4679960Y-3975971D01*
G01X4661466Y-3967527D01*
G01X4641781Y-3962448D01*
G01X4621511Y-3960888D01*
G01X4601281Y-3962897D01*
G01X4581713Y-3968413D01*
G01X4563411Y-3977266D01*
G01X4563411Y-3922124D01*
G01X4581713Y-3930977D01*
G01X4601281Y-3936492D01*
G01X4621511Y-3938502D01*
G01X4641781Y-3936942D01*
G01X4661466Y-3931862D01*
G01X4679960Y-3923419D01*
G01X4696692Y-3911871D01*
G01X4711147Y-3897576D01*
G01X4722880Y-3880973D01*
G01X4731529Y-3862574D01*
G01X4736827Y-3842947D01*
G01X4738611Y-3822695D01*
G01X4736827Y-3802443D01*
G01X4731529Y-3782816D01*
G01X4722880Y-3764417D01*
G01X4711147Y-3747814D01*
G01X4696692Y-3733519D01*
G01X4679960Y-3721971D01*
G01X4661466Y-3713527D01*
G01X4641781Y-3708448D01*
G01X4621511Y-3706888D01*
G01X4601281Y-3708897D01*
G01X4581713Y-3714413D01*
G01X4563411Y-3723266D01*
G01X4563411Y-3668124D01*
G01X4581713Y-3676977D01*
G01X4601281Y-3682492D01*
G01X4621511Y-3684502D01*
G01X4641781Y-3682942D01*
G01X4661466Y-3677862D01*
G01X4679960Y-3669419D01*
G01X4696692Y-3657871D01*
G01X4711147Y-3643576D01*
G01X4722880Y-3626973D01*
G01X4731529Y-3608574D01*
G01X4736827Y-3588947D01*
G01X4738611Y-3568695D01*
G01X4736827Y-3548443D01*
G01X4731529Y-3528816D01*
G01X4722880Y-3510417D01*
G01X4711147Y-3493814D01*
G01X4696692Y-3479519D01*
G01X4679960Y-3467971D01*
G01X4661466Y-3459527D01*
G01X4641781Y-3454448D01*
G01X4621511Y-3452888D01*
G01X4601281Y-3454897D01*
G01X4581713Y-3460413D01*
G01X4563411Y-3469266D01*
G01X4563411Y-3414124D01*
G01X4581713Y-3422977D01*
G01X4601281Y-3428492D01*
G01X4621511Y-3430502D01*
G01X4641781Y-3428942D01*
G01X4661466Y-3423862D01*
G01X4679960Y-3415419D01*
G01X4696692Y-3403871D01*
G01X4711147Y-3389576D01*
G01X4722880Y-3372973D01*
G01X4731529Y-3354574D01*
G01X4736827Y-3334947D01*
G01X4738611Y-3314695D01*
G01X4736827Y-3294443D01*
G01X4731529Y-3274816D01*
G01X4722880Y-3256417D01*
G01X4711147Y-3239814D01*
G01X4696692Y-3225519D01*
G01X4679960Y-3213971D01*
G01X4661466Y-3205527D01*
G01X4641781Y-3200448D01*
G01X4621511Y-3198888D01*
G01X4601281Y-3200897D01*
G01X4581713Y-3206413D01*
G01X4563411Y-3215266D01*
G01X4563411Y-3160124D01*
G01X4581713Y-3168977D01*
G01X4601281Y-3174492D01*
G01X4621511Y-3176502D01*
G01X4641781Y-3174942D01*
G01X4661466Y-3169862D01*
G01X4679960Y-3161419D01*
G01X4696692Y-3149871D01*
G01X4711147Y-3135576D01*
G01X4722880Y-3118973D01*
G01X4731529Y-3100574D01*
G01X4736827Y-3080947D01*
G01X4738611Y-3060695D01*
G01X4736827Y-3040443D01*
G01X4731529Y-3020816D01*
G01X4722880Y-3002417D01*
G01X4711147Y-2985814D01*
G01X4696692Y-2971519D01*
G01X4679960Y-2959971D01*
G01X4661466Y-2951527D01*
G01X4641781Y-2946448D01*
G01X4621511Y-2944888D01*
G01X4601281Y-2946897D01*
G01X4581713Y-2952413D01*
G01X4563411Y-2961266D01*
G01X4563411Y-2944912D01*
G01X4568112Y-2933364D01*
G01X4569714Y-2921000D01*
G01X4569714Y-1854200D01*
G01X4568061Y-1841644D01*
G01X4563214Y-1829943D01*
G01X4555505Y-1819895D01*
G01X4545457Y-1812186D01*
G01X4533756Y-1807339D01*
G01X4521200Y-1805686D01*
G01X3416300Y-1805686D01*
G01X3403744Y-1807339D01*
G01X3392043Y-1812186D01*
G01X3381995Y-1819895D01*
G01X3374286Y-1829943D01*
G01X3369439Y-1841644D01*
G01X3367786Y-1854200D01*
G01X3367786Y-2066537D01*
G01X3349683Y-2076963D01*
G01X3333748Y-2090472D01*
G01X3320499Y-2106623D01*
G01X3310367Y-2124892D01*
G01X3303681Y-2144683D01*
G01X3300660Y-2165354D01*
G01X3301401Y-2186231D01*
G01X3305881Y-2206636D01*
G01X3313953Y-2225903D01*
G01X3325356Y-2243408D01*
G01X3339717Y-2258579D01*
G01X3356570Y-2270923D01*
G01X3375366Y-2280039D01*
G01X3395495Y-2285630D01*
G01X3416300Y-2287514D01*
G01X3437105Y-2285630D01*
G01X3457234Y-2280039D01*
G01X3476030Y-2270923D01*
G01X3492883Y-2258579D01*
G01X3507244Y-2243408D01*
G01X3518647Y-2225903D01*
G01X3526719Y-2206636D01*
G01X3531199Y-2186231D01*
G01X3531715Y-2171700D01*
G01X3554486Y-2171700D01*
G01X3556458Y-2192981D01*
G01X3562307Y-2213537D01*
G01X3571833Y-2232668D01*
G01X3584713Y-2249723D01*
G01X3600507Y-2264121D01*
G01X3618677Y-2275372D01*
G01X3638606Y-2283093D01*
G01X3659614Y-2287020D01*
G01X3680986Y-2287020D01*
G01X3701994Y-2283093D01*
G01X3721923Y-2275372D01*
G01X3740093Y-2264121D01*
G01X3755887Y-2249723D01*
G01X3768767Y-2232668D01*
G01X3778293Y-2213537D01*
G01X3784142Y-2192981D01*
G01X3786114Y-2171700D01*
G01X3786114Y-2171700D01*
G01X3784142Y-2150419D01*
G01X3778293Y-2129863D01*
G01X3768767Y-2110732D01*
G01X3755887Y-2093677D01*
G01X3740093Y-2079279D01*
G01X3721923Y-2068028D01*
G01X3701994Y-2060307D01*
G01X3680986Y-2056380D01*
G01X3659614Y-2056380D01*
G01X3638606Y-2060307D01*
G01X3618677Y-2068028D01*
G01X3600507Y-2079279D01*
G01X3584713Y-2093677D01*
G01X3571833Y-2110732D01*
G01X3562307Y-2129863D01*
G01X3556458Y-2150419D01*
G01X3554486Y-2171700D01*
G01X3531715Y-2171700D01*
G01X3531940Y-2165354D01*
G01X3528919Y-2144683D01*
G01X3522233Y-2124892D01*
G01X3512101Y-2106623D01*
G01X3498852Y-2090472D01*
G01X3482917Y-2076963D01*
G01X3464814Y-2066537D01*
G01X3464814Y-1902714D01*
G01X4472686Y-1902714D01*
G01X4472686Y-2903390D01*
G01X4467986Y-2914938D01*
G01X4466383Y-2927303D01*
G01X4466383Y-4301387D01*
G01X4457485Y-4287820D01*
G01X4445559Y-4276820D01*
G01X4431318Y-4269045D01*
G01X4415616Y-4264961D01*
G01X4399392Y-4264812D01*
G01X4383618Y-4268607D01*
G01X4369237Y-4276119D01*
G01X4357111Y-4286899D01*
G01X4347965Y-4300300D01*
G01X4342347Y-4315521D01*
G01X4340593Y-4331650D01*
G01X4342808Y-4347723D01*
G01X4348860Y-4362776D01*
G01X4358386Y-4375910D01*
G01X4358386Y-4612386D01*
G01X3969511Y-4612386D01*
G01X3958617Y-4604155D01*
G01X3946267Y-4598330D01*
G01X3932986Y-4595157D01*
G01X3919337Y-4594772D01*
G01X4174505Y-4339605D01*
G01X4182214Y-4329557D01*
G01X4187061Y-4317856D01*
G01X4188714Y-4305300D01*
G01X4188714Y-2171700D01*
G01X4187061Y-2159144D01*
G01X4182214Y-2147443D01*
G01X4174505Y-2137395D01*
G01X4164457Y-2129686D01*
G01X4152756Y-2124839D01*
G01X4140200Y-2123186D01*
G01X4040114Y-2123186D01*
G01X4040114Y-2091700D01*
G01X4038361Y-2080633D01*
G01X4033274Y-2070649D01*
G01X4025351Y-2062726D01*
G01X4015367Y-2057639D01*
G01X4004300Y-2055886D01*
G01X3844300Y-2055886D01*
G01X3833233Y-2057639D01*
G01X3823249Y-2062726D01*
G01X3815326Y-2070649D01*
G01X3810239Y-2080633D01*
G01X3808486Y-2091700D01*
G01X3808486Y-2251700D01*
G01X3810239Y-2262767D01*
G01X3815326Y-2272751D01*
G01X3823249Y-2280674D01*
G01X3833233Y-2285761D01*
G01X3844300Y-2287514D01*
G01X4004300Y-2287514D01*
G01X4015367Y-2285761D01*
G01X4025351Y-2280674D01*
G01X4033274Y-2272751D01*
G01X4038361Y-2262767D01*
G01X4040114Y-2251700D01*
G01X4040114Y-2220214D01*
G01X4091686Y-2220214D01*
G01X4091686Y-3414819D01*
G01X4085605Y-3407395D01*
G01X3210814Y-2532605D01*
G01X3210814Y-2276863D01*
G01X3228917Y-2266437D01*
G01X3244852Y-2252928D01*
G01X3258101Y-2236777D01*
G01X3268233Y-2218508D01*
G01X3274919Y-2198717D01*
G01X3277940Y-2178046D01*
G01X3277199Y-2157169D01*
G01X3272719Y-2136764D01*
G01X3264647Y-2117497D01*
G01X3253244Y-2099992D01*
G01X3238883Y-2084821D01*
G01X3222030Y-2072477D01*
G01X3203234Y-2063361D01*
G01X3183105Y-2057770D01*
G01X3162300Y-2055886D01*
G01X3141495Y-2057770D01*
G01X3121366Y-2063361D01*
G01X3102570Y-2072477D01*
G01X3085717Y-2084821D01*
G01X3071356Y-2099992D01*
G01X3059953Y-2117497D01*
G01X3051881Y-2136764D01*
G01X3047401Y-2157169D01*
G01X3046660Y-2178046D01*
G01X3049681Y-2198717D01*
G01X3056367Y-2218508D01*
G01X3066499Y-2236777D01*
G01X3079748Y-2252928D01*
G01X3095683Y-2266437D01*
G01X3113786Y-2276863D01*
G01X3113786Y-2552700D01*
G01X3115439Y-2565256D01*
G01X3120286Y-2576957D01*
G01X3127995Y-2587005D01*
G01X4002786Y-3461795D01*
G01X4002786Y-3579887D01*
G01X3844301Y-3579887D01*
G01X3833234Y-3581640D01*
G01X3823250Y-3586727D01*
G01X3815327Y-3594650D01*
G01X3810240Y-3604634D01*
G01X3808487Y-3615701D01*
G01X3808487Y-3775701D01*
G01X3810240Y-3786768D01*
G01X3815327Y-3796752D01*
G01X3823250Y-3804675D01*
G01X3833234Y-3809762D01*
G01X3844301Y-3811515D01*
G01X4002786Y-3811515D01*
G01X4002786Y-3967990D01*
G01X3994340Y-3979242D01*
G01X3988458Y-3992022D01*
G01X3985405Y-4005756D01*
G01X3985318Y-4019824D01*
G01X3988200Y-4033595D01*
G01X3993922Y-4046447D01*
G01X4002228Y-4057803D01*
G01X4012741Y-4067152D01*
G01X4024991Y-4074072D01*
G01X4038424Y-4078252D01*
G01X4052437Y-4079504D01*
G01X4066399Y-4077772D01*
G01X4079681Y-4073134D01*
G01X4091686Y-4065798D01*
G01X4091686Y-4285205D01*
G01X3575050Y-4801841D01*
G01X2749422Y-3976213D01*
G01X2747107Y-3961031D01*
G01X2741363Y-3946789D01*
G01X2732497Y-3934251D01*
G01X2720984Y-3924088D01*
G01X2707443Y-3916845D01*
G01X2692598Y-3912912D01*
G01X2677247Y-3912498D01*
G01X2662213Y-3915626D01*
G01X2648301Y-3922129D01*
G01X2636258Y-3931658D01*
G01X2626729Y-3943701D01*
G01X2620226Y-3957613D01*
G01X2617098Y-3972647D01*
G01X99314Y-3972647D01*
G01X99314Y-3760685D01*
G01X1198150Y-3760685D01*
G01X1198150Y-3783115D01*
G01X1201842Y-3805240D01*
G01X1209125Y-3826456D01*
G01X1219801Y-3846183D01*
G01X1233579Y-3863884D01*
G01X1250081Y-3879076D01*
G01X1268860Y-3891345D01*
G01X1289401Y-3900355D01*
G01X1311146Y-3905861D01*
G01X1333500Y-3907714D01*
G01X1355854Y-3905861D01*
G01X1377599Y-3900355D01*
G01X1398140Y-3891345D01*
G01X1416919Y-3879076D01*
G01X1433421Y-3863884D01*
G01X1447199Y-3846183D01*
G01X1457875Y-3826456D01*
G01X1465158Y-3805240D01*
G01X1468850Y-3783115D01*
G01X1468850Y-3760685D01*
G01X1465158Y-3738560D01*
G01X1457875Y-3717344D01*
G01X1447199Y-3697617D01*
G01X1445708Y-3695701D01*
G01X2030487Y-3695701D01*
G01X2032459Y-3716982D01*
G01X2038308Y-3737538D01*
G01X2047834Y-3756669D01*
G01X2060714Y-3773725D01*
G01X2076508Y-3788123D01*
G01X2094679Y-3799374D01*
G01X2114607Y-3807094D01*
G01X2135615Y-3811021D01*
G01X2156987Y-3811021D01*
G01X2177995Y-3807094D01*
G01X2197924Y-3799374D01*
G01X2216095Y-3788123D01*
G01X2231889Y-3773725D01*
G01X2244768Y-3756669D01*
G01X2254294Y-3737538D01*
G01X2260143Y-3716982D01*
G01X2262115Y-3695701D01*
G01X2262115Y-3695701D01*
G01X2284487Y-3695701D01*
G01X2286459Y-3716982D01*
G01X2292308Y-3737538D01*
G01X2301834Y-3756669D01*
G01X2314714Y-3773725D01*
G01X2330508Y-3788123D01*
G01X2348679Y-3799374D01*
G01X2368607Y-3807094D01*
G01X2389615Y-3811021D01*
G01X2410987Y-3811021D01*
G01X2431995Y-3807094D01*
G01X2451924Y-3799374D01*
G01X2470095Y-3788123D01*
G01X2485889Y-3773725D01*
G01X2498768Y-3756669D01*
G01X2508294Y-3737538D01*
G01X2514143Y-3716982D01*
G01X2516115Y-3695701D01*
G01X2516115Y-3695701D01*
G01X2514143Y-3674421D01*
G01X2508294Y-3653864D01*
G01X2498768Y-3634733D01*
G01X2485889Y-3617678D01*
G01X2470095Y-3603280D01*
G01X2451924Y-3592029D01*
G01X2431995Y-3584309D01*
G01X2410987Y-3580381D01*
G01X2389615Y-3580381D01*
G01X2368607Y-3584309D01*
G01X2348679Y-3592029D01*
G01X2330508Y-3603280D01*
G01X2314714Y-3617678D01*
G01X2301834Y-3634733D01*
G01X2292308Y-3653864D01*
G01X2286459Y-3674421D01*
G01X2284487Y-3695701D01*
G01X2262115Y-3695701D01*
G01X2260143Y-3674421D01*
G01X2254294Y-3653864D01*
G01X2244768Y-3634733D01*
G01X2231889Y-3617678D01*
G01X2216095Y-3603280D01*
G01X2197924Y-3592029D01*
G01X2177995Y-3584309D01*
G01X2156987Y-3580381D01*
G01X2135615Y-3580381D01*
G01X2114607Y-3584309D01*
G01X2094679Y-3592029D01*
G01X2076508Y-3603280D01*
G01X2060714Y-3617678D01*
G01X2047834Y-3634733D01*
G01X2038308Y-3653864D01*
G01X2032459Y-3674421D01*
G01X2030487Y-3695701D01*
G01X1445708Y-3695701D01*
G01X1433421Y-3679916D01*
G01X1416919Y-3664724D01*
G01X1398140Y-3652455D01*
G01X1377599Y-3643445D01*
G01X1355854Y-3637939D01*
G01X1333500Y-3636086D01*
G01X1333500Y-3636086D01*
G01X1311146Y-3637939D01*
G01X1289401Y-3643445D01*
G01X1268860Y-3652455D01*
G01X1250081Y-3664724D01*
G01X1233579Y-3679916D01*
G01X1219801Y-3697617D01*
G01X1209125Y-3717344D01*
G01X1201842Y-3738560D01*
G01X1198150Y-3760685D01*
G01X99314Y-3760685D01*
G01X99314Y-2495969D01*
G01X1197816Y-2495969D01*
G01X1198698Y-2518446D01*
G01X1203278Y-2540469D01*
G01X1211430Y-2561434D01*
G01X1222931Y-2580766D01*
G01X1237465Y-2597935D01*
G01X1254634Y-2612469D01*
G01X1273966Y-2623970D01*
G01X1294931Y-2632122D01*
G01X1316954Y-2636702D01*
G01X1339431Y-2637584D01*
G01X1361746Y-2634744D01*
G01X1383285Y-2628260D01*
G01X1403459Y-2618309D01*
G01X1421714Y-2605165D01*
G01X1437549Y-2589188D01*
G01X1450529Y-2570817D01*
G01X1460299Y-2550555D01*
G01X1466591Y-2528958D01*
G01X1469232Y-2506619D01*
G01X1651000Y-2324851D01*
G01X1793443Y-2467294D01*
G01X1774805Y-2466137D01*
G01X1756280Y-2468490D01*
G01X1738523Y-2474269D01*
G01X1722162Y-2483270D01*
G01X1707774Y-2495174D01*
G01X1328781Y-2874168D01*
G01X1306442Y-2876809D01*
G01X1284845Y-2883101D01*
G01X1264583Y-2892871D01*
G01X1246212Y-2905851D01*
G01X1230235Y-2921686D01*
G01X1217091Y-2939941D01*
G01X1207140Y-2960115D01*
G01X1200656Y-2981654D01*
G01X1197816Y-3003969D01*
G01X1198698Y-3026446D01*
G01X1203278Y-3048469D01*
G01X1211430Y-3069434D01*
G01X1222931Y-3088766D01*
G01X1237465Y-3105935D01*
G01X1254634Y-3120469D01*
G01X1273966Y-3131970D01*
G01X1294931Y-3140122D01*
G01X1316954Y-3144702D01*
G01X1339431Y-3145584D01*
G01X1361746Y-3142744D01*
G01X1383285Y-3136260D01*
G01X1403459Y-3126309D01*
G01X1421714Y-3113165D01*
G01X1437549Y-3097188D01*
G01X1450529Y-3078817D01*
G01X1460299Y-3058555D01*
G01X1466591Y-3036958D01*
G01X1469232Y-3014619D01*
G01X1778000Y-2705851D01*
G01X2652058Y-3579909D01*
G01X2631392Y-3582176D01*
G01X2611464Y-3588101D01*
G01X2592916Y-3597494D01*
G01X2576347Y-3610051D01*
G01X2562290Y-3625369D01*
G01X2551197Y-3642952D01*
G01X2543428Y-3662236D01*
G01X2539231Y-3682598D01*
G01X2538742Y-3703383D01*
G01X2541978Y-3723920D01*
G01X2548833Y-3743547D01*
G01X2559086Y-3761633D01*
G01X2572409Y-3777594D01*
G01X2588370Y-3790916D01*
G01X2606455Y-3801170D01*
G01X2626083Y-3808025D01*
G01X2646620Y-3811260D01*
G01X2667404Y-3810772D01*
G01X2687766Y-3806575D01*
G01X2707050Y-3798805D01*
G01X2724634Y-3787713D01*
G01X2739951Y-3773656D01*
G01X2752509Y-3757086D01*
G01X2761901Y-3738539D01*
G01X2767827Y-3718611D01*
G01X2770093Y-3697945D01*
G01X2795947Y-3723799D01*
G01X2802784Y-3743441D01*
G01X2813024Y-3761543D01*
G01X2826337Y-3777522D01*
G01X2842293Y-3790863D01*
G01X2860377Y-3801134D01*
G01X2880007Y-3808006D01*
G01X2900550Y-3811255D01*
G01X2921342Y-3810779D01*
G01X2941714Y-3806591D01*
G01X2961008Y-3798826D01*
G01X2978603Y-3787737D01*
G01X2993930Y-3773679D01*
G01X3006496Y-3757106D01*
G01X3015896Y-3738553D01*
G01X3021825Y-3718618D01*
G01X3024093Y-3697945D01*
G01X3049947Y-3723799D01*
G01X3056599Y-3743029D01*
G01X3066514Y-3760799D01*
G01X3079386Y-3776559D01*
G01X3094818Y-3789823D01*
G01X3112333Y-3800181D01*
G01X3131391Y-3807314D01*
G01X3151403Y-3811001D01*
G01X3171751Y-3811129D01*
G01X3191808Y-3807693D01*
G01X3210953Y-3800800D01*
G01X3228597Y-3790663D01*
G01X3244194Y-3777594D01*
G01X3257263Y-3761997D01*
G01X3267400Y-3744353D01*
G01X3274293Y-3725208D01*
G01X3277729Y-3705151D01*
G01X3277670Y-3695701D01*
G01X3300487Y-3695701D01*
G01X3302459Y-3716982D01*
G01X3308308Y-3737538D01*
G01X3317834Y-3756669D01*
G01X3330714Y-3773725D01*
G01X3346508Y-3788123D01*
G01X3364679Y-3799374D01*
G01X3384607Y-3807094D01*
G01X3405615Y-3811021D01*
G01X3426987Y-3811021D01*
G01X3447995Y-3807094D01*
G01X3467924Y-3799374D01*
G01X3486095Y-3788123D01*
G01X3501889Y-3773725D01*
G01X3514768Y-3756669D01*
G01X3524294Y-3737538D01*
G01X3530143Y-3716982D01*
G01X3532115Y-3695701D01*
G01X3532115Y-3695701D01*
G01X3554487Y-3695701D01*
G01X3556459Y-3716982D01*
G01X3562308Y-3737538D01*
G01X3571834Y-3756669D01*
G01X3584714Y-3773725D01*
G01X3600508Y-3788123D01*
G01X3618679Y-3799374D01*
G01X3638607Y-3807094D01*
G01X3659615Y-3811021D01*
G01X3680987Y-3811021D01*
G01X3701995Y-3807094D01*
G01X3721924Y-3799374D01*
G01X3740095Y-3788123D01*
G01X3755889Y-3773725D01*
G01X3768768Y-3756669D01*
G01X3778294Y-3737538D01*
G01X3784143Y-3716982D01*
G01X3786115Y-3695701D01*
G01X3786115Y-3695701D01*
G01X3784143Y-3674421D01*
G01X3778294Y-3653864D01*
G01X3768768Y-3634733D01*
G01X3755889Y-3617678D01*
G01X3740095Y-3603280D01*
G01X3721924Y-3592029D01*
G01X3701995Y-3584309D01*
G01X3680987Y-3580381D01*
G01X3659615Y-3580381D01*
G01X3638607Y-3584309D01*
G01X3618679Y-3592029D01*
G01X3600508Y-3603280D01*
G01X3584714Y-3617678D01*
G01X3571834Y-3634733D01*
G01X3562308Y-3653864D01*
G01X3556459Y-3674421D01*
G01X3554487Y-3695701D01*
G01X3532115Y-3695701D01*
G01X3530143Y-3674421D01*
G01X3524294Y-3653864D01*
G01X3514768Y-3634733D01*
G01X3501889Y-3617678D01*
G01X3486095Y-3603280D01*
G01X3467924Y-3592029D01*
G01X3447995Y-3584309D01*
G01X3426987Y-3580381D01*
G01X3405615Y-3580381D01*
G01X3384607Y-3584309D01*
G01X3364679Y-3592029D01*
G01X3346508Y-3603280D01*
G01X3330714Y-3617678D01*
G01X3317834Y-3634733D01*
G01X3308308Y-3653864D01*
G01X3302459Y-3674421D01*
G01X3300487Y-3695701D01*
G01X3277670Y-3695701D01*
G01X3277601Y-3684803D01*
G01X3273914Y-3664791D01*
G01X3266781Y-3645733D01*
G01X3256423Y-3628218D01*
G01X3243159Y-3612786D01*
G01X3227399Y-3599914D01*
G01X3209629Y-3589999D01*
G01X3190399Y-3583347D01*
G01X1778751Y-2171700D01*
G01X2030486Y-2171700D01*
G01X2032458Y-2192981D01*
G01X2038307Y-2213537D01*
G01X2047833Y-2232668D01*
G01X2060713Y-2249723D01*
G01X2076507Y-2264121D01*
G01X2094677Y-2275372D01*
G01X2114606Y-2283093D01*
G01X2135614Y-2287020D01*
G01X2156986Y-2287020D01*
G01X2177994Y-2283093D01*
G01X2197923Y-2275372D01*
G01X2216093Y-2264121D01*
G01X2231887Y-2249723D01*
G01X2244767Y-2232668D01*
G01X2254293Y-2213537D01*
G01X2260142Y-2192981D01*
G01X2262114Y-2171700D01*
G01X2262114Y-2171700D01*
G01X2284486Y-2171700D01*
G01X2286458Y-2192981D01*
G01X2292307Y-2213537D01*
G01X2301833Y-2232668D01*
G01X2314713Y-2249723D01*
G01X2330507Y-2264121D01*
G01X2348677Y-2275372D01*
G01X2368606Y-2283093D01*
G01X2389614Y-2287020D01*
G01X2410986Y-2287020D01*
G01X2431994Y-2283093D01*
G01X2451923Y-2275372D01*
G01X2470093Y-2264121D01*
G01X2485887Y-2249723D01*
G01X2498767Y-2232668D01*
G01X2508293Y-2213537D01*
G01X2514142Y-2192981D01*
G01X2516114Y-2171700D01*
G01X2516114Y-2171700D01*
G01X2538486Y-2171700D01*
G01X2540458Y-2192981D01*
G01X2546307Y-2213537D01*
G01X2555833Y-2232668D01*
G01X2568713Y-2249723D01*
G01X2584507Y-2264121D01*
G01X2602677Y-2275372D01*
G01X2622606Y-2283093D01*
G01X2643614Y-2287020D01*
G01X2664986Y-2287020D01*
G01X2685994Y-2283093D01*
G01X2705923Y-2275372D01*
G01X2724093Y-2264121D01*
G01X2739887Y-2249723D01*
G01X2752767Y-2232668D01*
G01X2762293Y-2213537D01*
G01X2768142Y-2192981D01*
G01X2770114Y-2171700D01*
G01X2770114Y-2171700D01*
G01X2792486Y-2171700D01*
G01X2794458Y-2192981D01*
G01X2800307Y-2213537D01*
G01X2809833Y-2232668D01*
G01X2822713Y-2249723D01*
G01X2838507Y-2264121D01*
G01X2856677Y-2275372D01*
G01X2876606Y-2283093D01*
G01X2897614Y-2287020D01*
G01X2918986Y-2287020D01*
G01X2939994Y-2283093D01*
G01X2959923Y-2275372D01*
G01X2978093Y-2264121D01*
G01X2993887Y-2249723D01*
G01X3006767Y-2232668D01*
G01X3016293Y-2213537D01*
G01X3022142Y-2192981D01*
G01X3024114Y-2171700D01*
G01X3024114Y-2171700D01*
G01X3022142Y-2150419D01*
G01X3016293Y-2129863D01*
G01X3006767Y-2110732D01*
G01X2993887Y-2093677D01*
G01X2978093Y-2079279D01*
G01X2959923Y-2068028D01*
G01X2939994Y-2060307D01*
G01X2918986Y-2056380D01*
G01X2897614Y-2056380D01*
G01X2876606Y-2060307D01*
G01X2856677Y-2068028D01*
G01X2838507Y-2079279D01*
G01X2822713Y-2093677D01*
G01X2809833Y-2110732D01*
G01X2800307Y-2129863D01*
G01X2794458Y-2150419D01*
G01X2792486Y-2171700D01*
G01X2770114Y-2171700D01*
G01X2768142Y-2150419D01*
G01X2762293Y-2129863D01*
G01X2752767Y-2110732D01*
G01X2739887Y-2093677D01*
G01X2724093Y-2079279D01*
G01X2705923Y-2068028D01*
G01X2685994Y-2060307D01*
G01X2664986Y-2056380D01*
G01X2643614Y-2056380D01*
G01X2622606Y-2060307D01*
G01X2602677Y-2068028D01*
G01X2584507Y-2079279D01*
G01X2568713Y-2093677D01*
G01X2555833Y-2110732D01*
G01X2546307Y-2129863D01*
G01X2540458Y-2150419D01*
G01X2538486Y-2171700D01*
G01X2516114Y-2171700D01*
G01X2514142Y-2150419D01*
G01X2508293Y-2129863D01*
G01X2498767Y-2110732D01*
G01X2485887Y-2093677D01*
G01X2470093Y-2079279D01*
G01X2451923Y-2068028D01*
G01X2431994Y-2060307D01*
G01X2410986Y-2056380D01*
G01X2389614Y-2056380D01*
G01X2368606Y-2060307D01*
G01X2348677Y-2068028D01*
G01X2330507Y-2079279D01*
G01X2314713Y-2093677D01*
G01X2301833Y-2110732D01*
G01X2292307Y-2129863D01*
G01X2286458Y-2150419D01*
G01X2284486Y-2171700D01*
G01X2262114Y-2171700D01*
G01X2260142Y-2150419D01*
G01X2254293Y-2129863D01*
G01X2244767Y-2110732D01*
G01X2231887Y-2093677D01*
G01X2216093Y-2079279D01*
G01X2197923Y-2068028D01*
G01X2177994Y-2060307D01*
G01X2156986Y-2056380D01*
G01X2135614Y-2056380D01*
G01X2114606Y-2060307D01*
G01X2094677Y-2068028D01*
G01X2076507Y-2079279D01*
G01X2060713Y-2093677D01*
G01X2047833Y-2110732D01*
G01X2038307Y-2129863D01*
G01X2032458Y-2150419D01*
G01X2030486Y-2171700D01*
G01X1778751Y-2171700D01*
G01X1721226Y-2114174D01*
G01X1706176Y-2101823D01*
G01X1689006Y-2092646D01*
G01X1670375Y-2086994D01*
G01X1651000Y-2085086D01*
G01X1631625Y-2086994D01*
G01X1612994Y-2092646D01*
G01X1595824Y-2101823D01*
G01X1580774Y-2114174D01*
G01X1328781Y-2366168D01*
G01X1328781Y-2366168D01*
G01X1306442Y-2368809D01*
G01X1284845Y-2375101D01*
G01X1264583Y-2384871D01*
G01X1246212Y-2397851D01*
G01X1230235Y-2413686D01*
G01X1217091Y-2431941D01*
G01X1207140Y-2452115D01*
G01X1200656Y-2473654D01*
G01X1197816Y-2495969D01*
G01X99314Y-2495969D01*
G01X99314Y-1739900D01*
G01X1197686Y-1739900D01*
G01X1199493Y-1761982D01*
G01X1204867Y-1783476D01*
G01X1213663Y-1803810D01*
G01X1225649Y-1822444D01*
G01X1240504Y-1838881D01*
G01X1257835Y-1852684D01*
G01X1277179Y-1863485D01*
G01X1298021Y-1870998D01*
G01X1319808Y-1875022D01*
G01X1341960Y-1875450D01*
G01X1363886Y-1872271D01*
G01X1385003Y-1865569D01*
G01X1404750Y-1855523D01*
G01X1422601Y-1842400D01*
G01X1438081Y-1826550D01*
G01X1450778Y-1808393D01*
G01X1460353Y-1788414D01*
G01X5158486Y-1788414D01*
G01X5158486Y-4559300D01*
G01X5158486Y-4559300D01*
G01X5160139Y-4571856D01*
G01X5164986Y-4583557D01*
G01X5172695Y-4593605D01*
G01X5210795Y-4631705D01*
G01X5220843Y-4639414D01*
G01X5232544Y-4644261D01*
G01X5245100Y-4645914D01*
G01X6048486Y-4645914D01*
G01X6061066Y-4662560D01*
G01X6076427Y-4676678D01*
G01X6094073Y-4687811D01*
G01X6113429Y-4695598D01*
G01X6133869Y-4699785D01*
G01X6154728Y-4700237D01*
G01X6175330Y-4696939D01*
G01X6195006Y-4689998D01*
G01X6213117Y-4679640D01*
G01X6229076Y-4666200D01*
G01X6242364Y-4650115D01*
G01X6252551Y-4631907D01*
G01X6259306Y-4612167D01*
G01X6262409Y-4591535D01*
G01X6261760Y-4570681D01*
G01X6257380Y-4550282D01*
G01X6249411Y-4530999D01*
G01X6238112Y-4513460D01*
G01X6223850Y-4498232D01*
G01X6207086Y-4485811D01*
G01X6188366Y-4476598D01*
G01X6168297Y-4470894D01*
G01X6147530Y-4468883D01*
G01X6126739Y-4470631D01*
G01X6106599Y-4476081D01*
G01X6087764Y-4485056D01*
G01X6070845Y-4497265D01*
G01X6056391Y-4512311D01*
G01X6044871Y-4529706D01*
G01X6036659Y-4548886D01*
G01X5265195Y-4548886D01*
G01X5255514Y-4539205D01*
G01X5255514Y-2853929D01*
G01X5382082Y-2853929D01*
G01X5383036Y-2869256D01*
G01X5387490Y-2883953D01*
G01X5395206Y-2897231D01*
G01X5405768Y-2908378D01*
G01X5418611Y-2916797D01*
G01X5433047Y-2922036D01*
G01X5448300Y-2923814D01*
G01X5463553Y-2922036D01*
G01X5477989Y-2916797D01*
G01X5490832Y-2908378D01*
G01X5501394Y-2897231D01*
G01X5509110Y-2883953D01*
G01X5513564Y-2869256D01*
G01X5514518Y-2853929D01*
G01X5511921Y-2838794D01*
G01X5505912Y-2824661D01*
G01X5496814Y-2812290D01*
G01X5496814Y-2509010D01*
G01X5505912Y-2496639D01*
G01X5511921Y-2482506D01*
G01X5514518Y-2467371D01*
G01X5513564Y-2452044D01*
G01X5509110Y-2437347D01*
G01X5501394Y-2424069D01*
G01X5490832Y-2412922D01*
G01X5477989Y-2404503D01*
G01X5463553Y-2399264D01*
G01X5448300Y-2397486D01*
G01X5433047Y-2399264D01*
G01X5418611Y-2404503D01*
G01X5405768Y-2412922D01*
G01X5395206Y-2424069D01*
G01X5387490Y-2437347D01*
G01X5383036Y-2452044D01*
G01X5382082Y-2467371D01*
G01X5384679Y-2482506D01*
G01X5390688Y-2496639D01*
G01X5399786Y-2509010D01*
G01X5399786Y-2812290D01*
G01X5399786Y-2812290D01*
G01X5390688Y-2824661D01*
G01X5384679Y-2838794D01*
G01X5382082Y-2853929D01*
G01X5255514Y-2853929D01*
G01X5255514Y-1739900D01*
G01X5253861Y-1727344D01*
G01X5249014Y-1715643D01*
G01X5241305Y-1705595D01*
G01X5231257Y-1697886D01*
G01X5219556Y-1693039D01*
G01X5207000Y-1691386D01*
G01X1460353Y-1691386D01*
G01X1450778Y-1671407D01*
G01X1438081Y-1653250D01*
G01X1422601Y-1637400D01*
G01X1404750Y-1624277D01*
G01X1385003Y-1614231D01*
G01X1363886Y-1607529D01*
G01X1341960Y-1604350D01*
G01X1319808Y-1604778D01*
G01X1298021Y-1608802D01*
G01X1277179Y-1616315D01*
G01X1257835Y-1627116D01*
G01X1240504Y-1640919D01*
G01X1225649Y-1657356D01*
G01X1213663Y-1675990D01*
G01X1204867Y-1696324D01*
G01X1199493Y-1717818D01*
G01X1197686Y-1739900D01*
G01X99314Y-1739900D01*
G01X99314Y-1231900D01*
G01X1197686Y-1231900D01*
G01X1199493Y-1253982D01*
G01X1204867Y-1275476D01*
G01X1213663Y-1295810D01*
G01X1225649Y-1314444D01*
G01X1240504Y-1330881D01*
G01X1257835Y-1344684D01*
G01X1277179Y-1355485D01*
G01X1298021Y-1362998D01*
G01X1319808Y-1367022D01*
G01X1341960Y-1367450D01*
G01X1363886Y-1364271D01*
G01X1385003Y-1357569D01*
G01X1404750Y-1347523D01*
G01X1422601Y-1334400D01*
G01X1438081Y-1318550D01*
G01X1450778Y-1300393D01*
G01X1460353Y-1280414D01*
G01X5704586Y-1280414D01*
G01X5704586Y-4330695D01*
G01X5704586Y-4330695D01*
G01X5706239Y-4343251D01*
G01X5711086Y-4354952D01*
G01X5718795Y-4364999D01*
G01X5728843Y-4372709D01*
G01X5740544Y-4377556D01*
G01X5753100Y-4379209D01*
G01X6041635Y-4379209D01*
G01X6052061Y-4397312D01*
G01X6065569Y-4413247D01*
G01X6081720Y-4426496D01*
G01X6099989Y-4436628D01*
G01X6119781Y-4443314D01*
G01X6140452Y-4446335D01*
G01X6161329Y-4445594D01*
G01X6181733Y-4441114D01*
G01X6201001Y-4433042D01*
G01X6218505Y-4421639D01*
G01X6233676Y-4407278D01*
G01X6246020Y-4390425D01*
G01X6255136Y-4371628D01*
G01X6260727Y-4351500D01*
G01X6262611Y-4330695D01*
G01X6260727Y-4309890D01*
G01X6255136Y-4289761D01*
G01X6246020Y-4270965D01*
G01X6233676Y-4254112D01*
G01X6218505Y-4239751D01*
G01X6201001Y-4228348D01*
G01X6181733Y-4220276D01*
G01X6161329Y-4215796D01*
G01X6140452Y-4215055D01*
G01X6119781Y-4218076D01*
G01X6099989Y-4224762D01*
G01X6081720Y-4234894D01*
G01X6065569Y-4248143D01*
G01X6052061Y-4264078D01*
G01X6041635Y-4282181D01*
G01X5801614Y-4282181D01*
G01X5801614Y-4200129D01*
G01X5877382Y-4200129D01*
G01X5878336Y-4215456D01*
G01X5882790Y-4230153D01*
G01X5890506Y-4243431D01*
G01X5901068Y-4254578D01*
G01X5913911Y-4262997D01*
G01X5928347Y-4268236D01*
G01X5943600Y-4270014D01*
G01X5958853Y-4268236D01*
G01X5973289Y-4262997D01*
G01X5986132Y-4254578D01*
G01X5996694Y-4243431D01*
G01X6004410Y-4230153D01*
G01X6008864Y-4215456D01*
G01X6009818Y-4200129D01*
G01X6007221Y-4184994D01*
G01X6001212Y-4170861D01*
G01X5992114Y-4158490D01*
G01X5992114Y-3617209D01*
G01X6041635Y-3617209D01*
G01X6052061Y-3635312D01*
G01X6065569Y-3651247D01*
G01X6081720Y-3664496D01*
G01X6099989Y-3674628D01*
G01X6119781Y-3681314D01*
G01X6140452Y-3684335D01*
G01X6161329Y-3683594D01*
G01X6181733Y-3679114D01*
G01X6201001Y-3671042D01*
G01X6218505Y-3659639D01*
G01X6233676Y-3645278D01*
G01X6246020Y-3628425D01*
G01X6255136Y-3609628D01*
G01X6260727Y-3589500D01*
G01X6262611Y-3568695D01*
G01X6260727Y-3547890D01*
G01X6255136Y-3527761D01*
G01X6246020Y-3508965D01*
G01X6233676Y-3492112D01*
G01X6218505Y-3477751D01*
G01X6201001Y-3466348D01*
G01X6181733Y-3458276D01*
G01X6161329Y-3453796D01*
G01X6140452Y-3453055D01*
G01X6119781Y-3456076D01*
G01X6099989Y-3462762D01*
G01X6081720Y-3472894D01*
G01X6065569Y-3486143D01*
G01X6052061Y-3502078D01*
G01X6041635Y-3520181D01*
G01X5943600Y-3520181D01*
G01X5931044Y-3521834D01*
G01X5919343Y-3526681D01*
G01X5909295Y-3534390D01*
G01X5901586Y-3544438D01*
G01X5896739Y-3556139D01*
G01X5895086Y-3568695D01*
G01X5895086Y-4158490D01*
G01X5895086Y-4158490D01*
G01X5885988Y-4170861D01*
G01X5879979Y-4184994D01*
G01X5877382Y-4200129D01*
G01X5801614Y-4200129D01*
G01X5801614Y-3304009D01*
G01X6031478Y-3304009D01*
G01X6031478Y-3325381D01*
G01X6035405Y-3346389D01*
G01X6043125Y-3366318D01*
G01X6054376Y-3384488D01*
G01X6068774Y-3400282D01*
G01X6085829Y-3413162D01*
G01X6104961Y-3422688D01*
G01X6125517Y-3428537D01*
G01X6146797Y-3430509D01*
G01X6146797Y-3430509D01*
G01X6168078Y-3428537D01*
G01X6188634Y-3422688D01*
G01X6207766Y-3413162D01*
G01X6224821Y-3400282D01*
G01X6239219Y-3384488D01*
G01X6250470Y-3366318D01*
G01X6258190Y-3346389D01*
G01X6262117Y-3325381D01*
G01X6262117Y-3304009D01*
G01X6258190Y-3283001D01*
G01X6250470Y-3263072D01*
G01X6239219Y-3244901D01*
G01X6224821Y-3229107D01*
G01X6207766Y-3216228D01*
G01X6188634Y-3206702D01*
G01X6168078Y-3200853D01*
G01X6146797Y-3198881D01*
G01X6125517Y-3200853D01*
G01X6104961Y-3206702D01*
G01X6085829Y-3216228D01*
G01X6068774Y-3229107D01*
G01X6054376Y-3244901D01*
G01X6043125Y-3263072D01*
G01X6035405Y-3283001D01*
G01X6031478Y-3304009D01*
G01X5801614Y-3304009D01*
G01X5801614Y-3050009D01*
G01X6031478Y-3050009D01*
G01X6031478Y-3071381D01*
G01X6035405Y-3092389D01*
G01X6043125Y-3112318D01*
G01X6054376Y-3130488D01*
G01X6068774Y-3146282D01*
G01X6085829Y-3159162D01*
G01X6104961Y-3168688D01*
G01X6125517Y-3174537D01*
G01X6146797Y-3176509D01*
G01X6146797Y-3176509D01*
G01X6168078Y-3174537D01*
G01X6188634Y-3168688D01*
G01X6207766Y-3159162D01*
G01X6224821Y-3146282D01*
G01X6239219Y-3130488D01*
G01X6250470Y-3112318D01*
G01X6258190Y-3092389D01*
G01X6262117Y-3071381D01*
G01X6262117Y-3050009D01*
G01X6258190Y-3029001D01*
G01X6250470Y-3009072D01*
G01X6239219Y-2990901D01*
G01X6224821Y-2975107D01*
G01X6207766Y-2962228D01*
G01X6188634Y-2952702D01*
G01X6168078Y-2946853D01*
G01X6146797Y-2944881D01*
G01X6125517Y-2946853D01*
G01X6104961Y-2952702D01*
G01X6085829Y-2962228D01*
G01X6068774Y-2975107D01*
G01X6054376Y-2990901D01*
G01X6043125Y-3009072D01*
G01X6035405Y-3029001D01*
G01X6031478Y-3050009D01*
G01X5801614Y-3050009D01*
G01X5801614Y-1231900D01*
G01X5799961Y-1219344D01*
G01X5795114Y-1207643D01*
G01X5787405Y-1197595D01*
G01X5777357Y-1189886D01*
G01X5765656Y-1185039D01*
G01X5753100Y-1183386D01*
G01X1460353Y-1183386D01*
G01X1450778Y-1163407D01*
G01X1438081Y-1145250D01*
G01X1422601Y-1129400D01*
G01X1404750Y-1116277D01*
G01X1385003Y-1106231D01*
G01X1363886Y-1099529D01*
G01X1341960Y-1096350D01*
G01X1319808Y-1096778D01*
G01X1298021Y-1100802D01*
G01X1277179Y-1108315D01*
G01X1257835Y-1119116D01*
G01X1240504Y-1132919D01*
G01X1225649Y-1149356D01*
G01X1213663Y-1167990D01*
G01X1204867Y-1188324D01*
G01X1199493Y-1209818D01*
G01X1197686Y-1231900D01*
G01X99314Y-1231900D01*
G01X99314Y-762000D01*
G01X116586Y-762000D01*
G01X118521Y-798931D01*
G01X124307Y-835458D01*
G01X133878Y-871180D01*
G01X147132Y-905706D01*
G01X163921Y-938657D01*
G01X184063Y-969673D01*
G01X207337Y-998413D01*
G01X233487Y-1024563D01*
G01X262227Y-1047837D01*
G01X293243Y-1067979D01*
G01X326194Y-1084768D01*
G01X360720Y-1098022D01*
G01X396442Y-1107593D01*
G01X432969Y-1113379D01*
G01X469900Y-1115314D01*
G01X506831Y-1113379D01*
G01X543358Y-1107593D01*
G01X579080Y-1098022D01*
G01X613606Y-1084768D01*
G01X646557Y-1067979D01*
G01X677573Y-1047837D01*
G01X706313Y-1024563D01*
G01X732463Y-998413D01*
G01X755737Y-969673D01*
G01X775879Y-938657D01*
G01X792668Y-905706D01*
G01X805922Y-871180D01*
G01X815493Y-835458D01*
G01X821279Y-798931D01*
G01X823214Y-762000D01*
G01X821279Y-725069D01*
G01X815493Y-688542D01*
G01X805922Y-652820D01*
G01X792668Y-618294D01*
G01X775879Y-585343D01*
G01X755737Y-554327D01*
G01X732463Y-525587D01*
G01X706313Y-499437D01*
G01X677573Y-476163D01*
G01X646557Y-456021D01*
G01X613606Y-439232D01*
G01X579080Y-425978D01*
G01X543358Y-416407D01*
G01X506831Y-410621D01*
G01X469900Y-408686D01*
G01X432969Y-410621D01*
G01X396442Y-416407D01*
G01X360720Y-425978D01*
G01X326194Y-439232D01*
G01X293243Y-456021D01*
G01X262227Y-476163D01*
G01X233487Y-499437D01*
G01X207337Y-525587D01*
G01X184063Y-554327D01*
G01X163921Y-585343D01*
G01X147132Y-618294D01*
G01X133878Y-652820D01*
G01X124307Y-688542D01*
G01X118521Y-725069D01*
G01X116586Y-762000D01*
G01X116586Y-762000D01*
G01X99314Y-762000D01*
G01X99314Y-340614D01*
G01X8917686Y-340614D01*
G37*
G54D10*
G01X8917686Y-340614D02*
G01X8917686Y-9158986D01*
G01X99314Y-9158986D01*
G01X99314Y-340614D01*
G01X8917686Y-340614D01*
G01X116586Y-762000D02*
G03X823214Y-762000I353314J0D01*
G03X116586Y-762000I-353314J0D01*
G01X129286Y-8788400D02*
G03X835914Y-8788400I353314J0D01*
G03X129286Y-8788400I-353314J0D01*
G01X1333500Y-7954086D02*
G03X1333500Y-8225714I0J-135814D01*
G03X1333500Y-7954086I0J135814D01*
G01X1333500Y-7446086D02*
G03X1333500Y-7717714I0J-135814D01*
G03X1333500Y-7446086I0J135814D01*
G01X1333500Y-4144086D02*
G03X1333500Y-4415714I0J-135814D01*
G03X1333500Y-4144086I0J135814D01*
G01X1333500Y-3636086D02*
G03X1333500Y-3907714I0J-135814D01*
G03X1333500Y-3636086I0J135814D01*
G01X1328781Y-2366168D02*
G03X1237465Y-2597935I4719J-135732D01*
G03X1469232Y-2506619I96035J96035D01*
G01X1651000Y-2324851D01*
G01X1793443Y-2467294D01*
G03X1707774Y-2495174I-15443J-98106D01*
G01X1328781Y-2874168D01*
G03X1237465Y-3105935I4719J-135732D01*
G03X1469232Y-3014619I96035J96035D01*
G01X1778000Y-2705851D01*
G01X2652058Y-3579909D01*
G03X2572409Y-3777594I2243J-115792D01*
G03X2770093Y-3697945I81893J81893D01*
G01X2795947Y-3723799D01*
G03X3024093Y-3697945I112354J28097D01*
G01X3049947Y-3723799D01*
G03X3244194Y-3777594I112354J28097D01*
G03X3190399Y-3583347I-81893J81893D01*
G01X1721226Y-2114174D01*
G03X1580774Y-2114174I-70226J-70226D01*
G01X1328781Y-2366168D01*
G01X5704586Y-4330695D02*
G03X5753100Y-4379209I48514J0D01*
G01X6041635Y-4379209D01*
G03X6262611Y-4330695I105163J48514D01*
G03X6041635Y-4282181I-115814J0D01*
G01X5801614Y-4282181D01*
G01X5801614Y-1231900D01*
G03X5753100Y-1183386I-48514J0D01*
G01X1460353Y-1183386D01*
G03X1197686Y-1231900I-126853J-48514D01*
G03X1460353Y-1280414I135814J0D01*
G01X5704586Y-1280414D01*
G01X5704586Y-4330695D01*
G01X5158486Y-4559300D02*
G03X5172695Y-4593605I48514J0D01*
G01X5210795Y-4631705D01*
G03X5245100Y-4645914I34305J34305D01*
G01X6048486Y-4645914D01*
G03X6261760Y-4570681I98311J61219D01*
G03X6036659Y-4548886I-114963J-14014D01*
G01X5265195Y-4548886D01*
G01X5255514Y-4539205D01*
G01X5255514Y-1739900D01*
G03X5207000Y-1691386I-48514J0D01*
G01X1460353Y-1691386D01*
G03X1197686Y-1739900I-126853J-48514D01*
G03X1460353Y-1788414I135814J0D01*
G01X5158486Y-1788414D01*
G01X5158486Y-4559300D01*
G01X1333500Y-5414086D02*
G03X1333500Y-5685714I0J-135814D01*
G03X1333500Y-5414086I0J135814D01*
G01X1333500Y-6176086D02*
G03X1333500Y-6447714I0J-135814D01*
G03X1333500Y-6176086I0J135814D01*
G01X1333500Y-6684086D02*
G03X1333500Y-6955714I0J-135814D01*
G03X1333500Y-6684086I0J135814D01*
G01X1333500Y-4906086D02*
G03X1333500Y-5177714I0J-135814D01*
G03X1333500Y-4906086I0J135814D01*
G01X2262114Y-2171700D02*
G03X2030486Y-2171700I-115814J0D01*
G03X2262114Y-2171700I115814J0D01*
G01X2262115Y-3695701D02*
G03X2030487Y-3695701I-115814J0D01*
G03X2262115Y-3695701I115814J0D01*
G01X2262115Y-5219701D02*
G03X2030487Y-5219701I-115814J0D01*
G03X2262115Y-5219701I115814J0D01*
G01X2516114Y-2171700D02*
G03X2284486Y-2171700I-115814J0D01*
G03X2516114Y-2171700I115814J0D01*
G01X2516115Y-3695701D02*
G03X2284487Y-3695701I-115814J0D01*
G03X2516115Y-3695701I115814J0D01*
G01X2516115Y-5219701D02*
G03X2284487Y-5219701I-115814J0D01*
G03X2516115Y-5219701I115814J0D01*
G01X2770114Y-2171700D02*
G03X2538486Y-2171700I-115814J0D01*
G03X2770114Y-2171700I115814J0D01*
G01X2770115Y-5219701D02*
G03X2538487Y-5219701I-115814J0D01*
G03X2770115Y-5219701I115814J0D01*
G01X3202358Y-5111035D02*
G03X3062513Y-5278483I-40057J-108666D01*
G03X3276763Y-5237346I99788J58781D01*
G01X3300656Y-5213453D01*
G03X3498194Y-5301594I115645J-6248D01*
G03X3410053Y-5104056I-81893J81893D01*
G01X3858173Y-4655936D01*
G03X3895589Y-4720676I66128J-4964D01*
G03X3969511Y-4709414I28712J59776D01*
G01X4406900Y-4709414D01*
G03X4455414Y-4660900I0J48514D01*
G01X4455414Y-4375910D01*
G03X4466383Y-4360013I-48514J45210D01*
G01X4466383Y-4953728D01*
G03X4399790Y-4967986I-21383J-62772D01*
G01X4203700Y-4967986D01*
G03X4155186Y-5016500I0J-48514D01*
G01X4155186Y-5326890D01*
G03X4178800Y-5433562I48514J-45210D01*
G03X4270001Y-5373406I24900J61462D01*
G03X4328364Y-5412973I60699J26706D01*
G01X4430784Y-5515393D01*
G01X4430784Y-6625789D01*
G03X4444993Y-6660093I48514J0D01*
G01X4558962Y-6774062D01*
G03X4631648Y-6986170I63835J-96633D01*
G03X4671160Y-6765462I-8851J115475D01*
G03X4657102Y-6734984I-48363J-3826D01*
G01X4651112Y-6728994D01*
G03X4671160Y-6511462I-28315J112299D01*
G03X4657102Y-6480984I-48363J-3826D01*
G01X4651112Y-6474994D01*
G03X4729795Y-6318375I-28315J112299D01*
G03X4563411Y-6263266I-106998J-44320D01*
G01X4563411Y-6208124D01*
G03X4738611Y-6108695I59386J99429D01*
G03X4563411Y-6009266I-115814J0D01*
G01X4563411Y-5954124D01*
G03X4738611Y-5854695I59386J99429D01*
G03X4563411Y-5755266I-115814J0D01*
G01X4563411Y-5700124D01*
G03X4738611Y-5600695I59386J99429D01*
G03X4563411Y-5501266I-115814J0D01*
G01X4563411Y-5446124D01*
G03X4738611Y-5346695I59386J99429D01*
G03X4563411Y-5247266I-115814J0D01*
G01X4563411Y-5192124D01*
G03X4738611Y-5092695I59386J99429D01*
G03X4563411Y-4993266I-115814J0D01*
G01X4563411Y-4938124D01*
G03X4738611Y-4838695I59386J99429D01*
G03X4563411Y-4739266I-115814J0D01*
G01X4563411Y-4684124D01*
G03X4738611Y-4584695I59386J99429D01*
G03X4563411Y-4485266I-115814J0D01*
G01X4563411Y-4430124D01*
G03X4738611Y-4330695I59386J99429D01*
G03X4563411Y-4231266I-115814J0D01*
G01X4563411Y-4176124D01*
G03X4738611Y-4076695I59386J99429D01*
G03X4563411Y-3977266I-115814J0D01*
G01X4563411Y-3922124D01*
G03X4738611Y-3822695I59386J99429D01*
G03X4563411Y-3723266I-115814J0D01*
G01X4563411Y-3668124D01*
G03X4738611Y-3568695I59386J99429D01*
G03X4563411Y-3469266I-115814J0D01*
G01X4563411Y-3414124D01*
G03X4738611Y-3314695I59386J99429D01*
G03X4563411Y-3215266I-115814J0D01*
G01X4563411Y-3160124D01*
G03X4738611Y-3060695I59386J99429D01*
G03X4563411Y-2961266I-115814J0D01*
G01X4563411Y-2944912D01*
G03X4569714Y-2921000I-42211J23912D01*
G01X4569714Y-1854200D01*
G03X4521200Y-1805686I-48514J0D01*
G01X3416300Y-1805686D01*
G03X3367786Y-1854200I0J-48514D01*
G01X3367786Y-2066537D01*
G03X3416300Y-2287514I48514J-105163D01*
G03X3464814Y-2066537I0J115814D01*
G01X3464814Y-1902714D01*
G01X4472686Y-1902714D01*
G01X4472686Y-2903390D01*
G03X4466383Y-2927303I42211J-23912D01*
G01X4466383Y-4301387D01*
G03X4369237Y-4276119I-59483J-29313D01*
G03X4358386Y-4375910I37663J-54581D01*
G01X4358386Y-4612386D01*
G01X3969511Y-4612386D01*
G03X3919337Y-4594772I-45210J-48514D01*
G01X4174505Y-4339605D01*
G03X4188714Y-4305300I-34305J34305D01*
G01X4188714Y-2171700D01*
G03X4140200Y-2123186I-48514J0D01*
G01X4040114Y-2123186D01*
G01X4040114Y-2091700D01*
G03X4004300Y-2055886I-35814J0D01*
G01X3844300Y-2055886D01*
G03X3808486Y-2091700I0J-35814D01*
G01X3808486Y-2251700D01*
G03X3844300Y-2287514I35814J0D01*
G01X4004300Y-2287514D01*
G03X4040114Y-2251700I0J35814D01*
G01X4040114Y-2220214D01*
G01X4091686Y-2220214D01*
G01X4091686Y-3414819D01*
G03X4085605Y-3407395I-40386J-26881D01*
G01X3210814Y-2532605D01*
G01X3210814Y-2276863D01*
G03X3162300Y-2055886I-48514J105163D01*
G03X3113786Y-2276863I0J-115814D01*
G01X3113786Y-2552700D01*
G03X3127995Y-2587005I48514J0D01*
G01X4002786Y-3461795D01*
G01X4002786Y-3579887D01*
G01X3844301Y-3579887D01*
G03X3808487Y-3615701I0J-35814D01*
G01X3808487Y-3775701D01*
G03X3844301Y-3811515I35814J0D01*
G01X4002786Y-3811515D01*
G01X4002786Y-3967990D01*
G03X4002228Y-4057803I48514J-45210D01*
G03X4091686Y-4065798I49072J44603D01*
G01X4091686Y-4285205D01*
G01X3575050Y-4801841D01*
G01X2749422Y-3976213D01*
G03X2636258Y-3931658I-66273J-2336D01*
G03X2680813Y-4044822I46891J-46891D01*
G01X3474692Y-4838701D01*
G01X3202358Y-5111035D01*
G01X3024114Y-2171700D02*
G03X2792486Y-2171700I-115814J0D01*
G03X3024114Y-2171700I115814J0D01*
G01X3024115Y-5219701D02*
G03X2792487Y-5219701I-115814J0D01*
G03X3024115Y-5219701I115814J0D01*
G01X2946400Y-6797986D02*
G03X2946400Y-7019614I0J-110814D01*
G03X2946400Y-6797986I0J110814D01*
G01X2946400Y-6543986D02*
G03X2946400Y-6765614I0J-110814D01*
G03X2946400Y-6543986I0J110814D01*
G01X3532115Y-3695701D02*
G03X3300487Y-3695701I-115814J0D01*
G03X3532115Y-3695701I115814J0D01*
G01X3786114Y-2171700D02*
G03X3554486Y-2171700I-115814J0D01*
G03X3786114Y-2171700I115814J0D01*
G01X3786115Y-3695701D02*
G03X3554487Y-3695701I-115814J0D01*
G03X3786115Y-3695701I115814J0D01*
G01X3786115Y-5219701D02*
G03X3554487Y-5219701I-115814J0D01*
G03X3786115Y-5219701I115814J0D01*
G01X3844301Y-5103887D02*
G03X3808487Y-5139701I0J-35814D01*
G01X3808487Y-5299701D01*
G03X3844301Y-5335515I35814J0D01*
G01X4004301Y-5335515D01*
G03X4040115Y-5299701I0J35814D01*
G01X4040115Y-5139701D01*
G03X4004301Y-5103887I-35814J0D01*
G01X3844301Y-5103887D01*
G01X4106009Y-5452209D02*
G03X4150564Y-5565373I46891J-46891D01*
G01X4251727Y-5666536D01*
G03X4364891Y-5711091I66273J2336D01*
G03X4320336Y-5597927I-46891J46891D01*
G01X4219173Y-5496764D01*
G03X4106009Y-5452209I-66273J-2336D01*
G01X4622797Y-8002509D02*
G03X4622797Y-7770881I0J115814D01*
G03X4622797Y-8002509I0J-115814D01*
G01X4622797Y-7748509D02*
G03X4622797Y-7516881I0J115814D01*
G03X4622797Y-7748509I0J-115814D01*
G01X4622797Y-7494509D02*
G03X4622797Y-7262881I0J115814D01*
G03X4622797Y-7494509I0J-115814D01*
G01X4622797Y-7240509D02*
G03X4622797Y-7008881I0J115814D01*
G03X4622797Y-7240509I0J-115814D01*
G01X5399786Y-2812290D02*
G03X5448300Y-2923814I48514J-45210D01*
G03X5496814Y-2812290I0J66314D01*
G01X5496814Y-2509010D01*
G03X5448300Y-2397486I-48514J45210D01*
G03X5399786Y-2509010I0J-66314D01*
G01X5399786Y-2812290D01*
G01X5895086Y-4158490D02*
G03X5943600Y-4270014I48514J-45210D01*
G03X5992114Y-4158490I0J66314D01*
G01X5992114Y-3617209D01*
G01X6041635Y-3617209D01*
G03X6262611Y-3568695I105163J48514D01*
G03X6041635Y-3520181I-115814J0D01*
G01X5943600Y-3520181D01*
G03X5895086Y-3568695I0J-48514D01*
G01X5895086Y-4158490D01*
G01X6251960Y-7330181D02*
G03X6030984Y-7378695I-105163J-48514D01*
G03X6251960Y-7427209I115814J0D01*
G01X6652300Y-7427209D01*
G03X6664786Y-7425575I0J48514D01*
G01X6664786Y-7584181D01*
G01X6251960Y-7584181D01*
G03X6030984Y-7632695I-105163J-48514D01*
G03X6251960Y-7681209I115814J0D01*
G01X6687900Y-7681209D01*
G03X6700386Y-7679575I0J48514D01*
G01X6700386Y-7838181D01*
G01X6251960Y-7838181D01*
G03X6030984Y-7886695I-105163J-48514D01*
G03X6251960Y-7935209I115814J0D01*
G01X6748900Y-7935209D01*
G03X6797414Y-7886695I0J48514D01*
G01X6797414Y-6411160D01*
G01X6799700Y-6411214D01*
G01X6876290Y-6411214D01*
G03X6987814Y-6362700I45210J48514D01*
G03X6876290Y-6314186I-66314J0D01*
G01X6848214Y-6314186D01*
G01X6848214Y-3830474D01*
G03X6951911Y-3820414I47886J45874D01*
G01X7556647Y-3820414D01*
G03X7810353Y-3820414I126853J48514D01*
G01X8318500Y-3820414D01*
G03X8367014Y-3771900I0J48514D01*
G01X8367014Y-3308514D01*
G01X8403500Y-3308514D01*
G03X8439314Y-3272700I0J35814D01*
G01X8439314Y-3102700D01*
G03X8403500Y-3066886I-35814J0D01*
G01X8233500Y-3066886D01*
G03X8197686Y-3102700I0J-35814D01*
G01X8197686Y-3272700D01*
G03X8233500Y-3308514I35814J0D01*
G01X8269986Y-3308514D01*
G01X8269986Y-3723386D01*
G01X7810353Y-3723386D01*
G03X7556647Y-3723386I-126853J-48514D01*
G01X6921603Y-3723386D01*
G03X6848214Y-3738726I-25503J-61214D01*
G01X6848214Y-3337814D01*
G01X8026400Y-3337814D01*
G03X8060705Y-3323605I0J48514D01*
G01X8068144Y-3316165D01*
G03X8082353Y-3281861I-34305J34305D01*
G01X8082353Y-2537714D01*
G01X8255000Y-2537714D01*
G03X8268656Y-2535752I0J48514D01*
G03X8415768Y-2354042I49844J110052D01*
G03X8198619Y-2440686I-97268J-71658D01*
G01X8051800Y-2440686D01*
G03X8017495Y-2454895I0J-48514D01*
G01X7999535Y-2472856D01*
G03X7985325Y-2507161I34305J-34305D01*
G01X7985325Y-3240786D01*
G01X6799700Y-3240786D01*
G01X6797414Y-3240840D01*
G01X6797414Y-1872053D01*
G01X7215094Y-1872053D01*
G03X7448577Y-1834545I112806J43253D01*
G03X7219714Y-1775025I-120677J5745D01*
G01X6761814Y-1775025D01*
G01X6761814Y-1656153D01*
G01X7238583Y-1656153D01*
G03X7443162Y-1538598I89317J81353D01*
G03X7208107Y-1559125I-115262J-36202D01*
G01X6726214Y-1559125D01*
G01X6726214Y-1394714D01*
G01X7232335Y-1394714D01*
G03X7445452Y-1292914I95565J73914D01*
G03X7209318Y-1297686I-117552J-27886D01*
G01X6690614Y-1297686D01*
G01X6690614Y-1097353D01*
G01X7211013Y-1097353D01*
G03X7447103Y-1086463I116887J30553D01*
G03X7227018Y-1000325I-119203J19663D01*
G01X6652514Y-1000325D01*
G01X6652514Y-861314D01*
G01X7217255Y-861314D01*
G03X7448714Y-812800I110645J48514D01*
G03X7217255Y-764286I-120814J0D01*
G01X6604000Y-764286D01*
G03X6555486Y-812800I0J-48514D01*
G01X6555486Y-2030901D01*
G03X6483093Y-2062303I-14986J-64599D01*
G03X6491986Y-2140710I57407J-33197D01*
G01X6491986Y-2505142D01*
G03X6423914Y-2512802I-27686J-60258D01*
G01X6423914Y-2394710D01*
G03X6375400Y-2283186I-48514J45210D01*
G03X6326886Y-2394710I0J-66314D01*
G01X6326886Y-3774181D01*
G01X6251960Y-3774181D01*
G03X6030984Y-3822695I-105163J-48514D01*
G03X6251960Y-3871209I115814J0D01*
G01X6375400Y-3871209D01*
G03X6415786Y-3849576I0J48514D01*
G01X6415786Y-4028181D01*
G01X6251960Y-4028181D01*
G03X6030984Y-4076695I-105163J-48514D01*
G03X6251960Y-4125209I115814J0D01*
G01X6464300Y-4125209D01*
G03X6491986Y-4116533I0J48514D01*
G01X6491986Y-4790181D01*
G01X6251960Y-4790181D01*
G03X6030984Y-4838695I-105163J-48514D01*
G03X6251960Y-4887209I115814J0D01*
G01X6540500Y-4887209D01*
G03X6555486Y-4884836I0J48514D01*
G01X6555486Y-6822181D01*
G01X6251960Y-6822181D01*
G03X6030984Y-6870695I-105163J-48514D01*
G03X6251960Y-6919209I115814J0D01*
G01X6586039Y-6919209D01*
G03X6593586Y-6918618I0J48514D01*
G01X6593586Y-7076181D01*
G01X6251960Y-7076181D01*
G03X6030984Y-7124695I-105163J-48514D01*
G03X6251960Y-7173209I115814J0D01*
G01X6624139Y-7173209D01*
G03X6629186Y-7172946I0J48514D01*
G01X6629186Y-7330181D01*
G01X6251960Y-7330181D01*
G01X6146797Y-3430509D02*
G03X6146797Y-3198881I0J115814D01*
G03X6146797Y-3430509I0J-115814D01*
G01X6146797Y-5462509D02*
G03X6146797Y-5230881I0J115814D01*
G03X6146797Y-5462509I0J-115814D01*
G01X6146797Y-5716509D02*
G03X6146797Y-5484881I0J115814D01*
G03X6146797Y-5716509I0J-115814D01*
G01X6146797Y-6732509D02*
G03X6146797Y-6500881I0J115814D01*
G03X6146797Y-6732509I0J-115814D01*
G01X6146797Y-6478509D02*
G03X6146797Y-6246881I0J115814D01*
G03X6146797Y-6478509I0J-115814D01*
G01X6146797Y-6224509D02*
G03X6146797Y-5992881I0J115814D01*
G03X6146797Y-6224509I0J-115814D01*
G01X6146797Y-5970509D02*
G03X6146797Y-5738881I0J115814D01*
G03X6146797Y-5970509I0J-115814D01*
G01X6146797Y-5208509D02*
G03X6146797Y-4976881I0J115814D01*
G03X6146797Y-5208509I0J-115814D01*
G01X6146797Y-3176509D02*
G03X6146797Y-2944881I0J115814D01*
G03X6146797Y-3176509I0J-115814D01*
G01X7448714Y-3050286D02*
G01X7448714Y-3020060D01*
G03X7412900Y-2984246I-35814J0D01*
G01X7242900Y-2984246D01*
G03X7207086Y-3020060I0J-35814D01*
G01X7207086Y-3056636D01*
G01X7060710Y-3056636D01*
G03X6949186Y-3105150I-45210J-48514D01*
G03X7060710Y-3153664I66314J0D01*
G01X7207086Y-3153664D01*
G01X7207086Y-3177540D01*
G03X7242900Y-3213354I35814J0D01*
G01X7412900Y-3213354D01*
G03X7448714Y-3177540I0J35814D01*
G01X7448714Y-3147314D01*
G01X7919539Y-3147314D01*
G03X7968053Y-3098800I0J48514D01*
G01X7968053Y-1293114D01*
G01X8197686Y-1293114D01*
G01X8197686Y-1329600D01*
G03X8233500Y-1365414I35814J0D01*
G01X8403500Y-1365414D01*
G03X8439314Y-1329600I0J35814D01*
G01X8439314Y-1159600D01*
G03X8403500Y-1123786I-35814J0D01*
G01X8233500Y-1123786D01*
G03X8197686Y-1159600I0J-35814D01*
G01X8197686Y-1196086D01*
G01X7937500Y-1196086D01*
G03X7903195Y-1210295I0J-48514D01*
G01X7885235Y-1228256D01*
G03X7871025Y-1262561I34305J-34305D01*
G01X7871025Y-3050286D01*
G01X7448714Y-3050286D01*
G01X8412705Y-5945886D02*
G01X7169910Y-5945886D01*
G03X7058386Y-5994400I-45210J-48514D01*
G03X7169910Y-6042914I66314J0D01*
G01X8432800Y-6042914D01*
G03X8467105Y-6028705I0J48514D01*
G01X8530605Y-5965205D01*
G03X8544814Y-5930900I-34305J34305D01*
G01X8544814Y-2679700D01*
G03X8496300Y-2631186I-48514J0D01*
G01X8429145Y-2631186D01*
G03X8197686Y-2679700I-110645J-48514D01*
G03X8429145Y-2728214I120814J0D01*
G01X8447786Y-2728214D01*
G01X8447786Y-5910805D01*
G01X8412705Y-5945886D01*
G01X7327900Y-2457614D02*
G03X7327900Y-2215986I0J120814D01*
G03X7327900Y-2457614I0J-120814D01*
G01X7327900Y-2203614D02*
G03X7327900Y-1961986I0J120814D01*
G03X7327900Y-2203614I0J-120814D01*
G01X7327900Y-2711614D02*
G03X7327900Y-2469986I0J120814D01*
G03X7327900Y-2711614I0J-120814D01*
G01X7327900Y-2965614D02*
G03X7327900Y-2723986I0J120814D01*
G03X7327900Y-2965614I0J-120814D01*
G01X7683500Y-8225714D02*
G03X7683500Y-7954086I0J135814D01*
G03X7683500Y-8225714I0J-135814D01*
G01X7683500Y-7717714D02*
G03X7683500Y-7446086I0J135814D01*
G03X7683500Y-7717714I0J-135814D01*
G01X7683500Y-4415714D02*
G03X7683500Y-4144086I0J135814D01*
G03X7683500Y-4415714I0J-135814D01*
G01X7683500Y-5177714D02*
G03X7683500Y-4906086I0J135814D01*
G03X7683500Y-5177714I0J-135814D01*
G01X7683500Y-5685714D02*
G03X7683500Y-5414086I0J135814D01*
G03X7683500Y-5685714I0J-135814D01*
G01X7683500Y-6955714D02*
G03X7683500Y-6684086I0J135814D01*
G03X7683500Y-6955714I0J-135814D01*
G01X7683500Y-6447714D02*
G03X7683500Y-6176086I0J135814D01*
G03X7683500Y-6447714I0J-135814D01*
G01X8193786Y-711200D02*
G03X8900414Y-711200I353314J0D01*
G03X8193786Y-711200I-353314J0D01*
G01X8193786Y-8750300D02*
G03X8900414Y-8750300I353314J0D01*
G03X8193786Y-8750300I-353314J0D01*
G01X8318500Y-1885786D02*
G03X8318500Y-2127414I0J-120814D01*
G03X8318500Y-1885786I0J120814D01*
G01X8318500Y-1631786D02*
G03X8318500Y-1873414I0J-120814D01*
G03X8318500Y-1631786I0J120814D01*
G01X8318500Y-1377786D02*
G03X8318500Y-1619414I0J-120814D01*
G03X8318500Y-1377786I0J120814D01*
G01X8318500Y-3054514D02*
G03X8318500Y-2812886I0J120814D01*
G03X8318500Y-3054514I0J-120814D01*
G54D11*
G01X469900Y-762000D02*
G01X126746Y-762000D01*
G01X469900Y-762000D02*
G01X813054Y-762000D01*
G01X469900Y-762000D02*
G01X469900Y-418846D01*
G01X469900Y-762000D02*
G01X469900Y-1105154D01*
G01X482600Y-8788400D02*
G01X139446Y-8788400D01*
G01X482600Y-8788400D02*
G01X825754Y-8788400D01*
G01X482600Y-8788400D02*
G01X482600Y-8445246D01*
G01X482600Y-8788400D02*
G01X482600Y-9131554D01*
G01X1333500Y-3771900D02*
G01X1333500Y-3646246D01*
G01X1333500Y-3771900D02*
G01X1333500Y-3897554D01*
G01X1333500Y-3771900D02*
G01X1459154Y-3771900D01*
G01X1333500Y-3771900D02*
G01X1207846Y-3771900D01*
G01X1333500Y-5041900D02*
G01X1333500Y-4916246D01*
G01X1333500Y-5041900D02*
G01X1333500Y-5167554D01*
G01X1333500Y-5041900D02*
G01X1459154Y-5041900D01*
G01X1333500Y-5041900D02*
G01X1207846Y-5041900D01*
G01X2146301Y-5219701D02*
G01X2251955Y-5219701D01*
G01X2146301Y-5219701D02*
G01X2040647Y-5219701D01*
G01X2146301Y-5219701D02*
G01X2146301Y-5325355D01*
G01X2146301Y-5219701D02*
G01X2146301Y-5114047D01*
G01X2654301Y-3695701D02*
G01X2548647Y-3695701D01*
G01X2654301Y-3695701D02*
G01X2654301Y-3801355D01*
G01X2946400Y-6654800D02*
G01X2946400Y-6554146D01*
G01X2946400Y-6654800D02*
G01X2946400Y-6755454D01*
G01X2946400Y-6654800D02*
G01X3047054Y-6654800D01*
G01X2946400Y-6654800D02*
G01X2845746Y-6654800D01*
G01X3670300Y-2171700D02*
G01X3775954Y-2171700D01*
G01X3670300Y-2171700D02*
G01X3564646Y-2171700D01*
G01X3670300Y-2171700D02*
G01X3670300Y-2277354D01*
G01X3670300Y-2171700D02*
G01X3670300Y-2066046D01*
G01X3924301Y-3695701D02*
G01X3818647Y-3695701D01*
G01X3924301Y-3695701D02*
G01X3924301Y-3801355D01*
G01X3924301Y-3695701D02*
G01X3924301Y-3590047D01*
G01X8547100Y-711200D02*
G01X8203946Y-711200D01*
G01X8547100Y-711200D02*
G01X8890254Y-711200D01*
G01X8547100Y-711200D02*
G01X8547100Y-368046D01*
G01X8547100Y-711200D02*
G01X8547100Y-1054354D01*
G01X8318500Y-2933700D02*
G01X8318500Y-3044354D01*
G01X8318500Y-2933700D02*
G01X8318500Y-2823046D01*
G01X8318500Y-2933700D02*
G01X8207846Y-2933700D01*
G01X8318500Y-2933700D02*
G01X8429154Y-2933700D01*
G01X8547100Y-8750300D02*
G01X8203946Y-8750300D01*
G01X8547100Y-8750300D02*
G01X8890254Y-8750300D01*
G01X8547100Y-8750300D02*
G01X8547100Y-8407146D01*
G01X8547100Y-8750300D02*
G01X8547100Y-9093454D01*
G01X7683500Y-8089900D02*
G01X7683500Y-8215554D01*
G01X7683500Y-8089900D02*
G01X7683500Y-7964246D01*
G01X7683500Y-8089900D02*
G01X7557846Y-8089900D01*
G01X7683500Y-8089900D02*
G01X7809154Y-8089900D01*
G01X7683500Y-6819900D02*
G01X7683500Y-6945554D01*
G01X7683500Y-6819900D02*
G01X7683500Y-6694246D01*
G01X7683500Y-6819900D02*
G01X7557846Y-6819900D01*
G01X7683500Y-6819900D02*
G01X7809154Y-6819900D01*
G01X7683500Y-5549900D02*
G01X7683500Y-5675554D01*
G01X7683500Y-5549900D02*
G01X7683500Y-5424246D01*
G01X7683500Y-5549900D02*
G01X7557846Y-5549900D01*
G01X7683500Y-5549900D02*
G01X7809154Y-5549900D01*
G01X7683500Y-4279900D02*
G01X7683500Y-4405554D01*
G01X7683500Y-4279900D02*
G01X7683500Y-4154246D01*
G01X7683500Y-4279900D02*
G01X7557846Y-4279900D01*
G01X7683500Y-4279900D02*
G01X7809154Y-4279900D01*
G01X7327900Y-2844800D02*
G01X7327900Y-2955454D01*
G01X7327900Y-2844800D02*
G01X7327900Y-2734146D01*
G01X7327900Y-2844800D02*
G01X7217246Y-2844800D01*
G01X7327900Y-2844800D02*
G01X7438554Y-2844800D01*
G01X8318500Y-1498600D02*
G01X8318500Y-1387946D01*
G01X8318500Y-1498600D02*
G01X8318500Y-1609254D01*
G01X8318500Y-1498600D02*
G01X8429154Y-1498600D01*
G01X8318500Y-1498600D02*
G01X8207846Y-1498600D01*
G01X6146797Y-3314695D02*
G01X6146797Y-3420349D01*
G01X6146797Y-3314695D02*
G01X6146797Y-3209041D01*
G01X6146797Y-3314695D02*
G01X6041144Y-3314695D01*
G01X6146797Y-3314695D02*
G01X6252451Y-3314695D01*
G04 Copper End*

G04 Pad Start*
G54D12*
G01X469900Y-762000D03*
G01X8547100Y-711200D03*
G01X482600Y-8788400D03*
G01X8547100Y-8750300D03*
G54D13*
G01X8318500Y-3187700D03*
G54D14*
G01X8318500Y-2933700D03*
G01X8318500Y-2679700D03*
G01X8318500Y-2425700D03*
G54D16*
G01X7683500Y-6819900D03*
G01X7683500Y-6311900D03*
G01X7683500Y-8089900D03*
G01X7683500Y-7581900D03*
G01X1333500Y-5041900D03*
G01X1333500Y-5549900D03*
G54D17*
G01X3924301Y-3695701D03*
G54D18*
G01X3670301Y-3695701D03*
G01X3416301Y-3695701D03*
G01X3162301Y-3695701D03*
G01X2908301Y-3695701D03*
G01X2654301Y-3695701D03*
G01X2400301Y-3695701D03*
G01X2146301Y-3695701D03*
G54D17*
G01X3924301Y-5219701D03*
G54D18*
G01X3670301Y-5219701D03*
G01X3416301Y-5219701D03*
G01X3162301Y-5219701D03*
G01X2908301Y-5219701D03*
G01X2654301Y-5219701D03*
G01X2400301Y-5219701D03*
G01X2146301Y-5219701D03*
G54D16*
G01X1333500Y-7581900D03*
G01X1333500Y-8089900D03*
G01X1333500Y-6311900D03*
G01X1333500Y-6819900D03*
G01X7683500Y-4279900D03*
G01X7683500Y-3771900D03*
G01X1333500Y-1231900D03*
G01X1333500Y-1739900D03*
G01X1333500Y-2501900D03*
G01X1333500Y-3009900D03*
G01X1333500Y-3771900D03*
G01X1333500Y-4279900D03*
G54D17*
G01X3924300Y-2171700D03*
G54D18*
G01X3670300Y-2171700D03*
G01X3416300Y-2171700D03*
G01X3162300Y-2171700D03*
G01X2908300Y-2171700D03*
G01X2654300Y-2171700D03*
G01X2400300Y-2171700D03*
G01X2146300Y-2171700D03*
G01X6146797Y-7886695D03*
G01X6146797Y-7632695D03*
G01X6146797Y-7378695D03*
G01X6146797Y-7124695D03*
G01X6146797Y-6870695D03*
G01X6146797Y-6616695D03*
G01X6146797Y-6362695D03*
G01X6146797Y-6108695D03*
G01X6146797Y-5854695D03*
G01X6146797Y-5600695D03*
G01X6146797Y-5346695D03*
G01X6146797Y-5092695D03*
G01X6146797Y-4838695D03*
G01X6146797Y-4584695D03*
G01X6146797Y-4330695D03*
G01X6146797Y-4076695D03*
G01X6146797Y-3822695D03*
G01X6146797Y-3568695D03*
G01X6146797Y-3314695D03*
G01X6146797Y-3060695D03*
G01X4622797Y-3060695D03*
G01X4622797Y-3314695D03*
G01X4622797Y-3568695D03*
G01X4622797Y-3822695D03*
G01X4622797Y-4076695D03*
G01X4622797Y-4330695D03*
G01X4622797Y-4584695D03*
G01X4622797Y-4838695D03*
G01X4622797Y-5092695D03*
G01X4622797Y-5346695D03*
G01X4622797Y-5600695D03*
G01X4622797Y-5854695D03*
G01X4622797Y-6108695D03*
G01X4622797Y-6362695D03*
G01X4622797Y-6616695D03*
G01X4622797Y-6870695D03*
G01X4622797Y-7124695D03*
G01X4622797Y-7378695D03*
G01X4622797Y-7632695D03*
G01X4622797Y-7886695D03*
G54D16*
G01X7683500Y-5549900D03*
G01X7683500Y-5041900D03*
G54D13*
G01X8318500Y-1244600D03*
G54D14*
G01X8318500Y-1498600D03*
G01X8318500Y-1752600D03*
G01X8318500Y-2006600D03*
G01X7327900Y-812800D03*
G01X7327900Y-1066800D03*
G01X7327900Y-1320800D03*
G01X7327900Y-1574800D03*
G01X7327900Y-1828800D03*
G01X7327900Y-2082800D03*
G01X7327900Y-2336800D03*
G01X7327900Y-2590800D03*
G01X7327900Y-2844800D03*
G54D19*
G01X7327900Y-3098800D03*
G54D20*
G01X2946400Y-6654800D03*
G01X2946400Y-6908800D03*
G04 Pad End*

G04 Via Start*
G54D21*
G01X2683149Y-3978549D03*
G01X7015500Y-3105150D03*
G01X5448300Y-2857500D03*
G01X5448300Y-2463800D03*
G01X4051300Y-4013200D03*
G01X4330700Y-5346700D03*
G01X4152900Y-5499100D03*
G01X4318000Y-5664200D03*
G01X4203700Y-5372100D03*
G01X4445000Y-5016500D03*
G01X3924301Y-4660900D03*
G01X4406900Y-4330700D03*
G01X6540500Y-2095500D03*
G01X6375400Y-2349500D03*
G01X6464300Y-2565400D03*
G01X6921500Y-6362700D03*
G01X7124700Y-5994400D03*
G01X6896100Y-3784600D03*
G01X5943600Y-4203700D03*
G04 Via End*

G04 Track Start*
G54D11*
G01X5207000Y-4559300D02*
G01X5245100Y-4597400D01*
G01X6134092Y-4597400D01*
G01X6146797Y-4584695D01*
G01X5753100Y-4330695D02*
G01X6146797Y-4330695D01*
G01X1333500Y-1231900D02*
G01X5753100Y-1231900D01*
G01X5753100Y-4330695D01*
G01X1333500Y-1739900D02*
G01X5207000Y-1739900D01*
G01X5207000Y-4559300D01*
G01X5448300Y-2857500D02*
G01X5448300Y-2463800D01*
G01X4622797Y-6616695D02*
G01X4622797Y-6515289D01*
G01X4330700Y-5346700D02*
G01X4479298Y-5495298D01*
G01X4622797Y-6769289D02*
G01X4622797Y-6870695D01*
G01X4479298Y-5495298D02*
G01X4479298Y-6625789D01*
G01X4622797Y-6769289D01*
G01X3162301Y-5219701D02*
G01X3225799Y-5219701D01*
G01X4140200Y-4305300D01*
G01X4521200Y-2921000D02*
G01X4521200Y-1854200D01*
G01X4140200Y-4305300D02*
G01X4140200Y-2171700D01*
G01X3924300Y-2171700D01*
G01X3162300Y-2171700D02*
G01X3162300Y-2552700D01*
G01X4051300Y-3441700D01*
G01X4051300Y-4013200D01*
G01X7322639Y-1823539D02*
G01X7327900Y-1828800D01*
G01X7295061Y-1607639D02*
G01X7327900Y-1574800D01*
G01X7302500Y-1346200D02*
G01X7327900Y-1320800D01*
G01X7309939Y-1048839D02*
G01X7327900Y-1066800D01*
G01X8318500Y-1244600D02*
G01X7937500Y-1244600D01*
G01X7919539Y-1262561D01*
G01X8318500Y-2425700D02*
G01X8255000Y-2489200D01*
G01X8051800Y-2489200D01*
G01X8033839Y-2507161D01*
G01X6146797Y-6870695D02*
G01X6586039Y-6870695D01*
G01X6604000Y-6852734D01*
G01X6146797Y-7124695D02*
G01X6624139Y-7124695D01*
G01X6642100Y-7106734D01*
G01X8033839Y-3281861D02*
G01X8026400Y-3289300D01*
G01X8033839Y-2507161D02*
G01X8033839Y-3281861D01*
G01X7124700Y-5994400D02*
G01X8432800Y-5994400D01*
G01X8496300Y-5930900D01*
G01X8496300Y-2679700D01*
G01X8318500Y-2679700D01*
G01X7919539Y-1262561D02*
G01X7919539Y-3098800D01*
G01X7327900Y-3098800D01*
G01X8026400Y-3289300D02*
G01X6799700Y-3289300D01*
G01X5943600Y-4203700D02*
G01X5943600Y-3568695D01*
G01X6146797Y-3568695D01*
G01X7683500Y-3771900D02*
G01X6908800Y-3771900D01*
G01X6896100Y-3784600D01*
G01X6146797Y-4838695D02*
G01X6540500Y-4838695D01*
G01X6540500Y-2095500D01*
G01X6146797Y-4076695D02*
G01X6464300Y-4076695D01*
G01X6464300Y-2565400D01*
G01X6146797Y-3822695D02*
G01X6375400Y-3822695D01*
G01X6375400Y-2349500D01*
G01X6799700Y-3289300D02*
G01X6799700Y-6362700D01*
G01X6921500Y-6362700D01*
G01X4521200Y-1854200D02*
G01X3416300Y-1854200D01*
G01X3416300Y-2171700D01*
G01X6642100Y-7106734D02*
G01X6642100Y-1048839D01*
G01X7309939Y-1048839D01*
G01X6604000Y-6852734D02*
G01X6604000Y-812800D01*
G01X7327900Y-812800D01*
G01X6146797Y-7378695D02*
G01X6652300Y-7378695D01*
G01X6677700Y-7353295D01*
G01X6677700Y-1346200D01*
G01X7302500Y-1346200D01*
G01X6146797Y-7632695D02*
G01X6687900Y-7632695D01*
G01X6713300Y-7607295D01*
G01X6713300Y-1607639D01*
G01X7295061Y-1607639D01*
G01X6146797Y-7886695D02*
G01X6748900Y-7886695D01*
G01X6748900Y-1823539D01*
G01X7322639Y-1823539D01*
G01X7015500Y-3105150D02*
G01X7321550Y-3105150D01*
G01X7327900Y-3098800D01*
G01X7683500Y-3771900D02*
G01X8318500Y-3771900D01*
G01X8318500Y-3187700D01*
G01X2683149Y-3978549D02*
G01X3543301Y-4838701D01*
G01X3543301Y-4838701D02*
G01X3162301Y-5219701D01*
G01X3924301Y-4660900D02*
G01X4406900Y-4660900D01*
G01X4406900Y-4330700D01*
G01X4203700Y-5372100D02*
G01X4203700Y-5016500D01*
G01X4445000Y-5016500D01*
G01X4152900Y-5499100D02*
G01X4318000Y-5664200D01*
G54D22*
G01X1333500Y-2501900D02*
G01X1651000Y-2184400D01*
G01X3162301Y-3695701D01*
G01X1333500Y-3009900D02*
G01X1778000Y-2565400D01*
G01X2908301Y-3695701D01*
G54D11*
G01X4622797Y-6515289D02*
G01X4514897Y-6407389D01*
G01X4514897Y-2927303D01*
G01X4521200Y-2921000D01*
G04 Track End*

M02*

