G04 Layer: TopLayer*
G04 EasyEDA Pro v3.2.87, 2026-02-03 17:42:00*
G04 Gerber Generator version 0.3*
G04 Scale: 100 percent, Rotated: No, Reflected: No*
G04 Dimensions in millimeters*
G04 Leading zeros omitted, absolute positions, 4 integers and 5 decimals*
G04 Generated by one-click*
%FSLAX45Y45*%
%MOMM*%
%ADD10C,0.2032*%
%ADD11C,0.254*%
%ADD12C,6.35*%
%ADD13R,1.7X1.7*%
%ADD14C,1.7*%
%ADD15C,2.0*%
%ADD16R,1.6X1.6*%
%ADD17C,1.6*%
%ADD18R,1.7X1.5748*%
%ADD19C,1.5039*%
%ADD20C,1.5*%
%ADD21C,0.61*%
%ADD22C,1.524*%
%ADD23C,1.27*%
%ADD24C,2.54*%
G75*


G04 Copper Start*
G36*
G01X8917686Y-340614D02*
G01X8917686Y-9158986D01*
G01X99314Y-9158986D01*
G01X99314Y-8788400D01*
G01X129286Y-8788400D01*
G01X131221Y-8825331D01*
G01X137007Y-8861858D01*
G01X146578Y-8897580D01*
G01X159832Y-8932106D01*
G01X176621Y-8965057D01*
G01X196763Y-8996073D01*
G01X220037Y-9024813D01*
G01X246187Y-9050963D01*
G01X274927Y-9074237D01*
G01X305943Y-9094379D01*
G01X338894Y-9111168D01*
G01X373420Y-9124422D01*
G01X409142Y-9133993D01*
G01X445669Y-9139779D01*
G01X482600Y-9141714D01*
G01X519531Y-9139779D01*
G01X556058Y-9133993D01*
G01X591780Y-9124422D01*
G01X626306Y-9111168D01*
G01X659257Y-9094379D01*
G01X690273Y-9074237D01*
G01X719013Y-9050963D01*
G01X745163Y-9024813D01*
G01X768437Y-8996073D01*
G01X788579Y-8965057D01*
G01X805368Y-8932106D01*
G01X818622Y-8897580D01*
G01X828193Y-8861858D01*
G01X833979Y-8825331D01*
G01X835914Y-8788400D01*
G01X833979Y-8751469D01*
G01X833793Y-8750300D01*
G01X8193786Y-8750300D01*
G01X8195721Y-8787231D01*
G01X8201507Y-8823758D01*
G01X8211078Y-8859480D01*
G01X8224332Y-8894006D01*
G01X8241121Y-8926957D01*
G01X8261263Y-8957973D01*
G01X8284537Y-8986713D01*
G01X8310687Y-9012863D01*
G01X8339427Y-9036137D01*
G01X8370443Y-9056279D01*
G01X8403394Y-9073068D01*
G01X8437920Y-9086322D01*
G01X8473642Y-9095893D01*
G01X8510169Y-9101679D01*
G01X8547100Y-9103614D01*
G01X8584031Y-9101679D01*
G01X8620558Y-9095893D01*
G01X8656280Y-9086322D01*
G01X8690806Y-9073068D01*
G01X8723757Y-9056279D01*
G01X8754773Y-9036137D01*
G01X8783513Y-9012863D01*
G01X8809663Y-8986713D01*
G01X8832937Y-8957973D01*
G01X8853079Y-8926957D01*
G01X8869868Y-8894006D01*
G01X8883122Y-8859480D01*
G01X8892693Y-8823758D01*
G01X8898479Y-8787231D01*
G01X8900414Y-8750300D01*
G01X8898479Y-8713369D01*
G01X8892693Y-8676842D01*
G01X8883122Y-8641120D01*
G01X8869868Y-8606594D01*
G01X8853079Y-8573643D01*
G01X8832937Y-8542627D01*
G01X8809663Y-8513887D01*
G01X8783513Y-8487737D01*
G01X8754773Y-8464463D01*
G01X8723757Y-8444321D01*
G01X8690806Y-8427532D01*
G01X8656280Y-8414278D01*
G01X8620558Y-8404707D01*
G01X8584031Y-8398921D01*
G01X8547100Y-8396986D01*
G01X8510169Y-8398921D01*
G01X8473642Y-8404707D01*
G01X8437920Y-8414278D01*
G01X8403394Y-8427532D01*
G01X8370443Y-8444321D01*
G01X8339427Y-8464463D01*
G01X8310687Y-8487737D01*
G01X8284537Y-8513887D01*
G01X8261263Y-8542627D01*
G01X8241121Y-8573643D01*
G01X8224332Y-8606594D01*
G01X8211078Y-8641120D01*
G01X8201507Y-8676842D01*
G01X8195721Y-8713369D01*
G01X8193786Y-8750300D01*
G01X8193786Y-8750300D01*
G01X833793Y-8750300D01*
G01X828193Y-8714942D01*
G01X818622Y-8679220D01*
G01X805368Y-8644694D01*
G01X788579Y-8611743D01*
G01X768437Y-8580727D01*
G01X745163Y-8551987D01*
G01X719013Y-8525837D01*
G01X690273Y-8502563D01*
G01X659257Y-8482421D01*
G01X626306Y-8465632D01*
G01X591780Y-8452378D01*
G01X556058Y-8442807D01*
G01X519531Y-8437021D01*
G01X482600Y-8435086D01*
G01X445669Y-8437021D01*
G01X409142Y-8442807D01*
G01X373420Y-8452378D01*
G01X338894Y-8465632D01*
G01X305943Y-8482421D01*
G01X274927Y-8502563D01*
G01X246187Y-8525837D01*
G01X220037Y-8551987D01*
G01X196763Y-8580727D01*
G01X176621Y-8611743D01*
G01X159832Y-8644694D01*
G01X146578Y-8679220D01*
G01X137007Y-8714942D01*
G01X131221Y-8751469D01*
G01X129286Y-8788400D01*
G01X129286Y-8788400D01*
G01X99314Y-8788400D01*
G01X99314Y-8089900D01*
G01X1197686Y-8089900D01*
G01X1199493Y-8111982D01*
G01X1204867Y-8133476D01*
G01X1213663Y-8153810D01*
G01X1225649Y-8172444D01*
G01X1240504Y-8188881D01*
G01X1257835Y-8202684D01*
G01X1277179Y-8213485D01*
G01X1298021Y-8220998D01*
G01X1319808Y-8225022D01*
G01X1341960Y-8225450D01*
G01X1363886Y-8222271D01*
G01X1385003Y-8215569D01*
G01X1404750Y-8205523D01*
G01X1422601Y-8192400D01*
G01X1438081Y-8176550D01*
G01X1450778Y-8158393D01*
G01X1460353Y-8138414D01*
G01X2488999Y-8138414D01*
G01X2501555Y-8136761D01*
G01X2513256Y-8131914D01*
G01X2523303Y-8124205D01*
G01X2568823Y-8078685D01*
G01X7548150Y-8078685D01*
G01X7548150Y-8101115D01*
G01X7551842Y-8123240D01*
G01X7559125Y-8144456D01*
G01X7569801Y-8164183D01*
G01X7583579Y-8181884D01*
G01X7600081Y-8197076D01*
G01X7618860Y-8209345D01*
G01X7639401Y-8218355D01*
G01X7661146Y-8223861D01*
G01X7683500Y-8225714D01*
G01X7683500Y-8225714D01*
G01X7705854Y-8223861D01*
G01X7727599Y-8218355D01*
G01X7748140Y-8209345D01*
G01X7766919Y-8197076D01*
G01X7783421Y-8181884D01*
G01X7797199Y-8164183D01*
G01X7807875Y-8144456D01*
G01X7815158Y-8123240D01*
G01X7818850Y-8101115D01*
G01X7818850Y-8078685D01*
G01X7815158Y-8056560D01*
G01X7807875Y-8035344D01*
G01X7797199Y-8015617D01*
G01X7783421Y-7997916D01*
G01X7766919Y-7982724D01*
G01X7748140Y-7970455D01*
G01X7727599Y-7961445D01*
G01X7705854Y-7955939D01*
G01X7683500Y-7954086D01*
G01X7661146Y-7955939D01*
G01X7639401Y-7961445D01*
G01X7618860Y-7970455D01*
G01X7600081Y-7982724D01*
G01X7583579Y-7997916D01*
G01X7569801Y-8015617D01*
G01X7559125Y-8035344D01*
G01X7551842Y-8056560D01*
G01X7548150Y-8078685D01*
G01X2568823Y-8078685D01*
G01X2771499Y-7876009D01*
G01X4507478Y-7876009D01*
G01X4507478Y-7897381D01*
G01X4511405Y-7918389D01*
G01X4519125Y-7938318D01*
G01X4530376Y-7956488D01*
G01X4544774Y-7972282D01*
G01X4561829Y-7985162D01*
G01X4580961Y-7994688D01*
G01X4601517Y-8000537D01*
G01X4622797Y-8002509D01*
G01X4622797Y-8002509D01*
G01X4644078Y-8000537D01*
G01X4664634Y-7994688D01*
G01X4683766Y-7985162D01*
G01X4700821Y-7972282D01*
G01X4715219Y-7956488D01*
G01X4726470Y-7938318D01*
G01X4734190Y-7918389D01*
G01X4738117Y-7897381D01*
G01X4738117Y-7876009D01*
G01X4738117Y-7876009D01*
G01X6031478Y-7876009D01*
G01X6031478Y-7897381D01*
G01X6035405Y-7918389D01*
G01X6043125Y-7938318D01*
G01X6054376Y-7956488D01*
G01X6068774Y-7972282D01*
G01X6085829Y-7985162D01*
G01X6104961Y-7994688D01*
G01X6125517Y-8000537D01*
G01X6146797Y-8002509D01*
G01X6146797Y-8002509D01*
G01X6168078Y-8000537D01*
G01X6188634Y-7994688D01*
G01X6207766Y-7985162D01*
G01X6224821Y-7972282D01*
G01X6239219Y-7956488D01*
G01X6250470Y-7938318D01*
G01X6258190Y-7918389D01*
G01X6262117Y-7897381D01*
G01X6262117Y-7876009D01*
G01X6258190Y-7855001D01*
G01X6250470Y-7835072D01*
G01X6239219Y-7816901D01*
G01X6224821Y-7801107D01*
G01X6207766Y-7788228D01*
G01X6188634Y-7778702D01*
G01X6168078Y-7772853D01*
G01X6146797Y-7770881D01*
G01X6125517Y-7772853D01*
G01X6104961Y-7778702D01*
G01X6085829Y-7788228D01*
G01X6068774Y-7801107D01*
G01X6054376Y-7816901D01*
G01X6043125Y-7835072D01*
G01X6035405Y-7855001D01*
G01X6031478Y-7876009D01*
G01X4738117Y-7876009D01*
G01X4734190Y-7855001D01*
G01X4726470Y-7835072D01*
G01X4715219Y-7816901D01*
G01X4700821Y-7801107D01*
G01X4683766Y-7788228D01*
G01X4664634Y-7778702D01*
G01X4644078Y-7772853D01*
G01X4622797Y-7770881D01*
G01X4601517Y-7772853D01*
G01X4580961Y-7778702D01*
G01X4561829Y-7788228D01*
G01X4544774Y-7801107D01*
G01X4530376Y-7816901D01*
G01X4519125Y-7835072D01*
G01X4511405Y-7855001D01*
G01X4507478Y-7876009D01*
G01X2771499Y-7876009D01*
G01X3025499Y-7622009D01*
G01X4507478Y-7622009D01*
G01X4507478Y-7643381D01*
G01X4511405Y-7664389D01*
G01X4519125Y-7684318D01*
G01X4530376Y-7702488D01*
G01X4544774Y-7718282D01*
G01X4561829Y-7731162D01*
G01X4580961Y-7740688D01*
G01X4601517Y-7746537D01*
G01X4622797Y-7748509D01*
G01X4622797Y-7748509D01*
G01X4644078Y-7746537D01*
G01X4664634Y-7740688D01*
G01X4683766Y-7731162D01*
G01X4700821Y-7718282D01*
G01X4715219Y-7702488D01*
G01X4726470Y-7684318D01*
G01X4734190Y-7664389D01*
G01X4738117Y-7643381D01*
G01X4738117Y-7622009D01*
G01X4738117Y-7622009D01*
G01X6031478Y-7622009D01*
G01X6031478Y-7643381D01*
G01X6035405Y-7664389D01*
G01X6043125Y-7684318D01*
G01X6054376Y-7702488D01*
G01X6068774Y-7718282D01*
G01X6085829Y-7731162D01*
G01X6104961Y-7740688D01*
G01X6125517Y-7746537D01*
G01X6146797Y-7748509D01*
G01X6146797Y-7748509D01*
G01X6168078Y-7746537D01*
G01X6188634Y-7740688D01*
G01X6207766Y-7731162D01*
G01X6224821Y-7718282D01*
G01X6239219Y-7702488D01*
G01X6250470Y-7684318D01*
G01X6258190Y-7664389D01*
G01X6262117Y-7643381D01*
G01X6262117Y-7622009D01*
G01X6258190Y-7601001D01*
G01X6250470Y-7581072D01*
G01X6239219Y-7562901D01*
G01X6224821Y-7547107D01*
G01X6207766Y-7534228D01*
G01X6188634Y-7524702D01*
G01X6168078Y-7518853D01*
G01X6146797Y-7516881D01*
G01X6125517Y-7518853D01*
G01X6104961Y-7524702D01*
G01X6085829Y-7534228D01*
G01X6068774Y-7547107D01*
G01X6054376Y-7562901D01*
G01X6043125Y-7581072D01*
G01X6035405Y-7601001D01*
G01X6031478Y-7622009D01*
G01X4738117Y-7622009D01*
G01X4734190Y-7601001D01*
G01X4726470Y-7581072D01*
G01X4715219Y-7562901D01*
G01X4700821Y-7547107D01*
G01X4683766Y-7534228D01*
G01X4664634Y-7524702D01*
G01X4644078Y-7518853D01*
G01X4622797Y-7516881D01*
G01X4601517Y-7518853D01*
G01X4580961Y-7524702D01*
G01X4561829Y-7534228D01*
G01X4544774Y-7547107D01*
G01X4530376Y-7562901D01*
G01X4519125Y-7581072D01*
G01X4511405Y-7601001D01*
G01X4507478Y-7622009D01*
G01X3025499Y-7622009D01*
G01X3279499Y-7368009D01*
G01X4507478Y-7368009D01*
G01X4507478Y-7389381D01*
G01X4511405Y-7410389D01*
G01X4519125Y-7430318D01*
G01X4530376Y-7448488D01*
G01X4544774Y-7464282D01*
G01X4561829Y-7477162D01*
G01X4580961Y-7486688D01*
G01X4601517Y-7492537D01*
G01X4622797Y-7494509D01*
G01X4622797Y-7494509D01*
G01X4644078Y-7492537D01*
G01X4664634Y-7486688D01*
G01X4683766Y-7477162D01*
G01X4700821Y-7464282D01*
G01X4715219Y-7448488D01*
G01X4726470Y-7430318D01*
G01X4734190Y-7410389D01*
G01X4738117Y-7389381D01*
G01X4738117Y-7368009D01*
G01X4738117Y-7368009D01*
G01X6031478Y-7368009D01*
G01X6031478Y-7389381D01*
G01X6035405Y-7410389D01*
G01X6043125Y-7430318D01*
G01X6054376Y-7448488D01*
G01X6068774Y-7464282D01*
G01X6085829Y-7477162D01*
G01X6104961Y-7486688D01*
G01X6125517Y-7492537D01*
G01X6146797Y-7494509D01*
G01X6146797Y-7494509D01*
G01X6168078Y-7492537D01*
G01X6188634Y-7486688D01*
G01X6207766Y-7477162D01*
G01X6224821Y-7464282D01*
G01X6239219Y-7448488D01*
G01X6250470Y-7430318D01*
G01X6258190Y-7410389D01*
G01X6262117Y-7389381D01*
G01X6262117Y-7368009D01*
G01X6258190Y-7347001D01*
G01X6250470Y-7327072D01*
G01X6239219Y-7308901D01*
G01X6224821Y-7293107D01*
G01X6207766Y-7280228D01*
G01X6188634Y-7270702D01*
G01X6168078Y-7264853D01*
G01X6146797Y-7262881D01*
G01X6125517Y-7264853D01*
G01X6104961Y-7270702D01*
G01X6085829Y-7280228D01*
G01X6068774Y-7293107D01*
G01X6054376Y-7308901D01*
G01X6043125Y-7327072D01*
G01X6035405Y-7347001D01*
G01X6031478Y-7368009D01*
G01X4738117Y-7368009D01*
G01X4734190Y-7347001D01*
G01X4726470Y-7327072D01*
G01X4715219Y-7308901D01*
G01X4700821Y-7293107D01*
G01X4683766Y-7280228D01*
G01X4664634Y-7270702D01*
G01X4644078Y-7264853D01*
G01X4622797Y-7262881D01*
G01X4601517Y-7264853D01*
G01X4580961Y-7270702D01*
G01X4561829Y-7280228D01*
G01X4544774Y-7293107D01*
G01X4530376Y-7308901D01*
G01X4519125Y-7327072D01*
G01X4511405Y-7347001D01*
G01X4507478Y-7368009D01*
G01X3279499Y-7368009D01*
G01X3533499Y-7114009D01*
G01X4507478Y-7114009D01*
G01X4507478Y-7135381D01*
G01X4511405Y-7156389D01*
G01X4519125Y-7176318D01*
G01X4530376Y-7194488D01*
G01X4544774Y-7210282D01*
G01X4561829Y-7223162D01*
G01X4580961Y-7232688D01*
G01X4601517Y-7238537D01*
G01X4622797Y-7240509D01*
G01X4622797Y-7240509D01*
G01X4644078Y-7238537D01*
G01X4664634Y-7232688D01*
G01X4683766Y-7223162D01*
G01X4700821Y-7210282D01*
G01X4715219Y-7194488D01*
G01X4726470Y-7176318D01*
G01X4734190Y-7156389D01*
G01X4738117Y-7135381D01*
G01X4738117Y-7114009D01*
G01X4738117Y-7114009D01*
G01X6031478Y-7114009D01*
G01X6031478Y-7135381D01*
G01X6035405Y-7156389D01*
G01X6043125Y-7176318D01*
G01X6054376Y-7194488D01*
G01X6068774Y-7210282D01*
G01X6085829Y-7223162D01*
G01X6104961Y-7232688D01*
G01X6125517Y-7238537D01*
G01X6146797Y-7240509D01*
G01X6146797Y-7240509D01*
G01X6168078Y-7238537D01*
G01X6188634Y-7232688D01*
G01X6207766Y-7223162D01*
G01X6224821Y-7210282D01*
G01X6239219Y-7194488D01*
G01X6250470Y-7176318D01*
G01X6258190Y-7156389D01*
G01X6262117Y-7135381D01*
G01X6262117Y-7114009D01*
G01X6258190Y-7093001D01*
G01X6250470Y-7073072D01*
G01X6239219Y-7054901D01*
G01X6224821Y-7039107D01*
G01X6207766Y-7026228D01*
G01X6188634Y-7016702D01*
G01X6168078Y-7010853D01*
G01X6146797Y-7008881D01*
G01X6125517Y-7010853D01*
G01X6104961Y-7016702D01*
G01X6085829Y-7026228D01*
G01X6068774Y-7039107D01*
G01X6054376Y-7054901D01*
G01X6043125Y-7073072D01*
G01X6035405Y-7093001D01*
G01X6031478Y-7114009D01*
G01X4738117Y-7114009D01*
G01X4734190Y-7093001D01*
G01X4726470Y-7073072D01*
G01X4715219Y-7054901D01*
G01X4700821Y-7039107D01*
G01X4683766Y-7026228D01*
G01X4664634Y-7016702D01*
G01X4644078Y-7010853D01*
G01X4622797Y-7008881D01*
G01X4601517Y-7010853D01*
G01X4580961Y-7016702D01*
G01X4561829Y-7026228D01*
G01X4544774Y-7039107D01*
G01X4530376Y-7054901D01*
G01X4519125Y-7073072D01*
G01X4511405Y-7093001D01*
G01X4507478Y-7114009D01*
G01X3533499Y-7114009D01*
G01X3787499Y-6860009D01*
G01X4507478Y-6860009D01*
G01X4507478Y-6881381D01*
G01X4511405Y-6902389D01*
G01X4519125Y-6922318D01*
G01X4530376Y-6940488D01*
G01X4544774Y-6956282D01*
G01X4561829Y-6969162D01*
G01X4580961Y-6978688D01*
G01X4601517Y-6984537D01*
G01X4622797Y-6986509D01*
G01X4622797Y-6986509D01*
G01X4644078Y-6984537D01*
G01X4664634Y-6978688D01*
G01X4683766Y-6969162D01*
G01X4700821Y-6956282D01*
G01X4715219Y-6940488D01*
G01X4726470Y-6922318D01*
G01X4734190Y-6902389D01*
G01X4738117Y-6881381D01*
G01X4738117Y-6860009D01*
G01X4738117Y-6860009D01*
G01X6031478Y-6860009D01*
G01X6031478Y-6881381D01*
G01X6035405Y-6902389D01*
G01X6043125Y-6922318D01*
G01X6054376Y-6940488D01*
G01X6068774Y-6956282D01*
G01X6085829Y-6969162D01*
G01X6104961Y-6978688D01*
G01X6125517Y-6984537D01*
G01X6146797Y-6986509D01*
G01X6146797Y-6986509D01*
G01X6168078Y-6984537D01*
G01X6188634Y-6978688D01*
G01X6207766Y-6969162D01*
G01X6224821Y-6956282D01*
G01X6239219Y-6940488D01*
G01X6250470Y-6922318D01*
G01X6258190Y-6902389D01*
G01X6262117Y-6881381D01*
G01X6262117Y-6860009D01*
G01X6258190Y-6839001D01*
G01X6250470Y-6819072D01*
G01X6244038Y-6808685D01*
G01X7548150Y-6808685D01*
G01X7548150Y-6831115D01*
G01X7551842Y-6853240D01*
G01X7559125Y-6874456D01*
G01X7569801Y-6894183D01*
G01X7583579Y-6911884D01*
G01X7600081Y-6927076D01*
G01X7618860Y-6939345D01*
G01X7639401Y-6948355D01*
G01X7661146Y-6953861D01*
G01X7683500Y-6955714D01*
G01X7683500Y-6955714D01*
G01X7705854Y-6953861D01*
G01X7727599Y-6948355D01*
G01X7748140Y-6939345D01*
G01X7766919Y-6927076D01*
G01X7783421Y-6911884D01*
G01X7797199Y-6894183D01*
G01X7807875Y-6874456D01*
G01X7815158Y-6853240D01*
G01X7818850Y-6831115D01*
G01X7818850Y-6808685D01*
G01X7815158Y-6786560D01*
G01X7807875Y-6765344D01*
G01X7797199Y-6745617D01*
G01X7783421Y-6727916D01*
G01X7766919Y-6712724D01*
G01X7748140Y-6700455D01*
G01X7727599Y-6691445D01*
G01X7705854Y-6685939D01*
G01X7683500Y-6684086D01*
G01X7661146Y-6685939D01*
G01X7639401Y-6691445D01*
G01X7618860Y-6700455D01*
G01X7600081Y-6712724D01*
G01X7583579Y-6727916D01*
G01X7569801Y-6745617D01*
G01X7559125Y-6765344D01*
G01X7551842Y-6786560D01*
G01X7548150Y-6808685D01*
G01X6244038Y-6808685D01*
G01X6239219Y-6800901D01*
G01X6224821Y-6785107D01*
G01X6207766Y-6772228D01*
G01X6188634Y-6762702D01*
G01X6168078Y-6756853D01*
G01X6146797Y-6754881D01*
G01X6125517Y-6756853D01*
G01X6104961Y-6762702D01*
G01X6085829Y-6772228D01*
G01X6068774Y-6785107D01*
G01X6054376Y-6800901D01*
G01X6043125Y-6819072D01*
G01X6035405Y-6839001D01*
G01X6031478Y-6860009D01*
G01X4738117Y-6860009D01*
G01X4734190Y-6839001D01*
G01X4726470Y-6819072D01*
G01X4715219Y-6800901D01*
G01X4700821Y-6785107D01*
G01X4683766Y-6772228D01*
G01X4664634Y-6762702D01*
G01X4644078Y-6756853D01*
G01X4622797Y-6754881D01*
G01X4601517Y-6756853D01*
G01X4580961Y-6762702D01*
G01X4561829Y-6772228D01*
G01X4544774Y-6785107D01*
G01X4530376Y-6800901D01*
G01X4519125Y-6819072D01*
G01X4511405Y-6839001D01*
G01X4507478Y-6860009D01*
G01X3787499Y-6860009D01*
G01X4041499Y-6606009D01*
G01X4507478Y-6606009D01*
G01X4507478Y-6627381D01*
G01X4511405Y-6648389D01*
G01X4519125Y-6668318D01*
G01X4530376Y-6686488D01*
G01X4544774Y-6702282D01*
G01X4561829Y-6715162D01*
G01X4580961Y-6724688D01*
G01X4601517Y-6730537D01*
G01X4622797Y-6732509D01*
G01X4622797Y-6732509D01*
G01X4644078Y-6730537D01*
G01X4664634Y-6724688D01*
G01X4683766Y-6715162D01*
G01X4700821Y-6702282D01*
G01X4715219Y-6686488D01*
G01X4726470Y-6668318D01*
G01X4734190Y-6648389D01*
G01X4738117Y-6627381D01*
G01X4738117Y-6606009D01*
G01X4734190Y-6585001D01*
G01X4726470Y-6565072D01*
G01X4715219Y-6546901D01*
G01X4700821Y-6531107D01*
G01X4683766Y-6518228D01*
G01X4664634Y-6508702D01*
G01X4644078Y-6502853D01*
G01X4622797Y-6500881D01*
G01X4601517Y-6502853D01*
G01X4580961Y-6508702D01*
G01X4561829Y-6518228D01*
G01X4544774Y-6531107D01*
G01X4530376Y-6546901D01*
G01X4519125Y-6565072D01*
G01X4511405Y-6585001D01*
G01X4507478Y-6606009D01*
G01X4041499Y-6606009D01*
G01X4295499Y-6352009D01*
G01X4507478Y-6352009D01*
G01X4507478Y-6373381D01*
G01X4511405Y-6394389D01*
G01X4519125Y-6414318D01*
G01X4530376Y-6432488D01*
G01X4544774Y-6448282D01*
G01X4561829Y-6461162D01*
G01X4580961Y-6470688D01*
G01X4601517Y-6476537D01*
G01X4622797Y-6478509D01*
G01X4622797Y-6478509D01*
G01X4644078Y-6476537D01*
G01X4664634Y-6470688D01*
G01X4683766Y-6461162D01*
G01X4700821Y-6448282D01*
G01X4715219Y-6432488D01*
G01X4726470Y-6414318D01*
G01X4734190Y-6394389D01*
G01X4738117Y-6373381D01*
G01X4738117Y-6362689D01*
G01X6030984Y-6362689D01*
G01X6032867Y-6383495D01*
G01X6038457Y-6403623D01*
G01X6047572Y-6422420D01*
G01X6059915Y-6439274D01*
G01X6075086Y-6453636D01*
G01X6092589Y-6465039D01*
G01X6111856Y-6473112D01*
G01X6132261Y-6477593D01*
G01X6153138Y-6478335D01*
G01X6173809Y-6475315D01*
G01X6193601Y-6468630D01*
G01X6211870Y-6458499D01*
G01X6228022Y-6445251D01*
G01X6241531Y-6429316D01*
G01X6251958Y-6411214D01*
G01X6876290Y-6411214D01*
G01X6888661Y-6420312D01*
G01X6902794Y-6426321D01*
G01X6917929Y-6428918D01*
G01X6933256Y-6427964D01*
G01X6947953Y-6423510D01*
G01X6961231Y-6415794D01*
G01X6972378Y-6405232D01*
G01X6980797Y-6392389D01*
G01X6986036Y-6377953D01*
G01X6987814Y-6362700D01*
G01X6987814Y-6362700D01*
G01X6986036Y-6347447D01*
G01X6980797Y-6333011D01*
G01X6972378Y-6320168D01*
G01X6961231Y-6309606D01*
G01X6947953Y-6301890D01*
G01X6933256Y-6297436D01*
G01X6917929Y-6296482D01*
G01X6902794Y-6299079D01*
G01X6888661Y-6305088D01*
G01X6876290Y-6314186D01*
G01X6251963Y-6314186D01*
G01X6241538Y-6296083D01*
G01X6228030Y-6280147D01*
G01X6211879Y-6266897D01*
G01X6193611Y-6256764D01*
G01X6173820Y-6250078D01*
G01X6153149Y-6247055D01*
G01X6132272Y-6247796D01*
G01X6111867Y-6252274D01*
G01X6092599Y-6260346D01*
G01X6075094Y-6271747D01*
G01X6059923Y-6286108D01*
G01X6047577Y-6302960D01*
G01X6038461Y-6321756D01*
G01X6032869Y-6341884D01*
G01X6030984Y-6362689D01*
G01X4738117Y-6362689D01*
G01X4738117Y-6352009D01*
G01X4734190Y-6331001D01*
G01X4726470Y-6311072D01*
G01X4715219Y-6292901D01*
G01X4700821Y-6277107D01*
G01X4683766Y-6264228D01*
G01X4664634Y-6254702D01*
G01X4644078Y-6248853D01*
G01X4622797Y-6246881D01*
G01X4601517Y-6248853D01*
G01X4580961Y-6254702D01*
G01X4561829Y-6264228D01*
G01X4544774Y-6277107D01*
G01X4530376Y-6292901D01*
G01X4519125Y-6311072D01*
G01X4511405Y-6331001D01*
G01X4507478Y-6352009D01*
G01X4295499Y-6352009D01*
G01X4510498Y-6137010D01*
G01X4517180Y-6156211D01*
G01X4527116Y-6173947D01*
G01X4540000Y-6189673D01*
G01X4555436Y-6202904D01*
G01X4572947Y-6213231D01*
G01X4591995Y-6220337D01*
G01X4611992Y-6224004D01*
G01X4632322Y-6224116D01*
G01X4652358Y-6220673D01*
G01X4671483Y-6213778D01*
G01X4689108Y-6203646D01*
G01X4704690Y-6190588D01*
G01X4717749Y-6175006D01*
G01X4727881Y-6157381D01*
G01X4734775Y-6138255D01*
G01X4738219Y-6118219D01*
G01X4738107Y-6098009D01*
G01X6031478Y-6098009D01*
G01X6031478Y-6119381D01*
G01X6035405Y-6140389D01*
G01X6043125Y-6160318D01*
G01X6054376Y-6178488D01*
G01X6068774Y-6194282D01*
G01X6085829Y-6207162D01*
G01X6104961Y-6216688D01*
G01X6125517Y-6222537D01*
G01X6146797Y-6224509D01*
G01X6146797Y-6224509D01*
G01X6168078Y-6222537D01*
G01X6188634Y-6216688D01*
G01X6207766Y-6207162D01*
G01X6224821Y-6194282D01*
G01X6239219Y-6178488D01*
G01X6250470Y-6160318D01*
G01X6258190Y-6140389D01*
G01X6262117Y-6119381D01*
G01X6262117Y-6098009D01*
G01X6258190Y-6077001D01*
G01X6250470Y-6057072D01*
G01X6239219Y-6038901D01*
G01X6224821Y-6023107D01*
G01X6207766Y-6010228D01*
G01X6188634Y-6000702D01*
G01X6168078Y-5994853D01*
G01X6146797Y-5992881D01*
G01X6125517Y-5994853D01*
G01X6104961Y-6000702D01*
G01X6085829Y-6010228D01*
G01X6068774Y-6023107D01*
G01X6054376Y-6038901D01*
G01X6043125Y-6057072D01*
G01X6035405Y-6077001D01*
G01X6031478Y-6098009D01*
G01X4738107Y-6098009D01*
G01X4738106Y-6097889D01*
G01X4734440Y-6077893D01*
G01X4727334Y-6058845D01*
G01X4717006Y-6041333D01*
G01X4703776Y-6025898D01*
G01X4688050Y-6013013D01*
G01X4670313Y-6003077D01*
G01X4651112Y-5996396D01*
G01X4657102Y-5990406D01*
G01X4664159Y-5981455D01*
G01X4668933Y-5971106D01*
G01X4671160Y-5959927D01*
G01X4688803Y-5949859D01*
G01X4704414Y-5936863D01*
G01X4717515Y-5921339D01*
G01X4727702Y-5903765D01*
G01X4734662Y-5884681D01*
G01X4738180Y-5864675D01*
G01X4738149Y-5844362D01*
G01X4738086Y-5844009D01*
G01X6031478Y-5844009D01*
G01X6031478Y-5865381D01*
G01X6035405Y-5886389D01*
G01X6043125Y-5906318D01*
G01X6054376Y-5924488D01*
G01X6068774Y-5940282D01*
G01X6085829Y-5953162D01*
G01X6104961Y-5962688D01*
G01X6125517Y-5968537D01*
G01X6146797Y-5970509D01*
G01X6146797Y-5970509D01*
G01X6168078Y-5968537D01*
G01X6188634Y-5962688D01*
G01X6207766Y-5953162D01*
G01X6224821Y-5940282D01*
G01X6239219Y-5924488D01*
G01X6250470Y-5906318D01*
G01X6258190Y-5886389D01*
G01X6262117Y-5865381D01*
G01X6262117Y-5844009D01*
G01X6258190Y-5823001D01*
G01X6250470Y-5803072D01*
G01X6239219Y-5784901D01*
G01X6224821Y-5769107D01*
G01X6207766Y-5756228D01*
G01X6188634Y-5746702D01*
G01X6168078Y-5740853D01*
G01X6146797Y-5738881D01*
G01X6125517Y-5740853D01*
G01X6104961Y-5746702D01*
G01X6085829Y-5756228D01*
G01X6068774Y-5769107D01*
G01X6054376Y-5784901D01*
G01X6043125Y-5803072D01*
G01X6035405Y-5823001D01*
G01X6031478Y-5844009D01*
G01X4738086Y-5844009D01*
G01X4734570Y-5824367D01*
G01X4727552Y-5805305D01*
G01X4717311Y-5787762D01*
G01X4704163Y-5772278D01*
G01X4688512Y-5759330D01*
G01X4670839Y-5749315D01*
G01X4651688Y-5742542D01*
G01X4631648Y-5739220D01*
G01X4611337Y-5739450D01*
G01X4591377Y-5743225D01*
G01X4572385Y-5750429D01*
G01X4554943Y-5760841D01*
G01X4539589Y-5774140D01*
G01X4526794Y-5789917D01*
G01X4516953Y-5807687D01*
G01X4510368Y-5826903D01*
G01X4507241Y-5846974D01*
G01X4507670Y-5867283D01*
G01X4511640Y-5887204D01*
G01X4519030Y-5906125D01*
G01X4529612Y-5923465D01*
G01X4543060Y-5938688D01*
G01X4558962Y-5951328D01*
G01X2468904Y-8041386D01*
G01X2468904Y-8041386D01*
G01X1460353Y-8041386D01*
G01X1450778Y-8021407D01*
G01X1438081Y-8003250D01*
G01X1422601Y-7987400D01*
G01X1404750Y-7974277D01*
G01X1385003Y-7964231D01*
G01X1363886Y-7957529D01*
G01X1341960Y-7954350D01*
G01X1319808Y-7954778D01*
G01X1298021Y-7958802D01*
G01X1277179Y-7966315D01*
G01X1257835Y-7977116D01*
G01X1240504Y-7990919D01*
G01X1225649Y-8007356D01*
G01X1213663Y-8025990D01*
G01X1204867Y-8046324D01*
G01X1199493Y-8067818D01*
G01X1197686Y-8089900D01*
G01X99314Y-8089900D01*
G01X99314Y-7581900D01*
G01X1197686Y-7581900D01*
G01X1199493Y-7603982D01*
G01X1204867Y-7625476D01*
G01X1213663Y-7645810D01*
G01X1225649Y-7664444D01*
G01X1240504Y-7680881D01*
G01X1257835Y-7694684D01*
G01X1277179Y-7705485D01*
G01X1298021Y-7712998D01*
G01X1319808Y-7717022D01*
G01X1341960Y-7717450D01*
G01X1363886Y-7714271D01*
G01X1385003Y-7707569D01*
G01X1404750Y-7697523D01*
G01X1422601Y-7684400D01*
G01X1438081Y-7668550D01*
G01X1450778Y-7650393D01*
G01X1460353Y-7630414D01*
G01X2641592Y-7630414D01*
G01X2654149Y-7628761D01*
G01X2665849Y-7623914D01*
G01X2675897Y-7616205D01*
G01X4582741Y-5709361D01*
G01X4602913Y-5714789D01*
G01X4623733Y-5716505D01*
G01X4644523Y-5714453D01*
G01X4664605Y-5708699D01*
G01X4683327Y-5699432D01*
G01X4700080Y-5686952D01*
G01X4714318Y-5671665D01*
G01X4725579Y-5654070D01*
G01X4733495Y-5634737D01*
G01X4737810Y-5614297D01*
G01X4738382Y-5593415D01*
G01X4737856Y-5590009D01*
G01X6031478Y-5590009D01*
G01X6031478Y-5611381D01*
G01X6035405Y-5632389D01*
G01X6043125Y-5652318D01*
G01X6054376Y-5670488D01*
G01X6068774Y-5686282D01*
G01X6085829Y-5699162D01*
G01X6104961Y-5708688D01*
G01X6125517Y-5714537D01*
G01X6146797Y-5716509D01*
G01X6146797Y-5716509D01*
G01X6168078Y-5714537D01*
G01X6188634Y-5708688D01*
G01X6207766Y-5699162D01*
G01X6224821Y-5686282D01*
G01X6239219Y-5670488D01*
G01X6250470Y-5652318D01*
G01X6258190Y-5632389D01*
G01X6262117Y-5611381D01*
G01X6262117Y-5590009D01*
G01X6258190Y-5569001D01*
G01X6250470Y-5549072D01*
G01X6239219Y-5530901D01*
G01X6224821Y-5515107D01*
G01X6207766Y-5502228D01*
G01X6188634Y-5492702D01*
G01X6168078Y-5486853D01*
G01X6146797Y-5484881D01*
G01X6125517Y-5486853D01*
G01X6104961Y-5492702D01*
G01X6085829Y-5502228D01*
G01X6068774Y-5515107D01*
G01X6054376Y-5530901D01*
G01X6043125Y-5549072D01*
G01X6035405Y-5569001D01*
G01X6031478Y-5590009D01*
G01X4737856Y-5590009D01*
G01X4735194Y-5572769D01*
G01X4728349Y-5553032D01*
G01X4718069Y-5534846D01*
G01X4704690Y-5518802D01*
G01X4688646Y-5505423D01*
G01X4670460Y-5495143D01*
G01X4650723Y-5488298D01*
G01X4630078Y-5485110D01*
G01X4609195Y-5485683D01*
G01X4588755Y-5489997D01*
G01X4569423Y-5497914D01*
G01X4551827Y-5509174D01*
G01X4536541Y-5523412D01*
G01X4524060Y-5540165D01*
G01X4514793Y-5558887D01*
G01X4509040Y-5578970D01*
G01X4506987Y-5599759D01*
G01X4508703Y-5620579D01*
G01X4514131Y-5640752D01*
G01X2621497Y-7533386D01*
G01X1460353Y-7533386D01*
G01X1460353Y-7533386D01*
G01X1450778Y-7513407D01*
G01X1438081Y-7495250D01*
G01X1422601Y-7479400D01*
G01X1404750Y-7466277D01*
G01X1385003Y-7456231D01*
G01X1363886Y-7449529D01*
G01X1341960Y-7446350D01*
G01X1319808Y-7446778D01*
G01X1298021Y-7450802D01*
G01X1277179Y-7458315D01*
G01X1257835Y-7469116D01*
G01X1240504Y-7482919D01*
G01X1225649Y-7499356D01*
G01X1213663Y-7517990D01*
G01X1204867Y-7538324D01*
G01X1199493Y-7559818D01*
G01X1197686Y-7581900D01*
G01X99314Y-7581900D01*
G01X99314Y-6311900D01*
G01X1197686Y-6311900D01*
G01X1199549Y-6334317D01*
G01X1205086Y-6356119D01*
G01X1214147Y-6376709D01*
G01X1226481Y-6395520D01*
G01X1241751Y-6412037D01*
G01X1259538Y-6425808D01*
G01X1279354Y-6436453D01*
G01X1300655Y-6443682D01*
G01X1322857Y-6447296D01*
G01X1345351Y-6447196D01*
G01X1367521Y-6443384D01*
G01X1388756Y-6435965D01*
G01X1408476Y-6425143D01*
G01X1426140Y-6411214D01*
G01X1850401Y-6411214D01*
G01X1869713Y-6409318D01*
G01X1888287Y-6403704D01*
G01X1888287Y-6720586D01*
G01X1426140Y-6720586D01*
G01X1408476Y-6706657D01*
G01X1388756Y-6695835D01*
G01X1367521Y-6688416D01*
G01X1345351Y-6684604D01*
G01X1322857Y-6684504D01*
G01X1300655Y-6688118D01*
G01X1279354Y-6695347D01*
G01X1259538Y-6705992D01*
G01X1241751Y-6719763D01*
G01X1226481Y-6736280D01*
G01X1214147Y-6755091D01*
G01X1205086Y-6775681D01*
G01X1199549Y-6797483D01*
G01X1197686Y-6819900D01*
G01X1199549Y-6842317D01*
G01X1205086Y-6864119D01*
G01X1214147Y-6884709D01*
G01X1226481Y-6903520D01*
G01X1241751Y-6920037D01*
G01X1259538Y-6933808D01*
G01X1279354Y-6944453D01*
G01X1300655Y-6951682D01*
G01X1322857Y-6955296D01*
G01X1345351Y-6955196D01*
G01X1367521Y-6951384D01*
G01X1388756Y-6943965D01*
G01X1408476Y-6933143D01*
G01X1426140Y-6919214D01*
G01X1987601Y-6919214D01*
G01X2006977Y-6917306D01*
G01X2025607Y-6911654D01*
G01X2042777Y-6902477D01*
G01X2057827Y-6890126D01*
G01X2070178Y-6875076D01*
G01X2079355Y-6857906D01*
G01X2085007Y-6839275D01*
G01X2086915Y-6819900D01*
G01X2086915Y-5319130D01*
G01X2104771Y-5327813D01*
G01X2123848Y-5333318D01*
G01X2143585Y-5335483D01*
G01X2163401Y-5334246D01*
G01X2182715Y-5329642D01*
G01X2200959Y-5321806D01*
G01X2217596Y-5310970D01*
G01X2232138Y-5297450D01*
G01X2244157Y-5281646D01*
G01X2253299Y-5264021D01*
G01X2259297Y-5245094D01*
G01X2261974Y-5225420D01*
G01X2261251Y-5205578D01*
G01X2257149Y-5186151D01*
G01X2249789Y-5167710D01*
G01X2239388Y-5150798D01*
G01X2226251Y-5135910D01*
G01X2210763Y-5123486D01*
G01X2193382Y-5113889D01*
G01X2174616Y-5107402D01*
G01X3184704Y-4097314D01*
G01X3338438Y-4097314D01*
G01X3340248Y-4097297D01*
G01X2365997Y-5071548D01*
G01X2358287Y-5081596D01*
G01X2353440Y-5093297D01*
G01X2351787Y-5105853D01*
G01X2351787Y-5114538D01*
G01X2333916Y-5124802D01*
G01X2318148Y-5138070D01*
G01X2304980Y-5153924D01*
G01X2294831Y-5171860D01*
G01X2288021Y-5191310D01*
G01X2284767Y-5211660D01*
G01X2285171Y-5232265D01*
G01X2289220Y-5252472D01*
G01X2296787Y-5271641D01*
G01X2307632Y-5289165D01*
G01X2321411Y-5304490D01*
G01X2337687Y-5317130D01*
G01X2355947Y-5326685D01*
G01X2375611Y-5332853D01*
G01X2396056Y-5335437D01*
G01X2416637Y-5334357D01*
G01X2436699Y-5329647D01*
G01X2455610Y-5321455D01*
G01X2472769Y-5310041D01*
G01X2487633Y-5295767D01*
G01X2499732Y-5279084D01*
G01X2508683Y-5260521D01*
G01X2514202Y-5240665D01*
G01X2516114Y-5220145D01*
G01X2514359Y-5199612D01*
G01X2508993Y-5179714D01*
G01X2500185Y-5161083D01*
G01X2488214Y-5144308D01*
G01X2473460Y-5129920D01*
G01X2456389Y-5118375D01*
G01X3609086Y-3965677D01*
G01X3609086Y-5121388D01*
G01X3592440Y-5133966D01*
G01X3578321Y-5149327D01*
G01X3567187Y-5166973D01*
G01X3559400Y-5186329D01*
G01X3555212Y-5206768D01*
G01X3554759Y-5227628D01*
G01X3558056Y-5248229D01*
G01X3564996Y-5267906D01*
G01X3575354Y-5286017D01*
G01X3588793Y-5301976D01*
G01X3604877Y-5315266D01*
G01X3623085Y-5325453D01*
G01X3642825Y-5332209D01*
G01X3663457Y-5335313D01*
G01X3684311Y-5334665D01*
G01X3704710Y-5330285D01*
G01X3723993Y-5322317D01*
G01X3741533Y-5311019D01*
G01X3756761Y-5296756D01*
G01X3769184Y-5279993D01*
G01X3778397Y-5261274D01*
G01X3784101Y-5241205D01*
G01X3786113Y-5220438D01*
G01X3784366Y-5199647D01*
G01X3778916Y-5179507D01*
G01X3769942Y-5160672D01*
G01X3757734Y-5143752D01*
G01X3753518Y-5139701D01*
G01X3808487Y-5139701D01*
G01X3808487Y-5299701D01*
G01X3810240Y-5310768D01*
G01X3815327Y-5320752D01*
G01X3823250Y-5328675D01*
G01X3833234Y-5333762D01*
G01X3844301Y-5335515D01*
G01X4004301Y-5335515D01*
G01X4015368Y-5333762D01*
G01X4025352Y-5328675D01*
G01X4033275Y-5320752D01*
G01X4038362Y-5310768D01*
G01X4040115Y-5299701D01*
G01X4040115Y-5139701D01*
G01X4038362Y-5128634D01*
G01X4033275Y-5118650D01*
G01X4025352Y-5110727D01*
G01X4015368Y-5105640D01*
G01X4004301Y-5103887D01*
G01X3972815Y-5103887D01*
G01X3972815Y-4706110D01*
G01X3981914Y-4693739D01*
G01X3987922Y-4679606D01*
G01X3990519Y-4664471D01*
G01X3989565Y-4649144D01*
G01X3985111Y-4634447D01*
G01X3977396Y-4621169D01*
G01X3966833Y-4610022D01*
G01X3953990Y-4601603D01*
G01X3939555Y-4596364D01*
G01X3924301Y-4594586D01*
G01X3909048Y-4596364D01*
G01X3894612Y-4601603D01*
G01X3881769Y-4610022D01*
G01X3871207Y-4621169D01*
G01X3863492Y-4634447D01*
G01X3859038Y-4649144D01*
G01X3858083Y-4664471D01*
G01X3860680Y-4679606D01*
G01X3866689Y-4693739D01*
G01X3875787Y-4706110D01*
G01X3875787Y-5103887D01*
G01X3875787Y-5103887D01*
G01X3844301Y-5103887D01*
G01X3833234Y-5105640D01*
G01X3823250Y-5110727D01*
G01X3815327Y-5118650D01*
G01X3810240Y-5128634D01*
G01X3808487Y-5139701D01*
G01X3753518Y-5139701D01*
G01X3742689Y-5129297D01*
G01X3725294Y-5117776D01*
G01X3706114Y-5109564D01*
G01X3706114Y-3947414D01*
G01X4042948Y-3947414D01*
G01X4027311Y-3951377D01*
G01X4013094Y-3958998D01*
G01X4001138Y-3969826D01*
G01X3992150Y-3983220D01*
G01X3986661Y-3998389D01*
G01X3984997Y-4014434D01*
G01X3987257Y-4030405D01*
G01X3993306Y-4045359D01*
G01X4002786Y-4058410D01*
G01X4002786Y-5067300D01*
G01X4004439Y-5079856D01*
G01X4009286Y-5091557D01*
G01X4016995Y-5101605D01*
G01X4224535Y-5309144D01*
G01X4209286Y-5306022D01*
G01X4193729Y-5306540D01*
G01X4178722Y-5310670D01*
G01X4165091Y-5318184D01*
G01X4153587Y-5328669D01*
G01X4144844Y-5341547D01*
G01X3464815Y-5341547D01*
G01X3464815Y-5324864D01*
G01X3482918Y-5314438D01*
G01X3498853Y-5300930D01*
G01X3512102Y-5284778D01*
G01X3522234Y-5266510D01*
G01X3528920Y-5246718D01*
G01X3531941Y-5226047D01*
G01X3531200Y-5205170D01*
G01X3526720Y-5184766D01*
G01X3518648Y-5165498D01*
G01X3507246Y-5147994D01*
G01X3492884Y-5132823D01*
G01X3476031Y-5120478D01*
G01X3457235Y-5111362D01*
G01X3437106Y-5105772D01*
G01X3416301Y-5103887D01*
G01X3395496Y-5105772D01*
G01X3375368Y-5111362D01*
G01X3356571Y-5120478D01*
G01X3339718Y-5132823D01*
G01X3325357Y-5147994D01*
G01X3313955Y-5165498D01*
G01X3305882Y-5184766D01*
G01X3301403Y-5205170D01*
G01X3300661Y-5226047D01*
G01X3303683Y-5246718D01*
G01X3310368Y-5266510D01*
G01X3320500Y-5284778D01*
G01X3333750Y-5300930D01*
G01X3349685Y-5314438D01*
G01X3367787Y-5324864D01*
G01X3367787Y-5390061D01*
G01X3367834Y-5392186D01*
G01X2956815Y-5392186D01*
G01X2956815Y-5324864D01*
G01X2974918Y-5314438D01*
G01X2990853Y-5300930D01*
G01X3004102Y-5284778D01*
G01X3014234Y-5266510D01*
G01X3020920Y-5246718D01*
G01X3023941Y-5226047D01*
G01X3023716Y-5219701D01*
G01X3046487Y-5219701D01*
G01X3048459Y-5240982D01*
G01X3054308Y-5261538D01*
G01X3063834Y-5280669D01*
G01X3076714Y-5297725D01*
G01X3092508Y-5312123D01*
G01X3110679Y-5323374D01*
G01X3130607Y-5331094D01*
G01X3151615Y-5335021D01*
G01X3172987Y-5335021D01*
G01X3193995Y-5331094D01*
G01X3213924Y-5323374D01*
G01X3232095Y-5312123D01*
G01X3247889Y-5297725D01*
G01X3260768Y-5280669D01*
G01X3270294Y-5261538D01*
G01X3276143Y-5240982D01*
G01X3278115Y-5219701D01*
G01X3278115Y-5219701D01*
G01X3276143Y-5198421D01*
G01X3270294Y-5177864D01*
G01X3260768Y-5158733D01*
G01X3247889Y-5141678D01*
G01X3232095Y-5127280D01*
G01X3213924Y-5116029D01*
G01X3193995Y-5108309D01*
G01X3172987Y-5104381D01*
G01X3151615Y-5104381D01*
G01X3130607Y-5108309D01*
G01X3110679Y-5116029D01*
G01X3092508Y-5127280D01*
G01X3076714Y-5141678D01*
G01X3063834Y-5158733D01*
G01X3054308Y-5177864D01*
G01X3048459Y-5198421D01*
G01X3046487Y-5219701D01*
G01X3023716Y-5219701D01*
G01X3023200Y-5205170D01*
G01X3018720Y-5184766D01*
G01X3010648Y-5165498D01*
G01X2999246Y-5147994D01*
G01X2984884Y-5132823D01*
G01X2968031Y-5120478D01*
G01X2949235Y-5111362D01*
G01X2929106Y-5105772D01*
G01X2908301Y-5103887D01*
G01X2887496Y-5105772D01*
G01X2867368Y-5111362D01*
G01X2848571Y-5120478D01*
G01X2831718Y-5132823D01*
G01X2817357Y-5147994D01*
G01X2805955Y-5165498D01*
G01X2797882Y-5184766D01*
G01X2793403Y-5205170D01*
G01X2792661Y-5226047D01*
G01X2795683Y-5246718D01*
G01X2802368Y-5266510D01*
G01X2812500Y-5284778D01*
G01X2825750Y-5300930D01*
G01X2841685Y-5314438D01*
G01X2859787Y-5324864D01*
G01X2859787Y-5440700D01*
G01X2860805Y-5450586D01*
G01X2702815Y-5450586D01*
G01X2702815Y-5324864D01*
G01X2720918Y-5314438D01*
G01X2736853Y-5300930D01*
G01X2750102Y-5284778D01*
G01X2760234Y-5266510D01*
G01X2766920Y-5246718D01*
G01X2769941Y-5226047D01*
G01X2769200Y-5205170D01*
G01X2764720Y-5184766D01*
G01X2756648Y-5165498D01*
G01X2745246Y-5147994D01*
G01X2730884Y-5132823D01*
G01X2714031Y-5120478D01*
G01X2695235Y-5111362D01*
G01X2675106Y-5105772D01*
G01X2654301Y-5103887D01*
G01X2633496Y-5105772D01*
G01X2613368Y-5111362D01*
G01X2594571Y-5120478D01*
G01X2577718Y-5132823D01*
G01X2563357Y-5147994D01*
G01X2551955Y-5165498D01*
G01X2543882Y-5184766D01*
G01X2539403Y-5205170D01*
G01X2538661Y-5226047D01*
G01X2541683Y-5246718D01*
G01X2548368Y-5266510D01*
G01X2558500Y-5284778D01*
G01X2571750Y-5300930D01*
G01X2587685Y-5314438D01*
G01X2605787Y-5324864D01*
G01X2605787Y-5499100D01*
G01X2607440Y-5511656D01*
G01X2612287Y-5523357D01*
G01X2619997Y-5533405D01*
G01X2630044Y-5541114D01*
G01X2641745Y-5545961D01*
G01X2654301Y-5547614D01*
G01X4107690Y-5547614D01*
G01X4120927Y-5557197D01*
G01X4136106Y-5563252D01*
G01X4152304Y-5565411D01*
G01X4168539Y-5563544D01*
G01X4183824Y-5557762D01*
G01X4197231Y-5548418D01*
G01X4207946Y-5536079D01*
G01X4215318Y-5521495D01*
G01X4218900Y-5505550D01*
G01X4218473Y-5489214D01*
G01X4259076Y-5489214D01*
G01X3046982Y-6701308D01*
G01X3053847Y-6681910D01*
G01X3057006Y-6661577D01*
G01X3056353Y-6641011D01*
G01X3051908Y-6620921D01*
G01X3043825Y-6601998D01*
G01X3032383Y-6584896D01*
G01X3017977Y-6570204D01*
G01X3001103Y-6558429D01*
G01X2982342Y-6549977D01*
G01X2962342Y-6545139D01*
G01X2941793Y-6544082D01*
G01X2921403Y-6546842D01*
G01X2901874Y-6553325D01*
G01X2883881Y-6563307D01*
G01X2868043Y-6576443D01*
G01X2854907Y-6592281D01*
G01X2844925Y-6610274D01*
G01X2838442Y-6629803D01*
G01X2835682Y-6650193D01*
G01X2836739Y-6670742D01*
G01X2841577Y-6690742D01*
G01X2850029Y-6709503D01*
G01X2861804Y-6726377D01*
G01X2876496Y-6740783D01*
G01X2893598Y-6752225D01*
G01X2912521Y-6760308D01*
G01X2932611Y-6764753D01*
G01X2953177Y-6765406D01*
G01X2973510Y-6762247D01*
G01X2992908Y-6755382D01*
G01X2950237Y-6798053D01*
G01X2929183Y-6799332D01*
G01X2908752Y-6804577D01*
G01X2889686Y-6813599D01*
G01X2872674Y-6826070D01*
G01X2858334Y-6841539D01*
G01X2847185Y-6859444D01*
G01X2839630Y-6879138D01*
G01X2835944Y-6899906D01*
G01X2836259Y-6920997D01*
G01X2840566Y-6941646D01*
G01X2848707Y-6961105D01*
G01X2860388Y-6978668D01*
G01X2875185Y-6993700D01*
G01X2892562Y-7005656D01*
G01X2911890Y-7014103D01*
G01X2932468Y-7018735D01*
G01X2953551Y-7019383D01*
G01X2974375Y-7016024D01*
G01X2994186Y-7008781D01*
G01X3012265Y-6997915D01*
G01X3027958Y-6983821D01*
G01X3040695Y-6967008D01*
G01X3050016Y-6948086D01*
G01X3055583Y-6927741D01*
G01X3057194Y-6906709D01*
G01X3054791Y-6885753D01*
G01X3048460Y-6865633D01*
G01X3038432Y-6847076D01*
G01X4510498Y-5375010D01*
G01X4514134Y-5386757D01*
G01X4300712Y-5600179D01*
G01X4286585Y-5605799D01*
G01X4274110Y-5614489D01*
G01X4263942Y-5625791D01*
G01X4256615Y-5639112D01*
G01X4252514Y-5653752D01*
G01X4251856Y-5668941D01*
G01X4254674Y-5683881D01*
G01X4260820Y-5697786D01*
G01X4269972Y-5709926D01*
G01X4281648Y-5719663D01*
G01X4295235Y-5726484D01*
G01X4310019Y-5730032D01*
G01X4325222Y-5730120D01*
G01X4340045Y-5726742D01*
G01X4353710Y-5720078D01*
G01X4365498Y-5710477D01*
G01X4374789Y-5698443D01*
G01X4381095Y-5684609D01*
G01X4384085Y-5669703D01*
G01X4383602Y-5654507D01*
G01X4582746Y-5455363D01*
G01X4603176Y-5460835D01*
G01X4624261Y-5462500D01*
G01X4645297Y-5460302D01*
G01X4665582Y-5454316D01*
G01X4684440Y-5444741D01*
G01X4701243Y-5431896D01*
G01X4715429Y-5416209D01*
G01X4726526Y-5398204D01*
G01X4734164Y-5378481D01*
G01X4738087Y-5357698D01*
G01X4738166Y-5336548D01*
G01X4738068Y-5336009D01*
G01X6031478Y-5336009D01*
G01X6031478Y-5357381D01*
G01X6035405Y-5378389D01*
G01X6043125Y-5398318D01*
G01X6054376Y-5416488D01*
G01X6068774Y-5432282D01*
G01X6085829Y-5445162D01*
G01X6104961Y-5454688D01*
G01X6125517Y-5460537D01*
G01X6146797Y-5462509D01*
G01X6146797Y-5462509D01*
G01X6168078Y-5460537D01*
G01X6188634Y-5454688D01*
G01X6207766Y-5445162D01*
G01X6224821Y-5432282D01*
G01X6239219Y-5416488D01*
G01X6250470Y-5398318D01*
G01X6258190Y-5378389D01*
G01X6262117Y-5357381D01*
G01X6262117Y-5336009D01*
G01X6258190Y-5315001D01*
G01X6250470Y-5295072D01*
G01X6239219Y-5276901D01*
G01X6224821Y-5261107D01*
G01X6207766Y-5248228D01*
G01X6188634Y-5238702D01*
G01X6168078Y-5232853D01*
G01X6146797Y-5230881D01*
G01X6125517Y-5232853D01*
G01X6104961Y-5238702D01*
G01X6085829Y-5248228D01*
G01X6068774Y-5261107D01*
G01X6054376Y-5276901D01*
G01X6043125Y-5295072D01*
G01X6035405Y-5315001D01*
G01X6031478Y-5336009D01*
G01X4738068Y-5336009D01*
G01X4734397Y-5315736D01*
G01X4726906Y-5295957D01*
G01X4715942Y-5277870D01*
G01X4701873Y-5262078D01*
G01X4685166Y-5249109D01*
G01X4756205Y-5249109D01*
G01X4768761Y-5247456D01*
G01X4780462Y-5242609D01*
G01X4790510Y-5234899D01*
G01X4943400Y-5082009D01*
G01X6031478Y-5082009D01*
G01X6031478Y-5103381D01*
G01X6035405Y-5124389D01*
G01X6043125Y-5144318D01*
G01X6054376Y-5162488D01*
G01X6068774Y-5178282D01*
G01X6085829Y-5191162D01*
G01X6104961Y-5200688D01*
G01X6125517Y-5206537D01*
G01X6146797Y-5208509D01*
G01X6146797Y-5208509D01*
G01X6168078Y-5206537D01*
G01X6188634Y-5200688D01*
G01X6207766Y-5191162D01*
G01X6224821Y-5178282D01*
G01X6239219Y-5162488D01*
G01X6250470Y-5144318D01*
G01X6258190Y-5124389D01*
G01X6262117Y-5103381D01*
G01X6262117Y-5082009D01*
G01X6258190Y-5061001D01*
G01X6250470Y-5041072D01*
G01X6239219Y-5022901D01*
G01X6224821Y-5007107D01*
G01X6207766Y-4994228D01*
G01X6188634Y-4984702D01*
G01X6168078Y-4978853D01*
G01X6146797Y-4976881D01*
G01X6125517Y-4978853D01*
G01X6104961Y-4984702D01*
G01X6085829Y-4994228D01*
G01X6068774Y-5007107D01*
G01X6054376Y-5022901D01*
G01X6043125Y-5041072D01*
G01X6035405Y-5061001D01*
G01X6031478Y-5082009D01*
G01X4943400Y-5082009D01*
G01X5197400Y-4828009D01*
G01X6031478Y-4828009D01*
G01X6031478Y-4849381D01*
G01X6035405Y-4870389D01*
G01X6043125Y-4890318D01*
G01X6054376Y-4908488D01*
G01X6068774Y-4924282D01*
G01X6085829Y-4937162D01*
G01X6104961Y-4946688D01*
G01X6125517Y-4952537D01*
G01X6146797Y-4954509D01*
G01X6146797Y-4954509D01*
G01X6168078Y-4952537D01*
G01X6188634Y-4946688D01*
G01X6207766Y-4937162D01*
G01X6224821Y-4924282D01*
G01X6239219Y-4908488D01*
G01X6250470Y-4890318D01*
G01X6258190Y-4870389D01*
G01X6262117Y-4849381D01*
G01X6262117Y-4828009D01*
G01X6258190Y-4807001D01*
G01X6250470Y-4787072D01*
G01X6239219Y-4768901D01*
G01X6224821Y-4753107D01*
G01X6207766Y-4740228D01*
G01X6188634Y-4730702D01*
G01X6168078Y-4724853D01*
G01X6146797Y-4722881D01*
G01X6125517Y-4724853D01*
G01X6104961Y-4730702D01*
G01X6085829Y-4740228D01*
G01X6068774Y-4753107D01*
G01X6054376Y-4768901D01*
G01X6043125Y-4787072D01*
G01X6035405Y-4807001D01*
G01X6031478Y-4828009D01*
G01X5197400Y-4828009D01*
G01X5451400Y-4574009D01*
G01X6031478Y-4574009D01*
G01X6031478Y-4595381D01*
G01X6035405Y-4616389D01*
G01X6043125Y-4636318D01*
G01X6054376Y-4654488D01*
G01X6068774Y-4670282D01*
G01X6085829Y-4683162D01*
G01X6104961Y-4692688D01*
G01X6125517Y-4698537D01*
G01X6146797Y-4700509D01*
G01X6146797Y-4700509D01*
G01X6168078Y-4698537D01*
G01X6188634Y-4692688D01*
G01X6207766Y-4683162D01*
G01X6224821Y-4670282D01*
G01X6239219Y-4654488D01*
G01X6250470Y-4636318D01*
G01X6258190Y-4616389D01*
G01X6262117Y-4595381D01*
G01X6262117Y-4574009D01*
G01X6258190Y-4553001D01*
G01X6250470Y-4533072D01*
G01X6239219Y-4514901D01*
G01X6224821Y-4499107D01*
G01X6207766Y-4486228D01*
G01X6188634Y-4476702D01*
G01X6168078Y-4470853D01*
G01X6146797Y-4468881D01*
G01X6125517Y-4470853D01*
G01X6104961Y-4476702D01*
G01X6085829Y-4486228D01*
G01X6068774Y-4499107D01*
G01X6054376Y-4514901D01*
G01X6043125Y-4533072D01*
G01X6035405Y-4553001D01*
G01X6031478Y-4574009D01*
G01X5451400Y-4574009D01*
G01X5821709Y-4203700D01*
G01X5877286Y-4203700D01*
G01X5879064Y-4218953D01*
G01X5884303Y-4233389D01*
G01X5892722Y-4246232D01*
G01X5903869Y-4256794D01*
G01X5917147Y-4264510D01*
G01X5931844Y-4268964D01*
G01X5947171Y-4269918D01*
G01X5962306Y-4267321D01*
G01X5976439Y-4261312D01*
G01X5988810Y-4252214D01*
G01X6061629Y-4252214D01*
G01X6049073Y-4268544D01*
G01X6039608Y-4286841D01*
G01X6033534Y-4306525D01*
G01X6031043Y-4326973D01*
G01X6032215Y-4347539D01*
G01X6037012Y-4367573D01*
G01X6045282Y-4386440D01*
G01X6056764Y-4403543D01*
G01X6071094Y-4418341D01*
G01X6087819Y-4430366D01*
G01X6106410Y-4439239D01*
G01X6126279Y-4444677D01*
G01X6146797Y-4446509D01*
G01X6167316Y-4444677D01*
G01X6187184Y-4439239D01*
G01X6205776Y-4430366D01*
G01X6222501Y-4418341D01*
G01X6236831Y-4403543D01*
G01X6248313Y-4386440D01*
G01X6256583Y-4367573D01*
G01X6261380Y-4347539D01*
G01X6262551Y-4326973D01*
G01X6260061Y-4306525D01*
G01X6253987Y-4286841D01*
G01X6244522Y-4268544D01*
G01X6231965Y-4252214D01*
G01X6896100Y-4252214D01*
G01X6908656Y-4250561D01*
G01X6920357Y-4245714D01*
G01X6930405Y-4238005D01*
G01X6938114Y-4227957D01*
G01X6942961Y-4216256D01*
G01X6944614Y-4203700D01*
G01X6944614Y-3829810D01*
G01X6953712Y-3817439D01*
G01X6959721Y-3803306D01*
G01X6962318Y-3788171D01*
G01X6961364Y-3772844D01*
G01X6956910Y-3758147D01*
G01X6949194Y-3744869D01*
G01X6938632Y-3733722D01*
G01X6925789Y-3725303D01*
G01X6911353Y-3720064D01*
G01X6896100Y-3718286D01*
G01X6880847Y-3720064D01*
G01X6866411Y-3725303D01*
G01X6853568Y-3733722D01*
G01X6843006Y-3744869D01*
G01X6835290Y-3758147D01*
G01X6830836Y-3772844D01*
G01X6829882Y-3788171D01*
G01X6832479Y-3803306D01*
G01X6838488Y-3817439D01*
G01X6847586Y-3829810D01*
G01X6847586Y-4155186D01*
G01X6231956Y-4155186D01*
G01X6231956Y-4155186D01*
G01X6244515Y-4138856D01*
G01X6253983Y-4120560D01*
G01X6260059Y-4100876D01*
G01X6262551Y-4080426D01*
G01X6261381Y-4059859D01*
G01X6256585Y-4039824D01*
G01X6248316Y-4020956D01*
G01X6236834Y-4003851D01*
G01X6222504Y-3989052D01*
G01X6205778Y-3977025D01*
G01X6187186Y-3968152D01*
G01X6167317Y-3962713D01*
G01X6146797Y-3960881D01*
G01X6126278Y-3962713D01*
G01X6106408Y-3968152D01*
G01X6087817Y-3977025D01*
G01X6071091Y-3989052D01*
G01X6056760Y-4003851D01*
G01X6045279Y-4020956D01*
G01X6037010Y-4039824D01*
G01X6032214Y-4059859D01*
G01X6031044Y-4080426D01*
G01X6033536Y-4100876D01*
G01X6039612Y-4120560D01*
G01X6049080Y-4138856D01*
G01X6061639Y-4155186D01*
G01X5988810Y-4155186D01*
G01X5976439Y-4146088D01*
G01X5962306Y-4140079D01*
G01X5947171Y-4137482D01*
G01X5931844Y-4138436D01*
G01X5917147Y-4142890D01*
G01X5903869Y-4150606D01*
G01X5892722Y-4161168D01*
G01X5884303Y-4174011D01*
G01X5879064Y-4188447D01*
G01X5877286Y-4203700D01*
G01X5821709Y-4203700D01*
G01X6066805Y-3958605D01*
G01X6074514Y-3948557D01*
G01X6079361Y-3936856D01*
G01X6081014Y-3924300D01*
G01X6081014Y-3918012D01*
G01X6098684Y-3928042D01*
G01X6117834Y-3934829D01*
G01X6137876Y-3938165D01*
G01X6158193Y-3937947D01*
G01X6178159Y-3934182D01*
G01X6197160Y-3926985D01*
G01X6214610Y-3916579D01*
G01X6229974Y-3903284D01*
G01X6242777Y-3887508D01*
G01X6252627Y-3869737D01*
G01X6259219Y-3850518D01*
G01X6262352Y-3830444D01*
G01X6261928Y-3810130D01*
G01X6257960Y-3790204D01*
G01X6250571Y-3771277D01*
G01X6239989Y-3753933D01*
G01X6226538Y-3738705D01*
G01X6210633Y-3726062D01*
G01X6783031Y-3153664D01*
G01X6970290Y-3153664D01*
G01X6982199Y-3162496D01*
G01X6995772Y-3168462D01*
G01X7010332Y-3171262D01*
G01X7025150Y-3170758D01*
G01X7039486Y-3166974D01*
G01X7039486Y-5779900D01*
G01X7040865Y-5797423D01*
G01X7044968Y-5814514D01*
G01X7051695Y-5830753D01*
G01X7060879Y-5845740D01*
G01X7072294Y-5859106D01*
G01X7144209Y-5931020D01*
G01X7130020Y-5928300D01*
G01X7115578Y-5928716D01*
G01X7101570Y-5932251D01*
G01X7088659Y-5938735D01*
G01X7077459Y-5947861D01*
G01X7068502Y-5959196D01*
G01X7062211Y-5972202D01*
G01X7058887Y-5986262D01*
G01X7058687Y-6000708D01*
G01X7061619Y-6014855D01*
G01X7067546Y-6028031D01*
G01X7076186Y-6039610D01*
G01X7076186Y-6568181D01*
G01X6251960Y-6568181D01*
G01X6241534Y-6550078D01*
G01X6228026Y-6534143D01*
G01X6211875Y-6520894D01*
G01X6193606Y-6510762D01*
G01X6173814Y-6504076D01*
G01X6153143Y-6501055D01*
G01X6132266Y-6501796D01*
G01X6111862Y-6506276D01*
G01X6092594Y-6514348D01*
G01X6075090Y-6525751D01*
G01X6059919Y-6540112D01*
G01X6047575Y-6556965D01*
G01X6038459Y-6575761D01*
G01X6032868Y-6595890D01*
G01X6030984Y-6616695D01*
G01X6032868Y-6637500D01*
G01X6038459Y-6657628D01*
G01X6047575Y-6676425D01*
G01X6059919Y-6693278D01*
G01X6075090Y-6707639D01*
G01X6092594Y-6719042D01*
G01X6111862Y-6727114D01*
G01X6132266Y-6731594D01*
G01X6153143Y-6732335D01*
G01X6173814Y-6729314D01*
G01X6193606Y-6722628D01*
G01X6211875Y-6712496D01*
G01X6228026Y-6699247D01*
G01X6241534Y-6683312D01*
G01X6251960Y-6665209D01*
G01X7124700Y-6665209D01*
G01X7137256Y-6663556D01*
G01X7148957Y-6658709D01*
G01X7159005Y-6650999D01*
G01X7166714Y-6640952D01*
G01X7171561Y-6629251D01*
G01X7173214Y-6616695D01*
G01X7173214Y-6039610D01*
G01X7181564Y-6028518D01*
G01X7187422Y-6015930D01*
G01X7190530Y-6002398D01*
G01X7190752Y-5988516D01*
G01X7188080Y-5974891D01*
G01X7549988Y-6336800D01*
G01X7555920Y-6358470D01*
G01X7565344Y-6378866D01*
G01X7578001Y-6397430D01*
G01X7593545Y-6413652D01*
G01X7611551Y-6427090D01*
G01X7631526Y-6437376D01*
G01X7652924Y-6444227D01*
G01X7675158Y-6447457D01*
G01X7697621Y-6446978D01*
G01X7719697Y-6442801D01*
G01X7740782Y-6435043D01*
G01X7760300Y-6423914D01*
G01X8199047Y-6423914D01*
G01X8199047Y-7457186D01*
G01X7737276Y-7457186D01*
G01X7716013Y-7450035D01*
G01X7693864Y-7446482D01*
G01X7671432Y-7446623D01*
G01X7649329Y-7450455D01*
G01X7628159Y-7457873D01*
G01X7608498Y-7468674D01*
G01X7590883Y-7482565D01*
G01X7575795Y-7499165D01*
G01X7563646Y-7518022D01*
G01X7554766Y-7538623D01*
G01X7549398Y-7560403D01*
G01X7547689Y-7582771D01*
G01X7549685Y-7605114D01*
G01X7555331Y-7626824D01*
G01X7564475Y-7647309D01*
G01X7576865Y-7666009D01*
G01X7592164Y-7682415D01*
G01X7609956Y-7696078D01*
G01X7629753Y-7706626D01*
G01X7651017Y-7713772D01*
G01X7673167Y-7717320D01*
G01X7695599Y-7717174D01*
G01X7717701Y-7713337D01*
G01X7738870Y-7705914D01*
G01X7758528Y-7695108D01*
G01X7776140Y-7681214D01*
G01X8311061Y-7681214D01*
G01X8330512Y-7679512D01*
G01X8349372Y-7674459D01*
G01X8367068Y-7666207D01*
G01X8383062Y-7655008D01*
G01X8396868Y-7641201D01*
G01X8408068Y-7625207D01*
G01X8416319Y-7607511D01*
G01X8421373Y-7588651D01*
G01X8423075Y-7569200D01*
G01X8423075Y-6311900D01*
G01X8421373Y-6292449D01*
G01X8416319Y-6273589D01*
G01X8408068Y-6255893D01*
G01X8396868Y-6239899D01*
G01X8383062Y-6226092D01*
G01X8367068Y-6214893D01*
G01X8349372Y-6206641D01*
G01X8330512Y-6201588D01*
G01X8311061Y-6199886D01*
G01X7760300Y-6199886D01*
G01X7744054Y-6190333D01*
G01X7726643Y-6183121D01*
G01X7708400Y-6178388D01*
G01X7263514Y-5733502D01*
G01X7263514Y-5538685D01*
G01X7548150Y-5538685D01*
G01X7548150Y-5561115D01*
G01X7551842Y-5583240D01*
G01X7559125Y-5604456D01*
G01X7569801Y-5624183D01*
G01X7583579Y-5641884D01*
G01X7600081Y-5657076D01*
G01X7618860Y-5669345D01*
G01X7639401Y-5678355D01*
G01X7661146Y-5683861D01*
G01X7683500Y-5685714D01*
G01X7683500Y-5685714D01*
G01X7705854Y-5683861D01*
G01X7727599Y-5678355D01*
G01X7748140Y-5669345D01*
G01X7766919Y-5657076D01*
G01X7783421Y-5641884D01*
G01X7797199Y-5624183D01*
G01X7807875Y-5604456D01*
G01X7815158Y-5583240D01*
G01X7818850Y-5561115D01*
G01X7818850Y-5538685D01*
G01X7815158Y-5516560D01*
G01X7807875Y-5495344D01*
G01X7797199Y-5475617D01*
G01X7783421Y-5457916D01*
G01X7766919Y-5442724D01*
G01X7748140Y-5430455D01*
G01X7727599Y-5421445D01*
G01X7705854Y-5415939D01*
G01X7683500Y-5414086D01*
G01X7661146Y-5415939D01*
G01X7639401Y-5421445D01*
G01X7618860Y-5430455D01*
G01X7600081Y-5442724D01*
G01X7583579Y-5457916D01*
G01X7569801Y-5475617D01*
G01X7559125Y-5495344D01*
G01X7551842Y-5516560D01*
G01X7548150Y-5538685D01*
G01X7263514Y-5538685D01*
G01X7263514Y-5041900D01*
G01X7520686Y-5041900D01*
G01X7522691Y-5067370D01*
G01X7528655Y-5092212D01*
G01X7538432Y-5115816D01*
G01X7551781Y-5137600D01*
G01X7568373Y-5157027D01*
G01X7587800Y-5173619D01*
G01X7609584Y-5186968D01*
G01X7633188Y-5196745D01*
G01X7658030Y-5202709D01*
G01X7683500Y-5204714D01*
G01X8026400Y-5204714D01*
G01X8051870Y-5202709D01*
G01X8076712Y-5196745D01*
G01X8100316Y-5186968D01*
G01X8122100Y-5173619D01*
G01X8141527Y-5157027D01*
G01X8158119Y-5137600D01*
G01X8171468Y-5115816D01*
G01X8181245Y-5092212D01*
G01X8187209Y-5067370D01*
G01X8189214Y-5041900D01*
G01X8189214Y-4114800D01*
G01X8187209Y-4089330D01*
G01X8181245Y-4064488D01*
G01X8171468Y-4040884D01*
G01X8158119Y-4019100D01*
G01X8141527Y-3999673D01*
G01X7798627Y-3656773D01*
G01X7779200Y-3640181D01*
G01X7757416Y-3626832D01*
G01X7733812Y-3617055D01*
G01X7708970Y-3611091D01*
G01X7683500Y-3609086D01*
G01X7658030Y-3611091D01*
G01X7633188Y-3617055D01*
G01X7609584Y-3626832D01*
G01X7587800Y-3640181D01*
G01X7568373Y-3656773D01*
G01X7551781Y-3676200D01*
G01X7538432Y-3697984D01*
G01X7528655Y-3721588D01*
G01X7522691Y-3746430D01*
G01X7520686Y-3771900D01*
G01X7522691Y-3797370D01*
G01X7528655Y-3822212D01*
G01X7538432Y-3845816D01*
G01X7551781Y-3867600D01*
G01X7568373Y-3887027D01*
G01X7863586Y-4182240D01*
G01X7863586Y-4879086D01*
G01X7683500Y-4879086D01*
G01X7683500Y-4879086D01*
G01X7658030Y-4881091D01*
G01X7633188Y-4887055D01*
G01X7609584Y-4896832D01*
G01X7587800Y-4910181D01*
G01X7568373Y-4926773D01*
G01X7551781Y-4946200D01*
G01X7538432Y-4967984D01*
G01X7528655Y-4991588D01*
G01X7522691Y-5016430D01*
G01X7520686Y-5041900D01*
G01X7263514Y-5041900D01*
G01X7263514Y-4268685D01*
G01X7548150Y-4268685D01*
G01X7548150Y-4291115D01*
G01X7551842Y-4313240D01*
G01X7559125Y-4334456D01*
G01X7569801Y-4354183D01*
G01X7583579Y-4371884D01*
G01X7600081Y-4387076D01*
G01X7618860Y-4399345D01*
G01X7639401Y-4408355D01*
G01X7661146Y-4413861D01*
G01X7683500Y-4415714D01*
G01X7683500Y-4415714D01*
G01X7705854Y-4413861D01*
G01X7727599Y-4408355D01*
G01X7748140Y-4399345D01*
G01X7766919Y-4387076D01*
G01X7783421Y-4371884D01*
G01X7797199Y-4354183D01*
G01X7807875Y-4334456D01*
G01X7815158Y-4313240D01*
G01X7818850Y-4291115D01*
G01X7818850Y-4268685D01*
G01X7815158Y-4246560D01*
G01X7807875Y-4225344D01*
G01X7797199Y-4205617D01*
G01X7783421Y-4187916D01*
G01X7766919Y-4172724D01*
G01X7748140Y-4160455D01*
G01X7727599Y-4151445D01*
G01X7705854Y-4145939D01*
G01X7683500Y-4144086D01*
G01X7661146Y-4145939D01*
G01X7639401Y-4151445D01*
G01X7618860Y-4160455D01*
G01X7600081Y-4172724D01*
G01X7583579Y-4187916D01*
G01X7569801Y-4205617D01*
G01X7559125Y-4225344D01*
G01X7551842Y-4246560D01*
G01X7548150Y-4268685D01*
G01X7263514Y-4268685D01*
G01X7263514Y-3272700D01*
G01X8197686Y-3272700D01*
G01X8199439Y-3283767D01*
G01X8204526Y-3293751D01*
G01X8212449Y-3301674D01*
G01X8222433Y-3306761D01*
G01X8233500Y-3308514D01*
G01X8403500Y-3308514D01*
G01X8414567Y-3306761D01*
G01X8424551Y-3301674D01*
G01X8432474Y-3293751D01*
G01X8437561Y-3283767D01*
G01X8439314Y-3272700D01*
G01X8439314Y-3102700D01*
G01X8439314Y-3102700D01*
G01X8437561Y-3091633D01*
G01X8432474Y-3081649D01*
G01X8424551Y-3073726D01*
G01X8414567Y-3068639D01*
G01X8403500Y-3066886D01*
G01X8233500Y-3066886D01*
G01X8222433Y-3068639D01*
G01X8212449Y-3073726D01*
G01X8204526Y-3081649D01*
G01X8199439Y-3091633D01*
G01X8197686Y-3102700D01*
G01X8197686Y-3272700D01*
G01X7263514Y-3272700D01*
G01X7263514Y-3213354D01*
G01X7412900Y-3213354D01*
G01X7423967Y-3211601D01*
G01X7433951Y-3206514D01*
G01X7441874Y-3198591D01*
G01X7446961Y-3188607D01*
G01X7448714Y-3177540D01*
G01X7448714Y-3020060D01*
G01X7446961Y-3008993D01*
G01X7441874Y-2999009D01*
G01X7433951Y-2991086D01*
G01X7423967Y-2985999D01*
G01X7412900Y-2984246D01*
G01X7263514Y-2984246D01*
G01X7263514Y-2947027D01*
G01X7282603Y-2956801D01*
G01X7303118Y-2963045D01*
G01X7324415Y-2965564D01*
G01X7345821Y-2964277D01*
G01X7366663Y-2959226D01*
G01X7386284Y-2950570D01*
G01X7404064Y-2938582D01*
G01X7409089Y-2933700D01*
G01X8197686Y-2933700D01*
G01X8199522Y-2954679D01*
G01X8204972Y-2975021D01*
G01X8213872Y-2994107D01*
G01X8225951Y-3011358D01*
G01X8240842Y-3026249D01*
G01X8258093Y-3038328D01*
G01X8277179Y-3047228D01*
G01X8297521Y-3052678D01*
G01X8318500Y-3054514D01*
G01X8318500Y-3054514D01*
G01X8339479Y-3052678D01*
G01X8359821Y-3047228D01*
G01X8378907Y-3038328D01*
G01X8396158Y-3026249D01*
G01X8411049Y-3011358D01*
G01X8423128Y-2994107D01*
G01X8432028Y-2975021D01*
G01X8437478Y-2954679D01*
G01X8439314Y-2933700D01*
G01X8437478Y-2912721D01*
G01X8432028Y-2892379D01*
G01X8423128Y-2873293D01*
G01X8411049Y-2856042D01*
G01X8396158Y-2841151D01*
G01X8378907Y-2829072D01*
G01X8359821Y-2820172D01*
G01X8339479Y-2814722D01*
G01X8318500Y-2812886D01*
G01X8297521Y-2814722D01*
G01X8277179Y-2820172D01*
G01X8258093Y-2829072D01*
G01X8240842Y-2841151D01*
G01X8225951Y-2856042D01*
G01X8213872Y-2873293D01*
G01X8204972Y-2892379D01*
G01X8199522Y-2912721D01*
G01X8197686Y-2933700D01*
G01X7409089Y-2933700D01*
G01X7419445Y-2923638D01*
G01X7431942Y-2906210D01*
G01X7441161Y-2886848D01*
G01X7446811Y-2866160D01*
G01X7448714Y-2844800D01*
G01X7446811Y-2823440D01*
G01X7441161Y-2802752D01*
G01X7431942Y-2783390D01*
G01X7419445Y-2765962D01*
G01X7404064Y-2751018D01*
G01X7386284Y-2739030D01*
G01X7366663Y-2730374D01*
G01X7345821Y-2725323D01*
G01X7324415Y-2724036D01*
G01X7303118Y-2726555D01*
G01X7282603Y-2732799D01*
G01X7263514Y-2742573D01*
G01X7263514Y-2693027D01*
G01X7282581Y-2702792D01*
G01X7303072Y-2709035D01*
G01X7324344Y-2711561D01*
G01X7345728Y-2710291D01*
G01X7366551Y-2705264D01*
G01X7386159Y-2696639D01*
G01X7403936Y-2684686D01*
G01X7409083Y-2679700D01*
G01X8197686Y-2679700D01*
G01X8199522Y-2700679D01*
G01X8204972Y-2721021D01*
G01X8213872Y-2740107D01*
G01X8225951Y-2757358D01*
G01X8240842Y-2772249D01*
G01X8258093Y-2784328D01*
G01X8277179Y-2793228D01*
G01X8297521Y-2798678D01*
G01X8318500Y-2800514D01*
G01X8318500Y-2800514D01*
G01X8339479Y-2798678D01*
G01X8359821Y-2793228D01*
G01X8378907Y-2784328D01*
G01X8396158Y-2772249D01*
G01X8411049Y-2757358D01*
G01X8423128Y-2740107D01*
G01X8432028Y-2721021D01*
G01X8437478Y-2700679D01*
G01X8439314Y-2679700D01*
G01X8437478Y-2658721D01*
G01X8432028Y-2638379D01*
G01X8423128Y-2619293D01*
G01X8411049Y-2602042D01*
G01X8396158Y-2587151D01*
G01X8378907Y-2575072D01*
G01X8359821Y-2566172D01*
G01X8339479Y-2560722D01*
G01X8318500Y-2558886D01*
G01X8297521Y-2560722D01*
G01X8277179Y-2566172D01*
G01X8258093Y-2575072D01*
G01X8240842Y-2587151D01*
G01X8225951Y-2602042D01*
G01X8213872Y-2619293D01*
G01X8204972Y-2638379D01*
G01X8199522Y-2658721D01*
G01X8197686Y-2679700D01*
G01X7409083Y-2679700D01*
G01X7419322Y-2669781D01*
G01X7431834Y-2652393D01*
G01X7441078Y-2633069D01*
G01X7446764Y-2612416D01*
G01X7448713Y-2591083D01*
G01X7446864Y-2569742D01*
G01X7441275Y-2549062D01*
G01X7432122Y-2529695D01*
G01X7419692Y-2512249D01*
G01X7404376Y-2497272D01*
G01X7386655Y-2485236D01*
G01X7367088Y-2476518D01*
G01X7346288Y-2471394D01*
G01X7324911Y-2470023D01*
G01X7303627Y-2472450D01*
G01X7283107Y-2478597D01*
G01X7263994Y-2488272D01*
G01X7246891Y-2501170D01*
G01X7232335Y-2516886D01*
G01X6509510Y-2516886D01*
G01X6498266Y-2508445D01*
G01X6485496Y-2502565D01*
G01X6471773Y-2499508D01*
G01X6457714Y-2499414D01*
G01X6443951Y-2502285D01*
G01X6431103Y-2507993D01*
G01X6419747Y-2516282D01*
G01X6410393Y-2526778D01*
G01X6403463Y-2539011D01*
G01X6399267Y-2552429D01*
G01X6397994Y-2566431D01*
G01X6399701Y-2580386D01*
G01X2146301Y-2580386D01*
G01X2126850Y-2582088D01*
G01X2107990Y-2587141D01*
G01X2090294Y-2595393D01*
G01X2074300Y-2606592D01*
G01X2060494Y-2620399D01*
G01X2049294Y-2636393D01*
G01X2041043Y-2654089D01*
G01X2035989Y-2672949D01*
G01X2034287Y-2692400D01*
G01X2034287Y-3666278D01*
G01X2030805Y-3687127D01*
G01X2031171Y-3708261D01*
G01X2035371Y-3728977D01*
G01X2043266Y-3748585D01*
G01X2054594Y-3766431D01*
G01X2068977Y-3781920D01*
G01X2085935Y-3794538D01*
G01X2104904Y-3803864D01*
G01X2125252Y-3809586D01*
G01X2146301Y-3811515D01*
G01X2167351Y-3809586D01*
G01X2187699Y-3803864D01*
G01X2206668Y-3794538D01*
G01X2223626Y-3781920D01*
G01X2238008Y-3766431D01*
G01X2249336Y-3748585D01*
G01X2257232Y-3728977D01*
G01X2261432Y-3708261D01*
G01X2261797Y-3687127D01*
G01X2258315Y-3666278D01*
G01X2258315Y-3558009D01*
G01X4507478Y-3558009D01*
G01X4507478Y-3579381D01*
G01X4511405Y-3600389D01*
G01X4519125Y-3620318D01*
G01X4530376Y-3638488D01*
G01X4544774Y-3654282D01*
G01X4561829Y-3667162D01*
G01X4580961Y-3676688D01*
G01X4601517Y-3682537D01*
G01X4622797Y-3684509D01*
G01X4622797Y-3684509D01*
G01X4644078Y-3682537D01*
G01X4664634Y-3676688D01*
G01X4683766Y-3667162D01*
G01X4700821Y-3654282D01*
G01X4715219Y-3638488D01*
G01X4726470Y-3620318D01*
G01X4734190Y-3600389D01*
G01X4738117Y-3579381D01*
G01X4738117Y-3558009D01*
G01X4734190Y-3537001D01*
G01X4726470Y-3517072D01*
G01X4715219Y-3498901D01*
G01X4700821Y-3483107D01*
G01X4683766Y-3470228D01*
G01X4664634Y-3460702D01*
G01X4644078Y-3454853D01*
G01X4622797Y-3452881D01*
G01X4601517Y-3454853D01*
G01X4580961Y-3460702D01*
G01X4561829Y-3470228D01*
G01X4544774Y-3483107D01*
G01X4530376Y-3498901D01*
G01X4519125Y-3517072D01*
G01X4511405Y-3537001D01*
G01X4507478Y-3558009D01*
G01X2258315Y-3558009D01*
G01X2258315Y-3304009D01*
G01X4507478Y-3304009D01*
G01X4507478Y-3325381D01*
G01X4511405Y-3346389D01*
G01X4519125Y-3366318D01*
G01X4530376Y-3384488D01*
G01X4544774Y-3400282D01*
G01X4561829Y-3413162D01*
G01X4580961Y-3422688D01*
G01X4601517Y-3428537D01*
G01X4622797Y-3430509D01*
G01X4622797Y-3430509D01*
G01X4644078Y-3428537D01*
G01X4664634Y-3422688D01*
G01X4683766Y-3413162D01*
G01X4700821Y-3400282D01*
G01X4715219Y-3384488D01*
G01X4726470Y-3366318D01*
G01X4734190Y-3346389D01*
G01X4738117Y-3325381D01*
G01X4738117Y-3304009D01*
G01X4734190Y-3283001D01*
G01X4726470Y-3263072D01*
G01X4715219Y-3244901D01*
G01X4700821Y-3229107D01*
G01X4683766Y-3216228D01*
G01X4664634Y-3206702D01*
G01X4644078Y-3200853D01*
G01X4622797Y-3198881D01*
G01X4601517Y-3200853D01*
G01X4580961Y-3206702D01*
G01X4561829Y-3216228D01*
G01X4544774Y-3229107D01*
G01X4530376Y-3244901D01*
G01X4519125Y-3263072D01*
G01X4511405Y-3283001D01*
G01X4507478Y-3304009D01*
G01X2258315Y-3304009D01*
G01X2258315Y-3050009D01*
G01X4507478Y-3050009D01*
G01X4507478Y-3071381D01*
G01X4511405Y-3092389D01*
G01X4519125Y-3112318D01*
G01X4530376Y-3130488D01*
G01X4544774Y-3146282D01*
G01X4561829Y-3159162D01*
G01X4580961Y-3168688D01*
G01X4601517Y-3174537D01*
G01X4622797Y-3176509D01*
G01X4622797Y-3176509D01*
G01X4644078Y-3174537D01*
G01X4664634Y-3168688D01*
G01X4683766Y-3159162D01*
G01X4700821Y-3146282D01*
G01X4715219Y-3130488D01*
G01X4726470Y-3112318D01*
G01X4734190Y-3092389D01*
G01X4738117Y-3071381D01*
G01X4738117Y-3050009D01*
G01X4734190Y-3029001D01*
G01X4726470Y-3009072D01*
G01X4715219Y-2990901D01*
G01X4700821Y-2975107D01*
G01X4683766Y-2962228D01*
G01X4664634Y-2952702D01*
G01X4644078Y-2946853D01*
G01X4622797Y-2944881D01*
G01X4601517Y-2946853D01*
G01X4580961Y-2952702D01*
G01X4561829Y-2962228D01*
G01X4544774Y-2975107D01*
G01X4530376Y-2990901D01*
G01X4519125Y-3009072D01*
G01X4511405Y-3029001D01*
G01X4507478Y-3050009D01*
G01X2258315Y-3050009D01*
G01X2258315Y-2804414D01*
G01X5408558Y-2804414D01*
G01X5397779Y-2814544D01*
G01X5389514Y-2826812D01*
G01X5384174Y-2840607D01*
G01X5382024Y-2855242D01*
G01X5383173Y-2869989D01*
G01X5387561Y-2884115D01*
G01X5394972Y-2896917D01*
G01X5405037Y-2907758D01*
G01X5417253Y-2916098D01*
G01X5431015Y-2921522D01*
G01X6038131Y-3528638D01*
G01X6032934Y-3547532D01*
G01X6030996Y-3567033D01*
G01X6032373Y-3586580D01*
G01X6037026Y-3605616D01*
G01X6044823Y-3623595D01*
G01X6055538Y-3640002D01*
G01X6068867Y-3654367D01*
G01X6084427Y-3666279D01*
G01X6074194Y-3674095D01*
G01X5998195Y-3750094D01*
G01X5990486Y-3760142D01*
G01X5985639Y-3771842D01*
G01X5983986Y-3784399D01*
G01X5983986Y-3904205D01*
G01X4736110Y-5152081D01*
G01X4722227Y-5152081D01*
G01X4731316Y-5133149D01*
G01X4736838Y-5112886D01*
G01X4738609Y-5091960D01*
G01X4736572Y-5071058D01*
G01X4730794Y-5050867D01*
G01X4721465Y-5032052D01*
G01X4708891Y-5015230D01*
G01X4693486Y-5000956D01*
G01X4675757Y-4989699D01*
G01X4656286Y-4981829D01*
G01X4635715Y-4977604D01*
G01X4614718Y-4977163D01*
G01X4593987Y-4980522D01*
G01X4574203Y-4987569D01*
G01X4556018Y-4998073D01*
G01X4540028Y-5011688D01*
G01X4526760Y-5027967D01*
G01X4516650Y-5046375D01*
G01X4510030Y-5066306D01*
G01X4507119Y-5087104D01*
G01X4508011Y-5108086D01*
G01X4512678Y-5128562D01*
G01X4520966Y-5147859D01*
G01X4532602Y-5165342D01*
G01X4386724Y-5311220D01*
G01X4376553Y-5298793D01*
G01X4363693Y-5289176D01*
G01X4348898Y-5282932D01*
G01X4333036Y-5280427D01*
G01X4099814Y-5047205D01*
G01X4099814Y-5022401D01*
G01X4378949Y-5022401D01*
G01X4382078Y-5037436D01*
G01X4388580Y-5051348D01*
G01X4398109Y-5063391D01*
G01X4398109Y-5063391D01*
G01X4410152Y-5072920D01*
G01X4424064Y-5079422D01*
G01X4439099Y-5082551D01*
G01X4454450Y-5082137D01*
G01X4469294Y-5078204D01*
G01X4482836Y-5070961D01*
G01X4494348Y-5060798D01*
G01X4503214Y-5048259D01*
G01X4508959Y-5034018D01*
G01X4511273Y-5018836D01*
G01X4582746Y-4947363D01*
G01X4602919Y-4952790D01*
G01X4623739Y-4954505D01*
G01X4644528Y-4952452D01*
G01X4664611Y-4946697D01*
G01X4683332Y-4937429D01*
G01X4700084Y-4924948D01*
G01X4714322Y-4909661D01*
G01X4725581Y-4892064D01*
G01X4733497Y-4872732D01*
G01X4737810Y-4852291D01*
G01X4738382Y-4831409D01*
G01X4735193Y-4810763D01*
G01X4728346Y-4791027D01*
G01X4718066Y-4772841D01*
G01X4704686Y-4756798D01*
G01X4688642Y-4743420D01*
G01X4670455Y-4733141D01*
G01X4650717Y-4726297D01*
G01X4630072Y-4723110D01*
G01X4609189Y-4723683D01*
G01X4588749Y-4727999D01*
G01X4569417Y-4735916D01*
G01X4551822Y-4747178D01*
G01X4536537Y-4761417D01*
G01X4524057Y-4778170D01*
G01X4514791Y-4796893D01*
G01X4509038Y-4816976D01*
G01X4506987Y-4837765D01*
G01X4508704Y-4858585D01*
G01X4514134Y-4878757D01*
G01X4442664Y-4950227D01*
G01X4427482Y-4952541D01*
G01X4413241Y-4958286D01*
G01X4400702Y-4967152D01*
G01X4390539Y-4978664D01*
G01X4383296Y-4992206D01*
G01X4379363Y-5007050D01*
G01X4378949Y-5022401D01*
G01X4099814Y-5022401D01*
G01X4099814Y-4058410D01*
G01X4109294Y-4045359D01*
G01X4115343Y-4030405D01*
G01X4117603Y-4014434D01*
G01X4115939Y-3998389D01*
G01X4110450Y-3983220D01*
G01X4101462Y-3969826D01*
G01X4089506Y-3958998D01*
G01X4075289Y-3951377D01*
G01X4059652Y-3947414D01*
G01X4254544Y-3947414D01*
G01X4294886Y-3987756D01*
G01X4294886Y-4584695D01*
G01X4296539Y-4597251D01*
G01X4301386Y-4608952D01*
G01X4309095Y-4618999D01*
G01X4319143Y-4626709D01*
G01X4330844Y-4631556D01*
G01X4343400Y-4633209D01*
G01X4517635Y-4633209D01*
G01X4528061Y-4651312D01*
G01X4541569Y-4667247D01*
G01X4557720Y-4680496D01*
G01X4575989Y-4690628D01*
G01X4595781Y-4697314D01*
G01X4616452Y-4700335D01*
G01X4637329Y-4699594D01*
G01X4657733Y-4695114D01*
G01X4677001Y-4687042D01*
G01X4694505Y-4675639D01*
G01X4709676Y-4661278D01*
G01X4722020Y-4644425D01*
G01X4731136Y-4625628D01*
G01X4736727Y-4605500D01*
G01X4738611Y-4584695D01*
G01X4736727Y-4563890D01*
G01X4731136Y-4543761D01*
G01X4722020Y-4524965D01*
G01X4709676Y-4508112D01*
G01X4694505Y-4493751D01*
G01X4677001Y-4482348D01*
G01X4657733Y-4474276D01*
G01X4637329Y-4469796D01*
G01X4616452Y-4469055D01*
G01X4595781Y-4472076D01*
G01X4575989Y-4478762D01*
G01X4557720Y-4488894D01*
G01X4541569Y-4502143D01*
G01X4528061Y-4518078D01*
G01X4517635Y-4536181D01*
G01X4391914Y-4536181D01*
G01X4391914Y-4395299D01*
G01X4408001Y-4397005D01*
G01X4424022Y-4394765D01*
G01X4439025Y-4388713D01*
G01X4452115Y-4379209D01*
G01X4517635Y-4379209D01*
G01X4528061Y-4397312D01*
G01X4541569Y-4413247D01*
G01X4557720Y-4426496D01*
G01X4575989Y-4436628D01*
G01X4595781Y-4443314D01*
G01X4616452Y-4446335D01*
G01X4637329Y-4445594D01*
G01X4657733Y-4441114D01*
G01X4677001Y-4433042D01*
G01X4694505Y-4421639D01*
G01X4709676Y-4407278D01*
G01X4722020Y-4390425D01*
G01X4731136Y-4371628D01*
G01X4736727Y-4351500D01*
G01X4738611Y-4330695D01*
G01X4736727Y-4309890D01*
G01X4731136Y-4289761D01*
G01X4722020Y-4270965D01*
G01X4709676Y-4254112D01*
G01X4694505Y-4239751D01*
G01X4677001Y-4228348D01*
G01X4657733Y-4220276D01*
G01X4637329Y-4215796D01*
G01X4616452Y-4215055D01*
G01X4595781Y-4218076D01*
G01X4575989Y-4224762D01*
G01X4557720Y-4234894D01*
G01X4541569Y-4248143D01*
G01X4528061Y-4264078D01*
G01X4517635Y-4282181D01*
G01X4452105Y-4282181D01*
G01X4439015Y-4272681D01*
G01X4424015Y-4266633D01*
G01X4407997Y-4264395D01*
G01X4391914Y-4266101D01*
G01X4391914Y-3967661D01*
G01X4390261Y-3955104D01*
G01X4385414Y-3943404D01*
G01X4377705Y-3933356D01*
G01X4315563Y-3871214D01*
G01X4434586Y-3871214D01*
G01X4434586Y-4076695D01*
G01X4436239Y-4089251D01*
G01X4441086Y-4100952D01*
G01X4448795Y-4110999D01*
G01X4458843Y-4118709D01*
G01X4470544Y-4123556D01*
G01X4483100Y-4125209D01*
G01X4517635Y-4125209D01*
G01X4528369Y-4143748D01*
G01X4542334Y-4159992D01*
G01X4559052Y-4173387D01*
G01X4577951Y-4183474D01*
G01X4598385Y-4189907D01*
G01X4619654Y-4192466D01*
G01X4641030Y-4191065D01*
G01X4661783Y-4185750D01*
G01X4681201Y-4176704D01*
G01X4698622Y-4164236D01*
G01X4713448Y-4148773D01*
G01X4725173Y-4130844D01*
G01X4733394Y-4111063D01*
G01X4737832Y-4090105D01*
G01X4738334Y-4068689D01*
G01X4734883Y-4047546D01*
G01X4727597Y-4027401D01*
G01X4716725Y-4008943D01*
G01X4702640Y-3992802D01*
G01X4685823Y-3979532D01*
G01X4666849Y-3969586D01*
G01X4646368Y-3963305D01*
G01X4625081Y-3960904D01*
G01X4603716Y-3962464D01*
G01X4583003Y-3967933D01*
G01X4563652Y-3977122D01*
G01X4546325Y-3989719D01*
G01X4531614Y-4005292D01*
G01X4531614Y-3894098D01*
G01X4545540Y-3908974D01*
G01X4561858Y-3921180D01*
G01X4580063Y-3930336D01*
G01X4599590Y-3936160D01*
G01X4619836Y-3938471D01*
G01X4640174Y-3937198D01*
G01X4659974Y-3932380D01*
G01X4678623Y-3924166D01*
G01X4695543Y-3912811D01*
G01X4710212Y-3898666D01*
G01X4722174Y-3882169D01*
G01X4731060Y-3863831D01*
G01X4736594Y-3844219D01*
G01X4738605Y-3823941D01*
G01X4737030Y-3803624D01*
G01X4731920Y-3783898D01*
G01X4723431Y-3765373D01*
G01X4711826Y-3748622D01*
G01X4697466Y-3734165D01*
G01X4680793Y-3722449D01*
G01X4662325Y-3713835D01*
G01X4642634Y-3708593D01*
G01X4622328Y-3706882D01*
G01X4602037Y-3708757D01*
G01X4582389Y-3714159D01*
G01X4563991Y-3722922D01*
G01X4547415Y-3734773D01*
G01X4533172Y-3749346D01*
G01X4521703Y-3766190D01*
G01X4513365Y-3784783D01*
G01X4504162Y-3778997D01*
G01X4493902Y-3775404D01*
G01X4483100Y-3774186D01*
G01X4040115Y-3774186D01*
G01X4040115Y-3615701D01*
G01X4038362Y-3604634D01*
G01X4033275Y-3594650D01*
G01X4025352Y-3586727D01*
G01X4015368Y-3581640D01*
G01X4004301Y-3579887D01*
G01X3844301Y-3579887D01*
G01X3833234Y-3581640D01*
G01X3823250Y-3586727D01*
G01X3815327Y-3594650D01*
G01X3810240Y-3604634D01*
G01X3808487Y-3615701D01*
G01X3808487Y-3774186D01*
G01X3755466Y-3774186D01*
G01X3767368Y-3758875D01*
G01X3776549Y-3741792D01*
G01X3782750Y-3723416D01*
G01X3785798Y-3704264D01*
G01X3785608Y-3684871D01*
G01X3782184Y-3665782D01*
G01X3775623Y-3647532D01*
G01X3766108Y-3630633D01*
G01X3753907Y-3615559D01*
G01X3739362Y-3602731D01*
G01X3722880Y-3592511D01*
G01X3704924Y-3585184D01*
G01X3685997Y-3580956D01*
G01X3666630Y-3579946D01*
G01X3647366Y-3582181D01*
G01X3628745Y-3587600D01*
G01X3611289Y-3596050D01*
G01X3595488Y-3607294D01*
G01X3582288Y-3615408D01*
G01X3570511Y-3625476D01*
G01X3528601Y-3667386D01*
G01X3522397Y-3649262D01*
G01X3513290Y-3632409D01*
G01X3501530Y-3617287D01*
G01X3487439Y-3604310D01*
G01X3471400Y-3593834D01*
G01X3453855Y-3586145D01*
G01X3435282Y-3581453D01*
G01X3416189Y-3579887D01*
G01X3397100Y-3581490D01*
G01X3378536Y-3586218D01*
G01X3361005Y-3593941D01*
G01X3344987Y-3604448D01*
G01X3330921Y-3617452D01*
G01X3319190Y-3632597D01*
G01X3310116Y-3649468D01*
G01X3303947Y-3667604D01*
G01X3278093Y-3693458D01*
G01X3275673Y-3672041D01*
G01X3269325Y-3651444D01*
G01X3259271Y-3632380D01*
G01X3245859Y-3615508D01*
G01X3229553Y-3601414D01*
G01X3210917Y-3590586D01*
G01X3190598Y-3583398D01*
G01X3169299Y-3580099D01*
G01X3147758Y-3580804D01*
G01X3126720Y-3585489D01*
G01X3106914Y-3593990D01*
G01X3089027Y-3606014D01*
G01X3073678Y-3621145D01*
G01X3061397Y-3638857D01*
G01X3052612Y-3658538D01*
G01X3047625Y-3679507D01*
G01X3046610Y-3701036D01*
G01X3049602Y-3722380D01*
G01X3056497Y-3742801D01*
G01X3067057Y-3761590D01*
G01X3048893Y-3764116D01*
G01X3031503Y-3769939D01*
G01X3015481Y-3778860D01*
G01X3001372Y-3790574D01*
G01X1780176Y-5011770D01*
G01X1767825Y-5026820D01*
G01X1758647Y-5043990D01*
G01X1752996Y-5062621D01*
G01X1751087Y-5081996D01*
G01X1751087Y-6212586D01*
G01X1751087Y-6212586D01*
G01X1426140Y-6212586D01*
G01X1408476Y-6198657D01*
G01X1388756Y-6187835D01*
G01X1367521Y-6180416D01*
G01X1345351Y-6176604D01*
G01X1322857Y-6176504D01*
G01X1300655Y-6180118D01*
G01X1279354Y-6187347D01*
G01X1259538Y-6197992D01*
G01X1241751Y-6211763D01*
G01X1226481Y-6228280D01*
G01X1214147Y-6247091D01*
G01X1205086Y-6267681D01*
G01X1199549Y-6289483D01*
G01X1197686Y-6311900D01*
G01X99314Y-6311900D01*
G01X99314Y-5549900D01*
G01X1132586Y-5549900D01*
G01X1134239Y-5562456D01*
G01X1139086Y-5574157D01*
G01X1146795Y-5584205D01*
G01X1156843Y-5591914D01*
G01X1168544Y-5596761D01*
G01X1181100Y-5598414D01*
G01X1206647Y-5598414D01*
G01X1216205Y-5618364D01*
G01X1228876Y-5636498D01*
G01X1244322Y-5652334D01*
G01X1262134Y-5665452D01*
G01X1281840Y-5675505D01*
G01X1302916Y-5682225D01*
G01X1324804Y-5685435D01*
G01X1346922Y-5685049D01*
G01X1368684Y-5681077D01*
G01X1389513Y-5673625D01*
G01X1408856Y-5662891D01*
G01X1426199Y-5649159D01*
G01X1441083Y-5632793D01*
G01X1453113Y-5614228D01*
G01X1461969Y-5593957D01*
G01X1467417Y-5572516D01*
G01X1469313Y-5550476D01*
G01X1467604Y-5528420D01*
G01X1462339Y-5506935D01*
G01X1453654Y-5486589D01*
G01X1441782Y-5467923D01*
G01X1427038Y-5451431D01*
G01X1409811Y-5437552D01*
G01X1390560Y-5426654D01*
G01X1369796Y-5419026D01*
G01X1348068Y-5414870D01*
G01X1325954Y-5414296D01*
G01X1304039Y-5417320D01*
G01X1282907Y-5423861D01*
G01X1263117Y-5433747D01*
G01X1245194Y-5446714D01*
G01X1229614Y-5462418D01*
G01X1229614Y-5129382D01*
G01X1245165Y-5145061D01*
G01X1263051Y-5158014D01*
G01X1282800Y-5167896D01*
G01X1303890Y-5174447D01*
G01X1325762Y-5177493D01*
G01X1347839Y-5176955D01*
G01X1369536Y-5172846D01*
G01X1390281Y-5165274D01*
G01X1409525Y-5154441D01*
G01X1426759Y-5140633D01*
G01X1441527Y-5124214D01*
G01X1453439Y-5105619D01*
G01X1462180Y-5085339D01*
G01X1467518Y-5063910D01*
G01X1469314Y-5041900D01*
G01X1467518Y-5019890D01*
G01X1462180Y-4998461D01*
G01X1453439Y-4978181D01*
G01X1441527Y-4959586D01*
G01X1426759Y-4943167D01*
G01X1409525Y-4929359D01*
G01X1390281Y-4918526D01*
G01X1369536Y-4910954D01*
G01X1347839Y-4906845D01*
G01X1325762Y-4906307D01*
G01X1303890Y-4909353D01*
G01X1282800Y-4915904D01*
G01X1263051Y-4925786D01*
G01X1245165Y-4938739D01*
G01X1229614Y-4954418D01*
G01X1229614Y-4367382D01*
G01X1246227Y-4383962D01*
G01X1265447Y-4397434D01*
G01X1286700Y-4407396D01*
G01X1309350Y-4413549D01*
G01X1332722Y-4415712D01*
G01X1356116Y-4413817D01*
G01X1378836Y-4407924D01*
G01X1400201Y-4398206D01*
G01X1419574Y-4384955D01*
G01X1436376Y-4368567D01*
G01X1450106Y-4349530D01*
G01X1460353Y-4328414D01*
G01X2400301Y-4328414D01*
G01X2412858Y-4326761D01*
G01X2424558Y-4321914D01*
G01X2434606Y-4314205D01*
G01X2442316Y-4304157D01*
G01X2447162Y-4292456D01*
G01X2448815Y-4279900D01*
G01X2448815Y-3812824D01*
G01X2616876Y-3980885D01*
G01X2619190Y-3996066D01*
G01X2624935Y-4010308D01*
G01X2633801Y-4022847D01*
G01X2645313Y-4033010D01*
G01X2658855Y-4040253D01*
G01X2673699Y-4044186D01*
G01X2689050Y-4044600D01*
G01X2704085Y-4041471D01*
G01X2717997Y-4034968D01*
G01X2730040Y-4025440D01*
G01X2739568Y-4013397D01*
G01X2746071Y-3999485D01*
G01X2749200Y-3984450D01*
G01X2748786Y-3969099D01*
G01X2744853Y-3954255D01*
G01X2737610Y-3940713D01*
G01X2727447Y-3929201D01*
G01X2714908Y-3920335D01*
G01X2700666Y-3914590D01*
G01X2685485Y-3912276D01*
G01X2508967Y-3735758D01*
G01X2514347Y-3715861D01*
G01X2516082Y-3695701D01*
G01X2538487Y-3695701D01*
G01X2540459Y-3716982D01*
G01X2546308Y-3737538D01*
G01X2555834Y-3756669D01*
G01X2568714Y-3773725D01*
G01X2584508Y-3788123D01*
G01X2602679Y-3799374D01*
G01X2622607Y-3807094D01*
G01X2643615Y-3811021D01*
G01X2664987Y-3811021D01*
G01X2685995Y-3807094D01*
G01X2705924Y-3799374D01*
G01X2724095Y-3788123D01*
G01X2739889Y-3773725D01*
G01X2752768Y-3756669D01*
G01X2762294Y-3737538D01*
G01X2768143Y-3716982D01*
G01X2770115Y-3695701D01*
G01X2770115Y-3695701D01*
G01X2792487Y-3695701D01*
G01X2794459Y-3716982D01*
G01X2800308Y-3737538D01*
G01X2809834Y-3756669D01*
G01X2822714Y-3773725D01*
G01X2838508Y-3788123D01*
G01X2856679Y-3799374D01*
G01X2876607Y-3807094D01*
G01X2897615Y-3811021D01*
G01X2918987Y-3811021D01*
G01X2939995Y-3807094D01*
G01X2959924Y-3799374D01*
G01X2978095Y-3788123D01*
G01X2993889Y-3773725D01*
G01X3006768Y-3756669D01*
G01X3016294Y-3737538D01*
G01X3022143Y-3716982D01*
G01X3024115Y-3695701D01*
G01X3024115Y-3695701D01*
G01X3022143Y-3674421D01*
G01X3016294Y-3653864D01*
G01X3006768Y-3634733D01*
G01X2993889Y-3617678D01*
G01X2978095Y-3603280D01*
G01X2959924Y-3592029D01*
G01X2939995Y-3584309D01*
G01X2918987Y-3580381D01*
G01X2897615Y-3580381D01*
G01X2876607Y-3584309D01*
G01X2856679Y-3592029D01*
G01X2838508Y-3603280D01*
G01X2822714Y-3617678D01*
G01X2809834Y-3634733D01*
G01X2800308Y-3653864D01*
G01X2794459Y-3674421D01*
G01X2792487Y-3695701D01*
G01X2770115Y-3695701D01*
G01X2768143Y-3674421D01*
G01X2762294Y-3653864D01*
G01X2752768Y-3634733D01*
G01X2739889Y-3617678D01*
G01X2724095Y-3603280D01*
G01X2705924Y-3592029D01*
G01X2685995Y-3584309D01*
G01X2664987Y-3580381D01*
G01X2643615Y-3580381D01*
G01X2622607Y-3584309D01*
G01X2602679Y-3592029D01*
G01X2584508Y-3603280D01*
G01X2568714Y-3617678D01*
G01X2555834Y-3634733D01*
G01X2546308Y-3653864D01*
G01X2540459Y-3674421D01*
G01X2538487Y-3695701D01*
G01X2516082Y-3695701D01*
G01X2516115Y-3695326D01*
G01X2514214Y-3674802D01*
G01X2508705Y-3654941D01*
G01X2499763Y-3636370D01*
G01X2487671Y-3619679D01*
G01X2472811Y-3605395D01*
G01X2455655Y-3593972D01*
G01X2436746Y-3585771D01*
G01X2416682Y-3581052D01*
G01X2396099Y-3579964D01*
G01X2375650Y-3582541D01*
G01X2355981Y-3588703D01*
G01X2337716Y-3598254D01*
G01X2321434Y-3610891D01*
G01X2307649Y-3626215D01*
G01X2296799Y-3643739D01*
G01X2289227Y-3662909D01*
G01X2285173Y-3683118D01*
G01X2284766Y-3703725D01*
G01X2288018Y-3724078D01*
G01X2294826Y-3743533D01*
G01X2304975Y-3761472D01*
G01X2318144Y-3777328D01*
G01X2333914Y-3790599D01*
G01X2351787Y-3800864D01*
G01X2351787Y-4231386D01*
G01X1460353Y-4231386D01*
G01X1450163Y-4210365D01*
G01X1436521Y-4191402D01*
G01X1419832Y-4175056D01*
G01X1400588Y-4161813D01*
G01X1379359Y-4152063D01*
G01X1356774Y-4146095D01*
G01X1333500Y-4144086D01*
G01X1310226Y-4146095D01*
G01X1287641Y-4152063D01*
G01X1266412Y-4161813D01*
G01X1247168Y-4175056D01*
G01X1230479Y-4191402D01*
G01X1216837Y-4210365D01*
G01X1206647Y-4231386D01*
G01X1181100Y-4231386D01*
G01X1168544Y-4233039D01*
G01X1156843Y-4237886D01*
G01X1146795Y-4245595D01*
G01X1139086Y-4255643D01*
G01X1134239Y-4267344D01*
G01X1132586Y-4279900D01*
G01X1132586Y-5549900D01*
G01X1132586Y-5549900D01*
G01X99314Y-5549900D01*
G01X99314Y-3760685D01*
G01X1198150Y-3760685D01*
G01X1198150Y-3783115D01*
G01X1201842Y-3805240D01*
G01X1209125Y-3826456D01*
G01X1219801Y-3846183D01*
G01X1233579Y-3863884D01*
G01X1250081Y-3879076D01*
G01X1268860Y-3891345D01*
G01X1289401Y-3900355D01*
G01X1311146Y-3905861D01*
G01X1333500Y-3907714D01*
G01X1355854Y-3905861D01*
G01X1377599Y-3900355D01*
G01X1398140Y-3891345D01*
G01X1416919Y-3879076D01*
G01X1433421Y-3863884D01*
G01X1447199Y-3846183D01*
G01X1457875Y-3826456D01*
G01X1465158Y-3805240D01*
G01X1468850Y-3783115D01*
G01X1468850Y-3760685D01*
G01X1465158Y-3738560D01*
G01X1457875Y-3717344D01*
G01X1447199Y-3697617D01*
G01X1433421Y-3679916D01*
G01X1416919Y-3664724D01*
G01X1398140Y-3652455D01*
G01X1377599Y-3643445D01*
G01X1355854Y-3637939D01*
G01X1333500Y-3636086D01*
G01X1333500Y-3636086D01*
G01X1311146Y-3637939D01*
G01X1289401Y-3643445D01*
G01X1268860Y-3652455D01*
G01X1250081Y-3664724D01*
G01X1233579Y-3679916D01*
G01X1219801Y-3697617D01*
G01X1209125Y-3717344D01*
G01X1201842Y-3738560D01*
G01X1198150Y-3760685D01*
G01X99314Y-3760685D01*
G01X99314Y-2998685D01*
G01X1198150Y-2998685D01*
G01X1198150Y-3021115D01*
G01X1201842Y-3043240D01*
G01X1209125Y-3064456D01*
G01X1219801Y-3084183D01*
G01X1233579Y-3101884D01*
G01X1250081Y-3117076D01*
G01X1268860Y-3129345D01*
G01X1289401Y-3138355D01*
G01X1311146Y-3143861D01*
G01X1333500Y-3145714D01*
G01X1355854Y-3143861D01*
G01X1377599Y-3138355D01*
G01X1398140Y-3129345D01*
G01X1416919Y-3117076D01*
G01X1433421Y-3101884D01*
G01X1447199Y-3084183D01*
G01X1457875Y-3064456D01*
G01X1465158Y-3043240D01*
G01X1468850Y-3021115D01*
G01X1468850Y-2998685D01*
G01X1465158Y-2976560D01*
G01X1457875Y-2955344D01*
G01X1447199Y-2935617D01*
G01X1433421Y-2917916D01*
G01X1416919Y-2902724D01*
G01X1398140Y-2890455D01*
G01X1377599Y-2881445D01*
G01X1355854Y-2875939D01*
G01X1333500Y-2874086D01*
G01X1333500Y-2874086D01*
G01X1311146Y-2875939D01*
G01X1289401Y-2881445D01*
G01X1268860Y-2890455D01*
G01X1250081Y-2902724D01*
G01X1233579Y-2917916D01*
G01X1219801Y-2935617D01*
G01X1209125Y-2955344D01*
G01X1201842Y-2976560D01*
G01X1198150Y-2998685D01*
G01X99314Y-2998685D01*
G01X99314Y-2490685D01*
G01X1198150Y-2490685D01*
G01X1198150Y-2513115D01*
G01X1201842Y-2535240D01*
G01X1209125Y-2556456D01*
G01X1219801Y-2576183D01*
G01X1233579Y-2593884D01*
G01X1250081Y-2609076D01*
G01X1268860Y-2621345D01*
G01X1289401Y-2630355D01*
G01X1311146Y-2635861D01*
G01X1333500Y-2637714D01*
G01X1355854Y-2635861D01*
G01X1377599Y-2630355D01*
G01X1398140Y-2621345D01*
G01X1416919Y-2609076D01*
G01X1433421Y-2593884D01*
G01X1447199Y-2576183D01*
G01X1457875Y-2556456D01*
G01X1465158Y-2535240D01*
G01X1468850Y-2513115D01*
G01X1468850Y-2490685D01*
G01X1465158Y-2468560D01*
G01X1457875Y-2447344D01*
G01X1447199Y-2427617D01*
G01X1433421Y-2409916D01*
G01X1416919Y-2394724D01*
G01X1398140Y-2382455D01*
G01X1377599Y-2373445D01*
G01X1355854Y-2367939D01*
G01X1333500Y-2366086D01*
G01X1333500Y-2366086D01*
G01X1311146Y-2367939D01*
G01X1289401Y-2373445D01*
G01X1268860Y-2382455D01*
G01X1250081Y-2394724D01*
G01X1233579Y-2409916D01*
G01X1219801Y-2427617D01*
G01X1209125Y-2447344D01*
G01X1201842Y-2468560D01*
G01X1198150Y-2490685D01*
G01X99314Y-2490685D01*
G01X99314Y-2171700D01*
G01X2030486Y-2171700D01*
G01X2032458Y-2192981D01*
G01X2038307Y-2213537D01*
G01X2047833Y-2232668D01*
G01X2060713Y-2249723D01*
G01X2076507Y-2264121D01*
G01X2094677Y-2275372D01*
G01X2114606Y-2283093D01*
G01X2135614Y-2287020D01*
G01X2156986Y-2287020D01*
G01X2177994Y-2283093D01*
G01X2197923Y-2275372D01*
G01X2216093Y-2264121D01*
G01X2231887Y-2249723D01*
G01X2244767Y-2232668D01*
G01X2254293Y-2213537D01*
G01X2260142Y-2192981D01*
G01X2262114Y-2171700D01*
G01X2262114Y-2171700D01*
G01X2284486Y-2171700D01*
G01X2286458Y-2192981D01*
G01X2292307Y-2213537D01*
G01X2301833Y-2232668D01*
G01X2314713Y-2249723D01*
G01X2330507Y-2264121D01*
G01X2348677Y-2275372D01*
G01X2368606Y-2283093D01*
G01X2389614Y-2287020D01*
G01X2410986Y-2287020D01*
G01X2431994Y-2283093D01*
G01X2451923Y-2275372D01*
G01X2470093Y-2264121D01*
G01X2485887Y-2249723D01*
G01X2498767Y-2232668D01*
G01X2508293Y-2213537D01*
G01X2514142Y-2192981D01*
G01X2516114Y-2171700D01*
G01X2516114Y-2171700D01*
G01X2538486Y-2171700D01*
G01X2540458Y-2192981D01*
G01X2546307Y-2213537D01*
G01X2555833Y-2232668D01*
G01X2568713Y-2249723D01*
G01X2584507Y-2264121D01*
G01X2602677Y-2275372D01*
G01X2622606Y-2283093D01*
G01X2643614Y-2287020D01*
G01X2664986Y-2287020D01*
G01X2685994Y-2283093D01*
G01X2705923Y-2275372D01*
G01X2724093Y-2264121D01*
G01X2739887Y-2249723D01*
G01X2752767Y-2232668D01*
G01X2762293Y-2213537D01*
G01X2768142Y-2192981D01*
G01X2770114Y-2171700D01*
G01X2770114Y-2171700D01*
G01X2792486Y-2171700D01*
G01X2794458Y-2192981D01*
G01X2800307Y-2213537D01*
G01X2809833Y-2232668D01*
G01X2822713Y-2249723D01*
G01X2838507Y-2264121D01*
G01X2856677Y-2275372D01*
G01X2876606Y-2283093D01*
G01X2897614Y-2287020D01*
G01X2918986Y-2287020D01*
G01X2939994Y-2283093D01*
G01X2959923Y-2275372D01*
G01X2978093Y-2264121D01*
G01X2993887Y-2249723D01*
G01X3006767Y-2232668D01*
G01X3016293Y-2213537D01*
G01X3022142Y-2192981D01*
G01X3024114Y-2171700D01*
G01X3024114Y-2171700D01*
G01X3023526Y-2165354D01*
G01X3046660Y-2165354D01*
G01X3047401Y-2186231D01*
G01X3051881Y-2206636D01*
G01X3059953Y-2225903D01*
G01X3071356Y-2243408D01*
G01X3085717Y-2258579D01*
G01X3102570Y-2270923D01*
G01X3121366Y-2280039D01*
G01X3141495Y-2285630D01*
G01X3162300Y-2287514D01*
G01X3183105Y-2285630D01*
G01X3203234Y-2280039D01*
G01X3222030Y-2270923D01*
G01X3238883Y-2258579D01*
G01X3253244Y-2243408D01*
G01X3264647Y-2225903D01*
G01X3272719Y-2206636D01*
G01X3277199Y-2186231D01*
G01X3277940Y-2165354D01*
G01X3274919Y-2144683D01*
G01X3268233Y-2124892D01*
G01X3258101Y-2106623D01*
G01X3244852Y-2090472D01*
G01X3228917Y-2076963D01*
G01X3210814Y-2066537D01*
G01X3210814Y-1736214D01*
G01X7250287Y-1736214D01*
G01X7235011Y-1751549D01*
G01X7222717Y-1769364D01*
G01X7213800Y-1789087D01*
G01X7208545Y-1810084D01*
G01X7207121Y-1831683D01*
G01X7209573Y-1853188D01*
G01X7215824Y-1873911D01*
G01X7225673Y-1893186D01*
G01X3416300Y-1893186D01*
G01X3403744Y-1894839D01*
G01X3392043Y-1899686D01*
G01X3381995Y-1907395D01*
G01X3374286Y-1917443D01*
G01X3369439Y-1929144D01*
G01X3367786Y-1941700D01*
G01X3367786Y-2066537D01*
G01X3349683Y-2076963D01*
G01X3333748Y-2090472D01*
G01X3320499Y-2106623D01*
G01X3310367Y-2124892D01*
G01X3303681Y-2144683D01*
G01X3300660Y-2165354D01*
G01X3301401Y-2186231D01*
G01X3305881Y-2206636D01*
G01X3313953Y-2225903D01*
G01X3325356Y-2243408D01*
G01X3339717Y-2258579D01*
G01X3356570Y-2270923D01*
G01X3375366Y-2280039D01*
G01X3395495Y-2285630D01*
G01X3416300Y-2287514D01*
G01X3437105Y-2285630D01*
G01X3457234Y-2280039D01*
G01X3476030Y-2270923D01*
G01X3492883Y-2258579D01*
G01X3507244Y-2243408D01*
G01X3518647Y-2225903D01*
G01X3526719Y-2206636D01*
G01X3531199Y-2186231D01*
G01X3531715Y-2171700D01*
G01X3554486Y-2171700D01*
G01X3556458Y-2192981D01*
G01X3562307Y-2213537D01*
G01X3571833Y-2232668D01*
G01X3584713Y-2249723D01*
G01X3600507Y-2264121D01*
G01X3618677Y-2275372D01*
G01X3638606Y-2283093D01*
G01X3659614Y-2287020D01*
G01X3680986Y-2287020D01*
G01X3701994Y-2283093D01*
G01X3721923Y-2275372D01*
G01X3740093Y-2264121D01*
G01X3755887Y-2249723D01*
G01X3768767Y-2232668D01*
G01X3778293Y-2213537D01*
G01X3784142Y-2192981D01*
G01X3786114Y-2171700D01*
G01X3786114Y-2171700D01*
G01X3784142Y-2150419D01*
G01X3778293Y-2129863D01*
G01X3768767Y-2110732D01*
G01X3755887Y-2093677D01*
G01X3753719Y-2091700D01*
G01X3808486Y-2091700D01*
G01X3808486Y-2251700D01*
G01X3810239Y-2262767D01*
G01X3815326Y-2272751D01*
G01X3823249Y-2280674D01*
G01X3833233Y-2285761D01*
G01X3844300Y-2287514D01*
G01X4004300Y-2287514D01*
G01X4015367Y-2285761D01*
G01X4025351Y-2280674D01*
G01X4033274Y-2272751D01*
G01X4038361Y-2262767D01*
G01X4040114Y-2251700D01*
G01X4040114Y-2220214D01*
G01X5399786Y-2220214D01*
G01X5399786Y-2418590D01*
G01X5390688Y-2430961D01*
G01X5384679Y-2445094D01*
G01X5382082Y-2460229D01*
G01X5383036Y-2475556D01*
G01X5387490Y-2490253D01*
G01X5395206Y-2503531D01*
G01X5405768Y-2514678D01*
G01X5418611Y-2523097D01*
G01X5433047Y-2528336D01*
G01X5448300Y-2530114D01*
G01X5463553Y-2528336D01*
G01X5477989Y-2523097D01*
G01X5490832Y-2514678D01*
G01X5501394Y-2503531D01*
G01X5509110Y-2490253D01*
G01X5513564Y-2475556D01*
G01X5514518Y-2460229D01*
G01X5511921Y-2445094D01*
G01X5505912Y-2430961D01*
G01X5496814Y-2418590D01*
G01X5496814Y-2349500D01*
G01X6309086Y-2349500D01*
G01X6310864Y-2364753D01*
G01X6316103Y-2379189D01*
G01X6324522Y-2392032D01*
G01X6335669Y-2402594D01*
G01X6348947Y-2410310D01*
G01X6363644Y-2414764D01*
G01X6378971Y-2415718D01*
G01X6394106Y-2413121D01*
G01X6408239Y-2407112D01*
G01X6420610Y-2398014D01*
G01X7223742Y-2398014D01*
G01X7236518Y-2415827D01*
G01X7252303Y-2431039D01*
G01X7270576Y-2443148D01*
G01X7290736Y-2451756D01*
G01X7312121Y-2456579D01*
G01X7334024Y-2457459D01*
G01X7355726Y-2454366D01*
G01X7376512Y-2447402D01*
G01X7395697Y-2436797D01*
G01X7409236Y-2425700D01*
G01X8197686Y-2425700D01*
G01X8199522Y-2446679D01*
G01X8204972Y-2467021D01*
G01X8213872Y-2486107D01*
G01X8225951Y-2503358D01*
G01X8240842Y-2518249D01*
G01X8258093Y-2530328D01*
G01X8277179Y-2539228D01*
G01X8297521Y-2544678D01*
G01X8318500Y-2546514D01*
G01X8318500Y-2546514D01*
G01X8339479Y-2544678D01*
G01X8359821Y-2539228D01*
G01X8378907Y-2530328D01*
G01X8396158Y-2518249D01*
G01X8411049Y-2503358D01*
G01X8423128Y-2486107D01*
G01X8432028Y-2467021D01*
G01X8437478Y-2446679D01*
G01X8439314Y-2425700D01*
G01X8437478Y-2404721D01*
G01X8432028Y-2384379D01*
G01X8423128Y-2365293D01*
G01X8411049Y-2348042D01*
G01X8396158Y-2333151D01*
G01X8378907Y-2321072D01*
G01X8359821Y-2312172D01*
G01X8339479Y-2306722D01*
G01X8318500Y-2304886D01*
G01X8297521Y-2306722D01*
G01X8277179Y-2312172D01*
G01X8258093Y-2321072D01*
G01X8240842Y-2333151D01*
G01X8225951Y-2348042D01*
G01X8213872Y-2365293D01*
G01X8204972Y-2384379D01*
G01X8199522Y-2404721D01*
G01X8197686Y-2425700D01*
G01X7409236Y-2425700D01*
G01X7412651Y-2422901D01*
G01X7426814Y-2406169D01*
G01X7437720Y-2387153D01*
G01X7445011Y-2366480D01*
G01X7448447Y-2344830D01*
G01X7447913Y-2322915D01*
G01X7443429Y-2301457D01*
G01X7435141Y-2281163D01*
G01X7423322Y-2262701D01*
G01X7408361Y-2246678D01*
G01X7390752Y-2233622D01*
G01X7371073Y-2223964D01*
G01X7349973Y-2218020D01*
G01X7328147Y-2215986D01*
G01X7306312Y-2217931D01*
G01X7285188Y-2223788D01*
G01X7265470Y-2233367D01*
G01X7247807Y-2246350D01*
G01X7232782Y-2262312D01*
G01X7220887Y-2280726D01*
G01X7212517Y-2300986D01*
G01X6420610Y-2300986D01*
G01X6408239Y-2291888D01*
G01X6394106Y-2285879D01*
G01X6378971Y-2283282D01*
G01X6363644Y-2284236D01*
G01X6348947Y-2288690D01*
G01X6335669Y-2296406D01*
G01X6324522Y-2306968D01*
G01X6316103Y-2319811D01*
G01X6310864Y-2334247D01*
G01X6309086Y-2349500D01*
G01X6309086Y-2349500D01*
G01X5496814Y-2349500D01*
G01X5496814Y-2171700D01*
G01X5495161Y-2159144D01*
G01X5490314Y-2147443D01*
G01X5482605Y-2137395D01*
G01X5472557Y-2129686D01*
G01X5460856Y-2124839D01*
G01X5448300Y-2123186D01*
G01X4040114Y-2123186D01*
G01X4040114Y-2091700D01*
G01X4040114Y-2091700D01*
G01X4038361Y-2080633D01*
G01X4033274Y-2070649D01*
G01X4025351Y-2062726D01*
G01X4015367Y-2057639D01*
G01X4004300Y-2055886D01*
G01X3844300Y-2055886D01*
G01X3833233Y-2057639D01*
G01X3823249Y-2062726D01*
G01X3815326Y-2070649D01*
G01X3810239Y-2080633D01*
G01X3808486Y-2091700D01*
G01X3753719Y-2091700D01*
G01X3740093Y-2079279D01*
G01X3721923Y-2068028D01*
G01X3701994Y-2060307D01*
G01X3680986Y-2056380D01*
G01X3659614Y-2056380D01*
G01X3638606Y-2060307D01*
G01X3618677Y-2068028D01*
G01X3600507Y-2079279D01*
G01X3584713Y-2093677D01*
G01X3571833Y-2110732D01*
G01X3562307Y-2129863D01*
G01X3556458Y-2150419D01*
G01X3554486Y-2171700D01*
G01X3531715Y-2171700D01*
G01X3531940Y-2165354D01*
G01X3528919Y-2144683D01*
G01X3522233Y-2124892D01*
G01X3512101Y-2106623D01*
G01X3498852Y-2090472D01*
G01X3482917Y-2076963D01*
G01X3464814Y-2066537D01*
G01X3464814Y-1990214D01*
G01X7250287Y-1990214D01*
G01X7237881Y-2002224D01*
G01X7227313Y-2015880D01*
G01X7218801Y-2030903D01*
G01X7212517Y-2046986D01*
G01X6585710Y-2046986D01*
G01X6573339Y-2037888D01*
G01X6559206Y-2031879D01*
G01X6544071Y-2029282D01*
G01X6528744Y-2030236D01*
G01X6514047Y-2034690D01*
G01X6500769Y-2042406D01*
G01X6489622Y-2052968D01*
G01X6481203Y-2065811D01*
G01X6475964Y-2080247D01*
G01X6474186Y-2095500D01*
G01X6475964Y-2110753D01*
G01X6481203Y-2125189D01*
G01X6489622Y-2138032D01*
G01X6500769Y-2148594D01*
G01X6514047Y-2156310D01*
G01X6528744Y-2160764D01*
G01X6544071Y-2161718D01*
G01X6559206Y-2159121D01*
G01X6573339Y-2153112D01*
G01X6585710Y-2144014D01*
G01X7223742Y-2144014D01*
G01X7236240Y-2161505D01*
G01X7251640Y-2176504D01*
G01X7269454Y-2188536D01*
G01X7289119Y-2197220D01*
G01X7310012Y-2202282D01*
G01X7331471Y-2203561D01*
G01X7352817Y-2201017D01*
G01X7373374Y-2194729D01*
G01X7392491Y-2184898D01*
G01X7409563Y-2171834D01*
G01X7424050Y-2155952D01*
G01X7435492Y-2137753D01*
G01X7443529Y-2117815D01*
G01X7447904Y-2096767D01*
G01X7448479Y-2075278D01*
G01X7445238Y-2054027D01*
G01X7438281Y-2033687D01*
G01X7427829Y-2014901D01*
G01X7414213Y-1998266D01*
G01X7397865Y-1984307D01*
G01X7408969Y-1976005D01*
G01X7583860Y-1801114D01*
G01X8207855Y-1801114D01*
G01X8217788Y-1819332D01*
G01X8230693Y-1835581D01*
G01X8246187Y-1849383D01*
G01X8263815Y-1860329D01*
G01X8283056Y-1868098D01*
G01X8303343Y-1872459D01*
G01X8324076Y-1873285D01*
G01X8344645Y-1870551D01*
G01X8364443Y-1864337D01*
G01X8382886Y-1854827D01*
G01X8382886Y-1904373D01*
G01X8364259Y-1894787D01*
G01X8344256Y-1888563D01*
G01X8323478Y-1885889D01*
G01X8302551Y-1886843D01*
G01X8282104Y-1891399D01*
G01X8262751Y-1899418D01*
G01X8245074Y-1910660D01*
G01X8229604Y-1924786D01*
G01X8216808Y-1941372D01*
G01X8207069Y-1959920D01*
G01X8200680Y-1979871D01*
G01X8197834Y-2000625D01*
G01X8198616Y-2021559D01*
G01X8203002Y-2042044D01*
G01X8210861Y-2061463D01*
G01X8221957Y-2079232D01*
G01X8235955Y-2094817D01*
G01X8252435Y-2107750D01*
G01X8270901Y-2117642D01*
G01X8290799Y-2124195D01*
G01X8311529Y-2127213D01*
G01X8332469Y-2126604D01*
G01X8352989Y-2122386D01*
G01X8372472Y-2114688D01*
G01X8390332Y-2103740D01*
G01X8406033Y-2089871D01*
G01X8419101Y-2073498D01*
G01X8429145Y-2055114D01*
G01X8431400Y-2055114D01*
G01X8443956Y-2053461D01*
G01X8455657Y-2048614D01*
G01X8465705Y-2040905D01*
G01X8473414Y-2030857D01*
G01X8478261Y-2019156D01*
G01X8479914Y-2006600D01*
G01X8479914Y-1639700D01*
G01X8478261Y-1627144D01*
G01X8473414Y-1615443D01*
G01X8465705Y-1605395D01*
G01X8455657Y-1597686D01*
G01X8443956Y-1592839D01*
G01X8431400Y-1591186D01*
G01X8396113Y-1591186D01*
G01X8411014Y-1576299D01*
G01X8423103Y-1559050D01*
G01X8432012Y-1539964D01*
G01X8437471Y-1519620D01*
G01X8439314Y-1498637D01*
G01X8437484Y-1477654D01*
G01X8432038Y-1457306D01*
G01X8423140Y-1438215D01*
G01X8411062Y-1420958D01*
G01X8396170Y-1406062D01*
G01X8378918Y-1393978D01*
G01X8359829Y-1385075D01*
G01X8339483Y-1379622D01*
G01X8318500Y-1377786D01*
G01X8297517Y-1379622D01*
G01X8277171Y-1385075D01*
G01X8258082Y-1393978D01*
G01X8240830Y-1406062D01*
G01X8225938Y-1420958D01*
G01X8213860Y-1438215D01*
G01X8204962Y-1457306D01*
G01X8199516Y-1477654D01*
G01X8197686Y-1498637D01*
G01X8199529Y-1519620D01*
G01X8204988Y-1539964D01*
G01X8213897Y-1559050D01*
G01X8225986Y-1576299D01*
G01X8240887Y-1591186D01*
G01X7447597Y-1591186D01*
G01X7448624Y-1570152D01*
G01X7445983Y-1549259D01*
G01X7439754Y-1529142D01*
G01X7430127Y-1510413D01*
G01X7417393Y-1493640D01*
G01X7401940Y-1479332D01*
G01X7384237Y-1467926D01*
G01X7364823Y-1459767D01*
G01X7344287Y-1455103D01*
G01X7323253Y-1454076D01*
G01X7302360Y-1456717D01*
G01X7282243Y-1462946D01*
G01X7263513Y-1472573D01*
G01X7246740Y-1485307D01*
G01X7232433Y-1500759D01*
G01X7221026Y-1518462D01*
G01X7212867Y-1537876D01*
G01X7208203Y-1558412D01*
G01X7207176Y-1579446D01*
G01X7209816Y-1600339D01*
G01X7216045Y-1620456D01*
G01X7225673Y-1639186D01*
G01X3162300Y-1639186D01*
G01X3149744Y-1640839D01*
G01X3138043Y-1645686D01*
G01X3127995Y-1653395D01*
G01X3120286Y-1663443D01*
G01X3115439Y-1675144D01*
G01X3113786Y-1687700D01*
G01X3113786Y-2066537D01*
G01X3113786Y-2066537D01*
G01X3095683Y-2076963D01*
G01X3079748Y-2090472D01*
G01X3066499Y-2106623D01*
G01X3056367Y-2124892D01*
G01X3049681Y-2144683D01*
G01X3046660Y-2165354D01*
G01X3023526Y-2165354D01*
G01X3022142Y-2150419D01*
G01X3016293Y-2129863D01*
G01X3006767Y-2110732D01*
G01X2993887Y-2093677D01*
G01X2978093Y-2079279D01*
G01X2959923Y-2068028D01*
G01X2939994Y-2060307D01*
G01X2918986Y-2056380D01*
G01X2897614Y-2056380D01*
G01X2876606Y-2060307D01*
G01X2856677Y-2068028D01*
G01X2838507Y-2079279D01*
G01X2822713Y-2093677D01*
G01X2809833Y-2110732D01*
G01X2800307Y-2129863D01*
G01X2794458Y-2150419D01*
G01X2792486Y-2171700D01*
G01X2770114Y-2171700D01*
G01X2768142Y-2150419D01*
G01X2762293Y-2129863D01*
G01X2752767Y-2110732D01*
G01X2739887Y-2093677D01*
G01X2724093Y-2079279D01*
G01X2705923Y-2068028D01*
G01X2685994Y-2060307D01*
G01X2664986Y-2056380D01*
G01X2643614Y-2056380D01*
G01X2622606Y-2060307D01*
G01X2602677Y-2068028D01*
G01X2584507Y-2079279D01*
G01X2568713Y-2093677D01*
G01X2555833Y-2110732D01*
G01X2546307Y-2129863D01*
G01X2540458Y-2150419D01*
G01X2538486Y-2171700D01*
G01X2516114Y-2171700D01*
G01X2514142Y-2150419D01*
G01X2508293Y-2129863D01*
G01X2498767Y-2110732D01*
G01X2485887Y-2093677D01*
G01X2470093Y-2079279D01*
G01X2451923Y-2068028D01*
G01X2431994Y-2060307D01*
G01X2410986Y-2056380D01*
G01X2389614Y-2056380D01*
G01X2368606Y-2060307D01*
G01X2348677Y-2068028D01*
G01X2330507Y-2079279D01*
G01X2314713Y-2093677D01*
G01X2301833Y-2110732D01*
G01X2292307Y-2129863D01*
G01X2286458Y-2150419D01*
G01X2284486Y-2171700D01*
G01X2262114Y-2171700D01*
G01X2260142Y-2150419D01*
G01X2254293Y-2129863D01*
G01X2244767Y-2110732D01*
G01X2231887Y-2093677D01*
G01X2216093Y-2079279D01*
G01X2197923Y-2068028D01*
G01X2177994Y-2060307D01*
G01X2156986Y-2056380D01*
G01X2135614Y-2056380D01*
G01X2114606Y-2060307D01*
G01X2094677Y-2068028D01*
G01X2076507Y-2079279D01*
G01X2060713Y-2093677D01*
G01X2047833Y-2110732D01*
G01X2038307Y-2129863D01*
G01X2032458Y-2150419D01*
G01X2030486Y-2171700D01*
G01X99314Y-2171700D01*
G01X99314Y-1751115D01*
G01X1198150Y-1751115D01*
G01X1201842Y-1773240D01*
G01X1209125Y-1794456D01*
G01X1219801Y-1814183D01*
G01X1233579Y-1831884D01*
G01X1250081Y-1847076D01*
G01X1268860Y-1859345D01*
G01X1289401Y-1868355D01*
G01X1311146Y-1873861D01*
G01X1333500Y-1875714D01*
G01X1355854Y-1873861D01*
G01X1377599Y-1868355D01*
G01X1398140Y-1859345D01*
G01X1416919Y-1847076D01*
G01X1433421Y-1831884D01*
G01X1447199Y-1814183D01*
G01X1457875Y-1794456D01*
G01X1465158Y-1773240D01*
G01X1468850Y-1751115D01*
G01X1468850Y-1728685D01*
G01X1465158Y-1706560D01*
G01X1457875Y-1685344D01*
G01X1447199Y-1665617D01*
G01X1433421Y-1647916D01*
G01X1416919Y-1632724D01*
G01X1398140Y-1620455D01*
G01X1377599Y-1611445D01*
G01X1355854Y-1605939D01*
G01X1333500Y-1604086D01*
G01X1333500Y-1604086D01*
G01X1311146Y-1605939D01*
G01X1289401Y-1611445D01*
G01X1268860Y-1620455D01*
G01X1250081Y-1632724D01*
G01X1233579Y-1647916D01*
G01X1219801Y-1665617D01*
G01X1209125Y-1685344D01*
G01X1201842Y-1706560D01*
G01X1198150Y-1728685D01*
G01X1198150Y-1751115D01*
G01X99314Y-1751115D01*
G01X99314Y-1220685D01*
G01X1198150Y-1220685D01*
G01X1198150Y-1243115D01*
G01X1201842Y-1265240D01*
G01X1209125Y-1286456D01*
G01X1219801Y-1306183D01*
G01X1233579Y-1323884D01*
G01X1250081Y-1339076D01*
G01X1268860Y-1351345D01*
G01X1289401Y-1360355D01*
G01X1311146Y-1365861D01*
G01X1333500Y-1367714D01*
G01X1355854Y-1365861D01*
G01X1377599Y-1360355D01*
G01X1398140Y-1351345D01*
G01X1416919Y-1339076D01*
G01X1433421Y-1323884D01*
G01X1435822Y-1320800D01*
G01X7207086Y-1320800D01*
G01X7208922Y-1341779D01*
G01X7214372Y-1362121D01*
G01X7223272Y-1381207D01*
G01X7235351Y-1398458D01*
G01X7250242Y-1413349D01*
G01X7267493Y-1425428D01*
G01X7286579Y-1434328D01*
G01X7306921Y-1439778D01*
G01X7327900Y-1441614D01*
G01X7327900Y-1441614D01*
G01X7348879Y-1439778D01*
G01X7369221Y-1434328D01*
G01X7388307Y-1425428D01*
G01X7405558Y-1413349D01*
G01X7420449Y-1398458D01*
G01X7432528Y-1381207D01*
G01X7441428Y-1362121D01*
G01X7446878Y-1341779D01*
G01X7447944Y-1329600D01*
G01X8197686Y-1329600D01*
G01X8199439Y-1340667D01*
G01X8204526Y-1350651D01*
G01X8212449Y-1358574D01*
G01X8222433Y-1363661D01*
G01X8233500Y-1365414D01*
G01X8403500Y-1365414D01*
G01X8414567Y-1363661D01*
G01X8424551Y-1358574D01*
G01X8432474Y-1350651D01*
G01X8437561Y-1340667D01*
G01X8439314Y-1329600D01*
G01X8439314Y-1159600D01*
G01X8437561Y-1148533D01*
G01X8432474Y-1138549D01*
G01X8424551Y-1130626D01*
G01X8414567Y-1125539D01*
G01X8403500Y-1123786D01*
G01X8233500Y-1123786D01*
G01X8222433Y-1125539D01*
G01X8212449Y-1130626D01*
G01X8204526Y-1138549D01*
G01X8199439Y-1148533D01*
G01X8197686Y-1159600D01*
G01X8197686Y-1329600D01*
G01X8197686Y-1329600D01*
G01X7447944Y-1329600D01*
G01X7448714Y-1320800D01*
G01X7446878Y-1299821D01*
G01X7441428Y-1279479D01*
G01X7432528Y-1260393D01*
G01X7420449Y-1243142D01*
G01X7405558Y-1228251D01*
G01X7388307Y-1216172D01*
G01X7369221Y-1207272D01*
G01X7348879Y-1201822D01*
G01X7327900Y-1199986D01*
G01X7306921Y-1201822D01*
G01X7286579Y-1207272D01*
G01X7267493Y-1216172D01*
G01X7250242Y-1228251D01*
G01X7235351Y-1243142D01*
G01X7223272Y-1260393D01*
G01X7214372Y-1279479D01*
G01X7208922Y-1299821D01*
G01X7207086Y-1320800D01*
G01X1435822Y-1320800D01*
G01X1447199Y-1306183D01*
G01X1457875Y-1286456D01*
G01X1465158Y-1265240D01*
G01X1468850Y-1243115D01*
G01X1468850Y-1220685D01*
G01X1465158Y-1198560D01*
G01X1457875Y-1177344D01*
G01X1447199Y-1157617D01*
G01X1433421Y-1139916D01*
G01X1416919Y-1124724D01*
G01X1398140Y-1112455D01*
G01X1377599Y-1103445D01*
G01X1355854Y-1097939D01*
G01X1333500Y-1096086D01*
G01X1333500Y-1096086D01*
G01X1311146Y-1097939D01*
G01X1289401Y-1103445D01*
G01X1268860Y-1112455D01*
G01X1250081Y-1124724D01*
G01X1233579Y-1139916D01*
G01X1219801Y-1157617D01*
G01X1209125Y-1177344D01*
G01X1201842Y-1198560D01*
G01X1198150Y-1220685D01*
G01X99314Y-1220685D01*
G01X99314Y-762000D01*
G01X116586Y-762000D01*
G01X118521Y-798931D01*
G01X124307Y-835458D01*
G01X133878Y-871180D01*
G01X147132Y-905706D01*
G01X163921Y-938657D01*
G01X184063Y-969673D01*
G01X207337Y-998413D01*
G01X233487Y-1024563D01*
G01X262227Y-1047837D01*
G01X293243Y-1067979D01*
G01X326194Y-1084768D01*
G01X360720Y-1098022D01*
G01X396442Y-1107593D01*
G01X432969Y-1113379D01*
G01X469900Y-1115314D01*
G01X506831Y-1113379D01*
G01X543358Y-1107593D01*
G01X579080Y-1098022D01*
G01X613606Y-1084768D01*
G01X646557Y-1067979D01*
G01X648372Y-1066800D01*
G01X7207086Y-1066800D01*
G01X7208922Y-1087779D01*
G01X7214372Y-1108121D01*
G01X7223272Y-1127207D01*
G01X7235351Y-1144458D01*
G01X7250242Y-1159349D01*
G01X7267493Y-1171428D01*
G01X7286579Y-1180328D01*
G01X7306921Y-1185778D01*
G01X7327900Y-1187614D01*
G01X7327900Y-1187614D01*
G01X7348879Y-1185778D01*
G01X7369221Y-1180328D01*
G01X7388307Y-1171428D01*
G01X7405558Y-1159349D01*
G01X7420449Y-1144458D01*
G01X7432528Y-1127207D01*
G01X7441428Y-1108121D01*
G01X7446878Y-1087779D01*
G01X7448714Y-1066800D01*
G01X7446878Y-1045821D01*
G01X7441428Y-1025479D01*
G01X7432528Y-1006393D01*
G01X7420449Y-989142D01*
G01X7405558Y-974251D01*
G01X7388307Y-962172D01*
G01X7369221Y-953272D01*
G01X7348879Y-947822D01*
G01X7327900Y-945986D01*
G01X7306921Y-947822D01*
G01X7286579Y-953272D01*
G01X7267493Y-962172D01*
G01X7250242Y-974251D01*
G01X7235351Y-989142D01*
G01X7223272Y-1006393D01*
G01X7214372Y-1025479D01*
G01X7208922Y-1045821D01*
G01X7207086Y-1066800D01*
G01X648372Y-1066800D01*
G01X677573Y-1047837D01*
G01X706313Y-1024563D01*
G01X732463Y-998413D01*
G01X755737Y-969673D01*
G01X775879Y-938657D01*
G01X792668Y-905706D01*
G01X805922Y-871180D01*
G01X815493Y-835458D01*
G01X819082Y-812800D01*
G01X7207086Y-812800D01*
G01X7208922Y-833779D01*
G01X7214372Y-854121D01*
G01X7223272Y-873207D01*
G01X7235351Y-890458D01*
G01X7250242Y-905349D01*
G01X7267493Y-917428D01*
G01X7286579Y-926328D01*
G01X7306921Y-931778D01*
G01X7327900Y-933614D01*
G01X7327900Y-933614D01*
G01X7348879Y-931778D01*
G01X7369221Y-926328D01*
G01X7388307Y-917428D01*
G01X7405558Y-905349D01*
G01X7420449Y-890458D01*
G01X7432528Y-873207D01*
G01X7441428Y-854121D01*
G01X7446878Y-833779D01*
G01X7448714Y-812800D01*
G01X7446878Y-791821D01*
G01X7441428Y-771479D01*
G01X7432528Y-752393D01*
G01X7420449Y-735142D01*
G01X7405558Y-720251D01*
G01X7392631Y-711200D01*
G01X8193786Y-711200D01*
G01X8195721Y-748131D01*
G01X8201507Y-784658D01*
G01X8211078Y-820380D01*
G01X8224332Y-854906D01*
G01X8241121Y-887857D01*
G01X8261263Y-918873D01*
G01X8284537Y-947613D01*
G01X8310687Y-973763D01*
G01X8339427Y-997037D01*
G01X8370443Y-1017179D01*
G01X8403394Y-1033968D01*
G01X8437920Y-1047222D01*
G01X8473642Y-1056793D01*
G01X8510169Y-1062579D01*
G01X8547100Y-1064514D01*
G01X8584031Y-1062579D01*
G01X8620558Y-1056793D01*
G01X8656280Y-1047222D01*
G01X8690806Y-1033968D01*
G01X8723757Y-1017179D01*
G01X8754773Y-997037D01*
G01X8783513Y-973763D01*
G01X8809663Y-947613D01*
G01X8832937Y-918873D01*
G01X8853079Y-887857D01*
G01X8869868Y-854906D01*
G01X8883122Y-820380D01*
G01X8892693Y-784658D01*
G01X8898479Y-748131D01*
G01X8900414Y-711200D01*
G01X8898479Y-674269D01*
G01X8892693Y-637742D01*
G01X8883122Y-602020D01*
G01X8869868Y-567494D01*
G01X8853079Y-534543D01*
G01X8832937Y-503527D01*
G01X8809663Y-474787D01*
G01X8783513Y-448637D01*
G01X8754773Y-425363D01*
G01X8723757Y-405221D01*
G01X8690806Y-388432D01*
G01X8656280Y-375178D01*
G01X8620558Y-365607D01*
G01X8584031Y-359821D01*
G01X8547100Y-357886D01*
G01X8510169Y-359821D01*
G01X8473642Y-365607D01*
G01X8437920Y-375178D01*
G01X8403394Y-388432D01*
G01X8370443Y-405221D01*
G01X8339427Y-425363D01*
G01X8310687Y-448637D01*
G01X8284537Y-474787D01*
G01X8261263Y-503527D01*
G01X8241121Y-534543D01*
G01X8224332Y-567494D01*
G01X8211078Y-602020D01*
G01X8201507Y-637742D01*
G01X8195721Y-674269D01*
G01X8193786Y-711200D01*
G01X8193786Y-711200D01*
G01X7392631Y-711200D01*
G01X7388307Y-708172D01*
G01X7369221Y-699272D01*
G01X7348879Y-693822D01*
G01X7327900Y-691986D01*
G01X7306921Y-693822D01*
G01X7286579Y-699272D01*
G01X7267493Y-708172D01*
G01X7250242Y-720251D01*
G01X7235351Y-735142D01*
G01X7223272Y-752393D01*
G01X7214372Y-771479D01*
G01X7208922Y-791821D01*
G01X7207086Y-812800D01*
G01X819082Y-812800D01*
G01X821279Y-798931D01*
G01X823214Y-762000D01*
G01X821279Y-725069D01*
G01X815493Y-688542D01*
G01X805922Y-652820D01*
G01X792668Y-618294D01*
G01X775879Y-585343D01*
G01X755737Y-554327D01*
G01X732463Y-525587D01*
G01X706313Y-499437D01*
G01X677573Y-476163D01*
G01X646557Y-456021D01*
G01X613606Y-439232D01*
G01X579080Y-425978D01*
G01X543358Y-416407D01*
G01X506831Y-410621D01*
G01X469900Y-408686D01*
G01X432969Y-410621D01*
G01X396442Y-416407D01*
G01X360720Y-425978D01*
G01X326194Y-439232D01*
G01X293243Y-456021D01*
G01X262227Y-476163D01*
G01X233487Y-499437D01*
G01X207337Y-525587D01*
G01X184063Y-554327D01*
G01X163921Y-585343D01*
G01X147132Y-618294D01*
G01X133878Y-652820D01*
G01X124307Y-688542D01*
G01X118521Y-725069D01*
G01X116586Y-762000D01*
G01X116586Y-762000D01*
G01X99314Y-762000D01*
G01X99314Y-340614D01*
G01X8917686Y-340614D01*
G37*
G36*
G01X7039486Y-3043326D02*
G01X7025150Y-3039542D01*
G01X7010332Y-3039038D01*
G01X6995772Y-3041838D01*
G01X6982199Y-3047804D01*
G01X6970290Y-3056636D01*
G01X6762936Y-3056636D01*
G01X6750380Y-3058289D01*
G01X6738679Y-3063136D01*
G01X6728631Y-3070845D01*
G01X6259097Y-3540380D01*
G01X6251907Y-3520066D01*
G01X6241079Y-3501436D01*
G01X6226987Y-3485134D01*
G01X6210119Y-3471725D01*
G01X6191059Y-3461673D01*
G01X6170467Y-3455326D01*
G01X6149055Y-3452903D01*
G01X6127565Y-3454489D01*
G01X6106741Y-3460029D01*
G01X5950721Y-3304009D01*
G01X6031478Y-3304009D01*
G01X6031478Y-3325381D01*
G01X6035405Y-3346389D01*
G01X6043125Y-3366318D01*
G01X6054376Y-3384488D01*
G01X6068774Y-3400282D01*
G01X6085829Y-3413162D01*
G01X6104961Y-3422688D01*
G01X6125517Y-3428537D01*
G01X6146797Y-3430509D01*
G01X6146797Y-3430509D01*
G01X6168078Y-3428537D01*
G01X6188634Y-3422688D01*
G01X6207766Y-3413162D01*
G01X6224821Y-3400282D01*
G01X6239219Y-3384488D01*
G01X6250470Y-3366318D01*
G01X6258190Y-3346389D01*
G01X6262117Y-3325381D01*
G01X6262117Y-3304009D01*
G01X6258190Y-3283001D01*
G01X6250470Y-3263072D01*
G01X6239219Y-3244901D01*
G01X6224821Y-3229107D01*
G01X6207766Y-3216228D01*
G01X6188634Y-3206702D01*
G01X6168078Y-3200853D01*
G01X6146797Y-3198881D01*
G01X6125517Y-3200853D01*
G01X6104961Y-3206702D01*
G01X6085829Y-3216228D01*
G01X6068774Y-3229107D01*
G01X6054376Y-3244901D01*
G01X6043125Y-3263072D01*
G01X6035405Y-3283001D01*
G01X6031478Y-3304009D01*
G01X5950721Y-3304009D01*
G01X5696721Y-3050009D01*
G01X6031478Y-3050009D01*
G01X6031478Y-3071381D01*
G01X6035405Y-3092389D01*
G01X6043125Y-3112318D01*
G01X6054376Y-3130488D01*
G01X6068774Y-3146282D01*
G01X6085829Y-3159162D01*
G01X6104961Y-3168688D01*
G01X6125517Y-3174537D01*
G01X6146797Y-3176509D01*
G01X6146797Y-3176509D01*
G01X6168078Y-3174537D01*
G01X6188634Y-3168688D01*
G01X6207766Y-3159162D01*
G01X6224821Y-3146282D01*
G01X6239219Y-3130488D01*
G01X6250470Y-3112318D01*
G01X6258190Y-3092389D01*
G01X6262117Y-3071381D01*
G01X6262117Y-3050009D01*
G01X6258190Y-3029001D01*
G01X6250470Y-3009072D01*
G01X6239219Y-2990901D01*
G01X6224821Y-2975107D01*
G01X6207766Y-2962228D01*
G01X6188634Y-2952702D01*
G01X6168078Y-2946853D01*
G01X6146797Y-2944881D01*
G01X6125517Y-2946853D01*
G01X6104961Y-2952702D01*
G01X6085829Y-2962228D01*
G01X6068774Y-2975107D01*
G01X6054376Y-2990901D01*
G01X6043125Y-3009072D01*
G01X6035405Y-3029001D01*
G01X6031478Y-3050009D01*
G01X5696721Y-3050009D01*
G01X5513902Y-2867191D01*
G01X5514459Y-2852974D01*
G01X5511971Y-2838965D01*
G01X5506552Y-2825810D01*
G01X5498451Y-2814113D01*
G01X5488042Y-2804414D01*
G01X7039486Y-2804414D01*
G01X7039486Y-3043326D01*
G37*
G54D10*
G01X8917686Y-340614D02*
G01X8917686Y-9158986D01*
G01X99314Y-9158986D01*
G01X99314Y-340614D01*
G01X8917686Y-340614D01*
G01X116586Y-762000D02*
G03X823214Y-762000I353314J0D01*
G03X116586Y-762000I-353314J0D01*
G01X129286Y-8788400D02*
G03X835914Y-8788400I353314J0D01*
G03X129286Y-8788400I-353314J0D01*
G01X1132586Y-5549900D02*
G03X1181100Y-5598414I48514J0D01*
G01X1206647Y-5598414D01*
G03X1467417Y-5572516I126853J48514D01*
G03X1229614Y-5462418I-133917J22616D01*
G01X1229614Y-5129382D01*
G03X1469314Y-5041900I103886J87482D01*
G03X1229614Y-4954418I-135814J0D01*
G01X1229614Y-4367382D01*
G03X1460353Y-4328414I103886J87482D01*
G01X2400301Y-4328414D01*
G03X2448815Y-4279900I0J48514D01*
G01X2448815Y-3812824D01*
G01X2616876Y-3980885D01*
G03X2730040Y-4025440I66273J2336D01*
G03X2685485Y-3912276I-46891J46891D01*
G01X2508967Y-3735758D01*
G03X2355981Y-3588703I-108666J40057D01*
G03X2351787Y-3800864I44320J-106998D01*
G01X2351787Y-4231386D01*
G01X1460353Y-4231386D01*
G03X1206647Y-4231386I-126853J-48514D01*
G01X1181100Y-4231386D01*
G03X1132586Y-4279900I0J-48514D01*
G01X1132586Y-5549900D01*
G01X1333500Y-1096086D02*
G03X1333500Y-1367714I0J-135814D01*
G03X1333500Y-1096086I0J135814D01*
G01X1333500Y-1604086D02*
G03X1333500Y-1875714I0J-135814D01*
G03X1333500Y-1604086I0J135814D01*
G01X1333500Y-2874086D02*
G03X1333500Y-3145714I0J-135814D01*
G03X1333500Y-2874086I0J135814D01*
G01X1333500Y-3636086D02*
G03X1333500Y-3907714I0J-135814D01*
G03X1333500Y-3636086I0J135814D01*
G01X1333500Y-2366086D02*
G03X1333500Y-2637714I0J-135814D01*
G03X1333500Y-2366086I0J135814D01*
G01X1751087Y-6212586D02*
G01X1426140Y-6212586D01*
G03X1197686Y-6311900I-92640J-99314D01*
G03X1426140Y-6411214I135814J0D01*
G01X1850401Y-6411214D01*
G03X1888287Y-6403704I0J99314D01*
G01X1888287Y-6720586D01*
G01X1426140Y-6720586D01*
G03X1197686Y-6819900I-92640J-99314D01*
G03X1426140Y-6919214I135814J0D01*
G01X1987601Y-6919214D01*
G03X2086915Y-6819900I0J99314D01*
G01X2086915Y-5319130D01*
G03X2253299Y-5264021I59386J99429D01*
G03X2174616Y-5107402I-106998J44320D01*
G01X3184704Y-4097314D01*
G01X3338438Y-4097314D01*
G01X3340248Y-4097297D01*
G01X2365997Y-5071548D01*
G03X2351787Y-5105853I34305J-34305D01*
G01X2351787Y-5114538D01*
G03X2396056Y-5335437I48514J-105163D01*
G03X2456389Y-5118375I4245J115736D01*
G01X3609086Y-3965677D01*
G01X3609086Y-5121388D01*
G03X3684311Y-5334665I61215J-98313D01*
G03X3706114Y-5109564I-14010J114963D01*
G01X3706114Y-3947414D01*
G01X4042948Y-3947414D01*
G03X4002786Y-4058410I8352J-65786D01*
G01X4002786Y-5067300D01*
G03X4016995Y-5101605I48514J0D01*
G01X4224535Y-5309144D01*
G03X4178722Y-5310670I-20835J-62956D01*
G03X4144844Y-5341547I24978J-61430D01*
G01X3464815Y-5341547D01*
G01X3464815Y-5324864D01*
G03X3416301Y-5103887I-48514J105163D01*
G03X3367787Y-5324864I0J-115814D01*
G01X3367787Y-5390061D01*
G01X3367834Y-5392186D01*
G01X2956815Y-5392186D01*
G01X2956815Y-5324864D01*
G03X2908301Y-5103887I-48514J105163D01*
G03X2859787Y-5324864I0J-115814D01*
G01X2859787Y-5440700D01*
G03X2860805Y-5450586I48514J0D01*
G01X2702815Y-5450586D01*
G01X2702815Y-5324864D01*
G03X2654301Y-5103887I-48514J105163D01*
G03X2605787Y-5324864I0J-115814D01*
G01X2605787Y-5499100D01*
G03X2654301Y-5547614I48514J0D01*
G01X4107690Y-5547614D01*
G03X4183824Y-5557762I45210J48514D01*
G03X4218473Y-5489214I-30924J58662D01*
G01X4259076Y-5489214D01*
G01X3046982Y-6701308D01*
G03X2868043Y-6576443I-100582J46508D01*
G03X2992908Y-6755382I78357J-78357D01*
G01X2950237Y-6798053D01*
G03X2892562Y-7005656I-3837J-110747D01*
G03X3038432Y-6847076I53838J96856D01*
G01X4510498Y-5375010D01*
G03X4514134Y-5386757I112299J28315D01*
G01X4300712Y-5600179D01*
G03X4281648Y-5719663I17288J-64021D01*
G03X4383602Y-5654507I36352J55463D01*
G01X4582746Y-5455363D01*
G03X4726526Y-5398204I40051J108668D01*
G03X4685166Y-5249109I-103729J51509D01*
G01X4756205Y-5249109D01*
G03X4790510Y-5234899I0J48514D01*
G01X6066805Y-3958605D01*
G03X6081014Y-3924300I-34305J34305D01*
G01X6081014Y-3918012D01*
G03X6242777Y-3887508I65783J95317D01*
G03X6210633Y-3726062I-95980J64813D01*
G01X6783031Y-3153664D01*
G01X6970290Y-3153664D01*
G03X7039486Y-3166974I45210J48514D01*
G01X7039486Y-5779900D01*
G03X7072294Y-5859106I112014J0D01*
G01X7144209Y-5931020D01*
G03X7068502Y-5959196I-19509J-63380D01*
G03X7076186Y-6039610I56198J-35204D01*
G01X7076186Y-6568181D01*
G01X6251960Y-6568181D01*
G03X6030984Y-6616695I-105163J-48514D01*
G03X6251960Y-6665209I115814J0D01*
G01X7124700Y-6665209D01*
G03X7173214Y-6616695I0J48514D01*
G01X7173214Y-6039610D01*
G03X7188080Y-5974891I-48514J45210D01*
G01X7549988Y-6336800D01*
G03X7760300Y-6423914I133512J24900D01*
G01X8199047Y-6423914D01*
G01X8199047Y-7457186D01*
G01X7737276Y-7457186D01*
G03X7549685Y-7605114I-53776J-124714D01*
G03X7776140Y-7681214I133815J23214D01*
G01X8311061Y-7681214D01*
G03X8423075Y-7569200I0J112014D01*
G01X8423075Y-6311900D01*
G03X8311061Y-6199886I-112014J0D01*
G01X7760300Y-6199886D01*
G03X7708400Y-6178388I-76800J-112014D01*
G01X7263514Y-5733502D01*
G01X7263514Y-3213354D01*
G01X7412900Y-3213354D01*
G03X7448714Y-3177540I0J35814D01*
G01X7448714Y-3020060D01*
G03X7412900Y-2984246I-35814J0D01*
G01X7263514Y-2984246D01*
G01X7263514Y-2947027D01*
G03X7448714Y-2844800I64386J102227D01*
G03X7263514Y-2742573I-120814J0D01*
G01X7263514Y-2693027D01*
G03X7446864Y-2569742I64386J102227D01*
G03X7232335Y-2516886I-118964J-21058D01*
G01X6509510Y-2516886D01*
G03X6431103Y-2507993I-45210J-48514D01*
G03X6399701Y-2580386I33197J-57407D01*
G01X2146301Y-2580386D01*
G03X2034287Y-2692400I0J-112014D01*
G01X2034287Y-3666278D01*
G03X2146301Y-3811515I112014J-29423D01*
G03X2258315Y-3666278I0J115814D01*
G01X2258315Y-2804414D01*
G01X5408558Y-2804414D01*
G03X5431015Y-2921522I39742J-53086D01*
G01X6038131Y-3528638D01*
G03X6084427Y-3666279I108666J-40057D01*
G03X6074194Y-3674095I24072J-42121D01*
G01X5998195Y-3750094D01*
G03X5983986Y-3784399I34305J-34305D01*
G01X5983986Y-3904205D01*
G01X4736110Y-5152081D01*
G01X4722227Y-5152081D01*
G03X4614718Y-4977163I-99429J59386D01*
G03X4532602Y-5165342I8080J-115532D01*
G01X4386724Y-5311220D01*
G03X4363693Y-5289176I-56024J-35480D01*
G03X4333036Y-5280427I-32993J-57524D01*
G01X4099814Y-5047205D01*
G01X4099814Y-4058410D01*
G03X4059652Y-3947414I-48514J45210D01*
G01X4254544Y-3947414D01*
G01X4294886Y-3987756D01*
G01X4294886Y-4584695D01*
G03X4343400Y-4633209I48514J0D01*
G01X4517635Y-4633209D01*
G03X4738611Y-4584695I105163J48514D01*
G03X4517635Y-4536181I-115814J0D01*
G01X4391914Y-4536181D01*
G01X4391914Y-4395299D01*
G03X4452115Y-4379209I14986J64599D01*
G01X4517635Y-4379209D01*
G03X4738611Y-4330695I105163J48514D01*
G03X4517635Y-4282181I-115814J0D01*
G01X4452105Y-4282181D01*
G03X4391914Y-4266101I-45205J-48519D01*
G01X4391914Y-3967661D01*
G03X4377705Y-3933356I-48514J0D01*
G01X4315563Y-3871214D01*
G01X4434586Y-3871214D01*
G01X4434586Y-4076695D01*
G03X4483100Y-4125209I48514J0D01*
G01X4517635Y-4125209D01*
G03X4737832Y-4090105I105163J48514D01*
G03X4531614Y-4005292I-115035J13410D01*
G01X4531614Y-3894098D01*
G03X4737030Y-3803624I91183J71403D01*
G03X4513365Y-3784783I-114233J-19071D01*
G03X4483100Y-3774186I-30265J-37917D01*
G01X4040115Y-3774186D01*
G01X4040115Y-3615701D01*
G03X4004301Y-3579887I-35814J0D01*
G01X3844301Y-3579887D01*
G03X3808487Y-3615701I0J-35814D01*
G01X3808487Y-3774186D01*
G01X3755466Y-3774186D01*
G03X3753907Y-3615559I-85165J78485D01*
G03X3595488Y-3607294I-83606J-80143D01*
G03X3570511Y-3625476I45249J-88407D01*
G01X3528601Y-3667386D01*
G03X3416189Y-3579887I-112299J-28315D01*
G03X3303947Y-3667604I112J-115814D01*
G01X3278093Y-3693458D01*
G03X3126720Y-3585489I-115792J-2243D01*
G03X3067057Y-3761590I35581J-110213D01*
G03X3001372Y-3790574I4541J-99210D01*
G01X1780176Y-5011770D01*
G03X1751087Y-5081996I70226J-70226D01*
G01X1751087Y-6212586D01*
G01X1460353Y-7533386D02*
G03X1197686Y-7581900I-126853J-48514D01*
G03X1460353Y-7630414I135814J0D01*
G01X2641592Y-7630414D01*
G03X2675897Y-7616205I0J48514D01*
G01X4582741Y-5709361D01*
G03X4704690Y-5518802I40057J108666D01*
G03X4514131Y-5640752I-81893J-81893D01*
G01X2621497Y-7533386D01*
G01X1460353Y-7533386D01*
G01X2468904Y-8041386D02*
G01X1460353Y-8041386D01*
G03X1197686Y-8089900I-126853J-48514D01*
G03X1460353Y-8138414I135814J0D01*
G01X2488999Y-8138414D01*
G03X2523303Y-8124205I0J48514D01*
G01X4510498Y-6137010D01*
G03X4704690Y-6190588I112299J28315D01*
G03X4651112Y-5996396I-81893J81893D01*
G01X4657102Y-5990406D01*
G03X4671160Y-5959927I-34305J34305D01*
G03X4631648Y-5739220I-48363J105232D01*
G03X4558962Y-5951328I-8851J-115475D01*
G01X2468904Y-8041386D01*
G01X2262114Y-2171700D02*
G03X2030486Y-2171700I-115814J0D01*
G03X2262114Y-2171700I115814J0D01*
G01X2516114Y-2171700D02*
G03X2284486Y-2171700I-115814J0D01*
G03X2516114Y-2171700I115814J0D01*
G01X2770114Y-2171700D02*
G03X2538486Y-2171700I-115814J0D01*
G03X2770114Y-2171700I115814J0D01*
G01X2770115Y-3695701D02*
G03X2538487Y-3695701I-115814J0D01*
G03X2770115Y-3695701I115814J0D01*
G01X3024114Y-2171700D02*
G03X2792486Y-2171700I-115814J0D01*
G03X3024114Y-2171700I115814J0D01*
G01X3024115Y-3695701D02*
G03X2792487Y-3695701I-115814J0D01*
G03X3024115Y-3695701I115814J0D01*
G01X3113786Y-2066537D02*
G03X3162300Y-2287514I48514J-105163D01*
G03X3210814Y-2066537I0J115814D01*
G01X3210814Y-1736214D01*
G01X7250287Y-1736214D01*
G03X7208545Y-1810084I77613J-92586D01*
G03X7225673Y-1893186I119355J-18716D01*
G01X3416300Y-1893186D01*
G03X3367786Y-1941700I0J-48514D01*
G01X3367786Y-2066537D01*
G03X3416300Y-2287514I48514J-105163D01*
G03X3464814Y-2066537I0J115814D01*
G01X3464814Y-1990214D01*
G01X7250287Y-1990214D01*
G03X7212517Y-2046986I77613J-92586D01*
G01X6585710Y-2046986D01*
G03X6474186Y-2095500I-45210J-48514D01*
G03X6585710Y-2144014I66314J0D01*
G01X7223742Y-2144014D01*
G03X7409563Y-2171834I104158J61214D01*
G03X7397865Y-1984307I-81663J89034D01*
G03X7408969Y-1976005I-23200J42607D01*
G01X7583860Y-1801114D01*
G01X8207855Y-1801114D01*
G03X8283056Y-1868098I110645J48514D01*
G03X8382886Y-1854827I35444J115498D01*
G01X8382886Y-1904373D01*
G03X8203002Y-2042044I-64386J-102227D01*
G03X8429145Y-2055114I115498J35444D01*
G01X8431400Y-2055114D01*
G03X8479914Y-2006600I0J48514D01*
G01X8479914Y-1639700D01*
G03X8431400Y-1591186I-48514J0D01*
G01X8396113Y-1591186D01*
G03X8318500Y-1377786I-77613J92586D01*
G03X8240887Y-1591186I0J-120814D01*
G01X7447597Y-1591186D01*
G03X7302360Y-1456717I-119697J16386D01*
G03X7225673Y-1639186I25540J-118083D01*
G01X3162300Y-1639186D01*
G03X3113786Y-1687700I0J-48514D01*
G01X3113786Y-2066537D01*
G01X3278115Y-5219701D02*
G03X3046487Y-5219701I-115814J0D01*
G03X3278115Y-5219701I115814J0D01*
G01X3786114Y-2171700D02*
G03X3554486Y-2171700I-115814J0D01*
G03X3786114Y-2171700I115814J0D01*
G01X4040114Y-2091700D02*
G03X4004300Y-2055886I-35814J0D01*
G01X3844300Y-2055886D01*
G03X3808486Y-2091700I0J-35814D01*
G01X3808486Y-2251700D01*
G03X3844300Y-2287514I35814J0D01*
G01X4004300Y-2287514D01*
G03X4040114Y-2251700I0J35814D01*
G01X4040114Y-2220214D01*
G01X5399786Y-2220214D01*
G01X5399786Y-2418590D01*
G03X5448300Y-2530114I48514J-45210D01*
G03X5496814Y-2418590I0J66314D01*
G01X5496814Y-2171700D01*
G03X5448300Y-2123186I-48514J0D01*
G01X4040114Y-2123186D01*
G01X4040114Y-2091700D01*
G01X3875787Y-5103887D02*
G01X3844301Y-5103887D01*
G03X3808487Y-5139701I0J-35814D01*
G01X3808487Y-5299701D01*
G03X3844301Y-5335515I35814J0D01*
G01X4004301Y-5335515D01*
G03X4040115Y-5299701I0J35814D01*
G01X4040115Y-5139701D01*
G03X4004301Y-5103887I-35814J0D01*
G01X3972815Y-5103887D01*
G01X3972815Y-4706110D01*
G03X3924301Y-4594586I-48514J45210D01*
G03X3875787Y-4706110I0J-66314D01*
G01X3875787Y-5103887D01*
G01X4398109Y-5063391D02*
G03X4511273Y-5018836I46891J46891D01*
G01X4582746Y-4947363D01*
G03X4704686Y-4756798I40051J108668D01*
G03X4514134Y-4878757I-81889J-81897D01*
G01X4442664Y-4950227D01*
G03X4398109Y-5063391I2336J-66273D01*
G01X4622797Y-3684509D02*
G03X4622797Y-3452881I0J115814D01*
G03X4622797Y-3684509I0J-115814D01*
G01X4622797Y-3430509D02*
G03X4622797Y-3198881I0J115814D01*
G03X4622797Y-3430509I0J-115814D01*
G01X4622797Y-8002509D02*
G03X4622797Y-7770881I0J115814D01*
G03X4622797Y-8002509I0J-115814D01*
G01X4622797Y-6986509D02*
G03X4622797Y-6754881I0J115814D01*
G03X4622797Y-6986509I0J-115814D01*
G01X4622797Y-6732509D02*
G03X4622797Y-6500881I0J115814D01*
G03X4622797Y-6732509I0J-115814D01*
G01X4622797Y-6478509D02*
G03X4622797Y-6246881I0J115814D01*
G03X4622797Y-6478509I0J-115814D01*
G01X4622797Y-7494509D02*
G03X4622797Y-7262881I0J115814D01*
G03X4622797Y-7494509I0J-115814D01*
G01X4622797Y-7240509D02*
G03X4622797Y-7008881I0J115814D01*
G03X4622797Y-7240509I0J-115814D01*
G01X4622797Y-7748509D02*
G03X4622797Y-7516881I0J115814D01*
G03X4622797Y-7748509I0J-115814D01*
G01X4622797Y-3176509D02*
G03X4622797Y-2944881I0J115814D01*
G03X4622797Y-3176509I0J-115814D01*
G01X6231956Y-4155186D02*
G03X6146797Y-3960881I-85159J78491D01*
G03X6061639Y-4155186I0J-115814D01*
G01X5988810Y-4155186D01*
G03X5877286Y-4203700I-45210J-48514D01*
G03X5988810Y-4252214I66314J0D01*
G01X6061629Y-4252214D01*
G03X6146797Y-4446509I85168J-78481D01*
G03X6231965Y-4252214I0J115814D01*
G01X6896100Y-4252214D01*
G03X6944614Y-4203700I0J48514D01*
G01X6944614Y-3829810D01*
G03X6896100Y-3718286I-48514J45210D01*
G03X6847586Y-3829810I0J-66314D01*
G01X6847586Y-4155186D01*
G01X6231956Y-4155186D01*
G01X6146797Y-8002509D02*
G03X6146797Y-7770881I0J115814D01*
G03X6146797Y-8002509I0J-115814D01*
G01X6146797Y-6224509D02*
G03X6146797Y-5992881I0J115814D01*
G03X6146797Y-6224509I0J-115814D01*
G01X6146797Y-6986509D02*
G03X6146797Y-6754881I0J115814D01*
G03X6146797Y-6986509I0J-115814D01*
G01X6987814Y-6362700D02*
G03X6876290Y-6314186I-66314J0D01*
G01X6251963Y-6314186D01*
G03X6030984Y-6362689I-105165J-48509D01*
G03X6251958Y-6411214I115814J-6D01*
G01X6876290Y-6411214D01*
G03X6987814Y-6362700I45210J48514D01*
G01X6146797Y-7494509D02*
G03X6146797Y-7262881I0J115814D01*
G03X6146797Y-7494509I0J-115814D01*
G01X6146797Y-7240509D02*
G03X6146797Y-7008881I0J115814D01*
G03X6146797Y-7240509I0J-115814D01*
G01X6146797Y-7748509D02*
G03X6146797Y-7516881I0J115814D01*
G03X6146797Y-7748509I0J-115814D01*
G01X6146797Y-4700509D02*
G03X6146797Y-4468881I0J115814D01*
G03X6146797Y-4700509I0J-115814D01*
G01X6146797Y-5208509D02*
G03X6146797Y-4976881I0J115814D01*
G03X6146797Y-5208509I0J-115814D01*
G01X6146797Y-4954509D02*
G03X6146797Y-4722881I0J115814D01*
G03X6146797Y-4954509I0J-115814D01*
G01X6146797Y-5716509D02*
G03X6146797Y-5484881I0J115814D01*
G03X6146797Y-5716509I0J-115814D01*
G01X6146797Y-5462509D02*
G03X6146797Y-5230881I0J115814D01*
G03X6146797Y-5462509I0J-115814D01*
G01X6146797Y-5970509D02*
G03X6146797Y-5738881I0J115814D01*
G03X6146797Y-5970509I0J-115814D01*
G01X6309086Y-2349500D02*
G03X6420610Y-2398014I66314J0D01*
G01X7223742Y-2398014D01*
G03X7447913Y-2322915I104158J61214D01*
G03X7212517Y-2300986I-120013J-13885D01*
G01X6420610Y-2300986D01*
G03X6309086Y-2349500I-45210J-48514D01*
G01X7327900Y-933614D02*
G03X7327900Y-691986I0J120814D01*
G03X7327900Y-933614I0J-120814D01*
G01X7327900Y-1187614D02*
G03X7327900Y-945986I0J120814D01*
G03X7327900Y-1187614I0J-120814D01*
G01X7327900Y-1441614D02*
G03X7327900Y-1199986I0J120814D01*
G03X7327900Y-1441614I0J-120814D01*
G01X7683500Y-4879086D02*
G03X7683500Y-5204714I0J-162814D01*
G01X8026400Y-5204714D01*
G03X8189214Y-5041900I0J162814D01*
G01X8189214Y-4114800D01*
G03X8141527Y-3999673I-162814J0D01*
G01X7798627Y-3656773D01*
G03X7568373Y-3887027I-115127J-115127D01*
G01X7863586Y-4182240D01*
G01X7863586Y-4879086D01*
G01X7683500Y-4879086D01*
G01X7683500Y-8225714D02*
G03X7683500Y-7954086I0J135814D01*
G03X7683500Y-8225714I0J-135814D01*
G01X7683500Y-6955714D02*
G03X7683500Y-6684086I0J135814D01*
G03X7683500Y-6955714I0J-135814D01*
G01X7683500Y-4415714D02*
G03X7683500Y-4144086I0J135814D01*
G03X7683500Y-4415714I0J-135814D01*
G01X7683500Y-5685714D02*
G03X7683500Y-5414086I0J135814D01*
G03X7683500Y-5685714I0J-135814D01*
G01X8193786Y-711200D02*
G03X8900414Y-711200I353314J0D01*
G03X8193786Y-711200I-353314J0D01*
G01X8193786Y-8750300D02*
G03X8900414Y-8750300I353314J0D01*
G03X8193786Y-8750300I-353314J0D01*
G01X8197686Y-1329600D02*
G03X8233500Y-1365414I35814J0D01*
G01X8403500Y-1365414D01*
G03X8439314Y-1329600I0J35814D01*
G01X8439314Y-1159600D01*
G03X8403500Y-1123786I-35814J0D01*
G01X8233500Y-1123786D01*
G03X8197686Y-1159600I0J-35814D01*
G01X8197686Y-1329600D01*
G01X8439314Y-3102700D02*
G03X8403500Y-3066886I-35814J0D01*
G01X8233500Y-3066886D01*
G03X8197686Y-3102700I0J-35814D01*
G01X8197686Y-3272700D01*
G03X8233500Y-3308514I35814J0D01*
G01X8403500Y-3308514D01*
G03X8439314Y-3272700I0J35814D01*
G01X8439314Y-3102700D01*
G01X8318500Y-3054514D02*
G03X8318500Y-2812886I0J120814D01*
G03X8318500Y-3054514I0J-120814D01*
G01X8318500Y-2546514D02*
G03X8318500Y-2304886I0J120814D01*
G03X8318500Y-2546514I0J-120814D01*
G01X8318500Y-2800514D02*
G03X8318500Y-2558886I0J120814D01*
G03X8318500Y-2800514I0J-120814D01*
G01X7039486Y-3043326D02*
G03X6970290Y-3056636I-23986J-61824D01*
G01X6762936Y-3056636D01*
G03X6728631Y-3070845I0J-48514D01*
G01X6259097Y-3540380D01*
G03X6106741Y-3460029I-112299J-28315D01*
G01X5513902Y-2867191D01*
G03X5488042Y-2804414I-65602J9691D01*
G01X7039486Y-2804414D01*
G01X7039486Y-3043326D01*
G01X6146797Y-3430509D02*
G03X6146797Y-3198881I0J115814D01*
G03X6146797Y-3430509I0J-115814D01*
G01X6146797Y-3176509D02*
G03X6146797Y-2944881I0J115814D01*
G03X6146797Y-3176509I0J-115814D01*
G54D11*
G01X469900Y-762000D02*
G01X126746Y-762000D01*
G01X469900Y-762000D02*
G01X813054Y-762000D01*
G01X469900Y-762000D02*
G01X469900Y-418846D01*
G01X469900Y-762000D02*
G01X469900Y-1105154D01*
G01X482600Y-8788400D02*
G01X139446Y-8788400D01*
G01X482600Y-8788400D02*
G01X825754Y-8788400D01*
G01X482600Y-8788400D02*
G01X482600Y-8445246D01*
G01X482600Y-8788400D02*
G01X482600Y-9131554D01*
G01X1333500Y-3771900D02*
G01X1333500Y-3646246D01*
G01X1333500Y-3771900D02*
G01X1333500Y-3897554D01*
G01X1333500Y-3771900D02*
G01X1459154Y-3771900D01*
G01X1333500Y-3771900D02*
G01X1207846Y-3771900D01*
G01X1333500Y-5041900D02*
G01X1333500Y-4916246D01*
G01X1333500Y-5041900D02*
G01X1333500Y-5167554D01*
G01X1333500Y-5041900D02*
G01X1459154Y-5041900D01*
G01X2146301Y-5219701D02*
G01X2251955Y-5219701D01*
G01X2146301Y-5219701D02*
G01X2146301Y-5325355D01*
G01X2654301Y-3695701D02*
G01X2759955Y-3695701D01*
G01X2654301Y-3695701D02*
G01X2548647Y-3695701D01*
G01X2654301Y-3695701D02*
G01X2654301Y-3801355D01*
G01X2654301Y-3695701D02*
G01X2654301Y-3590047D01*
G01X2946400Y-6654800D02*
G01X2946400Y-6554146D01*
G01X2946400Y-6654800D02*
G01X2946400Y-6755454D01*
G01X2946400Y-6654800D02*
G01X3047054Y-6654800D01*
G01X2946400Y-6654800D02*
G01X2845746Y-6654800D01*
G01X3670300Y-2171700D02*
G01X3775954Y-2171700D01*
G01X3670300Y-2171700D02*
G01X3564646Y-2171700D01*
G01X3670300Y-2171700D02*
G01X3670300Y-2277354D01*
G01X3670300Y-2171700D02*
G01X3670300Y-2066046D01*
G01X3924301Y-3695701D02*
G01X4029955Y-3695701D01*
G01X3924301Y-3695701D02*
G01X3818647Y-3695701D01*
G01X3924301Y-3695701D02*
G01X3924301Y-3590047D01*
G01X8547100Y-711200D02*
G01X8203946Y-711200D01*
G01X8547100Y-711200D02*
G01X8890254Y-711200D01*
G01X8547100Y-711200D02*
G01X8547100Y-368046D01*
G01X8547100Y-711200D02*
G01X8547100Y-1054354D01*
G01X8318500Y-2933700D02*
G01X8318500Y-3044354D01*
G01X8318500Y-2933700D02*
G01X8318500Y-2823046D01*
G01X8318500Y-2933700D02*
G01X8207846Y-2933700D01*
G01X8318500Y-2933700D02*
G01X8429154Y-2933700D01*
G01X8547100Y-8750300D02*
G01X8203946Y-8750300D01*
G01X8547100Y-8750300D02*
G01X8890254Y-8750300D01*
G01X8547100Y-8750300D02*
G01X8547100Y-8407146D01*
G01X8547100Y-8750300D02*
G01X8547100Y-9093454D01*
G01X7683500Y-8089900D02*
G01X7683500Y-8215554D01*
G01X7683500Y-8089900D02*
G01X7683500Y-7964246D01*
G01X7683500Y-8089900D02*
G01X7557846Y-8089900D01*
G01X7683500Y-8089900D02*
G01X7809154Y-8089900D01*
G01X7683500Y-6819900D02*
G01X7683500Y-6945554D01*
G01X7683500Y-6819900D02*
G01X7683500Y-6694246D01*
G01X7683500Y-6819900D02*
G01X7557846Y-6819900D01*
G01X7683500Y-6819900D02*
G01X7809154Y-6819900D01*
G01X7683500Y-5549900D02*
G01X7683500Y-5675554D01*
G01X7683500Y-5549900D02*
G01X7683500Y-5424246D01*
G01X7683500Y-5549900D02*
G01X7557846Y-5549900D01*
G01X7683500Y-5549900D02*
G01X7809154Y-5549900D01*
G01X7683500Y-4279900D02*
G01X7683500Y-4405554D01*
G01X7683500Y-4279900D02*
G01X7683500Y-4154246D01*
G01X7683500Y-4279900D02*
G01X7557846Y-4279900D01*
G01X7683500Y-4279900D02*
G01X7809154Y-4279900D01*
G01X7327900Y-2844800D02*
G01X7327900Y-2955454D01*
G01X7327900Y-2844800D02*
G01X7327900Y-2734146D01*
G01X7327900Y-2844800D02*
G01X7438554Y-2844800D01*
G01X8318500Y-1498600D02*
G01X8318500Y-1387946D01*
G01X8318500Y-1498600D02*
G01X8429154Y-1498600D01*
G01X8318500Y-1498600D02*
G01X8207846Y-1498600D01*
G01X6146797Y-3314695D02*
G01X6146797Y-3420349D01*
G01X6146797Y-3314695D02*
G01X6146797Y-3209041D01*
G01X6146797Y-3314695D02*
G01X6041144Y-3314695D01*
G01X6146797Y-3314695D02*
G01X6252451Y-3314695D01*
G04 Copper End*

G04 Pad Start*
G54D12*
G01X469900Y-762000D03*
G01X8547100Y-711200D03*
G01X482600Y-8788400D03*
G01X8547100Y-8750300D03*
G54D13*
G01X8318500Y-3187700D03*
G54D14*
G01X8318500Y-2933700D03*
G01X8318500Y-2679700D03*
G01X8318500Y-2425700D03*
G54D15*
G01X7683500Y-6819900D03*
G01X7683500Y-6311900D03*
G01X7683500Y-8089900D03*
G01X7683500Y-7581900D03*
G01X1333500Y-5041900D03*
G01X1333500Y-5549900D03*
G54D16*
G01X3924301Y-3695701D03*
G54D17*
G01X3670301Y-3695701D03*
G01X3416301Y-3695701D03*
G01X3162301Y-3695701D03*
G01X2908301Y-3695701D03*
G01X2654301Y-3695701D03*
G01X2400301Y-3695701D03*
G01X2146301Y-3695701D03*
G54D16*
G01X3924301Y-5219701D03*
G54D17*
G01X3670301Y-5219701D03*
G01X3416301Y-5219701D03*
G01X3162301Y-5219701D03*
G01X2908301Y-5219701D03*
G01X2654301Y-5219701D03*
G01X2400301Y-5219701D03*
G01X2146301Y-5219701D03*
G54D15*
G01X1333500Y-7581900D03*
G01X1333500Y-8089900D03*
G01X1333500Y-6311900D03*
G01X1333500Y-6819900D03*
G01X7683500Y-4279900D03*
G01X7683500Y-3771900D03*
G01X1333500Y-1231900D03*
G01X1333500Y-1739900D03*
G01X1333500Y-2501900D03*
G01X1333500Y-3009900D03*
G01X1333500Y-3771900D03*
G01X1333500Y-4279900D03*
G54D16*
G01X3924300Y-2171700D03*
G54D17*
G01X3670300Y-2171700D03*
G01X3416300Y-2171700D03*
G01X3162300Y-2171700D03*
G01X2908300Y-2171700D03*
G01X2654300Y-2171700D03*
G01X2400300Y-2171700D03*
G01X2146300Y-2171700D03*
G01X6146797Y-7886695D03*
G01X6146797Y-7632695D03*
G01X6146797Y-7378695D03*
G01X6146797Y-7124695D03*
G01X6146797Y-6870695D03*
G01X6146797Y-6616695D03*
G01X6146797Y-6362695D03*
G01X6146797Y-6108695D03*
G01X6146797Y-5854695D03*
G01X6146797Y-5600695D03*
G01X6146797Y-5346695D03*
G01X6146797Y-5092695D03*
G01X6146797Y-4838695D03*
G01X6146797Y-4584695D03*
G01X6146797Y-4330695D03*
G01X6146797Y-4076695D03*
G01X6146797Y-3822695D03*
G01X6146797Y-3568695D03*
G01X6146797Y-3314695D03*
G01X6146797Y-3060695D03*
G01X4622797Y-3060695D03*
G01X4622797Y-3314695D03*
G01X4622797Y-3568695D03*
G01X4622797Y-3822695D03*
G01X4622797Y-4076695D03*
G01X4622797Y-4330695D03*
G01X4622797Y-4584695D03*
G01X4622797Y-4838695D03*
G01X4622797Y-5092695D03*
G01X4622797Y-5346695D03*
G01X4622797Y-5600695D03*
G01X4622797Y-5854695D03*
G01X4622797Y-6108695D03*
G01X4622797Y-6362695D03*
G01X4622797Y-6616695D03*
G01X4622797Y-6870695D03*
G01X4622797Y-7124695D03*
G01X4622797Y-7378695D03*
G01X4622797Y-7632695D03*
G01X4622797Y-7886695D03*
G54D15*
G01X7683500Y-5549900D03*
G01X7683500Y-5041900D03*
G54D13*
G01X8318500Y-1244600D03*
G54D14*
G01X8318500Y-1498600D03*
G01X8318500Y-1752600D03*
G01X8318500Y-2006600D03*
G01X7327900Y-812800D03*
G01X7327900Y-1066800D03*
G01X7327900Y-1320800D03*
G01X7327900Y-1574800D03*
G01X7327900Y-1828800D03*
G01X7327900Y-2082800D03*
G01X7327900Y-2336800D03*
G01X7327900Y-2590800D03*
G01X7327900Y-2844800D03*
G54D18*
G01X7327900Y-3098800D03*
G54D20*
G01X2946400Y-6654800D03*
G01X2946400Y-6908800D03*
G04 Pad End*

G04 Via Start*
G54D21*
G01X2683149Y-3978549D03*
G01X7015500Y-3105150D03*
G01X5448300Y-2857500D03*
G01X5448300Y-2463800D03*
G01X4051300Y-4013200D03*
G01X4330700Y-5346700D03*
G01X4152900Y-5499100D03*
G01X4318000Y-5664200D03*
G01X4203700Y-5372100D03*
G01X4445000Y-5016500D03*
G01X3924301Y-4660900D03*
G01X4406900Y-4330700D03*
G01X6540500Y-2095500D03*
G01X6375400Y-2349500D03*
G01X6464300Y-2565400D03*
G01X6921500Y-6362700D03*
G01X7124700Y-5994400D03*
G01X6896100Y-3784600D03*
G01X5943600Y-4203700D03*
G04 Via End*

G04 Track Start*
G54D22*
G01X2146301Y-3695701D02*
G01X2146301Y-2692400D01*
G01X7696200Y-7569200D02*
G01X7683500Y-7581900D01*
G01X7683500Y-6311900D02*
G01X8311061Y-6311900D01*
G01X8311061Y-7569200D01*
G01X7696200Y-7569200D01*
G54D23*
G01X3416301Y-3695701D02*
G01X3251203Y-3860800D01*
G54D24*
G01X7683500Y-3771900D02*
G01X8026400Y-4114800D01*
G01X8026400Y-5041900D01*
G01X7683500Y-5041900D01*
G54D11*
G01X1333500Y-7581900D02*
G01X2641592Y-7581900D01*
G01X4622797Y-5600695D01*
G01X2400301Y-3695701D02*
G01X2683149Y-3978549D01*
G01X2946400Y-6870499D02*
G01X2946400Y-6908800D01*
G01X4616304Y-5200595D02*
G01X2946400Y-6870499D01*
G01X6146797Y-3568695D02*
G01X5448300Y-2870197D01*
G01X5448300Y-2857500D01*
G01X4325853Y-5440700D02*
G01X4622797Y-5143756D01*
G01X4622797Y-5092695D01*
G01X2908301Y-5219701D02*
G01X2908301Y-5440700D01*
G01X4325853Y-5440700D01*
G01X4330700Y-5346700D02*
G01X4051300Y-5067300D01*
G01X4051300Y-4013200D01*
G01X2654301Y-5219701D02*
G01X2654301Y-5499100D01*
G01X4152900Y-5499100D01*
G01X4343400Y-3967661D02*
G01X4343400Y-4584695D01*
G01X4622797Y-4584695D01*
G01X3924301Y-5219701D02*
G01X3924301Y-4660900D01*
G01X4445000Y-5016500D02*
G01X4622797Y-4838703D01*
G01X4185739Y-5390061D02*
G01X4203700Y-5372100D01*
G01X3416301Y-5219701D02*
G01X3416301Y-5390061D01*
G01X4185739Y-5390061D01*
G01X4406905Y-4330695D02*
G01X4622797Y-4330695D01*
G01X6159686Y-3708400D02*
G01X6108499Y-3708400D01*
G01X4756205Y-5200595D02*
G01X4616304Y-5200595D01*
G01X6108499Y-3708400D02*
G01X6032500Y-3784399D01*
G01X6032500Y-3924300D01*
G01X4756205Y-5200595D01*
G54D22*
G01X7151500Y-5779900D02*
G01X7683500Y-6311900D01*
G01X2146301Y-2692400D02*
G01X7151500Y-2692400D01*
G01X7151500Y-5779900D01*
G54D11*
G01X6540500Y-2095500D02*
G01X7315200Y-2095500D01*
G01X7327900Y-2082800D01*
G01X6921500Y-6362700D02*
G01X6146803Y-6362700D01*
G01X6464300Y-2565400D02*
G01X7302500Y-2565400D01*
G01X7327900Y-2590800D01*
G01X6375400Y-2349500D02*
G01X7315200Y-2349500D01*
G01X7327900Y-2336800D01*
G01X6896100Y-3784600D02*
G01X6896100Y-4203700D01*
G01X5943600Y-4203700D01*
G01X6146797Y-6616695D02*
G01X7124700Y-6616695D01*
G01X7124700Y-5994400D01*
G01X1333500Y-8089900D02*
G01X2488999Y-8089900D01*
G01X4622797Y-5956101D01*
G01X4622797Y-5854695D01*
G01X3416300Y-1941700D02*
G01X3416300Y-2171700D01*
G01X8318500Y-2006600D02*
G01X8431400Y-2006600D01*
G01X8431400Y-1639700D01*
G01X3162300Y-1687700D02*
G01X3162300Y-2171700D01*
G01X8431400Y-1639700D02*
G01X7422665Y-1639700D01*
G01X7374665Y-1687700D01*
G01X3162300Y-1687700D01*
G01X8318500Y-1752600D02*
G01X7563765Y-1752600D01*
G01X7374665Y-1941700D01*
G01X3416300Y-1941700D01*
G01X7015500Y-3105150D02*
G01X6762936Y-3105150D01*
G01X6159686Y-3708400D01*
G01X4318000Y-5664200D02*
G01X4318000Y-5651500D01*
G01X4622797Y-5346703D01*
G01X1181100Y-4279900D02*
G01X1333500Y-4279900D01*
G01X1333500Y-5549900D02*
G01X1181100Y-5549900D01*
G01X1181100Y-4279900D01*
G01X1333500Y-4279900D02*
G01X2400301Y-4279900D01*
G01X2400301Y-3695701D01*
G54D23*
G01X1333500Y-6819900D02*
G01X1987601Y-6819900D01*
G01X1987601Y-5153966D01*
G01X3143567Y-3998000D01*
G01X1850401Y-6311900D02*
G01X1333500Y-6311900D01*
G01X3251203Y-3860800D02*
G01X3071597Y-3860800D01*
G01X1850401Y-5081996D01*
G01X1850401Y-6311900D01*
G01X3143567Y-3998000D02*
G01X3338438Y-3998000D01*
G01X3640737Y-3695701D01*
G01X3670301Y-3695701D01*
G54D11*
G01X3670301Y-5219701D02*
G01X3657600Y-5207000D01*
G01X4274639Y-3898900D02*
G01X4343400Y-3967661D01*
G01X3657600Y-5207000D02*
G01X3657600Y-3898900D01*
G01X4274639Y-3898900D01*
G01X4483100Y-4076695D02*
G01X4622797Y-4076695D01*
G01X4483100Y-3822700D02*
G01X4483100Y-4076695D01*
G01X2400301Y-5219701D02*
G01X2400301Y-5105853D01*
G01X3683454Y-3822700D01*
G01X4483100Y-3822700D01*
G01X5448300Y-2463800D02*
G01X5448300Y-2171700D01*
G01X3924300Y-2171700D01*
G04 Track End*

M02*

